ISO-10303-21;
HEADER;
FILE_DESCRIPTION (( 'STEP AP203' ),
    '1' );
FILE_NAME ('MagnetiSpringGetti.STEP',
    '2026-04-27T20:04:59',
    ( '' ),
    ( '' ),
    'SwSTEP 2.0',
    'SolidWorks 2025',
    '' );
FILE_SCHEMA (( 'CONFIG_CONTROL_DESIGN' ));
ENDSEC;

DATA;
#1 = DIRECTION ( 'NONE',  ( -0.000000000000000000, 1.000000000000000000, -1.376454118767770729E-16 ) ) ;
#2 = EDGE_CURVE ( 'NONE', #358, #393, #910, .T. ) ;
#3 = ORIENTED_EDGE ( 'NONE', *, *, #1336, .T. ) ;
#4 = PLANE ( 'NONE',  #448 ) ;
#5 = CARTESIAN_POINT ( 'NONE',  ( -7.395570986446962138E-33, -0.2000000000000019262, 2.417125823893809102E-17 ) ) ;
#6 = ORIENTED_EDGE ( 'NONE', *, *, #1165, .T. ) ;
#7 = PLANE ( 'NONE',  #841 ) ;
#8 = CIRCLE ( 'NONE', #713, 4.594851000000000241 ) ;
#9 = EDGE_CURVE ( 'NONE', #393, #482, #1019, .T. ) ;
#10 = ORIENTED_EDGE ( 'NONE', *, *, #650, .F. ) ;
#11 = PLANE ( 'NONE',  #646 ) ;
#12 = APPLICATION_CONTEXT ( 'configuration controlled 3d designs of mechanical parts and assemblies' ) ;
#13 = PERSON_AND_ORGANIZATION ( #944, #1270 ) ;
#14 = DIRECTION ( 'NONE',  ( 1.000000000000000000, 0.000000000000000000, 0.000000000000000000 ) ) ;
#15 = VECTOR ( 'NONE', #1212, 1000.000000000000000 ) ;
#16 = ORIENTED_EDGE ( 'NONE', *, *, #548, .F. ) ;
#17 = DIRECTION ( 'NONE',  ( -0.000000000000000000, 1.000000000000000000, -1.734723475976807094E-16 ) ) ;
#18 = ADVANCED_FACE ( 'NONE', ( #166 ), #161, .T. ) ;
#19 = ORIENTED_EDGE ( 'NONE', *, *, #1023, .T. ) ;
#20 = CARTESIAN_POINT ( 'NONE',  ( 0.7999999999999999334, 1.999999999999999112, 0.000000000000000000 ) ) ;
#21 = DESIGN_CONTEXT ( 'detailed design', #1009, 'design' ) ;
#22 = EDGE_CURVE ( 'NONE', #156, #44, #378, .T. ) ;
#23 = DIRECTION ( 'NONE',  ( -0.000000000000000000, 1.000000000000000000, -1.734723475976807094E-16 ) ) ;
#24 = APPLICATION_PROTOCOL_DEFINITION ( 'international standard', 'config_control_design', 1994, #1009 ) ;
#25 = VERTEX_POINT ( 'NONE', #383 ) ;
#26 = PLANE ( 'NONE',  #748 ) ;
#27 = ORIENTED_EDGE ( 'NONE', *, *, #634, .F. ) ;
#28 = VECTOR ( 'NONE', #379, 1000.000000000000000 ) ;
#29 = PRODUCT_DEFINITION_FORMATION_WITH_SPECIFIED_SOURCE ( 'ANY', '', #545, .NOT_KNOWN. ) ;
#30 = DIRECTION ( 'NONE',  ( 0.000000000000000000, 0.000000000000000000, 1.000000000000000000 ) ) ;
#31 = CALENDAR_DATE ( 2026, 27, 4 ) ;
#32 = ORIENTED_EDGE ( 'NONE', *, *, #1089, .F. ) ;
#33 = CARTESIAN_POINT ( 'NONE',  ( -0.8000000000000001554, 6.999999999999998224, -0.8000000000000003775 ) ) ;
#34 = ORIENTED_EDGE ( 'NONE', *, *, #1048, .F. ) ;
#35 = CARTESIAN_POINT ( 'NONE',  ( 8.673617379884035472E-16, -0.2000000000000020928, -0.7999999999999990452 ) ) ;
#36 = AXIS2_PLACEMENT_3D ( 'NONE', #264, #1109, #165 ) ;
#37 = DIRECTION ( 'NONE',  ( 1.000000000000000000, 0.000000000000000000, 0.000000000000000000 ) ) ;
#38 = EDGE_CURVE ( 'NONE', #1266, #313, #272, .T. ) ;
#39 = ORIENTED_EDGE ( 'NONE', *, *, #356, .T. ) ;
#40 = CARTESIAN_POINT ( 'NONE',  ( 2.000000000000000444, 6.999999999999998224, -1.180358317634540052E-15 ) ) ;
#41 = ORIENTED_EDGE ( 'NONE', *, *, #749, .F. ) ;
#42 = DIRECTION ( 'NONE',  ( 0.000000000000000000, -0.000000000000000000, 1.000000000000000000 ) ) ;
#43 = ORIENTED_CLOSED_SHELL ( 'NONE', *, #854, .F. );
#44 = VERTEX_POINT ( 'NONE', #1227 ) ;
#45 = FACE_OUTER_BOUND ( 'NONE', #603, .T. ) ;
#46 = ORIENTED_EDGE ( 'NONE', *, *, #740, .T. ) ;
#47 = DIRECTION ( 'NONE',  ( 1.000000000000000000, 0.000000000000000000, 0.000000000000000000 ) ) ;
#48 = LOCAL_TIME ( 16, 4, 59.00000000000000000, #1068 ) ;
#49 = EDGE_LOOP ( 'NONE', ( #3, #436, #549, #738 ) ) ;
#50 = DIRECTION ( 'NONE',  ( 0.000000000000000000, 1.000000000000000000, -0.000000000000000000 ) ) ;
#51 = ORIENTED_EDGE ( 'NONE', *, *, #1108, .F. ) ;
#52 = LINE ( 'NONE', #152, #398 ) ;
#53 = EDGE_CURVE ( 'NONE', #1152, #1174, #254, .T. ) ;
#54 = PLANE ( 'NONE',  #627 ) ;
#55 = VECTOR ( 'NONE', #1179, 1000.000000000000000 ) ;
#56 = CARTESIAN_POINT ( 'NONE',  ( 5.200000000000000178, 6.368163355566236381E-16, -6.599999999999999645 ) ) ;
#57 = CARTESIAN_POINT ( 'NONE',  ( 2.000000000000000000, 6.999999999999998224, -3.600000000000005862 ) ) ;
#58 = VERTEX_POINT ( 'NONE', #607 ) ;
#59 = CIRCLE ( 'NONE', #402, 5.200000000000000178 ) ;
#60 = DIRECTION ( 'NONE',  ( 0.000000000000000000, -1.000000000000000000, 0.000000000000000000 ) ) ;
#61 = ADVANCED_FACE ( 'NONE', ( #1125 ), #179, .T. ) ;
#62 = ADVANCED_FACE ( 'NONE', ( #790 ), #581, .F. ) ;
#63 = DIRECTION ( 'NONE',  ( 1.000000000000000000, 0.000000000000000000, 0.000000000000000000 ) ) ;
#64 = CARTESIAN_POINT ( 'NONE',  ( 0.000000000000000000, 0.000000000000000000, 20.00000000000000000 ) ) ;
#65 = ORIENTED_EDGE ( 'NONE', *, *, #1027, .F. ) ;
#66 = CARTESIAN_POINT ( 'NONE',  ( 0.000000000000000000, 0.5999999999999980904, 1.467051414877173013E-16 ) ) ;
#67 = CARTESIAN_POINT ( 'NONE',  ( -2.799999999999999378, 4.381780460041328595, -6.599999999999999645 ) ) ;
#68 = AXIS2_PLACEMENT_3D ( 'NONE', #717, #1104, #1133 ) ;
#69 = ORIENTED_EDGE ( 'NONE', *, *, #1176, .T. ) ;
#70 = FACE_OUTER_BOUND ( 'NONE', #852, .T. ) ;
#71 = VERTEX_POINT ( 'NONE', #56 ) ;
#72 = CARTESIAN_POINT ( 'NONE',  ( 0.000000000000000000, 0.000000000000000000, -6.599999999999999645 ) ) ;
#73 = CYLINDRICAL_SURFACE ( 'NONE', #934, 4.594851000000000241 ) ;
#74 = EDGE_LOOP ( 'NONE', ( #1261, #597, #1238, #878, #403, #751, #1273, #1071, #662 ) ) ;
#75 = CARTESIAN_POINT ( 'NONE',  ( 13.91395519155983607, 6.999999999999999112, -2.000000000000049738 ) ) ;
#76 = ADVANCED_FACE ( 'NONE', ( #468 ), #900, .T. ) ;
#77 = ORIENTED_EDGE ( 'NONE', *, *, #1031, .F. ) ;
#78 = DIRECTION ( 'NONE',  ( 1.000000000000000000, -1.880790961315659739E-32, -1.084202172485504311E-16 ) ) ;
#79 = DIRECTION ( 'NONE',  ( -0.000000000000000000, 0.000000000000000000, 1.000000000000000000 ) ) ;
#80 = VECTOR ( 'NONE', #1138, 1000.000000000000000 ) ;
#81 = EDGE_CURVE ( 'NONE', #753, #1028, #287, .T. ) ;
#82 = CARTESIAN_POINT ( 'NONE',  ( 0.000000000000000000, 0.000000000000000000, 16.00000000000000000 ) ) ;
#83 = CARTESIAN_POINT ( 'NONE',  ( 0.000000000000000000, 0.000000000000000000, -6.599999999999999645 ) ) ;
#84 = EDGE_CURVE ( 'NONE', #175, #858, #424, .T. ) ;
#85 = VERTEX_POINT ( 'NONE', #856 ) ;
#86 = FACE_OUTER_BOUND ( 'NONE', #1016, .T. ) ;
#87 = LINE ( 'NONE', #505, #804 ) ;
#88 = ADVANCED_BREP_SHAPE_REPRESENTATION ( 'MagnetiSpringGetti', ( #937, #435 ), #686 ) ;
#89 = CARTESIAN_POINT ( 'NONE',  ( 2.000000000000000000, 6.999999999999998224, -2.000000000000005329 ) ) ;
#90 = VECTOR ( 'NONE', #695, 1000.000000000000000 ) ;
#91 = CARTESIAN_POINT ( 'NONE',  ( -2.799999999999999378, 4.381780460041328595, -20.74109319622884939 ) ) ;
#92 = LOCAL_TIME ( 16, 4, 59.00000000000000000, #534 ) ;
#93 = ORIENTED_EDGE ( 'NONE', *, *, #9, .T. ) ;
#94 = CARTESIAN_POINT ( 'NONE',  ( -0.8000000000000001554, 1.999999999999999112, 0.000000000000000000 ) ) ;
#95 = EDGE_CURVE ( 'NONE', #1211, #1100, #552, .T. ) ;
#96 = DIRECTION ( 'NONE',  ( 1.000000000000000000, 0.000000000000000000, 0.000000000000000000 ) ) ;
#97 = AXIS2_PLACEMENT_3D ( 'NONE', #903, #1185, #793 ) ;
#98 = ORIENTED_EDGE ( 'NONE', *, *, #917, .F. ) ;
#99 = CARTESIAN_POINT ( 'NONE',  ( 2.800000000000000266, -2.600000000000000089, -5.599999999999999645 ) ) ;
#100 = ORIENTED_EDGE ( 'NONE', *, *, #1338, .F. ) ;
#101 = DIRECTION ( 'NONE',  ( 0.000000000000000000, 1.432417854374730559E-16, 1.000000000000000000 ) ) ;
#102 = EDGE_CURVE ( 'NONE', #1117, #952, #8, .T. ) ;
#103 = DIRECTION ( 'NONE',  ( 0.000000000000000000, -1.000000000000000000, 1.836970198721029688E-16 ) ) ;
#104 = ORIENTED_EDGE ( 'NONE', *, *, #193, .T. ) ;
#105 = CARTESIAN_POINT ( 'NONE',  ( 2.000000000000000000, 0.5999999999999972022, -4.799999999999999822 ) ) ;
#106 = ORIENTED_EDGE ( 'NONE', *, *, #587, .T. ) ;
#107 = CARTESIAN_POINT ( 'NONE',  ( -0.8000000000000001554, 1.999999999999999112, -4.799999999999999822 ) ) ;
#108 = VECTOR ( 'NONE', #776, 1000.000000000000000 ) ;
#109 = ORIENTED_EDGE ( 'NONE', *, *, #787, .F. ) ;
#110 = DIRECTION ( 'NONE',  ( -1.000000000000000000, 0.000000000000000000, 0.000000000000000000 ) ) ;
#111 = ORIENTED_EDGE ( 'NONE', *, *, #438, .F. ) ;
#112 = CARTESIAN_POINT ( 'NONE',  ( 0.000000000000000000, 0.000000000000000000, 16.00000000000000000 ) ) ;
#113 = LINE ( 'NONE', #1158, #480 ) ;
#114 = EDGE_CURVE ( 'NONE', #247, #1266, #535, .T. ) ;
#115 = ORIENTED_EDGE ( 'NONE', *, *, #860, .F. ) ;
#116 = LINE ( 'NONE', #226, #153 ) ;
#117 = VERTEX_POINT ( 'NONE', #660 ) ;
#118 = CARTESIAN_POINT ( 'NONE',  ( -2.799999999999999378, 6.999999999999999112, -1.763491390772188461E-15 ) ) ;
#119 = AXIS2_PLACEMENT_3D ( 'NONE', #347, #250, #679 ) ;
#120 = DIRECTION ( 'NONE',  ( 0.000000000000000000, 1.836970198721029688E-16, 1.000000000000000000 ) ) ;
#121 = COORDINATED_UNIVERSAL_TIME_OFFSET ( 5, 0, .BEHIND. ) ;
#122 = CC_DESIGN_PERSON_AND_ORGANIZATION_ASSIGNMENT ( #1082, #342, ( #29 ) ) ;
#123 = ORIENTED_EDGE ( 'NONE', *, *, #548, .T. ) ;
#124 = CARTESIAN_POINT ( 'NONE',  ( 0.000000000000000000, 1.999999999999999112, -0.8000000000000003775 ) ) ;
#125 = DIRECTION ( 'NONE',  ( 0.000000000000000000, 0.000000000000000000, 1.000000000000000000 ) ) ;
#126 = CARTESIAN_POINT ( 'NONE',  ( 0.000000000000000000, 0.000000000000000000, 0.000000000000000000 ) ) ;
#127 = PERSON_AND_ORGANIZATION ( #944, #1270 ) ;
#128 = ORIENTED_EDGE ( 'NONE', *, *, #142, .F. ) ;
#129 = DIRECTION ( 'NONE',  ( -0.000000000000000000, -0.000000000000000000, 1.000000000000000000 ) ) ;
#130 = ORIENTED_EDGE ( 'NONE', *, *, #9, .F. ) ;
#131 = CARTESIAN_POINT ( 'NONE',  ( 13.91395519155983074, 6.999999999999999112, -3.600000000000047606 ) ) ;
#132 = AXIS2_PLACEMENT_3D ( 'NONE', #180, #1209, #608 ) ;
#133 = LINE ( 'NONE', #558, #265 ) ;
#134 = APPROVAL_DATE_TIME ( #441, #877 ) ;
#135 = ORIENTED_EDGE ( 'NONE', *, *, #1023, .F. ) ;
#136 = DIRECTION ( 'NONE',  ( 0.000000000000000000, 1.376454118767770729E-16, 1.000000000000000000 ) ) ;
#137 = ORIENTED_EDGE ( 'NONE', *, *, #1065, .T. ) ;
#138 = DIRECTION ( 'NONE',  ( -0.000000000000000000, 1.000000000000000000, -0.000000000000000000 ) ) ;
#139 = VECTOR ( 'NONE', #177, 1000.000000000000000 ) ;
#140 = EDGE_CURVE ( 'NONE', #1117, #85, #1172, .T. ) ;
#141 = CIRCLE ( 'NONE', #488, 5.200000000000000178 ) ;
#142 = EDGE_CURVE ( 'NONE', #1198, #358, #1243, .T. ) ;
#143 = EDGE_LOOP ( 'NONE', ( #730, #1334, #1254, #32 ) ) ;
#144 = CARTESIAN_POINT ( 'NONE',  ( 0.7999999999999999334, 1.999999999999999112, -4.800000000000000711 ) ) ;
#145 = AXIS2_PLACEMENT_3D ( 'NONE', #82, #499, #475 ) ;
#146 = ORIENTED_EDGE ( 'NONE', *, *, #1037, .F. ) ;
#147 = DIRECTION ( 'NONE',  ( -1.000000000000000000, 0.000000000000000000, 0.000000000000000000 ) ) ;
#148 = LINE ( 'NONE', #1094, #828 ) ;
#149 = ORIENTED_EDGE ( 'NONE', *, *, #860, .T. ) ;
#150 = CARTESIAN_POINT ( 'NONE',  ( -2.799999999999999378, -2.600000000000000089, 0.000000000000000000 ) ) ;
#151 = EDGE_LOOP ( 'NONE', ( #546, #428, #526, #849 ) ) ;
#152 = CARTESIAN_POINT ( 'NONE',  ( 0.000000000000000000, 1.999999999999999112, -5.600000000000001421 ) ) ;
#153 = VECTOR ( 'NONE', #331, 1000.000000000000000 ) ;
#154 = DIRECTION ( 'NONE',  ( -0.000000000000000000, 0.000000000000000000, 1.000000000000000000 ) ) ;
#155 = LINE ( 'NONE', #582, #683 ) ;
#156 = VERTEX_POINT ( 'NONE', #823 ) ;
#157 = CARTESIAN_POINT ( 'NONE',  ( 0.000000000000000000, 0.000000000000000000, 0.000000000000000000 ) ) ;
#158 = DIRECTION ( 'NONE',  ( 0.000000000000000000, -0.000000000000000000, 1.000000000000000000 ) ) ;
#159 = AXIS2_PLACEMENT_3D ( 'NONE', #781, #1101, #999 ) ;
#160 = AXIS2_PLACEMENT_3D ( 'NONE', #157, #998, #47 ) ;
#161 = PLANE ( 'NONE',  #812 ) ;
#162 = PLANE ( 'NONE',  #237 ) ;
#163 = VERTEX_POINT ( 'NONE', #89 ) ;
#164 = DIRECTION ( 'NONE',  ( -1.084202172485504311E-16, 0.000000000000000000, -1.000000000000000000 ) ) ;
#165 = DIRECTION ( 'NONE',  ( 0.000000000000000000, 0.000000000000000000, 1.000000000000000000 ) ) ;
#166 = FACE_OUTER_BOUND ( 'NONE', #1344, .T. ) ;
#167 = CARTESIAN_POINT ( 'NONE',  ( -2.799999999999999378, 4.381780460041328595, -0.000000000000000000 ) ) ;
#168 = ORIENTED_EDGE ( 'NONE', *, *, #1353, .T. ) ;
#169 = DIRECTION ( 'NONE',  ( 0.000000000000000000, 0.000000000000000000, -1.000000000000000000 ) ) ;
#170 = CARTESIAN_POINT ( 'NONE',  ( 1.112291097817874238E-15, -0.2000000000000026756, -4.799999999999998934 ) ) ;
#171 = VECTOR ( 'NONE', #729, 1000.000000000000000 ) ;
#172 = VECTOR ( 'NONE', #576, 1000.000000000000000 ) ;
#173 = ORIENTED_EDGE ( 'NONE', *, *, #142, .T. ) ;
#174 = CARTESIAN_POINT ( 'NONE',  ( -5.200000000000000178, 0.000000000000000000, 20.80000000000000071 ) ) ;
#175 = VERTEX_POINT ( 'NONE', #747 ) ;
#176 = CARTESIAN_POINT ( 'NONE',  ( -1.999999999999999556, 0.5999999999999980904, -3.599999999999993427 ) ) ;
#177 = DIRECTION ( 'NONE',  ( 0.000000000000000000, 0.000000000000000000, -1.000000000000000000 ) ) ;
#178 = AXIS2_PLACEMENT_3D ( 'NONE', #1234, #822, #816 ) ;
#179 = PLANE ( 'NONE',  #145 ) ;
#180 = CARTESIAN_POINT ( 'NONE',  ( -0.8000000000000001554, 7.000011999999999013, 0.000000000000000000 ) ) ;
#181 = ORIENTED_EDGE ( 'NONE', *, *, #770, .F. ) ;
#182 = CARTESIAN_POINT ( 'NONE',  ( 2.800000000000000266, 4.381780460041327707, -6.599999999999999645 ) ) ;
#183 = CARTESIAN_POINT ( 'NONE',  ( 8.673617379884035472E-16, -0.2000000000000020650, -0.7999999999999990452 ) ) ;
#184 = CARTESIAN_POINT ( 'NONE',  ( 2.800000000000000266, 1.999999999999999112, -2.000000000000005329 ) ) ;
#185 = FACE_OUTER_BOUND ( 'NONE', #151, .T. ) ;
#186 = ORIENTED_EDGE ( 'NONE', *, *, #22, .F. ) ;
#187 = CARTESIAN_POINT ( 'NONE',  ( -1.226697315155026950E-14, 1.999999999999999112, -3.600000000000000533 ) ) ;
#188 = EDGE_CURVE ( 'NONE', #201, #228, #294, .T. ) ;
#189 = DIRECTION ( 'NONE',  ( 1.000000000000000000, 0.000000000000000000, 0.000000000000000000 ) ) ;
#190 = CARTESIAN_POINT ( 'NONE',  ( -0.8000000000000003775, 6.999999999999999112, -1.763491390772188461E-15 ) ) ;
#191 = AXIS2_PLACEMENT_3D ( 'NONE', #273, #701, #1119 ) ;
#192 = CARTESIAN_POINT ( 'NONE',  ( 8.673617379884035472E-16, 0.5999999999999976463, -2.799999999999998934 ) ) ;
#193 = EDGE_CURVE ( 'NONE', #1174, #350, #1235, .T. ) ;
#194 = ORIENTED_EDGE ( 'NONE', *, *, #640, .T. ) ;
#195 = DIRECTION ( 'NONE',  ( -1.000000000000000000, 0.000000000000000000, 0.000000000000000000 ) ) ;
#196 = EDGE_CURVE ( 'NONE', #1092, #482, #508, .T. ) ;
#197 = VERTEX_POINT ( 'NONE', #867 ) ;
#198 = DIRECTION ( 'NONE',  ( -1.232595164407830946E-32, 1.000000000000000000, -1.432417854374730559E-16 ) ) ;
#199 = DIRECTION ( 'NONE',  ( 1.000000000000000000, -0.000000000000000000, 0.000000000000000000 ) ) ;
#200 = AXIS2_PLACEMENT_3D ( 'NONE', #1018, #79, #1337 ) ;
#201 = VERTEX_POINT ( 'NONE', #184 ) ;
#202 = CARTESIAN_POINT ( 'NONE',  ( 2.000000000000000888, 0.5999999999999976463, -2.799999999999998934 ) ) ;
#203 = ORIENTED_EDGE ( 'NONE', *, *, #388, .T. ) ;
#204 = CARTESIAN_POINT ( 'NONE',  ( 0.000000000000000000, 1.999999999999999112, 0.000000000000000000 ) ) ;
#205 = PRODUCT_DEFINITION_SHAPE ( 'NONE', 'NONE',  #362 ) ;
#206 = CARTESIAN_POINT ( 'NONE',  ( -1.999999999999999556, 0.5999999999999980904, 1.467051414877173013E-16 ) ) ;
#207 = ORIENTED_EDGE ( 'NONE', *, *, #715, .F. ) ;
#208 = CARTESIAN_POINT ( 'NONE',  ( 0.000000000000000000, 1.999999999999999112, -1.763491390772188461E-15 ) ) ;
#209 = DIRECTION ( 'NONE',  ( -0.000000000000000000, -0.000000000000000000, 1.000000000000000000 ) ) ;
#210 = ADVANCED_FACE ( 'NONE', ( #756 ), #644, .T. ) ;
#211 = ORIENTED_EDGE ( 'NONE', *, *, #917, .T. ) ;
#212 = LINE ( 'NONE', #208, #1221 ) ;
#213 = ORIENTED_EDGE ( 'NONE', *, *, #837, .T. ) ;
#214 = DIRECTION ( 'NONE',  ( -0.000000000000000000, 1.000000000000000000, -0.000000000000000000 ) ) ;
#215 = EDGE_CURVE ( 'NONE', #858, #1231, #965, .T. ) ;
#216 = CARTESIAN_POINT ( 'NONE',  ( 8.673617379884035472E-16, -0.2000000000000023703, -2.799999999999998934 ) ) ;
#217 = ADVANCED_FACE ( 'NONE', ( #391 ), #970, .T. ) ;
#218 = ORIENTED_EDGE ( 'NONE', *, *, #675, .T. ) ;
#219 = CARTESIAN_POINT ( 'NONE',  ( 5.200000000000000178, 6.368163355566236381E-16, 20.80000000000000071 ) ) ;
#220 = AXIS2_PLACEMENT_3D ( 'NONE', #794, #37, #687 ) ;
#221 = CARTESIAN_POINT ( 'NONE',  ( 2.800000000000000266, 4.381780460041327707, -20.74109319622884939 ) ) ;
#222 = CARTESIAN_POINT ( 'NONE',  ( 13.91395519155984317, 6.999999999999999112, -1.763491390772188461E-15 ) ) ;
#223 = DATE_AND_TIME ( #1284, #48 ) ;
#224 = EDGE_CURVE ( 'NONE', #939, #865, #862, .T. ) ;
#225 = ORIENTED_EDGE ( 'NONE', *, *, #964, .T. ) ;
#226 = CARTESIAN_POINT ( 'NONE',  ( -0.8000000000000001554, 7.000011999999999013, -5.600000000000001421 ) ) ;
#227 = EDGE_CURVE ( 'NONE', #1043, #1191, #376, .T. ) ;
#228 = VERTEX_POINT ( 'NONE', #397 ) ;
#229 = LINE ( 'NONE', #991, #492 ) ;
#230 = CARTESIAN_POINT ( 'NONE',  ( -1.999999999999999556, 0.5999999999999980904, 1.467051414877173013E-16 ) ) ;
#231 = DATE_AND_TIME ( #431, #390 ) ;
#232 = ORIENTED_EDGE ( 'NONE', *, *, #1105, .F. ) ;
#233 = CYLINDRICAL_SURFACE ( 'NONE', #884, 4.594851000000000241 ) ;
#234 = CC_DESIGN_PERSON_AND_ORGANIZATION_ASSIGNMENT ( #966, #239, ( #29 ) ) ;
#235 = ORIENTED_EDGE ( 'NONE', *, *, #1047, .T. ) ;
#236 = CARTESIAN_POINT ( 'NONE',  ( 2.000000000000000000, 1.999999999999999112, -2.000000000000005329 ) ) ;
#237 = AXIS2_PLACEMENT_3D ( 'NONE', #590, #307, #399 ) ;
#238 = EDGE_CURVE ( 'NONE', #451, #44, #1074, .T. ) ;
#239 = PERSON_AND_ORGANIZATION_ROLE ( 'design_supplier' ) ;
#240 = ORIENTED_EDGE ( 'NONE', *, *, #749, .T. ) ;
#241 = CARTESIAN_POINT ( 'NONE',  ( -0.8000000000000001554, 1.999999999999999112, -1.763491390772188461E-15 ) ) ;
#242 = ORIENTED_EDGE ( 'NONE', *, *, #504, .T. ) ;
#243 = CARTESIAN_POINT ( 'NONE',  ( 4.594851000000000241, 0.000000000000000000, 20.00000000000000000 ) ) ;
#244 = VECTOR ( 'NONE', #653, 1000.000000000000000 ) ;
#245 = PLANE ( 'NONE',  #220 ) ;
#246 = EDGE_CURVE ( 'NONE', #881, #1211, #133, .T. ) ;
#247 = VERTEX_POINT ( 'NONE', #1088 ) ;
#248 = CARTESIAN_POINT ( 'NONE',  ( -5.200000000000000178, 0.000000000000000000, 20.00000000000000000 ) ) ;
#249 = ORIENTED_EDGE ( 'NONE', *, *, #1326, .F. ) ;
#250 = DIRECTION ( 'NONE',  ( -1.232595164407830946E-32, 1.000000000000000000, -1.432417854374730559E-16 ) ) ;
#251 = DIRECTION ( 'NONE',  ( 1.000000000000000000, 0.000000000000000000, -3.407492542097297170E-15 ) ) ;
#252 = EDGE_CURVE ( 'NONE', #872, #71, #455, .T. ) ;
#253 = EDGE_CURVE ( 'NONE', #616, #117, #148, .T. ) ;
#254 = LINE ( 'NONE', #280, #1323 ) ;
#255 = CARTESIAN_POINT ( 'NONE',  ( 13.91395519155984317, -2.600000000000000089, 0.000000000000000000 ) ) ;
#256 = ORIENTED_EDGE ( 'NONE', *, *, #930, .T. ) ;
#257 = DIRECTION ( 'NONE',  ( -0.000000000000000000, -0.000000000000000000, -1.000000000000000000 ) ) ;
#258 = VECTOR ( 'NONE', #833, 1000.000000000000000 ) ;
#259 = CC_DESIGN_APPROVAL ( #757, ( #885 ) ) ;
#260 = ORIENTED_EDGE ( 'NONE', *, *, #440, .F. ) ;
#261 = CARTESIAN_POINT ( 'NONE',  ( 2.800000000000000266, 6.999999999999999112, -3.600000000000000533 ) ) ;
#262 = ORIENTED_EDGE ( 'NONE', *, *, #1099, .T. ) ;
#263 = DIRECTION ( 'NONE',  ( 0.000000000000000000, 1.376454118767770729E-16, 1.000000000000000000 ) ) ;
#264 = CARTESIAN_POINT ( 'NONE',  ( 2.800000000000000266, -2.600000000000000089, -5.599999999999999645 ) ) ;
#265 = VECTOR ( 'NONE', #158, 1000.000000000000000 ) ;
#266 = VERTEX_POINT ( 'NONE', #992 ) ;
#267 = DIRECTION ( 'NONE',  ( 0.000000000000000000, -1.000000000000000000, 0.000000000000000000 ) ) ;
#268 = ADVANCED_FACE ( 'NONE', ( #1290 ), #54, .T. ) ;
#269 = ORIENTED_EDGE ( 'NONE', *, *, #1037, .T. ) ;
#270 = LINE ( 'NONE', #510, #15 ) ;
#271 = CARTESIAN_POINT ( 'NONE',  ( 2.000000000000000000, 1.999999999999999112, -2.000000000000005329 ) ) ;
#272 = LINE ( 'NONE', #1222, #1153 ) ;
#273 = CARTESIAN_POINT ( 'NONE',  ( -7.124757133476169966E-15, 7.000011999999999013, -2.000000000000000444 ) ) ;
#274 = VERTEX_POINT ( 'NONE', #982 ) ;
#275 = LINE ( 'NONE', #598, #788 ) ;
#276 = ADVANCED_FACE ( 'NONE', ( #588 ), #1187, .T. ) ;
#277 = DIRECTION ( 'NONE',  ( 0.000000000000000000, -1.376454118767770729E-16, -1.000000000000000000 ) ) ;
#278 = EDGE_CURVE ( 'NONE', #531, #990, #1303, .T. ) ;
#279 = AXIS2_PLACEMENT_3D ( 'NONE', #1144, #199, #945 ) ;
#280 = CARTESIAN_POINT ( 'NONE',  ( 0.8000000000000003775, 6.999999999999999112, -1.763491390772188461E-15 ) ) ;
#281 = FACE_OUTER_BOUND ( 'NONE', #442, .T. ) ;
#282 = ORIENTED_EDGE ( 'NONE', *, *, #921, .T. ) ;
#283 = DIRECTION ( 'NONE',  ( 0.000000000000000000, 1.626303258728256651E-16, 1.000000000000000000 ) ) ;
#284 = DIRECTION ( 'NONE',  ( 1.000000000000000000, 0.000000000000000000, 0.000000000000000000 ) ) ;
#285 = VECTOR ( 'NONE', #375, 1000.000000000000000 ) ;
#286 = ADVANCED_FACE ( 'NONE', ( #1193 ), #245, .T. ) ;
#287 = LINE ( 'NONE', #190, #80 ) ;
#288 = PLANE ( 'NONE',  #68 ) ;
#289 = EDGE_LOOP ( 'NONE', ( #41, #69, #373, #385 ) ) ;
#290 = DIRECTION ( 'NONE',  ( 0.000000000000000000, 0.000000000000000000, 1.000000000000000000 ) ) ;
#291 = DIRECTION ( 'NONE',  ( 0.000000000000000000, -1.000000000000000000, 0.000000000000000000 ) ) ;
#292 = VECTOR ( 'NONE', #374, 1000.000000000000000 ) ;
#293 = EDGE_CURVE ( 'NONE', #44, #531, #473, .T. ) ;
#294 = LINE ( 'NONE', #721, #912 ) ;
#295 = PLANE ( 'NONE',  #279 ) ;
#296 = ADVANCED_FACE ( 'NONE', ( #801 ), #1213, .F. ) ;
#297 = ORIENTED_EDGE ( 'NONE', *, *, #246, .T. ) ;
#298 = LINE ( 'NONE', #124, #809 ) ;
#299 = ORIENTED_EDGE ( 'NONE', *, *, #634, .T. ) ;
#300 = LINE ( 'NONE', #727, #285 ) ;
#301 = AXIS2_PLACEMENT_3D ( 'NONE', #64, #1002, #919 ) ;
#302 = CARTESIAN_POINT ( 'NONE',  ( 0.7999999999999999334, 1.999999999999999112, -0.7999999999999994893 ) ) ;
#303 = ORIENTED_EDGE ( 'NONE', *, *, #613, .F. ) ;
#304 = CARTESIAN_POINT ( 'NONE',  ( 2.800000000000000266, 6.999999999999999112, -6.599999999999999645 ) ) ;
#305 = EDGE_LOOP ( 'NONE', ( #742, #1003, #539, #684 ) ) ;
#306 = LINE ( 'NONE', #732, #583 ) ;
#307 = DIRECTION ( 'NONE',  ( -0.000000000000000000, 0.000000000000000000, 1.000000000000000000 ) ) ;
#308 = AXIS2_PLACEMENT_3D ( 'NONE', #1061, #120, #543 ) ;
#309 = ORIENTED_EDGE ( 'NONE', *, *, #224, .F. ) ;
#310 = CARTESIAN_POINT ( 'NONE',  ( -1.999999999999999556, 0.5999999999999972022, -4.799999999999999822 ) ) ;
#311 = ORIENTED_EDGE ( 'NONE', *, *, #574, .T. ) ;
#312 = EDGE_CURVE ( 'NONE', #952, #595, #447, .T. ) ;
#313 = VERTEX_POINT ( 'NONE', #341 ) ;
#314 = CARTESIAN_POINT ( 'NONE',  ( 2.800000000000000266, 6.999999999999999112, -5.599999999999999645 ) ) ;
#315 = ORIENTED_EDGE ( 'NONE', *, *, #140, .F. ) ;
#316 = ADVANCED_FACE ( 'NONE', ( #600 ), #382, .T. ) ;
#317 = DIRECTION ( 'NONE',  ( 0.000000000000000000, 1.000000000000000000, -0.000000000000000000 ) ) ;
#318 = EDGE_CURVE ( 'NONE', #531, #533, #808, .T. ) ;
#319 = CARTESIAN_POINT ( 'NONE',  ( -4.594851000000000241, 5.627069569709015071E-16, 16.00000000000000000 ) ) ;
#320 =( NAMED_UNIT ( * ) PLANE_ANGLE_UNIT ( ) SI_UNIT ( $, .RADIAN. ) );
#321 = CIRCLE ( 'NONE', #1096, 2.000000000000000000 ) ;
#322 = EDGE_LOOP ( 'NONE', ( #123, #51, #109, #925, #407 ) ) ;
#323 = DIRECTION ( 'NONE',  ( 0.000000000000000000, 0.000000000000000000, -1.000000000000000000 ) ) ;
#324 = APPROVAL_PERSON_ORGANIZATION ( #1272, #877, #1076 ) ;
#325 = PLANE ( 'NONE',  #396 ) ;
#326 = DIRECTION ( 'NONE',  ( 0.000000000000000000, 0.000000000000000000, 1.000000000000000000 ) ) ;
#327 = APPROVAL_DATE_TIME ( #223, #673 ) ;
#328 = EDGE_CURVE ( 'NONE', #881, #838, #720, .T. ) ;
#329 = EDGE_LOOP ( 'NONE', ( #445, #27, #1312, #1052 ) ) ;
#330 = VECTOR ( 'NONE', #479, 1000.000000000000000 ) ;
#331 = DIRECTION ( 'NONE',  ( 0.000000000000000000, -1.000000000000000000, 0.000000000000000000 ) ) ;
#332 = ORIENTED_EDGE ( 'NONE', *, *, #936, .F. ) ;
#333 = FACE_OUTER_BOUND ( 'NONE', #462, .T. ) ;
#334 = CARTESIAN_POINT ( 'NONE',  ( -0.8000000000000003775, 6.999999999999999112, -1.763491390772188461E-15 ) ) ;
#335 = ADVANCED_FACE ( 'NONE', ( #706 ), #73, .F. ) ;
#336 = VERTEX_POINT ( 'NONE', #618 ) ;
#337 = FACE_OUTER_BOUND ( 'NONE', #289, .T. ) ;
#338 = ADVANCED_FACE ( 'NONE', ( #1226 ), #387, .F. ) ;
#339 = ORIENTED_EDGE ( 'NONE', *, *, #1131, .T. ) ;
#340 = FACE_OUTER_BOUND ( 'NONE', #955, .T. ) ;
#341 = CARTESIAN_POINT ( 'NONE',  ( 8.673617379884035472E-16, 0.5999999999999973133, -4.799999999999998934 ) ) ;
#342 = PERSON_AND_ORGANIZATION_ROLE ( 'creator' ) ;
#343 = ORIENTED_EDGE ( 'NONE', *, *, #356, .F. ) ;
#344 = DIRECTION ( 'NONE',  ( -0.000000000000000000, 1.000000000000000000, -0.000000000000000000 ) ) ;
#345 = CIRCLE ( 'NONE', #1118, 4.594851000000000241 ) ;
#346 = EDGE_LOOP ( 'NONE', ( #1145, #1293, #886, #631, #464 ) ) ;
#347 = CARTESIAN_POINT ( 'NONE',  ( 8.673617379884035472E-16, 0.5999999999999976463, -2.799999999999998934 ) ) ;
#348 = AXIS2_PLACEMENT_3D ( 'NONE', #192, #1244, #1049 ) ;
#349 = DIRECTION ( 'NONE',  ( 3.407492542097297170E-15, 0.000000000000000000, 1.000000000000000000 ) ) ;
#350 = VERTEX_POINT ( 'NONE', #908 ) ;
#351 = DIRECTION ( 'NONE',  ( 0.000000000000000000, 1.000000000000000000, -1.376454118767770729E-16 ) ) ;
#352 = ORIENTED_EDGE ( 'NONE', *, *, #278, .T. ) ;
#353 = DIRECTION ( 'NONE',  ( -0.000000000000000000, -0.000000000000000000, -1.000000000000000000 ) ) ;
#354 = ADVANCED_FACE ( 'NONE', ( #916 ), #1005, .T. ) ;
#355 = VECTOR ( 'NONE', #1123, 1000.000000000000000 ) ;
#356 = EDGE_CURVE ( 'NONE', #1291, #156, #1248, .T. ) ;
#357 = VECTOR ( 'NONE', #1136, 1000.000000000000000 ) ;
#358 = VERTEX_POINT ( 'NONE', #1033 ) ;
#359 = DIRECTION ( 'NONE',  ( 0.000000000000000000, 1.490777987167568597E-16, 1.000000000000000000 ) ) ;
#360 = VERTEX_POINT ( 'NONE', #183 ) ;
#361 = DIRECTION ( 'NONE',  ( -0.000000000000000000, -0.000000000000000000, -1.000000000000000000 ) ) ;
#362 = PRODUCT_DEFINITION ( 'UNKNOWN', '', #29, #21 ) ;
#363 = CARTESIAN_POINT ( 'NONE',  ( 0.000000000000000000, 1.999999999999999112, -4.800000000000000711 ) ) ;
#364 = DIRECTION ( 'NONE',  ( -1.000000000000000000, 0.000000000000000000, 3.562378566738084194E-15 ) ) ;
#365 = CARTESIAN_POINT ( 'NONE',  ( 0.7999999999999999334, 6.999999999999997335, -4.800000000000000711 ) ) ;
#366 = VERTEX_POINT ( 'NONE', #170 ) ;
#367 = LINE ( 'NONE', #786, #377 ) ;
#368 = AXIS2_PLACEMENT_3D ( 'NONE', #602, #901, #1014 ) ;
#369 = DIRECTION ( 'NONE',  ( 0.000000000000000000, -1.000000000000000000, 1.734723475976807341E-16 ) ) ;
#370 = ORIENTED_EDGE ( 'NONE', *, *, #474, .T. ) ;
#371 = DIRECTION ( 'NONE',  ( -1.000000000000000000, 0.000000000000000000, 3.562378566738084194E-15 ) ) ;
#372 = EDGE_CURVE ( 'NONE', #336, #1028, #512, .T. ) ;
#373 = ORIENTED_EDGE ( 'NONE', *, *, #1134, .T. ) ;
#374 = DIRECTION ( 'NONE',  ( 0.000000000000000000, -1.000000000000000000, 0.000000000000000000 ) ) ;
#375 = DIRECTION ( 'NONE',  ( 0.000000000000000000, 0.000000000000000000, -1.000000000000000000 ) ) ;
#376 = CIRCLE ( 'NONE', #1015, 5.200000000000000178 ) ;
#377 = VECTOR ( 'NONE', #138, 1000.000000000000000 ) ;
#378 = LINE ( 'NONE', #589, #920 ) ;
#379 = DIRECTION ( 'NONE',  ( -0.000000000000000000, 1.000000000000000000, -0.000000000000000000 ) ) ;
#380 = ORIENTED_EDGE ( 'NONE', *, *, #1048, .T. ) ;
#381 = DIRECTION ( 'NONE',  ( 0.000000000000000000, -1.000000000000000000, 0.000000000000000000 ) ) ;
#382 = PLANE ( 'NONE',  #536 ) ;
#383 = CARTESIAN_POINT ( 'NONE',  ( 2.800000000000000266, 1.999999999999999112, -3.600000000000005862 ) ) ;
#384 = CARTESIAN_POINT ( 'NONE',  ( 2.800000000000000266, 4.381780460041327707, 0.000000000000000000 ) ) ;
#385 = ORIENTED_EDGE ( 'NONE', *, *, #1304, .T. ) ;
#386 = LINE ( 'NONE', #820, #470 ) ;
#387 = PLANE ( 'NONE',  #783 ) ;
#388 = EDGE_CURVE ( 'NONE', #610, #163, #612, .T. ) ;
#389 = AXIS2_PLACEMENT_3D ( 'NONE', #571, #1286, #452 ) ;
#390 = LOCAL_TIME ( 16, 4, 59.00000000000000000, #1181 ) ;
#391 = FACE_OUTER_BOUND ( 'NONE', #799, .T. ) ;
#392 = PLANE ( 'NONE',  #1332 ) ;
#393 = VERTEX_POINT ( 'NONE', #924 ) ;
#394 = CARTESIAN_POINT ( 'NONE',  ( 0.7999999999999999334, 1.999999999999999112, 0.000000000000000000 ) ) ;
#395 = CARTESIAN_POINT ( 'NONE',  ( -0.8000000000000001554, 6.999999999999999112, -5.600000000000001421 ) ) ;
#396 = AXIS2_PLACEMENT_3D ( 'NONE', #754, #1169, #652 ) ;
#397 = CARTESIAN_POINT ( 'NONE',  ( 2.800000000000000266, 4.381780460041327707, -1.999999999999984457 ) ) ;
#398 = VECTOR ( 'NONE', #800, 1000.000000000000000 ) ;
#399 = DIRECTION ( 'NONE',  ( 1.000000000000000000, 0.000000000000000000, 0.000000000000000000 ) ) ;
#400 = ORIENTED_EDGE ( 'NONE', *, *, #1336, .F. ) ;
#401 = CARTESIAN_POINT ( 'NONE',  ( 8.673617379884035472E-16, 0.5999999999999976463, -2.799999999999998934 ) ) ;
#402 = AXIS2_PLACEMENT_3D ( 'NONE', #72, #485, #806 ) ;
#403 = ORIENTED_EDGE ( 'NONE', *, *, #215, .F. ) ;
#404 = CARTESIAN_POINT ( 'NONE',  ( 0.000000000000000000, 0.000000000000000000, 16.00000000000000000 ) ) ;
#405 = VERTEX_POINT ( 'NONE', #827 ) ;
#406 = LINE ( 'NONE', #962, #1042 ) ;
#407 = ORIENTED_EDGE ( 'NONE', *, *, #415, .T. ) ;
#408 = LINE ( 'NONE', #1149, #586 ) ;
#409 = APPROVAL_STATUS ( 'not_yet_approved' ) ;
#410 = AXIS2_PLACEMENT_3D ( 'NONE', #523, #1041, #628 ) ;
#411 = DIRECTION ( 'NONE',  ( 0.000000000000000000, 0.000000000000000000, 1.000000000000000000 ) ) ;
#412 = CC_DESIGN_SECURITY_CLASSIFICATION ( #885, ( #29 ) ) ;
#413 = ORIENTED_EDGE ( 'NONE', *, *, #1176, .F. ) ;
#414 = CARTESIAN_POINT ( 'NONE',  ( 0.000000000000000000, 0.000000000000000000, 20.00000000000000000 ) ) ;
#415 = EDGE_CURVE ( 'NONE', #117, #865, #1024, .T. ) ;
#416 = CARTESIAN_POINT ( 'NONE',  ( -0.8000000000000001554, 1.999999999999999112, -5.600000000000001421 ) ) ;
#417 =( NAMED_UNIT ( * ) SI_UNIT ( $, .STERADIAN. ) SOLID_ANGLE_UNIT ( ) );
#418 = VECTOR ( 'NONE', #1296, 1000.000000000000000 ) ;
#419 = ADVANCED_FACE ( 'NONE', ( #834 ), #605, .T. ) ;
#420 = ORIENTED_EDGE ( 'NONE', *, *, #777, .F. ) ;
#421 = CARTESIAN_POINT ( 'NONE',  ( 2.000000000000000000, 0.5999999999999972022, -4.799999999999999822 ) ) ;
#422 = ORIENTED_EDGE ( 'NONE', *, *, #53, .F. ) ;
#423 = LINE ( 'NONE', #118, #1170 ) ;
#424 = LINE ( 'NONE', #1163, #1081 ) ;
#425 = CARTESIAN_POINT ( 'NONE',  ( 0.000000000000000000, 0.000000000000000000, 20.00000000000000000 ) ) ;
#426 = ORIENTED_EDGE ( 'NONE', *, *, #538, .F. ) ;
#427 = DIRECTION ( 'NONE',  ( -0.000000000000000000, -0.000000000000000000, 1.000000000000000000 ) ) ;
#428 = ORIENTED_EDGE ( 'NONE', *, *, #921, .F. ) ;
#429 = DIRECTION ( 'NONE',  ( 0.000000000000000000, 0.000000000000000000, -1.000000000000000000 ) ) ;
#430 = DIRECTION ( 'NONE',  ( 0.000000000000000000, -1.376454118767770729E-16, -1.000000000000000000 ) ) ;
#431 = CALENDAR_DATE ( 2026, 27, 4 ) ;
#432 = VECTOR ( 'NONE', #1070, 1000.000000000000000 ) ;
#433 = ORIENTED_EDGE ( 'NONE', *, *, #780, .F. ) ;
#434 = LINE ( 'NONE', #241, #506 ) ;
#435 = AXIS2_PLACEMENT_3D ( 'NONE', #1164, #932, #96 ) ;
#436 = ORIENTED_EDGE ( 'NONE', *, *, #1089, .T. ) ;
#437 = DIRECTION ( 'NONE',  ( -0.000000000000000000, -0.000000000000000000, 1.000000000000000000 ) ) ;
#438 = EDGE_CURVE ( 'NONE', #247, #175, #1127, .T. ) ;
#439 = CARTESIAN_POINT ( 'NONE',  ( 0.000000000000000000, 6.999999999999997335, -4.800000000000000711 ) ) ;
#440 = EDGE_CURVE ( 'NONE', #967, #1211, #87, .T. ) ;
#441 = DATE_AND_TIME ( #31, #1120 ) ;
#442 = EDGE_LOOP ( 'NONE', ( #1349, #1208, #697, #927 ) ) ;
#443 = VECTOR ( 'NONE', #291, 1000.000000000000000 ) ;
#444 = PLANE ( 'NONE',  #774 ) ;
#445 = ORIENTED_EDGE ( 'NONE', *, *, #481, .T. ) ;
#446 = LINE ( 'NONE', #1328, #357 ) ;
#447 = LINE ( 'NONE', #875, #606 ) ;
#448 = AXIS2_PLACEMENT_3D ( 'NONE', #414, #649, #859 ) ;
#449 = PERSON_AND_ORGANIZATION ( #944, #1270 ) ;
#450 = VECTOR ( 'NONE', #1097, 1000.000000000000000 ) ;
#451 = VERTEX_POINT ( 'NONE', #395 ) ;
#452 = DIRECTION ( 'NONE',  ( 1.000000000000000000, 0.000000000000000000, 0.000000000000000000 ) ) ;
#453 = VERTEX_POINT ( 'NONE', #67 ) ;
#454 = DIRECTION ( 'NONE',  ( 1.000000000000000000, 0.000000000000000000, 0.000000000000000000 ) ) ;
#455 = LINE ( 'NONE', #883, #418 ) ;
#456 = VERTEX_POINT ( 'NONE', #1240 ) ;
#457 = DIRECTION ( 'NONE',  ( 0.000000000000000000, 0.000000000000000000, 1.000000000000000000 ) ) ;
#458 = AXIS2_PLACEMENT_3D ( 'NONE', #425, #843, #750 ) ;
#459 = ORIENTED_EDGE ( 'NONE', *, *, #989, .T. ) ;
#460 = LINE ( 'NONE', #131, #537 ) ;
#461 = VECTOR ( 'NONE', #1348, 1000.000000000000000 ) ;
#462 = EDGE_LOOP ( 'NONE', ( #269, #1077 ) ) ;
#463 = CARTESIAN_POINT ( 'NONE',  ( 2.000000000000000000, 1.999999999999999112, -3.600000000000005862 ) ) ;
#464 = ORIENTED_EDGE ( 'NONE', *, *, #675, .F. ) ;
#465 = CARTESIAN_POINT ( 'NONE',  ( -2.799999999999999378, 7.000011999999999013, -3.599999999999990763 ) ) ;
#466 = VECTOR ( 'NONE', #1132, 1000.000000000000000 ) ;
#467 = CARTESIAN_POINT ( 'NONE',  ( -1.226697315155026950E-14, 7.000011999999999013, -3.600000000000000533 ) ) ;
#468 = FACE_OUTER_BOUND ( 'NONE', #584, .T. ) ;
#469 = PLANE ( 'NONE',  #191 ) ;
#470 = VECTOR ( 'NONE', #1232, 1000.000000000000000 ) ;
#471 = ORIENTED_EDGE ( 'NONE', *, *, #740, .F. ) ;
#472 = PLANE ( 'NONE',  #97 ) ;
#473 = LINE ( 'NONE', #1309, #1195 ) ;
#474 = EDGE_CURVE ( 'NONE', #990, #456, #300, .T. ) ;
#475 = DIRECTION ( 'NONE',  ( 1.000000000000000000, 0.000000000000000000, -0.000000000000000000 ) ) ;
#476 = DIRECTION ( 'NONE',  ( -1.000000000000000000, 0.000000000000000000, 0.000000000000000000 ) ) ;
#477 = ORIENTED_EDGE ( 'NONE', *, *, #613, .T. ) ;
#478 = AXIS2_PLACEMENT_3D ( 'NONE', #887, #351, #555 ) ;
#479 = DIRECTION ( 'NONE',  ( -0.000000000000000000, 1.000000000000000000, -0.000000000000000000 ) ) ;
#480 = VECTOR ( 'NONE', #103, 1000.000000000000000 ) ;
#481 = EDGE_CURVE ( 'NONE', #453, #1224, #699, .T. ) ;
#482 = VERTEX_POINT ( 'NONE', #745 ) ;
#483 = LINE ( 'NONE', #803, #90 ) ;
#484 = VERTEX_POINT ( 'NONE', #625 ) ;
#485 = DIRECTION ( 'NONE',  ( -0.000000000000000000, -0.000000000000000000, -1.000000000000000000 ) ) ;
#486 = DIRECTION ( 'NONE',  ( -0.000000000000000000, 1.734723475976807094E-16, 1.000000000000000000 ) ) ;
#487 = VECTOR ( 'NONE', #430, 1000.000000000000000 ) ;
#488 = AXIS2_PLACEMENT_3D ( 'NONE', #1294, #257, #1282 ) ;
#489 = CIRCLE ( 'NONE', #119, 2.000000000000000000 ) ;
#490 = ORIENTED_EDGE ( 'NONE', *, *, #328, .F. ) ;
#491 = FACE_OUTER_BOUND ( 'NONE', #516, .T. ) ;
#492 = VECTOR ( 'NONE', #1302, 1000.000000000000000 ) ;
#493 = ORIENTED_EDGE ( 'NONE', *, *, #1031, .T. ) ;
#494 = AXIS2_PLACEMENT_3D ( 'NONE', #815, #78, #164 ) ;
#495 = CARTESIAN_POINT ( 'NONE',  ( -1.226697315155026950E-14, 1.999999999999999112, -3.600000000000000533 ) ) ;
#496 = ADVANCED_FACE ( 'NONE', ( #632 ), #1252, .F. ) ;
#497 = AXIS2_PLACEMENT_3D ( 'NONE', #1305, #975, #958 ) ;
#498 = CARTESIAN_POINT ( 'NONE',  ( 8.673617379884035472E-16, 0.5999999999999976463, -2.799999999999998934 ) ) ;
#499 = DIRECTION ( 'NONE',  ( 0.000000000000000000, 0.000000000000000000, 1.000000000000000000 ) ) ;
#500 = DIRECTION ( 'NONE',  ( -0.000000000000000000, 0.000000000000000000, -1.000000000000000000 ) ) ;
#501 = ADVANCED_FACE ( 'NONE', ( #1262 ), #11, .F. ) ;
#502 = ORIENTED_EDGE ( 'NONE', *, *, #1200, .F. ) ;
#503 = PLANE ( 'NONE',  #1151 ) ;
#504 = EDGE_CURVE ( 'NONE', #1224, #405, #949, .T. ) ;
#505 = CARTESIAN_POINT ( 'NONE',  ( 2.800000000000000266, 1.999999999999999112, -3.600000000000000533 ) ) ;
#506 = VECTOR ( 'NONE', #669, 1000.000000000000000 ) ;
#507 = LOCAL_TIME ( 16, 4, 59.00000000000000000, #567 ) ;
#508 = LINE ( 'NONE', #716, #668 ) ;
#509 = EDGE_LOOP ( 'NONE', ( #1142, #735, #978, #1148 ) ) ;
#510 = CARTESIAN_POINT ( 'NONE',  ( -7.124757133476169966E-15, 1.999999999999999112, -2.000000000000000444 ) ) ;
#511 = EDGE_CURVE ( 'NONE', #838, #967, #866, .T. ) ;
#512 = LINE ( 'NONE', #1220, #1317 ) ;
#513 = DATE_TIME_ROLE ( 'classification_date' ) ;
#514 = AXIS2_PLACEMENT_3D ( 'NONE', #739, #638, #956 ) ;
#515 = CARTESIAN_POINT ( 'NONE',  ( -1.999999999999999556, 0.5999999999999972022, -4.799999999999999822 ) ) ;
#516 = EDGE_LOOP ( 'NONE', ( #502, #1050, #676, #1168, #1010, #311, #194, #1083, #601, #400, #1058, #575, #471, #1184 ) ) ;
#517 = CARTESIAN_POINT ( 'NONE',  ( 0.7999999999999999334, 6.999999999999999112, -1.763491390772188461E-15 ) ) ;
#518 = EDGE_LOOP ( 'NONE', ( #760, #744, #1045, #1287, #922, #933, #343, #987, #771 ) ) ;
#519 = CARTESIAN_POINT ( 'NONE',  ( 0.8000000000000003775, 6.999999999999999112, -1.763491390772188461E-15 ) ) ;
#520 = VECTOR ( 'NONE', #736, 1000.000000000000000 ) ;
#521 = EDGE_CURVE ( 'NONE', #484, #1198, #423, .T. ) ;
#522 = ADVANCED_FACE ( 'NONE', ( #861 ), #943, .T. ) ;
#523 = CARTESIAN_POINT ( 'NONE',  ( -2.799999999999999378, 0.000000000000000000, -20.74109319622884939 ) ) ;
#524 = ORIENTED_EDGE ( 'NONE', *, *, #1326, .T. ) ;
#525 = LINE ( 'NONE', #1154, #591 ) ;
#526 = ORIENTED_EDGE ( 'NONE', *, *, #1027, .T. ) ;
#527 = DIRECTION ( 'NONE',  ( 1.000000000000000000, 0.000000000000000000, 0.000000000000000000 ) ) ;
#528 = ADVANCED_FACE ( 'NONE', ( #1268 ), #325, .T. ) ;
#529 = VECTOR ( 'NONE', #995, 1000.000000000000000 ) ;
#530 =( LENGTH_UNIT ( ) NAMED_UNIT ( * ) SI_UNIT ( .MILLI., .METRE. ) );
#531 = VERTEX_POINT ( 'NONE', #107 ) ;
#532 = CARTESIAN_POINT ( 'NONE',  ( 2.800000000000000266, 4.381780460041327707, -20.74109319622884939 ) ) ;
#533 = VERTEX_POINT ( 'NONE', #416 ) ;
#534 = COORDINATED_UNIVERSAL_TIME_OFFSET ( 5, 0, .BEHIND. ) ;
#535 = LINE ( 'NONE', #230, #487 ) ;
#536 = AXIS2_PLACEMENT_3D ( 'NONE', #1130, #1012, #1316 ) ;
#537 = VECTOR ( 'NONE', #1086, 1000.000000000000000 ) ;
#538 = EDGE_CURVE ( 'NONE', #694, #1231, #550, .T. ) ;
#539 = ORIENTED_EDGE ( 'NONE', *, *, #594, .F. ) ;
#540 = DIRECTION ( 'NONE',  ( 1.000000000000000000, 0.000000000000000000, 0.000000000000000000 ) ) ;
#541 = ADVANCED_FACE ( 'NONE', ( #333 ), #763, .T. ) ;
#542 = ORIENTED_EDGE ( 'NONE', *, *, #388, .F. ) ;
#543 = DIRECTION ( 'NONE',  ( 0.000000000000000000, -1.000000000000000000, 1.836970198721029688E-16 ) ) ;
#544 = VECTOR ( 'NONE', #593, 1000.000000000000000 ) ;
#545 = PRODUCT ( 'MagnetiSpringGetti', 'MagnetiSpringGetti', '', ( #836 ) ) ;
#546 = ORIENTED_EDGE ( 'NONE', *, *, #253, .F. ) ;
#547 = CARTESIAN_POINT ( 'NONE',  ( 0.7999999999999999334, 7.000011999999999013, -5.600000000000001421 ) ) ;
#548 = EDGE_CURVE ( 'NONE', #865, #694, #846, .T. ) ;
#549 = ORIENTED_EDGE ( 'NONE', *, *, #521, .T. ) ;
#550 = LINE ( 'NONE', #1046, #1038 ) ;
#551 = EDGE_CURVE ( 'NONE', #902, #961, #408, .T. ) ;
#552 = LINE ( 'NONE', #1263, #466 ) ;
#553 = PERSON_AND_ORGANIZATION_ROLE ( 'design_owner' ) ;
#554 = ORIENTED_EDGE ( 'NONE', *, *, #780, .T. ) ;
#555 = DIRECTION ( 'NONE',  ( 0.000000000000000000, 1.376454118767770729E-16, 1.000000000000000000 ) ) ;
#556 = EDGE_LOOP ( 'NONE', ( #98, #282, #691, #814 ) ) ;
#557 = CARTESIAN_POINT ( 'NONE',  ( 0.7999999999999999334, 1.999999999999999112, -1.763491390772188461E-15 ) ) ;
#558 = CARTESIAN_POINT ( 'NONE',  ( 2.800000000000000266, 6.999999999999999112, -1.763491390772188461E-15 ) ) ;
#559 = PERSON_AND_ORGANIZATION ( #944, #1270 ) ;
#560 = ORIENTED_EDGE ( 'NONE', *, *, #551, .T. ) ;
#561 = VECTOR ( 'NONE', #277, 1000.000000000000000 ) ;
#562 = LINE ( 'NONE', #150, #172 ) ;
#563 = ORIENTED_EDGE ( 'NONE', *, *, #868, .F. ) ;
#564 = CYLINDRICAL_SURFACE ( 'NONE', #759, 5.200000000000000178 ) ;
#565 = EDGE_CURVE ( 'NONE', #985, #939, #306, .T. ) ;
#566 = VECTOR ( 'NONE', #1255, 1000.000000000000000 ) ;
#567 = COORDINATED_UNIVERSAL_TIME_OFFSET ( 5, 0, .BEHIND. ) ;
#568 = VECTOR ( 'NONE', #364, 1000.000000000000000 ) ;
#569 = ADVANCED_FACE ( 'NONE', ( #1192 ), #472, .T. ) ;
#570 = ORIENTED_EDGE ( 'NONE', *, *, #278, .F. ) ;
#571 = CARTESIAN_POINT ( 'NONE',  ( 0.000000000000000000, 0.000000000000000000, 16.00000000000000000 ) ) ;
#572 = EDGE_LOOP ( 'NONE', ( #629, #332, #641, #413 ) ) ;
#573 = DIRECTION ( 'NONE',  ( 0.000000000000000000, -1.000000000000000000, 0.000000000000000000 ) ) ;
#574 = EDGE_CURVE ( 'NONE', #228, #1155, #873, .T. ) ;
#575 = ORIENTED_EDGE ( 'NONE', *, *, #481, .F. ) ;
#576 = DIRECTION ( 'NONE',  ( 0.000000000000000000, 1.000000000000000000, -1.836970198721029688E-16 ) ) ;
#577 = VECTOR ( 'NONE', #677, 1000.000000000000000 ) ;
#578 = ORIENTED_EDGE ( 'NONE', *, *, #293, .F. ) ;
#579 = DIRECTION ( 'NONE',  ( 1.000000000000000000, 0.000000000000000000, 0.000000000000000000 ) ) ;
#580 = APPROVAL_PERSON_ORGANIZATION ( #449, #673, #773 ) ;
#581 = CYLINDRICAL_SURFACE ( 'NONE', #1259, 2.000000000000000000 ) ;
#582 = CARTESIAN_POINT ( 'NONE',  ( 2.800000000000000266, 1.999999999999999112, -3.600000000000000533 ) ) ;
#583 = VECTOR ( 'NONE', #42, 1000.000000000000000 ) ;
#584 = EDGE_LOOP ( 'NONE', ( #1285, #1039, #888 ) ) ;
#585 = DIRECTION ( 'NONE',  ( -0.000000000000000000, 1.000000000000000000, -1.376454118767770729E-16 ) ) ;
#586 = VECTOR ( 'NONE', #840, 1000.000000000000000 ) ;
#587 = EDGE_CURVE ( 'NONE', #838, #71, #141, .T. ) ;
#588 = FACE_OUTER_BOUND ( 'NONE', #918, .T. ) ;
#589 = CARTESIAN_POINT ( 'NONE',  ( 0.000000000000000000, 6.999999999999997335, -4.800000000000000711 ) ) ;
#590 = CARTESIAN_POINT ( 'NONE',  ( 0.000000000000000000, 1.999999999999999112, -1.763491390772188461E-15 ) ) ;
#591 = VECTOR ( 'NONE', #1036, 1000.000000000000000 ) ;
#592 = ORIENTED_EDGE ( 'NONE', *, *, #1200, .T. ) ;
#593 = DIRECTION ( 'NONE',  ( 0.000000000000000000, -1.000000000000000000, 1.734723475976807341E-16 ) ) ;
#594 = EDGE_CURVE ( 'NONE', #456, #533, #52, .T. ) ;
#595 = VERTEX_POINT ( 'NONE', #243 ) ;
#596 = CARTESIAN_POINT ( 'NONE',  ( -1.226697315155026950E-14, 1.999999999999999112, -3.600000000000000533 ) ) ;
#597 = ORIENTED_EDGE ( 'NONE', *, *, #897, .F. ) ;
#598 = CARTESIAN_POINT ( 'NONE',  ( -2.799999999999999378, 7.000011999999999013, -1.999999999999990452 ) ) ;
#599 = VECTOR ( 'NONE', #657, 1000.000000000000000 ) ;
#600 = FACE_OUTER_BOUND ( 'NONE', #1218, .T. ) ;
#601 = ORIENTED_EDGE ( 'NONE', *, *, #227, .T. ) ;
#602 = CARTESIAN_POINT ( 'NONE',  ( 0.000000000000000000, 0.000000000000000000, 20.80000000000000071 ) ) ;
#603 = EDGE_LOOP ( 'NONE', ( #1069, #560, #658 ) ) ;
#604 = LINE ( 'NONE', #1114, #544 ) ;
#605 = PLANE ( 'NONE',  #200 ) ;
#606 = VECTOR ( 'NONE', #1283, 1000.000000000000000 ) ;
#607 = CARTESIAN_POINT ( 'NONE',  ( -2.799999999999999378, 6.999999999999999112, -3.600000000000000533 ) ) ;
#608 = DIRECTION ( 'NONE',  ( -0.000000000000000000, 0.000000000000000000, 1.000000000000000000 ) ) ;
#609 = EDGE_CURVE ( 'NONE', #366, #360, #670, .T. ) ;
#610 = VERTEX_POINT ( 'NONE', #236 ) ;
#611 = CARTESIAN_POINT ( 'NONE',  ( -1.999999999999999556, 6.999999999999998224, -9.635178831374391652E-16 ) ) ;
#612 = LINE ( 'NONE', #271, #330 ) ;
#613 = EDGE_CURVE ( 'NONE', #58, #1291, #460, .T. ) ;
#614 = DIRECTION ( 'NONE',  ( 1.000000000000000000, 0.000000000000000000, 0.000000000000000000 ) ) ;
#615 = CARTESIAN_POINT ( 'NONE',  ( -2.799999999999999378, 6.999999999999999112, -1.999999999999990452 ) ) ;
#616 = VERTEX_POINT ( 'NONE', #557 ) ;
#617 = PLANE ( 'NONE',  #1087 ) ;
#618 = CARTESIAN_POINT ( 'NONE',  ( -1.999999999999999556, 6.999999999999998224, -0.8000000000000003775 ) ) ;
#619 = VECTOR ( 'NONE', #371, 1000.000000000000000 ) ;
#620 = CC_DESIGN_APPROVAL ( #673, ( #29 ) ) ;
#621 = DIRECTION ( 'NONE',  ( 1.000000000000000000, 0.000000000000000000, -3.562378566738084983E-15 ) ) ;
#622 = ORIENTED_EDGE ( 'NONE', *, *, #1134, .F. ) ;
#623 = FACE_OUTER_BOUND ( 'NONE', #980, .T. ) ;
#624 = EDGE_CURVE ( 'NONE', #117, #1043, #1298, .T. ) ;
#625 = CARTESIAN_POINT ( 'NONE',  ( -2.799999999999999378, 6.999999999999999112, -1.763491390772188461E-15 ) ) ;
#626 = ADVANCED_FACE ( 'NONE', ( #340 ), #564, .T. ) ;
#627 = AXIS2_PLACEMENT_3D ( 'NONE', #467, #349, #251 ) ;
#628 = DIRECTION ( 'NONE',  ( -0.000000000000000000, 0.000000000000000000, 1.000000000000000000 ) ) ;
#629 = ORIENTED_EDGE ( 'NONE', *, *, #188, .T. ) ;
#630 = CARTESIAN_POINT ( 'NONE',  ( 4.594851000000000241, 0.000000000000000000, 16.00000000000000000 ) ) ;
#631 = ORIENTED_EDGE ( 'NONE', *, *, #438, .T. ) ;
#632 = FACE_OUTER_BOUND ( 'NONE', #572, .T. ) ;
#633 = CLOSED_SHELL ( 'NONE', ( #1295, #1202, #296, #954, #1233, #1311, #76, #1057, #1073, #210, #276, #316, #338, #795, #626, #1095, #789, #286, #354, #767, #217, #813, #1004, #1210, #18, #528, #1194, #268, #851, #1256, #569, #501, #522, #419, #62, #541, #951, #1217, #1264, #496 ) ) ;
#634 = EDGE_CURVE ( 'NONE', #58, #1224, #1288, .T. ) ;
#635 = CARTESIAN_POINT ( 'NONE',  ( 2.000000000000000000, 1.999999999999999112, -3.600000000000005862 ) ) ;
#636 = EDGE_LOOP ( 'NONE', ( #894, #352, #370, #796 ) ) ;
#637 = DIRECTION ( 'NONE',  ( 1.000000000000000000, -0.000000000000000000, -0.000000000000000000 ) ) ;
#638 = DIRECTION ( 'NONE',  ( 1.000000000000000000, -0.000000000000000000, 0.000000000000000000 ) ) ;
#639 = LINE ( 'NONE', #741, #171 ) ;
#640 = EDGE_CURVE ( 'NONE', #1155, #117, #647, .T. ) ;
#641 = ORIENTED_EDGE ( 'NONE', *, *, #1099, .F. ) ;
#642 = LINE ( 'NONE', #421, #1162 ) ;
#643 = CARTESIAN_POINT ( 'NONE',  ( -2.799999999999999378, 4.381780460041328595, -20.74109319622884939 ) ) ;
#644 = PLANE ( 'NONE',  #308 ) ;
#645 = CALENDAR_DATE ( 2026, 27, 4 ) ;
#646 = AXIS2_PLACEMENT_3D ( 'NONE', #20, #527, #429 ) ;
#647 = CIRCLE ( 'NONE', #160, 5.200000000000000178 ) ;
#648 = ORIENTED_EDGE ( 'NONE', *, *, #869, .T. ) ;
#649 = DIRECTION ( 'NONE',  ( -0.000000000000000000, 0.000000000000000000, 1.000000000000000000 ) ) ;
#650 = EDGE_CURVE ( 'NONE', #228, #985, #367, .T. ) ;
#651 = ORIENTED_EDGE ( 'NONE', *, *, #196, .F. ) ;
#652 = DIRECTION ( 'NONE',  ( 0.000000000000000000, 0.000000000000000000, 1.000000000000000000 ) ) ;
#653 = DIRECTION ( 'NONE',  ( -1.000000000000000000, 0.000000000000000000, 0.000000000000000000 ) ) ;
#654 = AXIS2_PLACEMENT_3D ( 'NONE', #401, #1239, #283 ) ;
#655 = PERSON_AND_ORGANIZATION_ROLE ( 'creator' ) ;
#656 = EDGE_LOOP ( 'NONE', ( #870, #146, #218, #762, #168 ) ) ;
#657 = DIRECTION ( 'NONE',  ( -1.084202172485504311E-16, -1.376454118767770729E-16, -1.000000000000000000 ) ) ;
#658 = ORIENTED_EDGE ( 'NONE', *, *, #705, .F. ) ;
#659 = CARTESIAN_POINT ( 'NONE',  ( 0.000000000000000000, 0.000000000000000000, -6.599999999999999645 ) ) ;
#660 = CARTESIAN_POINT ( 'NONE',  ( 0.7999999999999999334, 5.138093031466051563, -1.763491390772188461E-15 ) ) ;
#661 = APPROVAL_STATUS ( 'not_yet_approved' ) ;
#662 = ORIENTED_EDGE ( 'NONE', *, *, #372, .T. ) ;
#663 = CARTESIAN_POINT ( 'NONE',  ( 0.000000000000000000, 0.000000000000000000, 16.00000000000000000 ) ) ;
#664 = ORIENTED_EDGE ( 'NONE', *, *, #707, .T. ) ;
#665 = DIRECTION ( 'NONE',  ( -0.000000000000000000, -0.000000000000000000, 1.000000000000000000 ) ) ;
#666 = PERSON_AND_ORGANIZATION_ROLE ( 'classification_officer' ) ;
#667 = VERTEX_POINT ( 'NONE', #1072 ) ;
#668 = VECTOR ( 'NONE', #326, 1000.000000000000000 ) ;
#669 = DIRECTION ( 'NONE',  ( -0.000000000000000000, 1.000000000000000000, -0.000000000000000000 ) ) ;
#670 = CIRCLE ( 'NONE', #959, 2.000000000000000000 ) ;
#671 = ORIENTED_EDGE ( 'NONE', *, *, #38, .F. ) ;
#672 = DIRECTION ( 'NONE',  ( 0.000000000000000000, 1.490777987167568597E-16, 1.000000000000000000 ) ) ;
#673 = APPROVAL ( #876, 'UNSPECIFIED' ) ;
#674 = DIRECTION ( 'NONE',  ( 1.000000000000000000, -0.000000000000000000, 0.000000000000000000 ) ) ;
#675 = EDGE_CURVE ( 'NONE', #360, #175, #1199, .T. ) ;
#676 = ORIENTED_EDGE ( 'NONE', *, *, #587, .F. ) ;
#677 = DIRECTION ( 'NONE',  ( -0.000000000000000000, -0.000000000000000000, -1.000000000000000000 ) ) ;
#678 = ORIENTED_EDGE ( 'NONE', *, *, #565, .T. ) ;
#679 = DIRECTION ( 'NONE',  ( 0.000000000000000000, 1.626303258728256651E-16, 1.000000000000000000 ) ) ;
#680 = EDGE_LOOP ( 'NONE', ( #249, #863 ) ) ;
#681 = CARTESIAN_POINT ( 'NONE',  ( -0.8000000000000001554, 5.138093031466051563, -1.763491390772188461E-15 ) ) ;
#682 = EDGE_CURVE ( 'NONE', #313, #247, #489, .T. ) ;
#683 = VECTOR ( 'NONE', #1325, 1000.000000000000000 ) ;
#684 = ORIENTED_EDGE ( 'NONE', *, *, #930, .F. ) ;
#685 = DIRECTION ( 'NONE',  ( -1.000000000000000000, 0.000000000000000000, 0.000000000000000000 ) ) ;
#686 =( GEOMETRIC_REPRESENTATION_CONTEXT ( 3 ) GLOBAL_UNCERTAINTY_ASSIGNED_CONTEXT ( ( #1186 ) ) GLOBAL_UNIT_ASSIGNED_CONTEXT ( ( #530, #320, #417 ) ) REPRESENTATION_CONTEXT ( 'NONE', 'WORKASPACE' ) );
#687 = DIRECTION ( 'NONE',  ( 0.000000000000000000, 0.000000000000000000, -1.000000000000000000 ) ) ;
#688 = ORIENTED_EDGE ( 'NONE', *, *, #193, .F. ) ;
#689 = FACE_OUTER_BOUND ( 'NONE', #817, .T. ) ;
#690 = EDGE_CURVE ( 'NONE', #1224, #1092, #882, .T. ) ;
#691 = ORIENTED_EDGE ( 'NONE', *, *, #787, .T. ) ;
#692 = LINE ( 'NONE', #394, #1064 ) ;
#693 = VECTOR ( 'NONE', #637, 1000.000000000000000 ) ;
#694 = VERTEX_POINT ( 'NONE', #981 ) ;
#695 = DIRECTION ( 'NONE',  ( 0.000000000000000000, 0.000000000000000000, -1.000000000000000000 ) ) ;
#696 = CC_DESIGN_PERSON_AND_ORGANIZATION_ASSIGNMENT ( #559, #655, ( #362 ) ) ;
#697 = ORIENTED_EDGE ( 'NONE', *, *, #318, .T. ) ;
#698 = PLANE ( 'NONE',  #899 ) ;
#699 = LINE ( 'NONE', #1116, #1060 ) ;
#700 = DIRECTION ( 'NONE',  ( 1.000000000000000000, 0.000000000000000000, 0.000000000000000000 ) ) ;
#701 = DIRECTION ( 'NONE',  ( 3.562378566738084983E-15, 0.000000000000000000, 1.000000000000000000 ) ) ;
#702 = ORIENTED_EDGE ( 'NONE', *, *, #81, .T. ) ;
#703 = DIRECTION ( 'NONE',  ( -1.000000000000000000, 0.000000000000000000, 3.407492542097297170E-15 ) ) ;
#704 = AXIS2_PLACEMENT_3D ( 'NONE', #255, #1300, #1098 ) ;
#705 = EDGE_CURVE ( 'NONE', #313, #961, #895, .T. ) ;
#706 = FACE_OUTER_BOUND ( 'NONE', #1013, .T. ) ;
#707 = EDGE_CURVE ( 'NONE', #274, #1028, #229, .T. ) ;
#708 = DIRECTION ( 'NONE',  ( 0.000000000000000000, 0.000000000000000000, 1.000000000000000000 ) ) ;
#709 = PLANE ( 'NONE',  #132 ) ;
#710 = ORIENTED_EDGE ( 'NONE', *, *, #1329, .T. ) ;
#711 = PLANE ( 'NONE',  #737 ) ;
#712 = DIRECTION ( 'NONE',  ( 0.000000000000000000, -1.000000000000000000, 1.734723475976807094E-16 ) ) ;
#713 = AXIS2_PLACEMENT_3D ( 'NONE', #112, #1271, #614 ) ;
#714 = AXIS2_PLACEMENT_3D ( 'NONE', #1308, #1206, #454 ) ;
#715 = EDGE_CURVE ( 'NONE', #71, #971, #963, .T. ) ;
#716 = CARTESIAN_POINT ( 'NONE',  ( -2.799999999999999378, 1.999999999999999112, 0.000000000000000000 ) ) ;
#717 = CARTESIAN_POINT ( 'NONE',  ( -2.799999999999999378, -2.600000000000000089, -5.599999999999999645 ) ) ;
#718 = ORIENTED_EDGE ( 'NONE', *, *, #312, .T. ) ;
#719 = LINE ( 'NONE', #314, #693 ) ;
#720 = LINE ( 'NONE', #1345, #443 ) ;
#721 = CARTESIAN_POINT ( 'NONE',  ( 2.800000000000000266, 1.999999999999999112, -2.000000000000010658 ) ) ;
#722 = DIRECTION ( 'NONE',  ( 1.000000000000000000, 0.000000000000000000, 0.000000000000000000 ) ) ;
#723 = ORIENTED_EDGE ( 'NONE', *, *, #328, .T. ) ;
#724 = DIRECTION ( 'NONE',  ( 1.000000000000000000, 0.000000000000000000, 0.000000000000000000 ) ) ;
#725 = EDGE_CURVE ( 'NONE', #858, #902, #446, .T. ) ;
#726 = ORIENTED_EDGE ( 'NONE', *, *, #246, .F. ) ;
#727 = CARTESIAN_POINT ( 'NONE',  ( 0.7999999999999999334, 1.999999999999999112, 0.000000000000000000 ) ) ;
#728 = CIRCLE ( 'NONE', #368, 5.200000000000000178 ) ;
#729 = DIRECTION ( 'NONE',  ( 1.084202172485504187E-16, 0.000000000000000000, 1.000000000000000000 ) ) ;
#730 = ORIENTED_EDGE ( 'NONE', *, *, #227, .F. ) ;
#731 = CARTESIAN_POINT ( 'NONE',  ( 2.000000000000000444, 0.5999999999999980904, -0.7999999999999992673 ) ) ;
#732 = CARTESIAN_POINT ( 'NONE',  ( 2.800000000000000266, 6.999999999999999112, -1.763491390772188461E-15 ) ) ;
#733 = VECTOR ( 'NONE', #764, 1000.000000000000000 ) ;
#734 = PLANE ( 'NONE',  #410 ) ;
#735 = ORIENTED_EDGE ( 'NONE', *, *, #640, .F. ) ;
#736 = DIRECTION ( 'NONE',  ( 0.000000000000000000, 0.000000000000000000, -1.000000000000000000 ) ) ;
#737 = AXIS2_PLACEMENT_3D ( 'NONE', #495, #1022, #703 ) ;
#738 = ORIENTED_EDGE ( 'NONE', *, *, #777, .T. ) ;
#739 = CARTESIAN_POINT ( 'NONE',  ( 2.800000000000000266, 0.000000000000000000, -20.74109319622884939 ) ) ;
#740 = EDGE_CURVE ( 'NONE', #971, #453, #59, .T. ) ;
#741 = CARTESIAN_POINT ( 'NONE',  ( 2.000000000000000444, 1.999999999999999112, -2.168404344971008868E-16 ) ) ;
#742 = ORIENTED_EDGE ( 'NONE', *, *, #855, .F. ) ;
#743 = LINE ( 'NONE', #1051, #940 ) ;
#744 = ORIENTED_EDGE ( 'NONE', *, *, #837, .F. ) ;
#745 = CARTESIAN_POINT ( 'NONE',  ( -2.799999999999999378, 1.999999999999999112, -1.999999999999990452 ) ) ;
#746 = EDGE_CURVE ( 'NONE', #266, #1092, #1219, .T. ) ;
#747 = CARTESIAN_POINT ( 'NONE',  ( 8.673617379884035472E-16, 0.5999999999999979794, -0.7999999999999990452 ) ) ;
#748 = AXIS2_PLACEMENT_3D ( 'NONE', #1246, #1141, #195 ) ;
#749 = EDGE_CURVE ( 'NONE', #201, #610, #270, .T. ) ;
#750 = DIRECTION ( 'NONE',  ( 1.000000000000000000, 0.000000000000000000, 0.000000000000000000 ) ) ;
#751 = ORIENTED_EDGE ( 'NONE', *, *, #84, .F. ) ;
#752 = LINE ( 'NONE', #304, #566 ) ;
#753 = VERTEX_POINT ( 'NONE', #907 ) ;
#754 = CARTESIAN_POINT ( 'NONE',  ( 0.000000000000000000, 1.999999999999999112, 0.000000000000000000 ) ) ;
#755 = APPROVAL_ROLE ( '' ) ;
#756 = FACE_OUTER_BOUND ( 'NONE', #143, .T. ) ;
#757 = APPROVAL ( #409, 'UNSPECIFIED' ) ;
#758 = SECURITY_CLASSIFICATION_LEVEL ( 'unclassified' ) ;
#759 = AXIS2_PLACEMENT_3D ( 'NONE', #1080, #353, #147 ) ;
#760 = ORIENTED_EDGE ( 'NONE', *, *, #2, .F. ) ;
#761 = CARTESIAN_POINT ( 'NONE',  ( 2.800000000000000266, 6.999999999999999112, -2.000000000000010658 ) ) ;
#762 = ORIENTED_EDGE ( 'NONE', *, *, #835, .T. ) ;
#763 = PLANE ( 'NONE',  #1171 ) ;
#764 = DIRECTION ( 'NONE',  ( 0.000000000000000000, 0.000000000000000000, 1.000000000000000000 ) ) ;
#765 = AXIS2_PLACEMENT_3D ( 'NONE', #1160, #1167, #540 ) ;
#766 = PERSON_AND_ORGANIZATION ( #944, #1270 ) ;
#767 = ADVANCED_FACE ( 'NONE', ( #1315 ), #698, .T. ) ;
#768 = ORIENTED_EDGE ( 'NONE', *, *, #188, .F. ) ;
#769 = FACE_OUTER_BOUND ( 'NONE', #1320, .T. ) ;
#770 = EDGE_CURVE ( 'NONE', #1291, #266, #1321, .T. ) ;
#771 = ORIENTED_EDGE ( 'NONE', *, *, #898, .F. ) ;
#772 = CARTESIAN_POINT ( 'NONE',  ( 8.673617379884035472E-16, -0.2000000000000023703, -2.799999999999998934 ) ) ;
#773 = APPROVAL_ROLE ( '' ) ;
#774 = AXIS2_PLACEMENT_3D ( 'NONE', #1078, #1091, #136 ) ;
#775 = ORIENTED_EDGE ( 'NONE', *, *, #215, .T. ) ;
#776 = DIRECTION ( 'NONE',  ( -0.000000000000000000, 1.000000000000000000, -0.000000000000000000 ) ) ;
#777 = EDGE_CURVE ( 'NONE', #1198, #405, #275, .T. ) ;
#778 = ORIENTED_EDGE ( 'NONE', *, *, #725, .F. ) ;
#779 = DIRECTION ( 'NONE',  ( -1.232595164407830946E-32, 1.000000000000000000, -1.432417854374730559E-16 ) ) ;
#780 = EDGE_CURVE ( 'NONE', #1174, #990, #604, .T. ) ;
#781 = CARTESIAN_POINT ( 'NONE',  ( 13.91395519155984317, 6.999999999999999112, -1.763491390772188461E-15 ) ) ;
#782 = ORIENTED_EDGE ( 'NONE', *, *, #869, .F. ) ;
#783 = AXIS2_PLACEMENT_3D ( 'NONE', #1322, #486, #712 ) ;
#784 = LINE ( 'NONE', #248, #577 ) ;
#785 = ORIENTED_EDGE ( 'NONE', *, *, #102, .T. ) ;
#786 = CARTESIAN_POINT ( 'NONE',  ( 2.800000000000000266, 1.999999999999999112, -2.000000000000010658 ) ) ;
#787 = EDGE_CURVE ( 'NONE', #616, #1279, #692, .T. ) ;
#788 = VECTOR ( 'NONE', #381, 1000.000000000000000 ) ;
#789 = ADVANCED_FACE ( 'NONE', ( #1017 ), #617, .T. ) ;
#790 = FACE_OUTER_BOUND ( 'NONE', #656, .T. ) ;
#791 = PLANE ( 'NONE',  #478 ) ;
#792 = ORIENTED_EDGE ( 'NONE', *, *, #114, .F. ) ;
#793 = DIRECTION ( 'NONE',  ( 0.000000000000000000, 0.000000000000000000, -1.000000000000000000 ) ) ;
#794 = CARTESIAN_POINT ( 'NONE',  ( -1.999999999999999556, 0.5999999999999980904, 1.467051414877173013E-16 ) ) ;
#795 = ADVANCED_FACE ( 'NONE', ( #1335 ), #1011, .F. ) ;
#796 = ORIENTED_EDGE ( 'NONE', *, *, #594, .T. ) ;
#797 = DIRECTION ( 'NONE',  ( -0.000000000000000000, 1.000000000000000000, -0.000000000000000000 ) ) ;
#798 = VECTOR ( 'NONE', #926, 1000.000000000000000 ) ;
#799 = EDGE_LOOP ( 'NONE', ( #768, #240, #203, #1113, #10 ) ) ;
#800 = DIRECTION ( 'NONE',  ( -1.000000000000000000, 0.000000000000000000, 0.000000000000000000 ) ) ;
#801 = FACE_OUTER_BOUND ( 'NONE', #1247, .T. ) ;
#802 = EDGE_LOOP ( 'NONE', ( #648, #592 ) ) ;
#803 = CARTESIAN_POINT ( 'NONE',  ( -2.799999999999999378, 6.999999999999999112, -1.763491390772188461E-15 ) ) ;
#804 = VECTOR ( 'NONE', #929, 1000.000000000000000 ) ;
#805 = EDGE_LOOP ( 'NONE', ( #1331, #726, #115, #232, #477, #39, #1314, #1245, #913, #1205, #104, #77 ) ) ;
#806 = DIRECTION ( 'NONE',  ( -1.000000000000000000, 0.000000000000000000, 0.000000000000000000 ) ) ;
#807 = VECTOR ( 'NONE', #573, 1000.000000000000000 ) ;
#808 = LINE ( 'NONE', #94, #139 ) ;
#809 = VECTOR ( 'NONE', #110, 1000.000000000000000 ) ;
#810 = ORIENTED_EDGE ( 'NONE', *, *, #551, .F. ) ;
#811 = LINE ( 'NONE', #1313, #1030 ) ;
#812 = AXIS2_PLACEMENT_3D ( 'NONE', #1318, #1103, #154 ) ;
#813 = ADVANCED_FACE ( 'NONE', ( #1225 ), #711, .F. ) ;
#814 = ORIENTED_EDGE ( 'NONE', *, *, #897, .T. ) ;
#815 = CARTESIAN_POINT ( 'NONE',  ( 2.000000000000000444, 0.5999999999999980904, -7.013529300938357318E-17 ) ) ;
#816 = DIRECTION ( 'NONE',  ( 0.000000000000000000, -1.000000000000000000, 1.734723475976807094E-16 ) ) ;
#817 = EDGE_LOOP ( 'NONE', ( #723, #106, #1062, #46, #6, #149 ) ) ;
#818 = LINE ( 'NONE', #1223, #798 ) ;
#819 = ORIENTED_EDGE ( 'NONE', *, *, #690, .T. ) ;
#820 = CARTESIAN_POINT ( 'NONE',  ( -1.999999999999999556, 0.5999999999999980904, -0.7999999999999992673 ) ) ;
#821 = CC_DESIGN_PERSON_AND_ORGANIZATION_ASSIGNMENT ( #127, #666, ( #885 ) ) ;
#822 = DIRECTION ( 'NONE',  ( -0.000000000000000000, 1.734723475976807094E-16, 1.000000000000000000 ) ) ;
#823 = CARTESIAN_POINT ( 'NONE',  ( -1.999999999999999556, 6.999999999999997335, -4.800000000000000711 ) ) ;
#824 = CARTESIAN_POINT ( 'NONE',  ( 2.000000000000000000, 6.999999999999999112, -0.7999999999999992673 ) ) ;
#825 = ORIENTED_EDGE ( 'NONE', *, *, #705, .T. ) ;
#826 = DIRECTION ( 'NONE',  ( 0.000000000000000000, 1.000000000000000000, -0.000000000000000000 ) ) ;
#827 = CARTESIAN_POINT ( 'NONE',  ( -2.799999999999999378, 4.381780460041328595, -1.999999999999991340 ) ) ;
#828 = VECTOR ( 'NONE', #1201, 1000.000000000000000 ) ;
#829 = EDGE_CURVE ( 'NONE', #667, #336, #386, .T. ) ;
#830 = DIRECTION ( 'NONE',  ( -0.000000000000000000, -0.000000000000000000, 1.000000000000000000 ) ) ;
#831 = FACE_OUTER_BOUND ( 'NONE', #1275, .T. ) ;
#832 = EDGE_LOOP ( 'NONE', ( #19, #785 ) ) ;
#833 = DIRECTION ( 'NONE',  ( 0.000000000000000000, -1.000000000000000000, 0.000000000000000000 ) ) ;
#834 = FACE_OUTER_BOUND ( 'NONE', #802, .T. ) ;
#835 = EDGE_CURVE ( 'NONE', #175, #902, #1242, .T. ) ;
#836 = MECHANICAL_CONTEXT ( 'NONE', #12, 'mechanical' ) ;
#837 = EDGE_CURVE ( 'NONE', #336, #358, #1129, .T. ) ;
#838 = VERTEX_POINT ( 'NONE', #182 ) ;
#839 = LINE ( 'NONE', #547, #258 ) ;
#840 = DIRECTION ( 'NONE',  ( -1.084202172485504311E-16, -1.376454118767770729E-16, -1.000000000000000000 ) ) ;
#841 = AXIS2_PLACEMENT_3D ( 'NONE', #99, #941, #1044 ) ;
#842 = DATE_AND_TIME ( #1257, #92 ) ;
#843 = DIRECTION ( 'NONE',  ( 0.000000000000000000, 0.000000000000000000, 1.000000000000000000 ) ) ;
#844 = EDGE_LOOP ( 'NONE', ( #299, #819, #948, #181, #303 ) ) ;
#845 = LINE ( 'NONE', #310, #874 ) ;
#846 = LINE ( 'NONE', #519, #976 ) ;
#847 = APPROVAL_DATE_TIME ( #842, #757 ) ;
#848 = AXIS2_PLACEMENT_3D ( 'NONE', #1067, #1339, #1180 ) ;
#849 = ORIENTED_EDGE ( 'NONE', *, *, #624, .F. ) ;
#850 = DIRECTION ( 'NONE',  ( -0.000000000000000000, 1.000000000000000000, -1.734723475976807094E-16 ) ) ;
#851 = ADVANCED_FACE ( 'NONE', ( #86 ), #503, .T. ) ;
#852 = EDGE_LOOP ( 'NONE', ( #173, #1166, #93, #1090, #420 ) ) ;
#853 = DIRECTION ( 'NONE',  ( 0.000000000000000000, 0.000000000000000000, -1.000000000000000000 ) ) ;
#854 = CLOSED_SHELL ( 'NONE', ( #335, #61, #1055, #880 ) ) ;
#855 = EDGE_CURVE ( 'NONE', #451, #1152, #719, .T. ) ;
#856 = CARTESIAN_POINT ( 'NONE',  ( -4.594851000000000241, 5.627069569709015071E-16, 20.00000000000000000 ) ) ;
#857 = FACE_OUTER_BOUND ( 'NONE', #346, .T. ) ;
#858 = VERTEX_POINT ( 'NONE', #731 ) ;
#859 = DIRECTION ( 'NONE',  ( 1.000000000000000000, 0.000000000000000000, 0.000000000000000000 ) ) ;
#860 = EDGE_CURVE ( 'NONE', #197, #881, #752, .T. ) ;
#861 = FACE_OUTER_BOUND ( 'NONE', #556, .T. ) ;
#862 = LINE ( 'NONE', #222, #244 ) ;
#863 = ORIENTED_EDGE ( 'NONE', *, *, #1329, .F. ) ;
#864 = DIRECTION ( 'NONE',  ( 1.000000000000000000, 0.000000000000000000, 0.000000000000000000 ) ) ;
#865 = VERTEX_POINT ( 'NONE', #517 ) ;
#866 = LINE ( 'NONE', #221, #55 ) ;
#867 = CARTESIAN_POINT ( 'NONE',  ( -2.799999999999999378, 6.999999999999999112, -6.599999999999999645 ) ) ;
#868 = EDGE_CURVE ( 'NONE', #753, #484, #525, .T. ) ;
#869 = EDGE_CURVE ( 'NONE', #1140, #872, #1346, .T. ) ;
#870 = ORIENTED_EDGE ( 'NONE', *, *, #909, .F. ) ;
#871 = LINE ( 'NONE', #1280, #1269 ) ;
#872 = VERTEX_POINT ( 'NONE', #219 ) ;
#873 = LINE ( 'NONE', #974, #1147 ) ;
#874 = VECTOR ( 'NONE', #17, 1000.000000000000000 ) ;
#875 = CARTESIAN_POINT ( 'NONE',  ( 4.594851000000000241, 0.000000000000000000, 16.00000000000000000 ) ) ;
#876 = APPROVAL_STATUS ( 'not_yet_approved' ) ;
#877 = APPROVAL ( #661, 'UNSPECIFIED' ) ;
#878 = ORIENTED_EDGE ( 'NONE', *, *, #538, .T. ) ;
#879 = LINE ( 'NONE', #1274, #432 ) ;
#880 = ADVANCED_FACE ( 'NONE', ( #947 ), #4, .F. ) ;
#881 = VERTEX_POINT ( 'NONE', #1063 ) ;
#882 = LINE ( 'NONE', #465, #896 ) ;
#883 = CARTESIAN_POINT ( 'NONE',  ( 5.200000000000000178, 6.368163355566236381E-16, 20.00000000000000000 ) ) ;
#884 = AXIS2_PLACEMENT_3D ( 'NONE', #663, #129, #864 ) ;
#885 = SECURITY_CLASSIFICATION ( '', '', #758 ) ;
#886 = ORIENTED_EDGE ( 'NONE', *, *, #682, .T. ) ;
#887 = CARTESIAN_POINT ( 'NONE',  ( 0.000000000000000000, 0.5999999999999980904, 1.467051414877173013E-16 ) ) ;
#888 = ORIENTED_EDGE ( 'NONE', *, *, #725, .T. ) ;
#889 = CARTESIAN_POINT ( 'NONE',  ( -2.799999999999999378, 7.000011999999999013, -3.600000000000000533 ) ) ;
#890 = EDGE_CURVE ( 'NONE', #1266, #156, #845, .T. ) ;
#891 = ORIENTED_EDGE ( 'NONE', *, *, #440, .T. ) ;
#892 = VECTOR ( 'NONE', #621, 1000.000000000000000 ) ;
#893 = PLANE ( 'NONE',  #704 ) ;
#894 = ORIENTED_EDGE ( 'NONE', *, *, #318, .F. ) ;
#895 = LINE ( 'NONE', #1093, #1173 ) ;
#896 = VECTOR ( 'NONE', #60, 1000.000000000000000 ) ;
#897 = EDGE_CURVE ( 'NONE', #1279, #274, #298, .T. ) ;
#898 = EDGE_CURVE ( 'NONE', #393, #266, #743, .T. ) ;
#899 = AXIS2_PLACEMENT_3D ( 'NONE', #66, #914, #263 ) ;
#900 = PLANE ( 'NONE',  #497 ) ;
#901 = DIRECTION ( 'NONE',  ( -0.000000000000000000, 0.000000000000000000, 1.000000000000000000 ) ) ;
#902 = VERTEX_POINT ( 'NONE', #202 ) ;
#903 = CARTESIAN_POINT ( 'NONE',  ( -0.8000000000000001554, 1.999999999999999112, 0.000000000000000000 ) ) ;
#904 = DIRECTION ( 'NONE',  ( 0.000000000000000000, 1.355252715606880543E-16, 1.000000000000000000 ) ) ;
#905 = CARTESIAN_POINT ( 'NONE',  ( -2.799999999999999378, 4.381780460041328595, -3.599999999999992095 ) ) ;
#906 = ORIENTED_EDGE ( 'NONE', *, *, #312, .F. ) ;
#907 = CARTESIAN_POINT ( 'NONE',  ( -0.8000000000000001554, 6.999999999999999112, -1.763491390772188461E-15 ) ) ;
#908 = CARTESIAN_POINT ( 'NONE',  ( 2.000000000000000000, 6.999999999999997335, -4.800000000000000711 ) ) ;
#909 = EDGE_CURVE ( 'NONE', #366, #313, #406, .T. ) ;
#910 = LINE ( 'NONE', #1001, #450 ) ;
#911 = CARTESIAN_POINT ( 'NONE',  ( -4.594851000000000241, 5.627069569709015071E-16, 16.00000000000000000 ) ) ;
#912 = VECTOR ( 'NONE', #214, 1000.000000000000000 ) ;
#913 = ORIENTED_EDGE ( 'NONE', *, *, #855, .T. ) ;
#914 = DIRECTION ( 'NONE',  ( 0.000000000000000000, 1.000000000000000000, -1.376454118767770729E-16 ) ) ;
#915 = VECTOR ( 'NONE', #585, 1000.000000000000000 ) ;
#916 = FACE_OUTER_BOUND ( 'NONE', #1079, .T. ) ;
#917 = EDGE_CURVE ( 'NONE', #1342, #274, #1350, .T. ) ;
#918 = EDGE_LOOP ( 'NONE', ( #128, #1301, #563, #702, #1215, #213 ) ) ;
#919 = DIRECTION ( 'NONE',  ( -1.000000000000000000, 0.000000000000000000, 0.000000000000000000 ) ) ;
#920 = VECTOR ( 'NONE', #63, 1000.000000000000000 ) ;
#921 = EDGE_CURVE ( 'NONE', #1342, #616, #212, .T. ) ;
#922 = ORIENTED_EDGE ( 'NONE', *, *, #114, .T. ) ;
#923 = DIRECTION ( 'NONE',  ( -1.000000000000000000, 0.000000000000000000, 3.407492542097296776E-15 ) ) ;
#924 = CARTESIAN_POINT ( 'NONE',  ( -1.999999999999999556, 1.999999999999999112, -1.999999999999990452 ) ) ;
#925 = ORIENTED_EDGE ( 'NONE', *, *, #253, .T. ) ;
#926 = DIRECTION ( 'NONE',  ( 0.000000000000000000, 0.000000000000000000, -1.000000000000000000 ) ) ;
#927 = ORIENTED_EDGE ( 'NONE', *, *, #977, .F. ) ;
#928 = CARTESIAN_POINT ( 'NONE',  ( 0.000000000000000000, 1.999999999999999112, 0.000000000000000000 ) ) ;
#929 = DIRECTION ( 'NONE',  ( -0.000000000000000000, 1.000000000000000000, -0.000000000000000000 ) ) ;
#930 = EDGE_CURVE ( 'NONE', #1152, #456, #839, .T. ) ;
#931 = CARTESIAN_POINT ( 'NONE',  ( 2.000000000000000444, 0.5999999999999980904, -0.7999999999999992673 ) ) ;
#932 = DIRECTION ( 'NONE',  ( 0.000000000000000000, 0.000000000000000000, 1.000000000000000000 ) ) ;
#933 = ORIENTED_EDGE ( 'NONE', *, *, #890, .T. ) ;
#934 = AXIS2_PLACEMENT_3D ( 'NONE', #404, #1137, #189 ) ;
#935 = CARTESIAN_POINT ( 'NONE',  ( 0.7999999999999999334, 1.999999999999999112, -1.763491390772188461E-15 ) ) ;
#936 = EDGE_CURVE ( 'NONE', #967, #228, #1251, .T. ) ;
#937 = BREP_WITH_VOIDS ( 'NONE', #633, ( #43 ) );
#938 = DIRECTION ( 'NONE',  ( 0.000000000000000000, 1.355252715606880543E-16, 1.000000000000000000 ) ) ;
#939 = VERTEX_POINT ( 'NONE', #953 ) ;
#940 = VECTOR ( 'NONE', #323, 1000.000000000000000 ) ;
#941 = DIRECTION ( 'NONE',  ( -1.000000000000000000, 0.000000000000000000, 0.000000000000000000 ) ) ;
#942 = ORIENTED_EDGE ( 'NONE', *, *, #95, .T. ) ;
#943 = PLANE ( 'NONE',  #994 ) ;
#944 = PERSON ( 'UNSPECIFIED', 'UNSPECIFIED', 'UNSPECIFIED', ('UNSPECIFIED'), ('UNSPECIFIED'), ('UNSPECIFIED') ) ;
#945 = DIRECTION ( 'NONE',  ( 0.000000000000000000, 0.000000000000000000, -1.000000000000000000 ) ) ;
#946 = ORIENTED_EDGE ( 'NONE', *, *, #81, .F. ) ;
#947 = FACE_OUTER_BOUND ( 'NONE', #680, .T. ) ;
#948 = ORIENTED_EDGE ( 'NONE', *, *, #746, .F. ) ;
#949 = LINE ( 'NONE', #643, #1102 ) ;
#950 = AXIS2_PLACEMENT_3D ( 'NONE', #216, #1, #938 ) ;
#951 = ADVANCED_FACE ( 'NONE', ( #968 ), #26, .F. ) ;
#952 = VERTEX_POINT ( 'NONE', #630 ) ;
#953 = CARTESIAN_POINT ( 'NONE',  ( 2.800000000000000266, 6.999999999999999112, -1.763491390772188461E-15 ) ) ;
#954 = ADVANCED_FACE ( 'NONE', ( #623 ), #7, .F. ) ;
#955 = EDGE_LOOP ( 'NONE', ( #1250, #782, #137, #207 ) ) ;
#956 = DIRECTION ( 'NONE',  ( 0.000000000000000000, 0.000000000000000000, -1.000000000000000000 ) ) ;
#957 = SHAPE_DEFINITION_REPRESENTATION ( #205, #88 ) ;
#958 = DIRECTION ( 'NONE',  ( 0.000000000000000000, 1.376454118767770729E-16, 1.000000000000000000 ) ) ;
#959 = AXIS2_PLACEMENT_3D ( 'NONE', #772, #779, #672 ) ;
#960 = PRODUCT_RELATED_PRODUCT_CATEGORY ( 'detail', '', ( #545 ) ) ;
#961 = VERTEX_POINT ( 'NONE', #105 ) ;
#962 = CARTESIAN_POINT ( 'NONE',  ( 1.112291097817874238E-15, -0.2000000000000026479, -4.799999999999998934 ) ) ;
#963 = CIRCLE ( 'NONE', #1110, 5.200000000000000178 ) ;
#964 = EDGE_CURVE ( 'NONE', #961, #350, #642, .T. ) ;
#965 = LINE ( 'NONE', #931, #1237 ) ;
#966 = PERSON_AND_ORGANIZATION ( #944, #1270 ) ;
#967 = VERTEX_POINT ( 'NONE', #1260 ) ;
#968 = FACE_OUTER_BOUND ( 'NONE', #305, .T. ) ;
#969 = ORIENTED_EDGE ( 'NONE', *, *, #690, .F. ) ;
#970 = PLANE ( 'NONE',  #848 ) ;
#971 = VERTEX_POINT ( 'NONE', #1059 ) ;
#972 = LINE ( 'NONE', #463, #108 ) ;
#973 = ORIENTED_EDGE ( 'NONE', *, *, #964, .F. ) ;
#974 = CARTESIAN_POINT ( 'NONE',  ( 2.800000000000000266, 4.381780460041327707, -20.74109319622884939 ) ) ;
#975 = DIRECTION ( 'NONE',  ( 0.000000000000000000, 1.000000000000000000, -1.376454118767770729E-16 ) ) ;
#976 = VECTOR ( 'NONE', #1352, 1000.000000000000000 ) ;
#977 = EDGE_CURVE ( 'NONE', #451, #533, #116, .T. ) ;
#978 = ORIENTED_EDGE ( 'NONE', *, *, #1347, .F. ) ;
#979 = FACE_OUTER_BOUND ( 'NONE', #509, .T. ) ;
#980 = EDGE_LOOP ( 'NONE', ( #1159, #1182, #678, #1327 ) ) ;
#981 = CARTESIAN_POINT ( 'NONE',  ( 0.7999999999999999334, 6.999999999999998224, -0.8000000000000003775 ) ) ;
#982 = CARTESIAN_POINT ( 'NONE',  ( -0.8000000000000001554, 1.999999999999999112, -0.8000000000000003775 ) ) ;
#983 = ORIENTED_EDGE ( 'NONE', *, *, #746, .T. ) ;
#984 = CARTESIAN_POINT ( 'NONE',  ( 8.673617379884035472E-16, -0.2000000000000023703, -2.799999999999998934 ) ) ;
#985 = VERTEX_POINT ( 'NONE', #761 ) ;
#986 = CIRCLE ( 'NONE', #389, 4.594851000000000241 ) ;
#987 = ORIENTED_EDGE ( 'NONE', *, *, #770, .T. ) ;
#988 = CARTESIAN_POINT ( 'NONE',  ( -2.799999999999999378, 1.999999999999999112, -3.600000000000000533 ) ) ;
#989 = EDGE_CURVE ( 'NONE', #667, #175, #1183, .T. ) ;
#990 = VERTEX_POINT ( 'NONE', #144 ) ;
#991 = CARTESIAN_POINT ( 'NONE',  ( -0.8000000000000001554, 1.999999999999999112, -0.8000000000000003775 ) ) ;
#992 = CARTESIAN_POINT ( 'NONE',  ( -1.999999999999999556, 1.999999999999999112, -3.599999999999994316 ) ) ;
#993 = DIRECTION ( 'NONE',  ( -0.000000000000000000, 1.000000000000000000, -1.376454118767770729E-16 ) ) ;
#994 = AXIS2_PLACEMENT_3D ( 'NONE', #204, #317, #125 ) ;
#995 = DIRECTION ( 'NONE',  ( 1.000000000000000000, 0.000000000000000000, 0.000000000000000000 ) ) ;
#996 = EDGE_CURVE ( 'NONE', #1043, #753, #434, .T. ) ;
#997 = ORIENTED_EDGE ( 'NONE', *, *, #511, .F. ) ;
#998 = DIRECTION ( 'NONE',  ( 0.000000000000000000, 0.000000000000000000, 1.000000000000000000 ) ) ;
#999 = DIRECTION ( 'NONE',  ( 0.000000000000000000, -0.000000000000000000, 1.000000000000000000 ) ) ;
#1000 = VECTOR ( 'NONE', #1107, 1000.000000000000000 ) ;
#1001 = CARTESIAN_POINT ( 'NONE',  ( -1.999999999999999556, 0.5999999999999980904, -1.999999999999993561 ) ) ;
#1002 = DIRECTION ( 'NONE',  ( -0.000000000000000000, -0.000000000000000000, -1.000000000000000000 ) ) ;
#1003 = ORIENTED_EDGE ( 'NONE', *, *, #977, .T. ) ;
#1004 = ADVANCED_FACE ( 'NONE', ( #337 ), #1175, .T. ) ;
#1005 = PLANE ( 'NONE',  #178 ) ;
#1006 = ORIENTED_EDGE ( 'NONE', *, *, #102, .F. ) ;
#1007 = DIRECTION ( 'NONE',  ( -1.000000000000000000, 0.000000000000000000, 3.407492542097296776E-15 ) ) ;
#1008 = VECTOR ( 'NONE', #427, 1000.000000000000000 ) ;
#1009 = APPLICATION_CONTEXT ( 'configuration controlled 3d designs of mechanical parts and assemblies' ) ;
#1010 = ORIENTED_EDGE ( 'NONE', *, *, #936, .T. ) ;
#1011 = PLANE ( 'NONE',  #494 ) ;
#1012 = DIRECTION ( 'NONE',  ( 0.000000000000000000, 1.000000000000000000, 0.000000000000000000 ) ) ;
#1013 = EDGE_LOOP ( 'NONE', ( #1006, #1035, #710, #906 ) ) ;
#1014 = DIRECTION ( 'NONE',  ( 1.000000000000000000, 0.000000000000000000, 0.000000000000000000 ) ) ;
#1015 = AXIS2_PLACEMENT_3D ( 'NONE', #126, #30, #1278 ) ;
#1016 = EDGE_LOOP ( 'NONE', ( #130, #1196, #983, #1299 ) ) ;
#1017 = FACE_OUTER_BOUND ( 'NONE', #805, .T. ) ;
#1018 = CARTESIAN_POINT ( 'NONE',  ( 0.000000000000000000, 0.000000000000000000, 20.80000000000000071 ) ) ;
#1019 = LINE ( 'NONE', #1324, #568 ) ;
#1020 = LINE ( 'NONE', #596, #1310 ) ;
#1021 = ORIENTED_EDGE ( 'NONE', *, *, #996, .F. ) ;
#1022 = DIRECTION ( 'NONE',  ( -3.407492542097297170E-15, 0.000000000000000000, -1.000000000000000000 ) ) ;
#1023 = EDGE_CURVE ( 'NONE', #952, #1117, #986, .T. ) ;
#1024 = LINE ( 'NONE', #935, #355 ) ;
#1025 = CARTESIAN_POINT ( 'NONE',  ( 13.91395519155983607, 6.999999999999999112, -2.000000000000049738 ) ) ;
#1026 = CARTESIAN_POINT ( 'NONE',  ( 0.000000000000000000, 0.000000000000000000, 20.00000000000000000 ) ) ;
#1027 = EDGE_CURVE ( 'NONE', #1342, #1043, #871, .T. ) ;
#1028 = VERTEX_POINT ( 'NONE', #33 ) ;
#1029 = CARTESIAN_POINT ( 'NONE',  ( 13.91395519155984317, 6.999999999999999112, -1.763491390772188461E-15 ) ) ;
#1030 = VECTOR ( 'NONE', #797, 1000.000000000000000 ) ;
#1031 = EDGE_CURVE ( 'NONE', #1100, #350, #879, .T. ) ;
#1032 = CIRCLE ( 'NONE', #348, 2.000000000000000000 ) ;
#1033 = CARTESIAN_POINT ( 'NONE',  ( -1.999999999999999556, 6.999999999999998224, -1.999999999999995781 ) ) ;
#1034 = FACE_OUTER_BOUND ( 'NONE', #329, .T. ) ;
#1035 = ORIENTED_EDGE ( 'NONE', *, *, #140, .T. ) ;
#1036 = DIRECTION ( 'NONE',  ( -1.000000000000000000, 0.000000000000000000, 0.000000000000000000 ) ) ;
#1037 = EDGE_CURVE ( 'NONE', #360, #366, #321, .T. ) ;
#1038 = VECTOR ( 'NONE', #1276, 1000.000000000000000 ) ;
#1039 = ORIENTED_EDGE ( 'NONE', *, *, #84, .T. ) ;
#1040 = DIRECTION ( 'NONE',  ( -1.232595164407830946E-32, 1.000000000000000000, -1.432417854374730559E-16 ) ) ;
#1041 = DIRECTION ( 'NONE',  ( -1.000000000000000000, 0.000000000000000000, -0.000000000000000000 ) ) ;
#1042 = VECTOR ( 'NONE', #1146, 1000.000000000000000 ) ;
#1043 = VERTEX_POINT ( 'NONE', #681 ) ;
#1044 = DIRECTION ( 'NONE',  ( 0.000000000000000000, 0.000000000000000000, 1.000000000000000000 ) ) ;
#1045 = ORIENTED_EDGE ( 'NONE', *, *, #829, .F. ) ;
#1046 = CARTESIAN_POINT ( 'NONE',  ( 0.000000000000000000, 6.999999999999998224, -0.8000000000000003775 ) ) ;
#1047 = EDGE_CURVE ( 'NONE', #1351, #1100, #972, .T. ) ;
#1048 = EDGE_CURVE ( 'NONE', #1231, #163, #1197, .T. ) ;
#1049 = DIRECTION ( 'NONE',  ( 0.000000000000000000, 1.626303258728256651E-16, 1.000000000000000000 ) ) ;
#1050 = ORIENTED_EDGE ( 'NONE', *, *, #252, .T. ) ;
#1051 = CARTESIAN_POINT ( 'NONE',  ( -1.999999999999999556, 1.999999999999999112, 0.000000000000000000 ) ) ;
#1052 = ORIENTED_EDGE ( 'NONE', *, *, #1165, .F. ) ;
#1053 = CIRCLE ( 'NONE', #458, 4.594851000000000241 ) ;
#1054 = DIRECTION ( 'NONE',  ( 1.000000000000000000, 0.000000000000000000, 0.000000000000000000 ) ) ;
#1055 = ADVANCED_FACE ( 'NONE', ( #1084 ), #233, .F. ) ;
#1056 = CARTESIAN_POINT ( 'NONE',  ( -1.999999999999999556, 6.999999999999998224, -3.599999999999994316 ) ) ;
#1057 = ADVANCED_FACE ( 'NONE', ( #45 ), #791, .T. ) ;
#1058 = ORIENTED_EDGE ( 'NONE', *, *, #504, .F. ) ;
#1059 = CARTESIAN_POINT ( 'NONE',  ( -5.200000000000000178, 0.000000000000000000, -6.599999999999999645 ) ) ;
#1060 = VECTOR ( 'NONE', #209, 1000.000000000000000 ) ;
#1061 = CARTESIAN_POINT ( 'NONE',  ( 13.91395519155984317, -2.600000000000000089, 0.000000000000000000 ) ) ;
#1062 = ORIENTED_EDGE ( 'NONE', *, *, #715, .T. ) ;
#1063 = CARTESIAN_POINT ( 'NONE',  ( 2.800000000000000266, 6.999999999999999112, -6.599999999999999645 ) ) ;
#1064 = VECTOR ( 'NONE', #169, 1000.000000000000000 ) ;
#1065 = EDGE_CURVE ( 'NONE', #1140, #971, #784, .T. ) ;
#1066 = EDGE_LOOP ( 'NONE', ( #111, #100, #459 ) ) ;
#1067 = CARTESIAN_POINT ( 'NONE',  ( -7.124757133476169966E-15, 1.999999999999999112, -2.000000000000000444 ) ) ;
#1068 = COORDINATED_UNIVERSAL_TIME_OFFSET ( 5, 0, .BEHIND. ) ;
#1069 = ORIENTED_EDGE ( 'NONE', *, *, #1353, .F. ) ;
#1070 = DIRECTION ( 'NONE',  ( -1.084202172485504311E-16, -1.376454118767770729E-16, -1.000000000000000000 ) ) ;
#1071 = ORIENTED_EDGE ( 'NONE', *, *, #829, .T. ) ;
#1072 = CARTESIAN_POINT ( 'NONE',  ( -1.999999999999999556, 0.5999999999999980904, -0.7999999999999992673 ) ) ;
#1073 = ADVANCED_FACE ( 'NONE', ( #769 ), #444, .T. ) ;
#1074 = LINE ( 'NONE', #334, #733 ) ;
#1075 = APPROVAL_PERSON_ORGANIZATION ( #13, #757, #755 ) ;
#1076 = APPROVAL_ROLE ( '' ) ;
#1077 = ORIENTED_EDGE ( 'NONE', *, *, #609, .T. ) ;
#1078 = CARTESIAN_POINT ( 'NONE',  ( 0.000000000000000000, 0.5999999999999980904, 1.467051414877173013E-16 ) ) ;
#1079 = EDGE_LOOP ( 'NONE', ( #578, #186, #1258, #1085, #825, #225, #688, #554, #570 ) ) ;
#1080 = CARTESIAN_POINT ( 'NONE',  ( 0.000000000000000000, 0.000000000000000000, 20.00000000000000000 ) ) ;
#1081 = VECTOR ( 'NONE', #14, 1000.000000000000000 ) ;
#1082 = PERSON_AND_ORGANIZATION ( #944, #1270 ) ;
#1083 = ORIENTED_EDGE ( 'NONE', *, *, #624, .T. ) ;
#1084 = FACE_OUTER_BOUND ( 'NONE', #1135, .T. ) ;
#1085 = ORIENTED_EDGE ( 'NONE', *, *, #38, .T. ) ;
#1086 = DIRECTION ( 'NONE',  ( 1.000000000000000000, 0.000000000000000000, -3.407492542097297170E-15 ) ) ;
#1087 = AXIS2_PLACEMENT_3D ( 'NONE', #1029, #1122, #1343 ) ;
#1088 = CARTESIAN_POINT ( 'NONE',  ( -1.999999999999999556, 0.5999999999999976463, -2.799999999999998934 ) ) ;
#1089 = EDGE_CURVE ( 'NONE', #1191, #484, #562, .T. ) ;
#1090 = ORIENTED_EDGE ( 'NONE', *, *, #1124, .F. ) ;
#1091 = DIRECTION ( 'NONE',  ( 0.000000000000000000, 1.000000000000000000, -1.376454118767770729E-16 ) ) ;
#1092 = VERTEX_POINT ( 'NONE', #988 ) ;
#1093 = CARTESIAN_POINT ( 'NONE',  ( 0.000000000000000000, 0.5999999999999972022, -4.799999999999999822 ) ) ;
#1094 = CARTESIAN_POINT ( 'NONE',  ( 0.7999999999999999334, 1.999999999999999112, -1.763491390772188461E-15 ) ) ;
#1095 = ADVANCED_FACE ( 'NONE', ( #979 ), #893, .T. ) ;
#1096 = AXIS2_PLACEMENT_3D ( 'NONE', #984, #1292, #359 ) ;
#1097 = DIRECTION ( 'NONE',  ( 0.000000000000000000, -1.000000000000000000, 0.000000000000000000 ) ) ;
#1098 = DIRECTION ( 'NONE',  ( 0.000000000000000000, -1.000000000000000000, 1.836970198721029688E-16 ) ) ;
#1099 = EDGE_CURVE ( 'NONE', #25, #967, #155, .T. ) ;
#1100 = VERTEX_POINT ( 'NONE', #57 ) ;
#1101 = DIRECTION ( 'NONE',  ( 0.000000000000000000, 1.000000000000000000, 0.000000000000000000 ) ) ;
#1102 = VECTOR ( 'NONE', #437, 1000.000000000000000 ) ;
#1103 = DIRECTION ( 'NONE',  ( -1.000000000000000000, 0.000000000000000000, -0.000000000000000000 ) ) ;
#1104 = DIRECTION ( 'NONE',  ( 1.000000000000000000, -0.000000000000000000, 0.000000000000000000 ) ) ;
#1105 = EDGE_CURVE ( 'NONE', #58, #197, #483, .T. ) ;
#1106 = ORIENTED_EDGE ( 'NONE', *, *, #682, .F. ) ;
#1107 = DIRECTION ( 'NONE',  ( 0.000000000000000000, -1.376454118767770729E-16, -1.000000000000000000 ) ) ;
#1108 = EDGE_CURVE ( 'NONE', #1279, #694, #811, .T. ) ;
#1109 = DIRECTION ( 'NONE',  ( -1.000000000000000000, 0.000000000000000000, 0.000000000000000000 ) ) ;
#1110 = AXIS2_PLACEMENT_3D ( 'NONE', #659, #361, #685 ) ;
#1111 = EDGE_LOOP ( 'NONE', ( #542, #1281, #235, #493, #973, #810, #778, #775, #380 ) ) ;
#1112 = CARTESIAN_POINT ( 'NONE',  ( -2.799999999999999378, 6.999999999999999112, -6.599999999999999645 ) ) ;
#1113 = ORIENTED_EDGE ( 'NONE', *, *, #1131, .F. ) ;
#1114 = CARTESIAN_POINT ( 'NONE',  ( 0.7999999999999999334, 0.5999999999999972022, -4.799999999999999822 ) ) ;
#1115 = CC_DESIGN_PERSON_AND_ORGANIZATION_ASSIGNMENT ( #766, #553, ( #545 ) ) ;
#1116 = CARTESIAN_POINT ( 'NONE',  ( -2.799999999999999378, 4.381780460041328595, -20.74109319622884939 ) ) ;
#1117 = VERTEX_POINT ( 'NONE', #911 ) ;
#1118 = AXIS2_PLACEMENT_3D ( 'NONE', #1026, #411, #722 ) ;
#1119 = DIRECTION ( 'NONE',  ( 1.000000000000000000, 0.000000000000000000, -3.562378566738084983E-15 ) ) ;
#1120 = LOCAL_TIME ( 16, 4, 59.00000000000000000, #121 ) ;
#1121 = ORIENTED_EDGE ( 'NONE', *, *, #565, .F. ) ;
#1122 = DIRECTION ( 'NONE',  ( 0.000000000000000000, 1.000000000000000000, 0.000000000000000000 ) ) ;
#1123 = DIRECTION ( 'NONE',  ( -0.000000000000000000, 1.000000000000000000, -0.000000000000000000 ) ) ;
#1124 = EDGE_CURVE ( 'NONE', #405, #482, #1306, .T. ) ;
#1125 = FACE_OUTER_BOUND ( 'NONE', #832, .T. ) ;
#1126 = CYLINDRICAL_SURFACE ( 'NONE', #301, 5.200000000000000178 ) ;
#1127 = CIRCLE ( 'NONE', #1297, 2.000000000000000000 ) ;
#1128 = ORIENTED_EDGE ( 'NONE', *, *, #1047, .F. ) ;
#1129 = LINE ( 'NONE', #611, #1000 ) ;
#1130 = CARTESIAN_POINT ( 'NONE',  ( 13.91395519155984317, 6.999999999999999112, -1.763491390772188461E-15 ) ) ;
#1131 = EDGE_CURVE ( 'NONE', #985, #163, #1229, .T. ) ;
#1132 = DIRECTION ( 'NONE',  ( -1.000000000000000000, 0.000000000000000000, 3.407492542097297170E-15 ) ) ;
#1133 = DIRECTION ( 'NONE',  ( 0.000000000000000000, 0.000000000000000000, -1.000000000000000000 ) ) ;
#1134 = EDGE_CURVE ( 'NONE', #25, #1351, #1020, .T. ) ;
#1135 = EDGE_LOOP ( 'NONE', ( #315, #135, #718, #524 ) ) ;
#1136 = DIRECTION ( 'NONE',  ( -1.084202172485504311E-16, -1.376454118767770729E-16, -1.000000000000000000 ) ) ;
#1137 = DIRECTION ( 'NONE',  ( -0.000000000000000000, -0.000000000000000000, 1.000000000000000000 ) ) ;
#1138 = DIRECTION ( 'NONE',  ( 0.000000000000000000, 0.000000000000000000, -1.000000000000000000 ) ) ;
#1139 = DIRECTION ( 'NONE',  ( -0.000000000000000000, -0.000000000000000000, 1.000000000000000000 ) ) ;
#1140 = VERTEX_POINT ( 'NONE', #174 ) ;
#1141 = DIRECTION ( 'NONE',  ( -0.000000000000000000, 0.000000000000000000, -1.000000000000000000 ) ) ;
#1142 = ORIENTED_EDGE ( 'NONE', *, *, #415, .F. ) ;
#1143 = CARTESIAN_POINT ( 'NONE',  ( -1.999999999999999556, 6.999999999999998224, -9.635178831374391652E-16 ) ) ;
#1144 = CARTESIAN_POINT ( 'NONE',  ( -2.799999999999999378, -2.600000000000000089, -5.599999999999999645 ) ) ;
#1145 = ORIENTED_EDGE ( 'NONE', *, *, #609, .F. ) ;
#1146 = DIRECTION ( 'NONE',  ( -0.000000000000000000, 1.000000000000000000, -1.376454118767770729E-16 ) ) ;
#1147 = VECTOR ( 'NONE', #665, 1000.000000000000000 ) ;
#1148 = ORIENTED_EDGE ( 'NONE', *, *, #224, .T. ) ;
#1149 = CARTESIAN_POINT ( 'NONE',  ( 2.000000000000000444, 0.5999999999999980904, -7.013529300938357318E-17 ) ) ;
#1150 = LINE ( 'NONE', #91, #1228 ) ;
#1151 = AXIS2_PLACEMENT_3D ( 'NONE', #928, #826, #290 ) ;
#1152 = VERTEX_POINT ( 'NONE', #1333 ) ;
#1153 = VECTOR ( 'NONE', #700, 1000.000000000000000 ) ;
#1154 = CARTESIAN_POINT ( 'NONE',  ( 13.91395519155984317, 6.999999999999999112, -1.763491390772188461E-15 ) ) ;
#1155 = VERTEX_POINT ( 'NONE', #384 ) ;
#1156 = CC_DESIGN_DATE_AND_TIME_ASSIGNMENT ( #231, #1188, ( #362 ) ) ;
#1157 = DATE_AND_TIME ( #645, #507 ) ;
#1158 = CARTESIAN_POINT ( 'NONE',  ( 2.800000000000000266, -2.600000000000000089, 0.000000000000000000 ) ) ;
#1159 = ORIENTED_EDGE ( 'NONE', *, *, #574, .F. ) ;
#1160 = CARTESIAN_POINT ( 'NONE',  ( 0.000000000000000000, 0.000000000000000000, 20.80000000000000071 ) ) ;
#1161 = EDGE_LOOP ( 'NONE', ( #1021, #65, #211, #664, #946 ) ) ;
#1162 = VECTOR ( 'NONE', #850, 1000.000000000000000 ) ;
#1163 = CARTESIAN_POINT ( 'NONE',  ( 0.000000000000000000, 0.5999999999999980904, -0.7999999999999992673 ) ) ;
#1164 = CARTESIAN_POINT ( 'NONE',  ( 0.000000000000000000, 0.000000000000000000, 0.000000000000000000 ) ) ;
#1165 = EDGE_CURVE ( 'NONE', #453, #197, #1319, .T. ) ;
#1166 = ORIENTED_EDGE ( 'NONE', *, *, #2, .T. ) ;
#1167 = DIRECTION ( 'NONE',  ( -0.000000000000000000, 0.000000000000000000, 1.000000000000000000 ) ) ;
#1168 = ORIENTED_EDGE ( 'NONE', *, *, #511, .T. ) ;
#1169 = DIRECTION ( 'NONE',  ( 0.000000000000000000, 1.000000000000000000, -0.000000000000000000 ) ) ;
#1170 = VECTOR ( 'NONE', #853, 1000.000000000000000 ) ;
#1171 = AXIS2_PLACEMENT_3D ( 'NONE', #5, #1040, #101 ) ;
#1172 = LINE ( 'NONE', #319, #1341 ) ;
#1173 = VECTOR ( 'NONE', #579, 1000.000000000000000 ) ;
#1174 = VERTEX_POINT ( 'NONE', #365 ) ;
#1175 = PLANE ( 'NONE',  #1289 ) ;
#1176 = EDGE_CURVE ( 'NONE', #201, #25, #818, .T. ) ;
#1177 = VECTOR ( 'NONE', #923, 1000.000000000000000 ) ;
#1178 = ORIENTED_EDGE ( 'NONE', *, *, #474, .F. ) ;
#1179 = DIRECTION ( 'NONE',  ( -0.000000000000000000, -0.000000000000000000, 1.000000000000000000 ) ) ;
#1180 = DIRECTION ( 'NONE',  ( -1.000000000000000000, 0.000000000000000000, 3.562378566738084194E-15 ) ) ;
#1181 = COORDINATED_UNIVERSAL_TIME_OFFSET ( 5, 0, .BEHIND. ) ;
#1182 = ORIENTED_EDGE ( 'NONE', *, *, #650, .T. ) ;
#1183 = LINE ( 'NONE', #1190, #529 ) ;
#1184 = ORIENTED_EDGE ( 'NONE', *, *, #1065, .F. ) ;
#1185 = DIRECTION ( 'NONE',  ( 1.000000000000000000, 0.000000000000000000, 0.000000000000000000 ) ) ;
#1186 = UNCERTAINTY_MEASURE_WITH_UNIT (LENGTH_MEASURE( 1.000000000000000082E-05 ), #530, 'distance_accuracy_value', 'NONE');
#1187 = PLANE ( 'NONE',  #159 ) ;
#1188 = DATE_TIME_ROLE ( 'creation_date' ) ;
#1189 = ORIENTED_EDGE ( 'NONE', *, *, #1124, .T. ) ;
#1190 = CARTESIAN_POINT ( 'NONE',  ( 0.000000000000000000, 0.5999999999999980904, -0.7999999999999992673 ) ) ;
#1191 = VERTEX_POINT ( 'NONE', #167 ) ;
#1192 = FACE_OUTER_BOUND ( 'NONE', #1161, .T. ) ;
#1193 = FACE_OUTER_BOUND ( 'NONE', #518, .T. ) ;
#1194 = ADVANCED_FACE ( 'NONE', ( #70 ), #469, .F. ) ;
#1195 = VECTOR ( 'NONE', #369, 1000.000000000000000 ) ;
#1196 = ORIENTED_EDGE ( 'NONE', *, *, #898, .T. ) ;
#1197 = LINE ( 'NONE', #40, #599 ) ;
#1198 = VERTEX_POINT ( 'NONE', #615 ) ;
#1199 = LINE ( 'NONE', #35, #915 ) ;
#1200 = EDGE_CURVE ( 'NONE', #872, #1140, #728, .T. ) ;
#1201 = DIRECTION ( 'NONE',  ( -0.000000000000000000, 1.000000000000000000, -0.000000000000000000 ) ) ;
#1202 = ADVANCED_FACE ( 'NONE', ( #491 ), #1126, .T. ) ;
#1203 = CARTESIAN_POINT ( 'NONE',  ( 8.673617379884035472E-16, -0.2000000000000023703, -2.799999999999998934 ) ) ;
#1204 = CARTESIAN_POINT ( 'NONE',  ( 0.000000000000000000, 1.999999999999999112, 0.000000000000000000 ) ) ;
#1205 = ORIENTED_EDGE ( 'NONE', *, *, #53, .T. ) ;
#1206 = DIRECTION ( 'NONE',  ( -0.000000000000000000, 0.000000000000000000, 1.000000000000000000 ) ) ;
#1207 = VECTOR ( 'NONE', #267, 1000.000000000000000 ) ;
#1208 = ORIENTED_EDGE ( 'NONE', *, *, #293, .T. ) ;
#1209 = DIRECTION ( 'NONE',  ( -1.000000000000000000, 0.000000000000000000, -0.000000000000000000 ) ) ;
#1210 = ADVANCED_FACE ( 'NONE', ( #281 ), #709, .F. ) ;
#1211 = VERTEX_POINT ( 'NONE', #261 ) ;
#1212 = DIRECTION ( 'NONE',  ( -1.000000000000000000, 0.000000000000000000, 3.562378566738084194E-15 ) ) ;
#1213 = PLANE ( 'NONE',  #36 ) ;
#1214 = VECTOR ( 'NONE', #674, 1000.000000000000000 ) ;
#1215 = ORIENTED_EDGE ( 'NONE', *, *, #372, .F. ) ;
#1216 = CARTESIAN_POINT ( 'NONE',  ( -2.799999999999999378, 7.000011999999999013, -1.999999999999990452 ) ) ;
#1217 = ADVANCED_FACE ( 'NONE', ( #689 ), #392, .T. ) ;
#1218 = EDGE_LOOP ( 'NONE', ( #16, #309, #1121, #339, #34, #426 ) ) ;
#1219 = LINE ( 'NONE', #187, #1177 ) ;
#1220 = CARTESIAN_POINT ( 'NONE',  ( 0.000000000000000000, 6.999999999999998224, -0.8000000000000003775 ) ) ;
#1221 = VECTOR ( 'NONE', #724, 1000.000000000000000 ) ;
#1222 = CARTESIAN_POINT ( 'NONE',  ( 0.000000000000000000, 0.5999999999999972022, -4.799999999999999822 ) ) ;
#1223 = CARTESIAN_POINT ( 'NONE',  ( 2.800000000000000266, 1.999999999999999112, 0.000000000000000000 ) ) ;
#1224 = VERTEX_POINT ( 'NONE', #905 ) ;
#1225 = FACE_OUTER_BOUND ( 'NONE', #1307, .T. ) ;
#1226 = FACE_OUTER_BOUND ( 'NONE', #74, .T. ) ;
#1227 = CARTESIAN_POINT ( 'NONE',  ( -0.8000000000000001554, 6.999999999999997335, -4.800000000000000711 ) ) ;
#1228 = VECTOR ( 'NONE', #1139, 1000.000000000000000 ) ;
#1229 = LINE ( 'NONE', #75, #619 ) ;
#1230 = CC_DESIGN_APPROVAL ( #877, ( #362 ) ) ;
#1231 = VERTEX_POINT ( 'NONE', #824 ) ;
#1232 = DIRECTION ( 'NONE',  ( -0.000000000000000000, 1.000000000000000000, -1.734723475976807094E-16 ) ) ;
#1233 = ADVANCED_FACE ( 'NONE', ( #1236 ), #288, .F. ) ;
#1234 = CARTESIAN_POINT ( 'NONE',  ( 0.000000000000000000, 0.5999999999999972022, -4.799999999999999822 ) ) ;
#1235 = LINE ( 'NONE', #439, #1277 ) ;
#1236 = FACE_OUTER_BOUND ( 'NONE', #49, .T. ) ;
#1237 = VECTOR ( 'NONE', #23, 1000.000000000000000 ) ;
#1238 = ORIENTED_EDGE ( 'NONE', *, *, #1108, .T. ) ;
#1239 = DIRECTION ( 'NONE',  ( -1.232595164407830946E-32, 1.000000000000000000, -1.432417854374730559E-16 ) ) ;
#1240 = CARTESIAN_POINT ( 'NONE',  ( 0.7999999999999999334, 1.999999999999999112, -5.600000000000001421 ) ) ;
#1241 = CC_DESIGN_DATE_AND_TIME_ASSIGNMENT ( #1157, #513, ( #885 ) ) ;
#1242 = CIRCLE ( 'NONE', #654, 2.000000000000000000 ) ;
#1243 = LINE ( 'NONE', #1025, #892 ) ;
#1244 = DIRECTION ( 'NONE',  ( -1.232595164407830946E-32, 1.000000000000000000, -1.432417854374730559E-16 ) ) ;
#1245 = ORIENTED_EDGE ( 'NONE', *, *, #238, .F. ) ;
#1246 = CARTESIAN_POINT ( 'NONE',  ( 0.000000000000000000, 0.000000000000000000, -5.599999999999999645 ) ) ;
#1247 = EDGE_LOOP ( 'NONE', ( #997, #490, #297, #260 ) ) ;
#1248 = LINE ( 'NONE', #1143, #561 ) ;
#1249 = CYLINDRICAL_SURFACE ( 'NONE', #950, 2.000000000000000000 ) ;
#1250 = ORIENTED_EDGE ( 'NONE', *, *, #252, .F. ) ;
#1251 = LINE ( 'NONE', #532, #1008 ) ;
#1252 = PLANE ( 'NONE',  #514 ) ;
#1253 = LINE ( 'NONE', #206, #461 ) ;
#1254 = ORIENTED_EDGE ( 'NONE', *, *, #868, .T. ) ;
#1255 = DIRECTION ( 'NONE',  ( 1.000000000000000000, -0.000000000000000000, -0.000000000000000000 ) ) ;
#1256 = ADVANCED_FACE ( 'NONE', ( #185 ), #162, .F. ) ;
#1257 = CALENDAR_DATE ( 2026, 27, 4 ) ;
#1258 = ORIENTED_EDGE ( 'NONE', *, *, #890, .F. ) ;
#1259 = AXIS2_PLACEMENT_3D ( 'NONE', #1203, #993, #904 ) ;
#1260 = CARTESIAN_POINT ( 'NONE',  ( 2.800000000000000266, 4.381780460041327707, -3.599999999999981881 ) ) ;
#1261 = ORIENTED_EDGE ( 'NONE', *, *, #707, .F. ) ;
#1262 = FACE_OUTER_BOUND ( 'NONE', #322, .T. ) ;
#1263 = CARTESIAN_POINT ( 'NONE',  ( 13.91395519155983074, 6.999999999999999112, -3.600000000000047606 ) ) ;
#1264 = ADVANCED_FACE ( 'NONE', ( #831 ), #734, .F. ) ;
#1265 = CARTESIAN_POINT ( 'NONE',  ( -0.8000000000000001554, 1.999999999999999112, -1.763491390772188461E-15 ) ) ;
#1266 = VERTEX_POINT ( 'NONE', #515 ) ;
#1267 = CARTESIAN_POINT ( 'NONE',  ( -0.8000000000000001554, 1.999999999999999112, 0.000000000000000000 ) ) ;
#1268 = FACE_OUTER_BOUND ( 'NONE', #636, .T. ) ;
#1269 = VECTOR ( 'NONE', #344, 1000.000000000000000 ) ;
#1270 = ORGANIZATION ( 'UNSPECIFIED', 'UNSPECIFIED', '' ) ;
#1271 = DIRECTION ( 'NONE',  ( 0.000000000000000000, 0.000000000000000000, 1.000000000000000000 ) ) ;
#1272 = PERSON_AND_ORGANIZATION ( #944, #1270 ) ;
#1273 = ORIENTED_EDGE ( 'NONE', *, *, #989, .F. ) ;
#1274 = CARTESIAN_POINT ( 'NONE',  ( 2.000000000000000444, 6.999999999999998224, -1.180358317634540052E-15 ) ) ;
#1275 = EDGE_LOOP ( 'NONE', ( #242, #1189, #651, #969 ) ) ;
#1276 = DIRECTION ( 'NONE',  ( 1.000000000000000000, 0.000000000000000000, 0.000000000000000000 ) ) ;
#1277 = VECTOR ( 'NONE', #1054, 1000.000000000000000 ) ;
#1278 = DIRECTION ( 'NONE',  ( 1.000000000000000000, 0.000000000000000000, 0.000000000000000000 ) ) ;
#1279 = VERTEX_POINT ( 'NONE', #302 ) ;
#1280 = CARTESIAN_POINT ( 'NONE',  ( -0.8000000000000001554, 1.999999999999999112, -1.763491390772188461E-15 ) ) ;
#1281 = ORIENTED_EDGE ( 'NONE', *, *, #1304, .F. ) ;
#1282 = DIRECTION ( 'NONE',  ( -1.000000000000000000, 0.000000000000000000, 0.000000000000000000 ) ) ;
#1283 = DIRECTION ( 'NONE',  ( -0.000000000000000000, -0.000000000000000000, 1.000000000000000000 ) ) ;
#1284 = CALENDAR_DATE ( 2026, 27, 4 ) ;
#1285 = ORIENTED_EDGE ( 'NONE', *, *, #835, .F. ) ;
#1286 = DIRECTION ( 'NONE',  ( 0.000000000000000000, 0.000000000000000000, 1.000000000000000000 ) ) ;
#1287 = ORIENTED_EDGE ( 'NONE', *, *, #1338, .T. ) ;
#1288 = LINE ( 'NONE', #889, #807 ) ;
#1289 = AXIS2_PLACEMENT_3D ( 'NONE', #1204, #50, #457 ) ;
#1290 = FACE_OUTER_BOUND ( 'NONE', #844, .T. ) ;
#1291 = VERTEX_POINT ( 'NONE', #1056 ) ;
#1292 = DIRECTION ( 'NONE',  ( -1.232595164407830946E-32, 1.000000000000000000, -1.432417854374730559E-16 ) ) ;
#1293 = ORIENTED_EDGE ( 'NONE', *, *, #909, .T. ) ;
#1294 = CARTESIAN_POINT ( 'NONE',  ( 0.000000000000000000, 0.000000000000000000, -6.599999999999999645 ) ) ;
#1295 = ADVANCED_FACE ( 'NONE', ( #857 ), #1249, .F. ) ;
#1296 = DIRECTION ( 'NONE',  ( -0.000000000000000000, -0.000000000000000000, -1.000000000000000000 ) ) ;
#1297 = AXIS2_PLACEMENT_3D ( 'NONE', #498, #198, #1330 ) ;
#1298 = CIRCLE ( 'NONE', #714, 5.200000000000000178 ) ;
#1299 = ORIENTED_EDGE ( 'NONE', *, *, #196, .T. ) ;
#1300 = DIRECTION ( 'NONE',  ( 0.000000000000000000, 1.836970198721029688E-16, 1.000000000000000000 ) ) ;
#1301 = ORIENTED_EDGE ( 'NONE', *, *, #521, .F. ) ;
#1302 = DIRECTION ( 'NONE',  ( -0.000000000000000000, 1.000000000000000000, -0.000000000000000000 ) ) ;
#1303 = LINE ( 'NONE', #363, #1214 ) ;
#1304 = EDGE_CURVE ( 'NONE', #1351, #610, #639, .T. ) ;
#1305 = CARTESIAN_POINT ( 'NONE',  ( 0.000000000000000000, 0.5999999999999980904, 1.467051414877173013E-16 ) ) ;
#1306 = LINE ( 'NONE', #1216, #1207 ) ;
#1307 = EDGE_LOOP ( 'NONE', ( #942, #1128, #622, #262, #891 ) ) ;
#1308 = CARTESIAN_POINT ( 'NONE',  ( 0.000000000000000000, 0.000000000000000000, -3.469446951953614189E-15 ) ) ;
#1309 = CARTESIAN_POINT ( 'NONE',  ( -0.8000000000000001554, 0.5999999999999972022, -4.799999999999999822 ) ) ;
#1310 = VECTOR ( 'NONE', #1007, 1000.000000000000000 ) ;
#1311 = ADVANCED_FACE ( 'NONE', ( #1034 ), #295, .F. ) ;
#1312 = ORIENTED_EDGE ( 'NONE', *, *, #1105, .T. ) ;
#1313 = CARTESIAN_POINT ( 'NONE',  ( 0.7999999999999999334, 1.999999999999999112, -0.8000000000000003775 ) ) ;
#1314 = ORIENTED_EDGE ( 'NONE', *, *, #22, .T. ) ;
#1315 = FACE_OUTER_BOUND ( 'NONE', #1066, .T. ) ;
#1316 = DIRECTION ( 'NONE',  ( 0.000000000000000000, -0.000000000000000000, 1.000000000000000000 ) ) ;
#1317 = VECTOR ( 'NONE', #284, 1000.000000000000000 ) ;
#1318 = CARTESIAN_POINT ( 'NONE',  ( 0.7999999999999999334, 7.000011999999999013, 0.000000000000000000 ) ) ;
#1319 = LINE ( 'NONE', #1112, #28 ) ;
#1320 = EDGE_LOOP ( 'NONE', ( #1106, #671, #792 ) ) ;
#1321 = LINE ( 'NONE', #176, #292 ) ;
#1322 = CARTESIAN_POINT ( 'NONE',  ( 0.000000000000000000, 0.5999999999999980904, -0.7999999999999992673 ) ) ;
#1323 = VECTOR ( 'NONE', #708, 1000.000000000000000 ) ;
#1324 = CARTESIAN_POINT ( 'NONE',  ( -7.124757133476169966E-15, 1.999999999999999112, -2.000000000000000444 ) ) ;
#1325 = DIRECTION ( 'NONE',  ( -0.000000000000000000, 1.000000000000000000, -0.000000000000000000 ) ) ;
#1326 = EDGE_CURVE ( 'NONE', #595, #85, #345, .T. ) ;
#1327 = ORIENTED_EDGE ( 'NONE', *, *, #1347, .T. ) ;
#1328 = CARTESIAN_POINT ( 'NONE',  ( 2.000000000000000444, 0.5999999999999980904, -7.013529300938357318E-17 ) ) ;
#1329 = EDGE_CURVE ( 'NONE', #85, #595, #1053, .T. ) ;
#1330 = DIRECTION ( 'NONE',  ( 0.000000000000000000, 1.626303258728256651E-16, 1.000000000000000000 ) ) ;
#1331 = ORIENTED_EDGE ( 'NONE', *, *, #95, .F. ) ;
#1332 = AXIS2_PLACEMENT_3D ( 'NONE', #83, #500, #476 ) ;
#1333 = CARTESIAN_POINT ( 'NONE',  ( 0.7999999999999999334, 6.999999999999999112, -5.600000000000001421 ) ) ;
#1334 = ORIENTED_EDGE ( 'NONE', *, *, #996, .T. ) ;
#1335 = FACE_OUTER_BOUND ( 'NONE', #1111, .T. ) ;
#1336 = EDGE_CURVE ( 'NONE', #405, #1191, #1150, .T. ) ;
#1337 = DIRECTION ( 'NONE',  ( 1.000000000000000000, 0.000000000000000000, 0.000000000000000000 ) ) ;
#1338 = EDGE_CURVE ( 'NONE', #667, #247, #1253, .T. ) ;
#1339 = DIRECTION ( 'NONE',  ( -3.562378566738084194E-15, 0.000000000000000000, -1.000000000000000000 ) ) ;
#1340 = APPLICATION_PROTOCOL_DEFINITION ( 'international standard', 'config_control_design', 1994, #12 ) ;
#1341 = VECTOR ( 'NONE', #830, 1000.000000000000000 ) ;
#1342 = VERTEX_POINT ( 'NONE', #1265 ) ;
#1343 = DIRECTION ( 'NONE',  ( 0.000000000000000000, -0.000000000000000000, 1.000000000000000000 ) ) ;
#1344 = EDGE_LOOP ( 'NONE', ( #256, #1178, #433, #422 ) ) ;
#1345 = CARTESIAN_POINT ( 'NONE',  ( 2.800000000000000266, 6.999999999999999112, -6.599999999999999645 ) ) ;
#1346 = CIRCLE ( 'NONE', #765, 5.200000000000000178 ) ;
#1347 = EDGE_CURVE ( 'NONE', #939, #1155, #113, .T. ) ;
#1348 = DIRECTION ( 'NONE',  ( 0.000000000000000000, -1.376454118767770729E-16, -1.000000000000000000 ) ) ;
#1349 = ORIENTED_EDGE ( 'NONE', *, *, #238, .T. ) ;
#1350 = LINE ( 'NONE', #1267, #520 ) ;
#1351 = VERTEX_POINT ( 'NONE', #635 ) ;
#1352 = DIRECTION ( 'NONE',  ( 0.000000000000000000, 0.000000000000000000, -1.000000000000000000 ) ) ;
#1353 = EDGE_CURVE ( 'NONE', #902, #313, #1032, .T. ) ;
ENDSEC;
END-ISO-10303-21;
