ISO-10303-21;
HEADER;
FILE_DESCRIPTION (( 'STEP AP203' ),
    '1' );
FILE_NAME ('midsectionTop.STEP',
    '2026-04-06T05:13:29',
    ( '' ),
    ( '' ),
    'SwSTEP 2.0',
    'SolidWorks 2025',
    '' );
FILE_SCHEMA (( 'CONFIG_CONTROL_DESIGN' ));
ENDSEC;

DATA;
#1 = DIRECTION ( 'NONE',  ( 0.000000000000000000, 0.000000000000000000, -1.000000000000000000 ) ) ;
#2 = DIRECTION ( 'NONE',  ( -1.000000000000000000, 0.000000000000000000, 0.000000000000000000 ) ) ;
#3 = ORIENTED_EDGE ( 'NONE', *, *, #641, .T. ) ;
#4 = AXIS2_PLACEMENT_3D ( 'NONE', #309, #47, #305 ) ;
#5 = CARTESIAN_POINT ( 'NONE',  ( 1.999999999999994893, 20.20000000000001705, 93.31828358167324211 ) ) ;
#6 = VERTEX_POINT ( 'NONE', #86 ) ;
#7 = EDGE_CURVE ( 'NONE', #6, #528, #460, .T. ) ;
#8 = COORDINATED_UNIVERSAL_TIME_OFFSET ( 5, 0, .BEHIND. ) ;
#9 = AXIS2_PLACEMENT_3D ( 'NONE', #78, #349, #571 ) ;
#10 = DIRECTION ( 'NONE',  ( -1.551108497285261312E-16, 1.000000000000000000, -0.000000000000000000 ) ) ;
#11 = EDGE_LOOP ( 'NONE', ( #384, #431, #525, #145 ) ) ;
#12 = DIRECTION ( 'NONE',  ( -1.000000000000000000, 0.000000000000000000, 0.000000000000000000 ) ) ;
#13 = ORIENTED_EDGE ( 'NONE', *, *, #409, .T. ) ;
#14 = DIRECTION ( 'NONE',  ( -0.000000000000000000, 0.000000000000000000, 1.000000000000000000 ) ) ;
#15 = ORIENTED_EDGE ( 'NONE', *, *, #513, .T. ) ;
#16 = CIRCLE ( 'NONE', #651, 1.999999999999997780 ) ;
#17 = CARTESIAN_POINT ( 'NONE',  ( 0.000000000000000000, 17.65364549295478369, 2.501444309279585720 ) ) ;
#18 = CIRCLE ( 'NONE', #105, 1.999999999999995337 ) ;
#19 = ORIENTED_EDGE ( 'NONE', *, *, #213, .F. ) ;
#20 = EDGE_CURVE ( 'NONE', #141, #70, #33, .T. ) ;
#21 = LINE ( 'NONE', #654, #472 ) ;
#22 = ORIENTED_EDGE ( 'NONE', *, *, #513, .F. ) ;
#23 = CARTESIAN_POINT ( 'NONE',  ( -11.18376618407356382, 27.00000000000001776, 0.000000000000000000 ) ) ;
#24 = ORIENTED_EDGE ( 'NONE', *, *, #522, .F. ) ;
#25 = CC_DESIGN_APPROVAL ( #131, ( #473 ) ) ;
#26 = APPROVAL_STATUS ( 'not_yet_approved' ) ;
#27 = EDGE_CURVE ( 'NONE', #421, #170, #134, .T. ) ;
#28 = CARTESIAN_POINT ( 'NONE',  ( 0.000000000000000000, 17.65364549295478369, 0.000000000000000000 ) ) ;
#29 = CYLINDRICAL_SURFACE ( 'NONE', #474, 1.999999999999997780 ) ;
#30 = AXIS2_PLACEMENT_3D ( 'NONE', #565, #139, #664 ) ;
#31 = APPLICATION_PROTOCOL_DEFINITION ( 'international standard', 'config_control_design', 1994, #42 ) ;
#32 = CARTESIAN_POINT ( 'NONE',  ( -1.449720989451809944E-15, 27.00000000000001776, 93.31828358167324211 ) ) ;
#33 = LINE ( 'NONE', #197, #586 ) ;
#34 = LINE ( 'NONE', #451, #172 ) ;
#35 = ORIENTED_EDGE ( 'NONE', *, *, #433, .T. ) ;
#36 = FACE_OUTER_BOUND ( 'NONE', #137, .T. ) ;
#37 = FACE_OUTER_BOUND ( 'NONE', #67, .T. ) ;
#38 = ADVANCED_FACE ( 'NONE', ( #408 ), #82, .F. ) ;
#39 = VECTOR ( 'NONE', #192, 1000.000000000000114 ) ;
#40 = AXIS2_PLACEMENT_3D ( 'NONE', #258, #316, #310 ) ;
#41 = DIRECTION ( 'NONE',  ( -0.7071067811865474617, -0.7071067811865474617, 0.000000000000000000 ) ) ;
#42 = APPLICATION_CONTEXT ( 'configuration controlled 3d designs of mechanical parts and assemblies' ) ;
#43 = LINE ( 'NONE', #302, #284 ) ;
#44 = PLANE ( 'NONE',  #4 ) ;
#45 = PLANE ( 'NONE',  #683 ) ;
#46 = EDGE_LOOP ( 'NONE', ( #640, #163 ) ) ;
#47 = DIRECTION ( 'NONE',  ( -0.7071067811865475727, -0.7071067811865475727, 0.000000000000000000 ) ) ;
#48 = LINE ( 'NONE', #5, #376 ) ;
#49 = ORIENTED_EDGE ( 'NONE', *, *, #564, .F. ) ;
#50 = VECTOR ( 'NONE', #81, 999.9999999999998863 ) ;
#51 = AXIS2_PLACEMENT_3D ( 'NONE', #107, #110, #263 ) ;
#52 = CARTESIAN_POINT ( 'NONE',  ( 1.999999999999994005, 27.00000000000001776, 93.31828358167324211 ) ) ;
#53 = CARTESIAN_POINT ( 'NONE',  ( -17.70169356637258673, 17.65364549295478369, 90.40200000000000102 ) ) ;
#54 = EDGE_LOOP ( 'NONE', ( #466, #15 ) ) ;
#55 = CYLINDRICAL_SURFACE ( 'NONE', #248, 0.7002721090471701881 ) ;
#56 = CARTESIAN_POINT ( 'NONE',  ( 10.35533905932756227, 24.99999999999992539, 90.40200000000000102 ) ) ;
#57 = VERTEX_POINT ( 'NONE', #668 ) ;
#58 = COORDINATED_UNIVERSAL_TIME_OFFSET ( 5, 0, .BEHIND. ) ;
#59 = VECTOR ( 'NONE', #471, 1000.000000000000000 ) ;
#60 = FACE_OUTER_BOUND ( 'NONE', #649, .T. ) ;
#61 = ORIENTED_EDGE ( 'NONE', *, *, #213, .T. ) ;
#62 = EDGE_CURVE ( 'NONE', #240, #118, #402, .T. ) ;
#63 = DIRECTION ( 'NONE',  ( 1.000000000000000000, 0.000000000000000000, 0.000000000000000000 ) ) ;
#64 = AXIS2_PLACEMENT_3D ( 'NONE', #28, #242, #298 ) ;
#65 = PRODUCT ( 'midsectionTop', 'midsectionTop', '', ( #382 ) ) ;
#66 = CARTESIAN_POINT ( 'NONE',  ( -1.449720989451809944E-15, 27.00000000000001776, 3.201716418326755687 ) ) ;
#67 = EDGE_LOOP ( 'NONE', ( #22, #681, #179, #356 ) ) ;
#68 = PERSON_AND_ORGANIZATION_ROLE ( 'classification_officer' ) ;
#69 = CARTESIAN_POINT ( 'NONE',  ( -20.53012069111879256, 17.65364549295478369, 96.51999999999999602 ) ) ;
#70 = VERTEX_POINT ( 'NONE', #140 ) ;
#71 = ADVANCED_FACE ( 'NONE', ( #568 ), #514, .T. ) ;
#72 = DIRECTION ( 'NONE',  ( -1.348127836305427017E-16, 1.000000000000000000, -1.232595164407830946E-32 ) ) ;
#73 = ORIENTED_EDGE ( 'NONE', *, *, #584, .T. ) ;
#74 = AXIS2_PLACEMENT_3D ( 'NONE', #120, #72, #550 ) ;
#75 = LINE ( 'NONE', #285, #671 ) ;
#76 = CIRCLE ( 'NONE', #462, 1.999999999999995337 ) ;
#77 = ORIENTED_EDGE ( 'NONE', *, *, #20, .T. ) ;
#78 = CARTESIAN_POINT ( 'NONE',  ( 0.000000000000000000, 17.65364549295478369, 3.201716418326755687 ) ) ;
#79 = VERTEX_POINT ( 'NONE', #293 ) ;
#80 = ADVANCED_FACE ( 'NONE', ( #559 ), #511, .T. ) ;
#81 = DIRECTION ( 'NONE',  ( -0.7071067811865525687, -0.7071067811865425767, 0.000000000000000000 ) ) ;
#82 = CYLINDRICAL_SURFACE ( 'NONE', #195, 0.7002721090471701881 ) ;
#83 = CALENDAR_DATE ( 2026, 6, 4 ) ;
#84 = CARTESIAN_POINT ( 'NONE',  ( 19.09188309203679168, 19.09188309203679168, 0.000000000000000000 ) ) ;
#85 = CIRCLE ( 'NONE', #487, 1.999999999999997780 ) ;
#86 = CARTESIAN_POINT ( 'NONE',  ( -11.18376618407356382, 27.00000000000001776, 96.51999999999999602 ) ) ;
#87 = VECTOR ( 'NONE', #157, 1000.000000000000000 ) ;
#88 = FACE_BOUND ( 'NONE', #533, .T. ) ;
#89 = CARTESIAN_POINT ( 'NONE',  ( 17.67766952966382021, 17.67766952966355731, 96.51999999999999602 ) ) ;
#90 = CARTESIAN_POINT ( 'NONE',  ( -3.949672112978322810E-16, 20.20000000000001705, 3.201716418326755687 ) ) ;
#91 = EDGE_CURVE ( 'NONE', #121, #271, #43, .T. ) ;
#92 = CARTESIAN_POINT ( 'NONE',  ( -11.18376618407356382, 27.00000000000001776, 96.51999999999999602 ) ) ;
#93 = CARTESIAN_POINT ( 'NONE',  ( 1.999999999999996669, 27.00000000000001776, 3.201716418326756131 ) ) ;
#94 = DIRECTION ( 'NONE',  ( 0.000000000000000000, 0.000000000000000000, -1.000000000000000000 ) ) ;
#95 = CIRCLE ( 'NONE', #330, 0.7000000000000061728 ) ;
#96 = DIRECTION ( 'NONE',  ( -1.000000000000000000, -1.348127836305427017E-16, 0.000000000000000000 ) ) ;
#97 = CARTESIAN_POINT ( 'NONE',  ( 0.000000000000000000, 20.20000000000001705, 2.501444309279585720 ) ) ;
#98 = ORIENTED_EDGE ( 'NONE', *, *, #556, .T. ) ;
#99 = ADVANCED_FACE ( 'NONE', ( #37 ), #29, .F. ) ;
#100 = CARTESIAN_POINT ( 'NONE',  ( 0.000000000000000000, 17.65364549295478369, 3.201716418326755687 ) ) ;
#101 = ORIENTED_EDGE ( 'NONE', *, *, #295, .T. ) ;
#102 = LINE ( 'NONE', #590, #432 ) ;
#103 = ORIENTED_EDGE ( 'NONE', *, *, #398, .T. ) ;
#104 = AXIS2_PLACEMENT_3D ( 'NONE', #224, #14, #166 ) ;
#105 = AXIS2_PLACEMENT_3D ( 'NONE', #370, #377, #582 ) ;
#106 = CARTESIAN_POINT ( 'NONE',  ( 0.000000000000000000, 17.65364549295478369, 96.51999999999999602 ) ) ;
#107 = CARTESIAN_POINT ( 'NONE',  ( -3.949672112978322810E-16, 20.20000000000001705, 93.31828358167324211 ) ) ;
#108 = VERTEX_POINT ( 'NONE', #411 ) ;
#109 = PERSON_AND_ORGANIZATION ( #617, #605 ) ;
#110 = DIRECTION ( 'NONE',  ( -1.551108497285261312E-16, 1.000000000000000000, -0.000000000000000000 ) ) ;
#111 = EDGE_CURVE ( 'NONE', #580, #333, #521, .T. ) ;
#112 = ORIENTED_EDGE ( 'NONE', *, *, #7, .F. ) ;
#113 = APPROVAL_PERSON_ORGANIZATION ( #109, #268, #540 ) ;
#114 = DIRECTION ( 'NONE',  ( 0.000000000000000000, 0.000000000000000000, -1.000000000000000000 ) ) ;
#115 = VERTEX_POINT ( 'NONE', #455 ) ;
#116 = DATE_AND_TIME ( #83, #505 ) ;
#117 = CARTESIAN_POINT ( 'NONE',  ( 0.000000000000000000, 0.000000000000000000, 96.51999999999999602 ) ) ;
#118 = VERTEX_POINT ( 'NONE', #307 ) ;
#119 = ADVANCED_FACE ( 'NONE', ( #239 ), #666, .F. ) ;
#120 = CARTESIAN_POINT ( 'NONE',  ( -2.585191379870677550E-15, 20.20000000000001705, -3.328006943901145744E-31 ) ) ;
#121 = VERTEX_POINT ( 'NONE', #97 ) ;
#122 = LINE ( 'NONE', #658, #509 ) ;
#123 = ORIENTED_EDGE ( 'NONE', *, *, #564, .T. ) ;
#124 = AXIS2_PLACEMENT_3D ( 'NONE', #238, #618, #357 ) ;
#125 = CARTESIAN_POINT ( 'NONE',  ( 19.09188309203679168, 19.09188309203679168, 96.51999999999999602 ) ) ;
#126 = EDGE_CURVE ( 'NONE', #141, #335, #527, .T. ) ;
#127 = ORIENTED_EDGE ( 'NONE', *, *, #111, .T. ) ;
#128 = APPROVAL_STATUS ( 'not_yet_approved' ) ;
#129 = DIRECTION ( 'NONE',  ( 0.000000000000000000, 0.000000000000000000, -1.000000000000000000 ) ) ;
#130 = ORIENTED_EDGE ( 'NONE', *, *, #165, .T. ) ;
#131 = APPROVAL ( #26, 'UNSPECIFIED' ) ;
#132 = COORDINATED_UNIVERSAL_TIME_OFFSET ( 5, 0, .BEHIND. ) ;
#133 = DIRECTION ( 'NONE',  ( 0.7071067811865425767, -0.7071067811865525687, 0.000000000000000000 ) ) ;
#134 = LINE ( 'NONE', #299, #261 ) ;
#135 = DIRECTION ( 'NONE',  ( -1.000000000000000000, 0.000000000000000000, 0.000000000000000000 ) ) ;
#136 = VECTOR ( 'NONE', #184, 1000.000000000000000 ) ;
#137 = EDGE_LOOP ( 'NONE', ( #321, #608, #483, #77 ) ) ;
#138 = EDGE_CURVE ( 'NONE', #615, #633, #48, .T. ) ;
#139 = DIRECTION ( 'NONE',  ( 1.348127836305427017E-16, -1.000000000000000000, 1.232595164407830946E-32 ) ) ;
#140 = CARTESIAN_POINT ( 'NONE',  ( -17.70169356637247660, 17.65364549295478369, 6.118000000000000327 ) ) ;
#141 = VERTEX_POINT ( 'NONE', #53 ) ;
#142 = CC_DESIGN_PERSON_AND_ORGANIZATION_ASSIGNMENT ( #188, #222, ( #415 ) ) ;
#143 = CARTESIAN_POINT ( 'NONE',  ( 0.000000000000000000, 17.65364549295478369, 93.31828358167324211 ) ) ;
#144 = CARTESIAN_POINT ( 'NONE',  ( 20.53012069111879967, 17.65364549295478369, 96.51999999999999602 ) ) ;
#145 = ORIENTED_EDGE ( 'NONE', *, *, #347, .T. ) ;
#146 = PLANE ( 'NONE',  #418 ) ;
#147 = FACE_BOUND ( 'NONE', #452, .T. ) ;
#148 = ADVANCED_FACE ( 'NONE', ( #422 ), #481, .F. ) ;
#149 = CARTESIAN_POINT ( 'NONE',  ( -3.949672112978322810E-16, 20.20000000000001705, 3.201716418326755687 ) ) ;
#150 = CARTESIAN_POINT ( 'NONE',  ( -19.09188309203678813, 19.09188309203678813, 96.51999999999999602 ) ) ;
#151 = CC_DESIGN_DATE_AND_TIME_ASSIGNMENT ( #434, #609, ( #214 ) ) ;
#152 = ORIENTED_EDGE ( 'NONE', *, *, #620, .F. ) ;
#153 = DIRECTION ( 'NONE',  ( 0.000000000000000000, 0.000000000000000000, -1.000000000000000000 ) ) ;
#154 = DIRECTION ( 'NONE',  ( 0.7071067811865474617, 0.7071067811865474617, 0.000000000000000000 ) ) ;
#155 = ORIENTED_EDGE ( 'NONE', *, *, #347, .F. ) ;
#156 = CARTESIAN_POINT ( 'NONE',  ( -1.999999999999995781, 20.20000000000001705, 93.31828358167324211 ) ) ;
#157 = DIRECTION ( 'NONE',  ( -0.000000000000000000, -1.000000000000000000, -0.000000000000000000 ) ) ;
#158 = ORIENTED_EDGE ( 'NONE', *, *, #91, .F. ) ;
#159 = CIRCLE ( 'NONE', #574, 1.999999999999997780 ) ;
#160 = VECTOR ( 'NONE', #94, 1000.000000000000000 ) ;
#161 = ADVANCED_FACE ( 'NONE', ( #267 ), #255, .T. ) ;
#162 = DIRECTION ( 'NONE',  ( -1.348127836305427017E-16, 1.000000000000000000, -1.232595164407830946E-32 ) ) ;
#163 = ORIENTED_EDGE ( 'NONE', *, *, #264, .F. ) ;
#164 = MANIFOLD_SOLID_BREP ( 'Cut-Extrude5', #519 ) ;
#165 = EDGE_CURVE ( 'NONE', #615, #647, #76, .T. ) ;
#166 = DIRECTION ( 'NONE',  ( 1.000000000000000000, 0.000000000000000000, 0.000000000000000000 ) ) ;
#167 = ORIENTED_EDGE ( 'NONE', *, *, #171, .T. ) ;
#168 = COORDINATED_UNIVERSAL_TIME_OFFSET ( 5, 0, .BEHIND. ) ;
#169 = DIRECTION ( 'NONE',  ( -0.000000000000000000, -0.000000000000000000, -1.000000000000000000 ) ) ;
#170 = VERTEX_POINT ( 'NONE', #216 ) ;
#171 = EDGE_CURVE ( 'NONE', #79, #625, #319, .T. ) ;
#172 = VECTOR ( 'NONE', #129, 1000.000000000000000 ) ;
#173 = AXIS2_PLACEMENT_3D ( 'NONE', #355, #516, #619 ) ;
#174 = DIRECTION ( 'NONE',  ( -1.348127836305427017E-16, 1.000000000000000000, -1.232595164407830946E-32 ) ) ;
#175 = EDGE_LOOP ( 'NONE', ( #543, #318, #604, #250 ) ) ;
#176 = CARTESIAN_POINT ( 'NONE',  ( -17.70169356637247660, 17.65364549295478369, 6.118000000000000327 ) ) ;
#177 = ORIENTED_EDGE ( 'NONE', *, *, #27, .F. ) ;
#178 = FACE_OUTER_BOUND ( 'NONE', #237, .T. ) ;
#179 = ORIENTED_EDGE ( 'NONE', *, *, #300, .T. ) ;
#180 = DATE_AND_TIME ( #226, #626 ) ;
#181 = EDGE_CURVE ( 'NONE', #647, #324, #211, .T. ) ;
#182 = ADVANCED_BREP_SHAPE_REPRESENTATION ( 'midsectionTop', ( #164, #326 ), #538 ) ;
#183 = AXIS2_PLACEMENT_3D ( 'NONE', #512, #186, #135 ) ;
#184 = DIRECTION ( 'NONE',  ( -0.7071067811865422437, 0.7071067811865527908, 0.000000000000000000 ) ) ;
#185 = VERTEX_POINT ( 'NONE', #685 ) ;
#186 = DIRECTION ( 'NONE',  ( 1.348127836305427017E-16, -1.000000000000000000, 1.232595164407830946E-32 ) ) ;
#187 = ORIENTED_EDGE ( 'NONE', *, *, #314, .T. ) ;
#188 = PERSON_AND_ORGANIZATION ( #617, #605 ) ;
#189 = LINE ( 'NONE', #403, #453 ) ;
#190 = DIRECTION ( 'NONE',  ( 0.000000000000000000, 0.000000000000000000, -1.000000000000000000 ) ) ;
#191 = ADVANCED_FACE ( 'NONE', ( #60 ), #208, .F. ) ;
#192 = DIRECTION ( 'NONE',  ( -0.7071067811865474617, 0.7071067811865474617, 0.000000000000000000 ) ) ;
#193 = CIRCLE ( 'NONE', #124, 0.7002721090471701881 ) ;
#194 = VERTEX_POINT ( 'NONE', #587 ) ;
#195 = AXIS2_PLACEMENT_3D ( 'NONE', #304, #572, #190 ) ;
#196 = DIRECTION ( 'NONE',  ( -1.000000000000000000, 0.000000000000000000, 0.000000000000000000 ) ) ;
#197 = CARTESIAN_POINT ( 'NONE',  ( -17.70169356637247660, 17.65364549295489027, 4.317999999999999616 ) ) ;
#198 = VERTEX_POINT ( 'NONE', #425 ) ;
#199 = EDGE_CURVE ( 'NONE', #57, #79, #677, .T. ) ;
#200 = FACE_OUTER_BOUND ( 'NONE', #687, .T. ) ;
#201 = DIRECTION ( 'NONE',  ( 0.7071067811865525687, 0.7071067811865425767, 0.000000000000000000 ) ) ;
#202 = CC_DESIGN_APPROVAL ( #268, ( #415 ) ) ;
#203 = DIRECTION ( 'NONE',  ( -1.000000000000000000, -1.551108497285261312E-16, 0.000000000000000000 ) ) ;
#204 = CARTESIAN_POINT ( 'NONE',  ( 8.575859968767832486E-17, 20.20000000000001705, 3.901988527373926097 ) ) ;
#205 = AXIS2_PLACEMENT_3D ( 'NONE', #100, #373, #534 ) ;
#206 = ORIENTED_EDGE ( 'NONE', *, *, #295, .F. ) ;
#207 = APPLICATION_PROTOCOL_DEFINITION ( 'international standard', 'config_control_design', 1994, #656 ) ;
#208 = PLANE ( 'NONE',  #341 ) ;
#209 = ORIENTED_EDGE ( 'NONE', *, *, #484, .F. ) ;
#210 = CARTESIAN_POINT ( 'NONE',  ( 0.000000000000000000, 28.98066862793225340, 3.201716418326755687 ) ) ;
#211 = LINE ( 'NONE', #537, #351 ) ;
#212 = ORIENTED_EDGE ( 'NONE', *, *, #573, .T. ) ;
#213 = EDGE_CURVE ( 'NONE', #324, #633, #18, .T. ) ;
#214 = SECURITY_CLASSIFICATION ( '', '', #241 ) ;
#215 = CARTESIAN_POINT ( 'NONE',  ( -4.674177253522294961, 40.02951631285001355, 6.118000000000000327 ) ) ;
#216 = CARTESIAN_POINT ( 'NONE',  ( 8.572527594031560704E-17, 17.65364549295478369, 94.01828358167324495 ) ) ;
#217 = ORIENTED_EDGE ( 'NONE', *, *, #20, .F. ) ;
#218 = AXIS2_PLACEMENT_3D ( 'NONE', #486, #10, #546 ) ;
#219 = DATE_TIME_ROLE ( 'creation_date' ) ;
#220 = LINE ( 'NONE', #125, #306 ) ;
#221 = ORIENTED_EDGE ( 'NONE', *, *, #138, .T. ) ;
#222 = PERSON_AND_ORGANIZATION_ROLE ( 'creator' ) ;
#223 = EDGE_CURVE ( 'NONE', #70, #653, #102, .T. ) ;
#224 = CARTESIAN_POINT ( 'NONE',  ( 0.000000000000000000, 0.000000000000000000, 0.000000000000000000 ) ) ;
#225 = ORIENTED_EDGE ( 'NONE', *, *, #675, .T. ) ;
#226 = CALENDAR_DATE ( 2026, 6, 4 ) ;
#227 = CYLINDRICAL_SURFACE ( 'NONE', #218, 1.999999999999997780 ) ;
#228 = ORIENTED_EDGE ( 'NONE', *, *, #620, .T. ) ;
#229 = VECTOR ( 'NONE', #397, 1000.000000000000000 ) ;
#230 = CARTESIAN_POINT ( 'NONE',  ( 0.000000000000000000, 28.98066862793225340, 93.31828358167324211 ) ) ;
#231 = ORIENTED_EDGE ( 'NONE', *, *, #584, .F. ) ;
#232 = DIRECTION ( 'NONE',  ( -0.000000000000000000, -1.000000000000000000, -0.000000000000000000 ) ) ;
#233 = EDGE_LOOP ( 'NONE', ( #177, #447, #253, #282 ) ) ;
#234 = ADVANCED_FACE ( 'NONE', ( #416, #147, #419 ), #45, .F. ) ;
#235 = CARTESIAN_POINT ( 'NONE',  ( -19.09188309203678813, 19.09188309203678813, 96.51999999999999602 ) ) ;
#236 = LOCAL_TIME ( 1, 13, 29.00000000000000000, #132 ) ;
#237 = EDGE_LOOP ( 'NONE', ( #442, #130 ) ) ;
#238 = CARTESIAN_POINT ( 'NONE',  ( 1.054753778153977465E-15, 20.20000000000001705, 3.201716418326755687 ) ) ;
#239 = FACE_OUTER_BOUND ( 'NONE', #371, .T. ) ;
#240 = VERTEX_POINT ( 'NONE', #204 ) ;
#241 = SECURITY_CLASSIFICATION_LEVEL ( 'unclassified' ) ;
#242 = DIRECTION ( 'NONE',  ( 0.000000000000000000, 1.000000000000000000, 0.000000000000000000 ) ) ;
#243 = DESIGN_CONTEXT ( 'detailed design', #42, 'design' ) ;
#244 = ORIENTED_EDGE ( 'NONE', *, *, #493, .T. ) ;
#245 = DIRECTION ( 'NONE',  ( -1.348127836305427017E-16, 1.000000000000000000, -1.232595164407830946E-32 ) ) ;
#246 = ORIENTED_EDGE ( 'NONE', *, *, #497, .F. ) ;
#247 = LINE ( 'NONE', #84, #39 ) ;
#248 = AXIS2_PLACEMENT_3D ( 'NONE', #210, #414, #153 ) ;
#249 = CARTESIAN_POINT ( 'NONE',  ( -3.949672112978322810E-16, 20.20000000000001705, 3.201716418326755687 ) ) ;
#250 = ORIENTED_EDGE ( 'NONE', *, *, #126, .F. ) ;
#251 = EDGE_CURVE ( 'NONE', #659, #185, #366, .T. ) ;
#252 = CARTESIAN_POINT ( 'NONE',  ( -17.70169356637247660, 27.00200000000002021, 6.118000000000000327 ) ) ;
#253 = ORIENTED_EDGE ( 'NONE', *, *, #251, .T. ) ;
#254 = DIRECTION ( 'NONE',  ( -1.348127836305427017E-16, 1.000000000000000000, -1.232595164407830946E-32 ) ) ;
#255 = PLANE ( 'NONE',  #40 ) ;
#256 = EDGE_LOOP ( 'NONE', ( #602, #412, #636, #491 ) ) ;
#257 = CARTESIAN_POINT ( 'NONE',  ( -10.35533905932718035, 25.00000000000007461, 96.51999999999999602 ) ) ;
#258 = CARTESIAN_POINT ( 'NONE',  ( -17.70169356637258673, 27.00200000000002021, 90.40200000000000102 ) ) ;
#259 = CIRCLE ( 'NONE', #205, 0.7002721090471701881 ) ;
#260 = VERTEX_POINT ( 'NONE', #532 ) ;
#261 = VECTOR ( 'NONE', #566, 1000.000000000000000 ) ;
#262 = CARTESIAN_POINT ( 'NONE',  ( 0.000000000000000000, 17.65364549295478369, 93.31828358167324211 ) ) ;
#263 = DIRECTION ( 'NONE',  ( -1.000000000000000000, 0.000000000000000000, 0.000000000000000000 ) ) ;
#264 = EDGE_CURVE ( 'NONE', #118, #271, #259, .T. ) ;
#265 = VERTEX_POINT ( 'NONE', #56 ) ;
#266 = LINE ( 'NONE', #215, #663 ) ;
#267 = FACE_OUTER_BOUND ( 'NONE', #175, .T. ) ;
#268 = APPROVAL ( #613, 'UNSPECIFIED' ) ;
#269 = EDGE_LOOP ( 'NONE', ( #101, #583, #276, #225 ) ) ;
#270 = DIRECTION ( 'NONE',  ( -1.551108497285261312E-16, 1.000000000000000000, -0.000000000000000000 ) ) ;
#271 = VERTEX_POINT ( 'NONE', #17 ) ;
#272 = VECTOR ( 'NONE', #327, 1000.000000000000000 ) ;
#273 = ADVANCED_FACE ( 'NONE', ( #379 ), #441, .F. ) ;
#274 = PERSON_AND_ORGANIZATION_ROLE ( 'creator' ) ;
#275 = CARTESIAN_POINT ( 'NONE',  ( -20.53012069111879256, 17.65364549295478369, 0.000000000000000000 ) ) ;
#276 = ORIENTED_EDGE ( 'NONE', *, *, #535, .T. ) ;
#277 = CC_DESIGN_PERSON_AND_ORGANIZATION_ASSIGNMENT ( #278, #331, ( #65 ) ) ;
#278 = PERSON_AND_ORGANIZATION ( #617, #605 ) ;
#279 = DIRECTION ( 'NONE',  ( -1.000000000000000000, -0.000000000000000000, -0.000000000000000000 ) ) ;
#280 = ORIENTED_EDGE ( 'NONE', *, *, #91, .T. ) ;
#281 = LINE ( 'NONE', #176, #542 ) ;
#282 = ORIENTED_EDGE ( 'NONE', *, *, #544, .T. ) ;
#283 = AXIS2_PLACEMENT_3D ( 'NONE', #338, #438, #548 ) ;
#284 = VECTOR ( 'NONE', #622, 1000.000000000000000 ) ;
#285 = CARTESIAN_POINT ( 'NONE',  ( 10.35533905932756227, 24.99999999999992539, 96.51999999999999602 ) ) ;
#286 = ORIENTED_EDGE ( 'NONE', *, *, #62, .T. ) ;
#287 = ADVANCED_FACE ( 'NONE', ( #541 ), #598, .T. ) ;
#288 = FACE_BOUND ( 'NONE', #46, .T. ) ;
#289 = VERTEX_POINT ( 'NONE', #69 ) ;
#290 = CC_DESIGN_PERSON_AND_ORGANIZATION_ASSIGNMENT ( #545, #395, ( #415 ) ) ;
#291 = CYLINDRICAL_SURFACE ( 'NONE', #552, 0.7000000000000061728 ) ;
#292 = APPROVAL_PERSON_ORGANIZATION ( #322, #413, #344 ) ;
#293 = CARTESIAN_POINT ( 'NONE',  ( -1.999999999999999112, 27.00000000000001776, 3.201716418326755687 ) ) ;
#294 = APPROVAL_DATE_TIME ( #557, #413 ) ;
#295 = EDGE_CURVE ( 'NONE', #653, #115, #500, .T. ) ;
#296 = AXIS2_PLACEMENT_3D ( 'NONE', #252, #627, #523 ) ;
#297 = AXIS2_PLACEMENT_3D ( 'NONE', #89, #346, #458 ) ;
#298 = DIRECTION ( 'NONE',  ( 0.000000000000000000, -0.000000000000000000, 1.000000000000000000 ) ) ;
#299 = CARTESIAN_POINT ( 'NONE',  ( 8.572527594031554541E-17, 28.98066862793225340, 94.01828358167324495 ) ) ;
#300 = EDGE_CURVE ( 'NONE', #625, #79, #16, .T. ) ;
#301 = LINE ( 'NONE', #235, #396 ) ;
#302 = CARTESIAN_POINT ( 'NONE',  ( 0.000000000000000000, 28.98066862793225340, 2.501444309279585720 ) ) ;
#303 = DIRECTION ( 'NONE',  ( -1.551108497285261312E-16, 1.000000000000000000, -0.000000000000000000 ) ) ;
#304 = CARTESIAN_POINT ( 'NONE',  ( 0.000000000000000000, 28.98066862793225340, 3.201716418326755687 ) ) ;
#305 = DIRECTION ( 'NONE',  ( 0.7071067811865474617, -0.7071067811865474617, 0.000000000000000000 ) ) ;
#306 = VECTOR ( 'NONE', #342, 1000.000000000000114 ) ;
#307 = CARTESIAN_POINT ( 'NONE',  ( 8.575859968767833719E-17, 17.65364549295478369, 3.901988527373926097 ) ) ;
#308 = ADVANCED_FACE ( 'NONE', ( #435 ), #227, .F. ) ;
#309 = CARTESIAN_POINT ( 'NONE',  ( 19.09188309203679168, 19.09188309203679168, 96.51999999999999602 ) ) ;
#310 = DIRECTION ( 'NONE',  ( -1.000000000000000000, 0.000000000000000000, -0.000000000000000000 ) ) ;
#311 = ORIENTED_EDGE ( 'NONE', *, *, #544, .F. ) ;
#312 = DIRECTION ( 'NONE',  ( -1.348127836305427017E-16, 1.000000000000000000, -1.232595164407830946E-32 ) ) ;
#313 = EDGE_LOOP ( 'NONE', ( #569, #221, #387, #470 ) ) ;
#314 = EDGE_CURVE ( 'NONE', #333, #343, #21, .T. ) ;
#315 =( NAMED_UNIT ( * ) PLANE_ANGLE_UNIT ( ) SI_UNIT ( $, .RADIAN. ) );
#316 = DIRECTION ( 'NONE',  ( 0.000000000000000000, 0.000000000000000000, -1.000000000000000000 ) ) ;
#317 = AXIS2_PLACEMENT_3D ( 'NONE', #117, #593, #332 ) ;
#318 = ORIENTED_EDGE ( 'NONE', *, *, #535, .F. ) ;
#319 = CIRCLE ( 'NONE', #445, 1.999999999999997780 ) ;
#320 = CARTESIAN_POINT ( 'NONE',  ( -1.999999999999998224, 20.20000000000001705, 3.201716418326755687 ) ) ;
#321 = ORIENTED_EDGE ( 'NONE', *, *, #223, .T. ) ;
#322 = PERSON_AND_ORGANIZATION ( #617, #605 ) ;
#323 = DIRECTION ( 'NONE',  ( -1.551108497285261312E-16, 1.000000000000000000, -0.000000000000000000 ) ) ;
#324 = VERTEX_POINT ( 'NONE', #448 ) ;
#325 = EDGE_CURVE ( 'NONE', #647, #615, #363, .T. ) ;
#326 = AXIS2_PLACEMENT_3D ( 'NONE', #504, #508, #63 ) ;
#327 = DIRECTION ( 'NONE',  ( 1.000000000000000000, -7.370867579099568370E-15, 0.000000000000000000 ) ) ;
#328 = ORIENTED_EDGE ( 'NONE', *, *, #171, .F. ) ;
#329 = PRODUCT_RELATED_PRODUCT_CATEGORY ( 'detail', '', ( #65 ) ) ;
#330 = AXIS2_PLACEMENT_3D ( 'NONE', #143, #610, #506 ) ;
#331 = PERSON_AND_ORGANIZATION_ROLE ( 'design_owner' ) ;
#332 = DIRECTION ( 'NONE',  ( 1.000000000000000000, 0.000000000000000000, 0.000000000000000000 ) ) ;
#333 = VERTEX_POINT ( 'NONE', #496 ) ;
#334 = DIRECTION ( 'NONE',  ( -1.000000000000000000, 0.000000000000000000, -0.000000000000000000 ) ) ;
#335 = VERTEX_POINT ( 'NONE', #603 ) ;
#336 = VECTOR ( 'NONE', #428, 1000.000000000000000 ) ;
#337 = EDGE_CURVE ( 'NONE', #108, #70, #281, .T. ) ;
#338 = CARTESIAN_POINT ( 'NONE',  ( 1.054753778153977465E-15, 20.20000000000001705, 93.31828358167324211 ) ) ;
#339 = ORIENTED_EDGE ( 'NONE', *, *, #461, .F. ) ;
#340 = VECTOR ( 'NONE', #169, 1000.000000000000000 ) ;
#341 = AXIS2_PLACEMENT_3D ( 'NONE', #150, #576, #154 ) ;
#342 = DIRECTION ( 'NONE',  ( -0.7071067811865474617, 0.7071067811865474617, 0.000000000000000000 ) ) ;
#343 = VERTEX_POINT ( 'NONE', #275 ) ;
#344 = APPROVAL_ROLE ( '' ) ;
#345 = LINE ( 'NONE', #558, #50 ) ;
#346 = DIRECTION ( 'NONE',  ( -0.7071067811865527908, -0.7071067811865422437, 0.000000000000000000 ) ) ;
#347 = EDGE_CURVE ( 'NONE', #198, #6, #122, .T. ) ;
#348 = CALENDAR_DATE ( 2026, 6, 4 ) ;
#349 = DIRECTION ( 'NONE',  ( 0.000000000000000000, -1.000000000000000000, 0.000000000000000000 ) ) ;
#350 = EDGE_LOOP ( 'NONE', ( #24, #361, #670, #167 ) ) ;
#351 = VECTOR ( 'NONE', #323, 1000.000000000000000 ) ;
#352 = CARTESIAN_POINT ( 'NONE',  ( -17.67766952966356087, 17.67766952966380956, 96.51999999999999602 ) ) ;
#353 = ORIENTED_EDGE ( 'NONE', *, *, #300, .F. ) ;
#354 = CARTESIAN_POINT ( 'NONE',  ( 20.53012069111879967, 17.65364549295478369, 96.51999999999999602 ) ) ;
#355 = CARTESIAN_POINT ( 'NONE',  ( 1.842716894774891998E-13, 24.99999999999999645, 96.51999999999999602 ) ) ;
#356 = ORIENTED_EDGE ( 'NONE', *, *, #199, .F. ) ;
#357 = DIRECTION ( 'NONE',  ( -1.000000000000000000, 0.000000000000000000, 0.000000000000000000 ) ) ;
#358 = ADVANCED_FACE ( 'NONE', ( #494 ), #490, .F. ) ;
#359 = CC_DESIGN_APPROVAL ( #413, ( #214 ) ) ;
#360 = DIRECTION ( 'NONE',  ( 0.000000000000000000, 0.000000000000000000, -1.000000000000000000 ) ) ;
#361 = ORIENTED_EDGE ( 'NONE', *, *, #616, .F. ) ;
#362 = PLANE ( 'NONE',  #296 ) ;
#363 = CIRCLE ( 'NONE', #405, 1.999999999999995337 ) ;
#364 = CARTESIAN_POINT ( 'NONE',  ( -1.449720989451809944E-15, 27.00000000000001776, 3.201716418326755687 ) ) ;
#365 = DIRECTION ( 'NONE',  ( -1.348127836305427017E-16, 1.000000000000000000, -1.232595164407830946E-32 ) ) ;
#366 = LINE ( 'NONE', #579, #87 ) ;
#367 = ORIENTED_EDGE ( 'NONE', *, *, #62, .F. ) ;
#368 = EDGE_CURVE ( 'NONE', #659, #421, #630, .T. ) ;
#369 = FACE_OUTER_BOUND ( 'NONE', #54, .T. ) ;
#370 = CARTESIAN_POINT ( 'NONE',  ( -1.449720989451809944E-15, 27.00000000000001776, 93.31828358167324211 ) ) ;
#371 = EDGE_LOOP ( 'NONE', ( #503, #501, #456, #61 ) ) ;
#372 = LINE ( 'NONE', #679, #391 ) ;
#373 = DIRECTION ( 'NONE',  ( 0.000000000000000000, -1.000000000000000000, 0.000000000000000000 ) ) ;
#374 = CIRCLE ( 'NONE', #183, 0.7002721090471701881 ) ;
#375 = ORIENTED_EDGE ( 'NONE', *, *, #337, .F. ) ;
#376 = VECTOR ( 'NONE', #629, 1000.000000000000000 ) ;
#377 = DIRECTION ( 'NONE',  ( -1.348127836305427017E-16, 1.000000000000000000, -1.232595164407830946E-32 ) ) ;
#378 = EDGE_LOOP ( 'NONE', ( #662, #112, #155, #13 ) ) ;
#379 = FACE_OUTER_BOUND ( 'NONE', #507, .T. ) ;
#380 = CC_DESIGN_PERSON_AND_ORGANIZATION_ASSIGNMENT ( #437, #68, ( #214 ) ) ;
#381 = ORIENTED_EDGE ( 'NONE', *, *, #126, .T. ) ;
#382 = MECHANICAL_CONTEXT ( 'NONE', #656, 'mechanical' ) ;
#383 = CARTESIAN_POINT ( 'NONE',  ( 8.572527594031504005E-17, 20.20000000000001705, 94.01828358167324495 ) ) ;
#384 = ORIENTED_EDGE ( 'NONE', *, *, #497, .T. ) ;
#385 = CIRCLE ( 'NONE', #30, 0.7000000000000067280 ) ;
#386 = PLANE ( 'NONE',  #74 ) ;
#387 = ORIENTED_EDGE ( 'NONE', *, *, #484, .T. ) ;
#388 = ADVANCED_FACE ( 'NONE', ( #652, #178 ), #386, .T. ) ;
#389 = DIRECTION ( 'NONE',  ( -1.000000000000000000, 0.000000000000000000, 0.000000000000000000 ) ) ;
#390 = ORIENTED_EDGE ( 'NONE', *, *, #27, .T. ) ;
#391 = VECTOR ( 'NONE', #203, 1000.000000000000000 ) ;
#392 = CC_DESIGN_DATE_AND_TIME_ASSIGNMENT ( #180, #219, ( #473 ) ) ;
#393 = DIRECTION ( 'NONE',  ( -0.000000000000000000, -0.000000000000000000, -1.000000000000000000 ) ) ;
#394 = EDGE_LOOP ( 'NONE', ( #439, #127, #539, #555 ) ) ;
#395 = PERSON_AND_ORGANIZATION_ROLE ( 'design_supplier' ) ;
#396 = VECTOR ( 'NONE', #502, 1000.000000000000114 ) ;
#397 = DIRECTION ( 'NONE',  ( -0.000000000000000000, 0.000000000000000000, 1.000000000000000000 ) ) ;
#398 = EDGE_CURVE ( 'NONE', #265, #115, #75, .T. ) ;
#399 = DIRECTION ( 'NONE',  ( -0.000000000000000000, -1.000000000000000000, -0.000000000000000000 ) ) ;
#400 = APPROVAL_ROLE ( '' ) ;
#401 = FACE_OUTER_BOUND ( 'NONE', #233, .T. ) ;
#402 = LINE ( 'NONE', #612, #530 ) ;
#403 = CARTESIAN_POINT ( 'NONE',  ( -17.70169356637259739, 25.00000000000013145, 90.40200000000000102 ) ) ;
#404 = DIRECTION ( 'NONE',  ( -0.000000000000000000, -0.000000000000000000, -1.000000000000000000 ) ) ;
#405 = AXIS2_PLACEMENT_3D ( 'NONE', #646, #174, #12 ) ;
#406 = AXIS2_PLACEMENT_3D ( 'NONE', #478, #643, #475 ) ;
#407 = PLANE ( 'NONE',  #64 ) ;
#408 = FACE_OUTER_BOUND ( 'NONE', #488, .T. ) ;
#409 = EDGE_CURVE ( 'NONE', #198, #194, #554, .T. ) ;
#410 = DIRECTION ( 'NONE',  ( -1.348127836305427017E-16, 1.000000000000000000, -1.232595164407830946E-32 ) ) ;
#411 = CARTESIAN_POINT ( 'NONE',  ( 17.70169356637247660, 17.65364549295478369, 6.118000000000000327 ) ) ;
#412 = ORIENTED_EDGE ( 'NONE', *, *, #314, .F. ) ;
#413 = APPROVAL ( #128, 'UNSPECIFIED' ) ;
#414 = DIRECTION ( 'NONE',  ( -0.000000000000000000, -1.000000000000000000, -0.000000000000000000 ) ) ;
#415 = PRODUCT_DEFINITION_FORMATION_WITH_SPECIFIED_SOURCE ( 'ANY', '', #65, .NOT_KNOWN. ) ;
#416 = FACE_BOUND ( 'NONE', #595, .T. ) ;
#417 =( LENGTH_UNIT ( ) NAMED_UNIT ( * ) SI_UNIT ( .MILLI., .METRE. ) );
#418 = AXIS2_PLACEMENT_3D ( 'NONE', #581, #365, #96 ) ;
#419 = FACE_OUTER_BOUND ( 'NONE', #378, .T. ) ;
#420 = EDGE_CURVE ( 'NONE', #580, #198, #220, .T. ) ;
#421 = VERTEX_POINT ( 'NONE', #383 ) ;
#422 = FACE_OUTER_BOUND ( 'NONE', #313, .T. ) ;
#423 = ORIENTED_EDGE ( 'NONE', *, *, #450, .T. ) ;
#424 = CARTESIAN_POINT ( 'NONE',  ( 1.999999999999994893, 20.20000000000001705, 93.31828358167324211 ) ) ;
#425 = CARTESIAN_POINT ( 'NONE',  ( 11.18376618407356737, 27.00000000000001776, 96.51999999999999602 ) ) ;
#426 = CC_DESIGN_SECURITY_CLASSIFICATION ( #214, ( #415 ) ) ;
#427 = EDGE_LOOP ( 'NONE', ( #476, #212 ) ) ;
#428 = DIRECTION ( 'NONE',  ( -1.000000000000000000, 0.000000000000000000, -0.000000000000000000 ) ) ;
#429 = CARTESIAN_POINT ( 'NONE',  ( -17.70169356637258673, 17.65364549295478369, 90.40200000000000102 ) ) ;
#430 = CIRCLE ( 'NONE', #599, 1.999999999999995337 ) ;
#431 = ORIENTED_EDGE ( 'NONE', *, *, #665, .F. ) ;
#432 = VECTOR ( 'NONE', #201, 999.9999999999998863 ) ;
#433 = EDGE_CURVE ( 'NONE', #271, #118, #444, .T. ) ;
#434 = DATE_AND_TIME ( #492, #594 ) ;
#435 = FACE_OUTER_BOUND ( 'NONE', #350, .T. ) ;
#436 = ORIENTED_EDGE ( 'NONE', *, *, #251, .F. ) ;
#437 = PERSON_AND_ORGANIZATION ( #617, #605 ) ;
#438 = DIRECTION ( 'NONE',  ( 1.348127836305427017E-16, -1.000000000000000000, 1.232595164407830946E-32 ) ) ;
#439 = ORIENTED_EDGE ( 'NONE', *, *, #420, .F. ) ;
#440 = PERSON_AND_ORGANIZATION ( #617, #605 ) ;
#441 = CYLINDRICAL_SURFACE ( 'NONE', #518, 0.7000000000000061728 ) ;
#442 = ORIENTED_EDGE ( 'NONE', *, *, #325, .T. ) ;
#443 = ADVANCED_FACE ( 'NONE', ( #36 ), #621, .T. ) ;
#444 = CIRCLE ( 'NONE', #9, 0.7002721090471701881 ) ;
#445 = AXIS2_PLACEMENT_3D ( 'NONE', #364, #162, #639 ) ;
#446 = CARTESIAN_POINT ( 'NONE',  ( -17.70169356637249081, 25.00000000000013145, 6.118000000000000327 ) ) ;
#447 = ORIENTED_EDGE ( 'NONE', *, *, #368, .F. ) ;
#448 = CARTESIAN_POINT ( 'NONE',  ( -1.999999999999996669, 27.00000000000001776, 93.31828358167324211 ) ) ;
#449 = ORIENTED_EDGE ( 'NONE', *, *, #686, .F. ) ;
#450 = EDGE_CURVE ( 'NONE', #335, #265, #510, .T. ) ;
#451 = CARTESIAN_POINT ( 'NONE',  ( 17.70169356637259384, 17.65364549295478369, 4.317999999999999616 ) ) ;
#452 = EDGE_LOOP ( 'NONE', ( #328, #353 ) ) ;
#453 = VECTOR ( 'NONE', #454, 1000.000000000000000 ) ;
#454 = DIRECTION ( 'NONE',  ( -1.000000000000000000, 7.370867579099568370E-15, 0.000000000000000000 ) ) ;
#455 = CARTESIAN_POINT ( 'NONE',  ( 10.35533905932756582, 24.99999999999992539, 6.118000000000000327 ) ) ;
#456 = ORIENTED_EDGE ( 'NONE', *, *, #181, .T. ) ;
#457 = LINE ( 'NONE', #673, #229 ) ;
#458 = DIRECTION ( 'NONE',  ( 0.7071067811865422437, -0.7071067811865527908, 0.000000000000000000 ) ) ;
#459 = DIRECTION ( 'NONE',  ( -0.000000000000000000, -1.000000000000000000, -0.000000000000000000 ) ) ;
#460 = LINE ( 'NONE', #92, #553 ) ;
#461 = EDGE_CURVE ( 'NONE', #333, #194, #247, .T. ) ;
#462 = AXIS2_PLACEMENT_3D ( 'NONE', #524, #312, #2 ) ;
#463 = FACE_BOUND ( 'NONE', #549, .T. ) ;
#464 = DIRECTION ( 'NONE',  ( -1.551108497285261312E-16, 1.000000000000000000, -0.000000000000000000 ) ) ;
#465 =( NAMED_UNIT ( * ) SI_UNIT ( $, .STERADIAN. ) SOLID_ANGLE_UNIT ( ) );
#466 = ORIENTED_EDGE ( 'NONE', *, *, #616, .T. ) ;
#467 = ADVANCED_FACE ( 'NONE', ( #288, #88, #561, #463 ), #407, .F. ) ;
#468 = CARTESIAN_POINT ( 'NONE',  ( -10.35533905932718035, 25.00000000000007461, 6.118000000000000327 ) ) ;
#469 = CARTESIAN_POINT ( 'NONE',  ( -4.187992942670208871E-15, 27.00000000000001776, 96.51999999999999602 ) ) ;
#470 = ORIENTED_EDGE ( 'NONE', *, *, #181, .F. ) ;
#471 = DIRECTION ( 'NONE',  ( -0.000000000000000000, -0.000000000000000000, -1.000000000000000000 ) ) ;
#472 = VECTOR ( 'NONE', #334, 1000.000000000000000 ) ;
#473 = PRODUCT_DEFINITION ( 'UNKNOWN', '', #415, #243 ) ;
#474 = AXIS2_PLACEMENT_3D ( 'NONE', #249, #464, #674 ) ;
#475 = DIRECTION ( 'NONE',  ( -1.000000000000000000, 0.000000000000000000, 0.000000000000000000 ) ) ;
#476 = ORIENTED_EDGE ( 'NONE', *, *, #368, .T. ) ;
#477 = FACE_OUTER_BOUND ( 'NONE', #588, .T. ) ;
#478 = CARTESIAN_POINT ( 'NONE',  ( -3.949672112978322810E-16, 20.20000000000001705, 93.31828358167324211 ) ) ;
#479 = ORIENTED_EDGE ( 'NONE', *, *, #573, .F. ) ;
#480 = PRODUCT_DEFINITION_SHAPE ( 'NONE', 'NONE',  #473 ) ;
#481 = CYLINDRICAL_SURFACE ( 'NONE', #51, 1.999999999999995337 ) ;
#482 = LOCAL_TIME ( 1, 13, 29.00000000000000000, #58 ) ;
#483 = ORIENTED_EDGE ( 'NONE', *, *, #596, .T. ) ;
#484 = EDGE_CURVE ( 'NONE', #633, #324, #430, .T. ) ;
#485 = DATE_AND_TIME ( #592, #236 ) ;
#486 = CARTESIAN_POINT ( 'NONE',  ( -3.949672112978322810E-16, 20.20000000000001705, 3.201716418326755687 ) ) ;
#487 = AXIS2_PLACEMENT_3D ( 'NONE', #90, #245, #669 ) ;
#488 = EDGE_LOOP ( 'NONE', ( #367, #49, #280, #35 ) ) ;
#489 = SHAPE_DEFINITION_REPRESENTATION ( #480, #182 ) ;
#490 = PLANE ( 'NONE',  #104 ) ;
#491 = ORIENTED_EDGE ( 'NONE', *, *, #665, .T. ) ;
#492 = CALENDAR_DATE ( 2026, 6, 4 ) ;
#493 = EDGE_CURVE ( 'NONE', #343, #289, #457, .T. ) ;
#494 = FACE_OUTER_BOUND ( 'NONE', #547, .T. ) ;
#495 = ORIENTED_EDGE ( 'NONE', *, *, #556, .F. ) ;
#496 = CARTESIAN_POINT ( 'NONE',  ( 20.53012069111879967, 17.65364549295478369, 0.000000000000000000 ) ) ;
#497 = EDGE_CURVE ( 'NONE', #6, #289, #301, .T. ) ;
#498 = ORIENTED_EDGE ( 'NONE', *, *, #686, .T. ) ;
#499 = VECTOR ( 'NONE', #303, 1000.000000000000000 ) ;
#500 = LINE ( 'NONE', #446, #272 ) ;
#501 = ORIENTED_EDGE ( 'NONE', *, *, #325, .F. ) ;
#502 = DIRECTION ( 'NONE',  ( -0.7071067811865474617, -0.7071067811865474617, 0.000000000000000000 ) ) ;
#503 = ORIENTED_EDGE ( 'NONE', *, *, #138, .F. ) ;
#504 = CARTESIAN_POINT ( 'NONE',  ( 0.000000000000000000, 0.000000000000000000, 0.000000000000000000 ) ) ;
#505 = LOCAL_TIME ( 1, 13, 29.00000000000000000, #8 ) ;
#506 = DIRECTION ( 'NONE',  ( 0.000000000000000000, 0.000000000000000000, -1.000000000000000000 ) ) ;
#507 = EDGE_LOOP ( 'NONE', ( #479, #390, #3, #436 ) ) ;
#508 = DIRECTION ( 'NONE',  ( 0.000000000000000000, 0.000000000000000000, 1.000000000000000000 ) ) ;
#509 = VECTOR ( 'NONE', #601, 1000.000000000000000 ) ;
#510 = LINE ( 'NONE', #515, #136 ) ;
#511 = PLANE ( 'NONE',  #173 ) ;
#512 = CARTESIAN_POINT ( 'NONE',  ( 1.054753778153977465E-15, 20.20000000000001705, 3.201716418326755687 ) ) ;
#513 = EDGE_CURVE ( 'NONE', #260, #57, #85, .T. ) ;
#514 = PLANE ( 'NONE',  #297 ) ;
#515 = CARTESIAN_POINT ( 'NONE',  ( -4.674177253522350917, 40.02951631285005618, 90.40200000000000102 ) ) ;
#516 = DIRECTION ( 'NONE',  ( -7.370867579099568370E-15, -1.000000000000000000, 0.000000000000000000 ) ) ;
#517 = CC_DESIGN_PERSON_AND_ORGANIZATION_ASSIGNMENT ( #597, #274, ( #473 ) ) ;
#518 = AXIS2_PLACEMENT_3D ( 'NONE', #230, #232, #114 ) ;
#519 = CLOSED_SHELL ( 'NONE', ( #148, #99, #611, #273, #606, #38, #71, #443, #645, #234, #191, #80, #287, #358, #467, #161, #628, #308, #637, #119, #388 ) ) ;
#520 = LINE ( 'NONE', #106, #336 ) ;
#521 = LINE ( 'NONE', #144, #160 ) ;
#522 = EDGE_CURVE ( 'NONE', #260, #625, #623, .T. ) ;
#523 = DIRECTION ( 'NONE',  ( 1.000000000000000000, 0.000000000000000000, 0.000000000000000000 ) ) ;
#524 = CARTESIAN_POINT ( 'NONE',  ( -3.949672112978322810E-16, 20.20000000000001705, 93.31828358167324211 ) ) ;
#525 = ORIENTED_EDGE ( 'NONE', *, *, #420, .T. ) ;
#526 = LINE ( 'NONE', #257, #59 ) ;
#527 = LINE ( 'NONE', #429, #672 ) ;
#528 = VERTEX_POINT ( 'NONE', #23 ) ;
#529 = AXIS2_PLACEMENT_3D ( 'NONE', #352, #133, #567 ) ;
#530 = VECTOR ( 'NONE', #399, 1000.000000000000000 ) ;
#531 = UNCERTAINTY_MEASURE_WITH_UNIT (LENGTH_MEASURE( 1.000000000000000082E-05 ), #417, 'distance_accuracy_value', 'NONE');
#532 = CARTESIAN_POINT ( 'NONE',  ( 1.999999999999997335, 20.20000000000001705, 3.201716418326756131 ) ) ;
#533 = EDGE_LOOP ( 'NONE', ( #311, #600 ) ) ;
#534 = DIRECTION ( 'NONE',  ( 0.000000000000000000, 0.000000000000000000, -1.000000000000000000 ) ) ;
#535 = EDGE_CURVE ( 'NONE', #265, #591, #189, .T. ) ;
#536 = ORIENTED_EDGE ( 'NONE', *, *, #223, .F. ) ;
#537 = CARTESIAN_POINT ( 'NONE',  ( -1.999999999999995781, 20.20000000000001705, 93.31828358167324211 ) ) ;
#538 =( GEOMETRIC_REPRESENTATION_CONTEXT ( 3 ) GLOBAL_UNCERTAINTY_ASSIGNED_CONTEXT ( ( #531 ) ) GLOBAL_UNIT_ASSIGNED_CONTEXT ( ( #417, #315, #465 ) ) REPRESENTATION_CONTEXT ( 'NONE', 'WORKASPACE' ) );
#539 = ORIENTED_EDGE ( 'NONE', *, *, #461, .T. ) ;
#540 = APPROVAL_ROLE ( '' ) ;
#541 = FACE_OUTER_BOUND ( 'NONE', #11, .T. ) ;
#542 = VECTOR ( 'NONE', #279, 1000.000000000000000 ) ;
#543 = ORIENTED_EDGE ( 'NONE', *, *, #596, .F. ) ;
#544 = EDGE_CURVE ( 'NONE', #185, #170, #95, .T. ) ;
#545 = PERSON_AND_ORGANIZATION ( #617, #605 ) ;
#546 = DIRECTION ( 'NONE',  ( -1.000000000000000000, 0.000000000000000000, 0.000000000000000000 ) ) ;
#547 = EDGE_LOOP ( 'NONE', ( #187, #449, #624, #339 ) ) ;
#548 = DIRECTION ( 'NONE',  ( -1.000000000000000000, 0.000000000000000000, 0.000000000000000000 ) ) ;
#549 = EDGE_LOOP ( 'NONE', ( #577, #217, #381, #73 ) ) ;
#550 = DIRECTION ( 'NONE',  ( -1.000000000000000000, -1.348127836305427017E-16, 0.000000000000000000 ) ) ;
#551 = ORIENTED_EDGE ( 'NONE', *, *, #264, .T. ) ;
#552 = AXIS2_PLACEMENT_3D ( 'NONE', #614, #459, #1 ) ;
#553 = VECTOR ( 'NONE', #404, 1000.000000000000000 ) ;
#554 = LINE ( 'NONE', #607, #340 ) ;
#555 = ORIENTED_EDGE ( 'NONE', *, *, #409, .F. ) ;
#556 = EDGE_CURVE ( 'NONE', #240, #121, #193, .T. ) ;
#557 = DATE_AND_TIME ( #348, #482 ) ;
#558 = CARTESIAN_POINT ( 'NONE',  ( -13.02751631284996670, 22.32782274647733445, 90.40200000000000102 ) ) ;
#559 = FACE_OUTER_BOUND ( 'NONE', #269, .T. ) ;
#560 = COORDINATED_UNIVERSAL_TIME_OFFSET ( 5, 0, .BEHIND. ) ;
#561 = FACE_OUTER_BOUND ( 'NONE', #256, .T. ) ;
#562 = EDGE_LOOP ( 'NONE', ( #123, #98 ) ) ;
#563 = VECTOR ( 'NONE', #270, 1000.000000000000000 ) ;
#564 = EDGE_CURVE ( 'NONE', #121, #240, #374, .T. ) ;
#565 = CARTESIAN_POINT ( 'NONE',  ( 1.054753778153977465E-15, 20.20000000000001705, 93.31828358167324211 ) ) ;
#566 = DIRECTION ( 'NONE',  ( -0.000000000000000000, -1.000000000000000000, -0.000000000000000000 ) ) ;
#567 = DIRECTION ( 'NONE',  ( 0.7071067811865525687, 0.7071067811865425767, 0.000000000000000000 ) ) ;
#568 = FACE_OUTER_BOUND ( 'NONE', #644, .T. ) ;
#569 = ORIENTED_EDGE ( 'NONE', *, *, #165, .F. ) ;
#570 = AXIS2_PLACEMENT_3D ( 'NONE', #262, #578, #631 ) ;
#571 = DIRECTION ( 'NONE',  ( 0.000000000000000000, 0.000000000000000000, -1.000000000000000000 ) ) ;
#572 = DIRECTION ( 'NONE',  ( -0.000000000000000000, -1.000000000000000000, -0.000000000000000000 ) ) ;
#573 = EDGE_CURVE ( 'NONE', #421, #659, #385, .T. ) ;
#574 = AXIS2_PLACEMENT_3D ( 'NONE', #149, #254, #676 ) ;
#575 = FACE_BOUND ( 'NONE', #562, .T. ) ;
#576 = DIRECTION ( 'NONE',  ( 0.7071067811865475727, -0.7071067811865475727, 0.000000000000000000 ) ) ;
#577 = ORIENTED_EDGE ( 'NONE', *, *, #337, .T. ) ;
#578 = DIRECTION ( 'NONE',  ( 0.000000000000000000, -1.000000000000000000, 0.000000000000000000 ) ) ;
#579 = CARTESIAN_POINT ( 'NONE',  ( 0.000000000000000000, 28.98066862793225340, 92.61828358167323927 ) ) ;
#580 = VERTEX_POINT ( 'NONE', #354 ) ;
#581 = CARTESIAN_POINT ( 'NONE',  ( -2.585191379870677550E-15, 20.20000000000001705, -3.328006943901145744E-31 ) ) ;
#582 = DIRECTION ( 'NONE',  ( -1.000000000000000000, 0.000000000000000000, 0.000000000000000000 ) ) ;
#583 = ORIENTED_EDGE ( 'NONE', *, *, #398, .F. ) ;
#584 = EDGE_CURVE ( 'NONE', #335, #108, #34, .T. ) ;
#585 = CARTESIAN_POINT ( 'NONE',  ( -7.703719777548943412E-31, 20.20000000000001705, 92.61828358167323927 ) ) ;
#586 = VECTOR ( 'NONE', #360, 1000.000000000000000 ) ;
#587 = CARTESIAN_POINT ( 'NONE',  ( 11.18376618407356737, 27.00000000000001776, 0.000000000000000000 ) ) ;
#588 = EDGE_LOOP ( 'NONE', ( #495, #286, #551, #158 ) ) ;
#589 = APPROVAL_DATE_TIME ( #116, #268 ) ;
#590 = CARTESIAN_POINT ( 'NONE',  ( -13.02751631284991340, 22.32782274647739129, 6.118000000000000327 ) ) ;
#591 = VERTEX_POINT ( 'NONE', #661 ) ;
#592 = CALENDAR_DATE ( 2026, 6, 4 ) ;
#593 = DIRECTION ( 'NONE',  ( -0.000000000000000000, 0.000000000000000000, 1.000000000000000000 ) ) ;
#594 = LOCAL_TIME ( 1, 13, 29.00000000000000000, #560 ) ;
#595 = EDGE_LOOP ( 'NONE', ( #19, #209 ) ) ;
#596 = EDGE_CURVE ( 'NONE', #591, #141, #345, .T. ) ;
#597 = PERSON_AND_ORGANIZATION ( #617, #605 ) ;
#598 = PLANE ( 'NONE',  #317 ) ;
#599 = AXIS2_PLACEMENT_3D ( 'NONE', #32, #410, #196 ) ;
#600 = ORIENTED_EDGE ( 'NONE', *, *, #641, .F. ) ;
#601 = DIRECTION ( 'NONE',  ( -1.000000000000000000, -1.551108497285261312E-16, 0.000000000000000000 ) ) ;
#602 = ORIENTED_EDGE ( 'NONE', *, *, #493, .F. ) ;
#603 = CARTESIAN_POINT ( 'NONE',  ( 17.70169356637259384, 17.65364549295478369, 90.40200000000000102 ) ) ;
#604 = ORIENTED_EDGE ( 'NONE', *, *, #450, .F. ) ;
#605 = ORGANIZATION ( 'UNSPECIFIED', 'UNSPECIFIED', '' ) ;
#606 = ADVANCED_FACE ( 'NONE', ( #401 ), #291, .F. ) ;
#607 = CARTESIAN_POINT ( 'NONE',  ( 11.18376618407356737, 27.00000000000001776, 96.51999999999999602 ) ) ;
#608 = ORIENTED_EDGE ( 'NONE', *, *, #675, .F. ) ;
#609 = DATE_TIME_ROLE ( 'classification_date' ) ;
#610 = DIRECTION ( 'NONE',  ( 0.000000000000000000, -1.000000000000000000, 0.000000000000000000 ) ) ;
#611 = ADVANCED_FACE ( 'NONE', ( #477 ), #55, .F. ) ;
#612 = CARTESIAN_POINT ( 'NONE',  ( 8.575859968767833719E-17, 28.98066862793225340, 3.901988527373926097 ) ) ;
#613 = APPROVAL_STATUS ( 'not_yet_approved' ) ;
#614 = CARTESIAN_POINT ( 'NONE',  ( 0.000000000000000000, 28.98066862793225340, 93.31828358167324211 ) ) ;
#615 = VERTEX_POINT ( 'NONE', #424 ) ;
#616 = EDGE_CURVE ( 'NONE', #57, #260, #159, .T. ) ;
#617 = PERSON ( 'UNSPECIFIED', 'UNSPECIFIED', 'UNSPECIFIED', ('UNSPECIFIED'), ('UNSPECIFIED'), ('UNSPECIFIED') ) ;
#618 = DIRECTION ( 'NONE',  ( 1.348127836305427017E-16, -1.000000000000000000, 1.232595164407830946E-32 ) ) ;
#619 = DIRECTION ( 'NONE',  ( 1.000000000000000000, -7.370867579099568370E-15, 0.000000000000000000 ) ) ;
#620 = EDGE_CURVE ( 'NONE', #115, #108, #266, .T. ) ;
#621 = PLANE ( 'NONE',  #529 ) ;
#622 = DIRECTION ( 'NONE',  ( -0.000000000000000000, -1.000000000000000000, -0.000000000000000000 ) ) ;
#623 = LINE ( 'NONE', #667, #499 ) ;
#624 = ORIENTED_EDGE ( 'NONE', *, *, #657, .F. ) ;
#625 = VERTEX_POINT ( 'NONE', #93 ) ;
#626 = LOCAL_TIME ( 1, 13, 29.00000000000000000, #168 ) ;
#627 = DIRECTION ( 'NONE',  ( -0.000000000000000000, 0.000000000000000000, 1.000000000000000000 ) ) ;
#628 = ADVANCED_FACE ( 'NONE', ( #200 ), #362, .T. ) ;
#629 = DIRECTION ( 'NONE',  ( -1.551108497285261312E-16, 1.000000000000000000, -0.000000000000000000 ) ) ;
#630 = CIRCLE ( 'NONE', #283, 0.7000000000000067280 ) ;
#631 = DIRECTION ( 'NONE',  ( 0.000000000000000000, 0.000000000000000000, -1.000000000000000000 ) ) ;
#632 = DIRECTION ( 'NONE',  ( 1.000000000000000000, 1.551108497285261312E-16, 0.000000000000000000 ) ) ;
#633 = VERTEX_POINT ( 'NONE', #52 ) ;
#634 = DIRECTION ( 'NONE',  ( 0.7071067811865422437, -0.7071067811865527908, 0.000000000000000000 ) ) ;
#635 = DIRECTION ( 'NONE',  ( 1.000000000000000000, 0.000000000000000000, 0.000000000000000000 ) ) ;
#636 = ORIENTED_EDGE ( 'NONE', *, *, #111, .F. ) ;
#637 = ADVANCED_FACE ( 'NONE', ( #575, #369 ), #146, .T. ) ;
#638 = FACE_OUTER_BOUND ( 'NONE', #394, .T. ) ;
#639 = DIRECTION ( 'NONE',  ( -1.000000000000000000, 0.000000000000000000, 0.000000000000000000 ) ) ;
#640 = ORIENTED_EDGE ( 'NONE', *, *, #433, .F. ) ;
#641 = EDGE_CURVE ( 'NONE', #170, #185, #682, .T. ) ;
#642 = LINE ( 'NONE', #684, #678 ) ;
#643 = DIRECTION ( 'NONE',  ( -1.551108497285261312E-16, 1.000000000000000000, -0.000000000000000000 ) ) ;
#644 = EDGE_LOOP ( 'NONE', ( #228, #231, #423, #103 ) ) ;
#645 = ADVANCED_FACE ( 'NONE', ( #638 ), #44, .F. ) ;
#646 = CARTESIAN_POINT ( 'NONE',  ( -3.949672112978322810E-16, 20.20000000000001705, 93.31828358167324211 ) ) ;
#647 = VERTEX_POINT ( 'NONE', #156 ) ;
#648 = DIRECTION ( 'NONE',  ( -1.348127836305427017E-16, 1.000000000000000000, -1.232595164407830946E-32 ) ) ;
#649 = EDGE_LOOP ( 'NONE', ( #498, #244, #246, #655 ) ) ;
#650 = APPROVAL_DATE_TIME ( #485, #131 ) ;
#651 = AXIS2_PLACEMENT_3D ( 'NONE', #66, #648, #389 ) ;
#652 = FACE_BOUND ( 'NONE', #427, .T. ) ;
#653 = VERTEX_POINT ( 'NONE', #468 ) ;
#654 = CARTESIAN_POINT ( 'NONE',  ( 0.000000000000000000, 17.65364549295478369, 0.000000000000000000 ) ) ;
#655 = ORIENTED_EDGE ( 'NONE', *, *, #7, .T. ) ;
#656 = APPLICATION_CONTEXT ( 'configuration controlled 3d designs of mechanical parts and assemblies' ) ;
#657 = EDGE_CURVE ( 'NONE', #194, #528, #372, .T. ) ;
#658 = CARTESIAN_POINT ( 'NONE',  ( -4.187992942670208871E-15, 27.00000000000001776, 96.51999999999999602 ) ) ;
#659 = VERTEX_POINT ( 'NONE', #585 ) ;
#660 = APPROVAL_PERSON_ORGANIZATION ( #440, #131, #400 ) ;
#661 = CARTESIAN_POINT ( 'NONE',  ( -10.35533905932718035, 25.00000000000007461, 90.40200000000000102 ) ) ;
#662 = ORIENTED_EDGE ( 'NONE', *, *, #657, .T. ) ;
#663 = VECTOR ( 'NONE', #634, 1000.000000000000000 ) ;
#664 = DIRECTION ( 'NONE',  ( -1.000000000000000000, 0.000000000000000000, 0.000000000000000000 ) ) ;
#665 = EDGE_CURVE ( 'NONE', #580, #289, #520, .T. ) ;
#666 = CYLINDRICAL_SURFACE ( 'NONE', #406, 1.999999999999995337 ) ;
#667 = CARTESIAN_POINT ( 'NONE',  ( 1.999999999999997335, 20.20000000000001705, 3.201716418326756131 ) ) ;
#668 = CARTESIAN_POINT ( 'NONE',  ( -1.999999999999998224, 20.20000000000001705, 3.201716418326755687 ) ) ;
#669 = DIRECTION ( 'NONE',  ( -1.000000000000000000, 0.000000000000000000, 0.000000000000000000 ) ) ;
#670 = ORIENTED_EDGE ( 'NONE', *, *, #199, .T. ) ;
#671 = VECTOR ( 'NONE', #393, 1000.000000000000000 ) ;
#672 = VECTOR ( 'NONE', #635, 1000.000000000000000 ) ;
#673 = CARTESIAN_POINT ( 'NONE',  ( -20.53012069111879256, 17.65364549295478369, 96.51999999999999602 ) ) ;
#674 = DIRECTION ( 'NONE',  ( -1.000000000000000000, 0.000000000000000000, 0.000000000000000000 ) ) ;
#675 = EDGE_CURVE ( 'NONE', #591, #653, #526, .T. ) ;
#676 = DIRECTION ( 'NONE',  ( -1.000000000000000000, 0.000000000000000000, 0.000000000000000000 ) ) ;
#677 = LINE ( 'NONE', #320, #563 ) ;
#678 = VECTOR ( 'NONE', #41, 1000.000000000000114 ) ;
#679 = CARTESIAN_POINT ( 'NONE',  ( -4.187992942670208871E-15, 27.00000000000001776, 0.000000000000000000 ) ) ;
#680 = DIRECTION ( 'NONE',  ( 1.551108497285261312E-16, -1.000000000000000000, 0.000000000000000000 ) ) ;
#681 = ORIENTED_EDGE ( 'NONE', *, *, #522, .T. ) ;
#682 = CIRCLE ( 'NONE', #570, 0.7000000000000061728 ) ;
#683 = AXIS2_PLACEMENT_3D ( 'NONE', #469, #680, #632 ) ;
#684 = CARTESIAN_POINT ( 'NONE',  ( -19.09188309203678813, 19.09188309203678813, 0.000000000000000000 ) ) ;
#685 = CARTESIAN_POINT ( 'NONE',  ( 0.000000000000000000, 17.65364549295478369, 92.61828358167323927 ) ) ;
#686 = EDGE_CURVE ( 'NONE', #528, #343, #642, .T. ) ;
#687 = EDGE_LOOP ( 'NONE', ( #536, #375, #152, #206 ) ) ;
ENDSEC;
END-ISO-10303-21;
