ISO-10303-21;
HEADER;
FILE_DESCRIPTION (( 'STEP AP203' ),
    '1' );
FILE_NAME ('TopLeft.STEP',
    '2026-04-07T08:20:54',
    ( '' ),
    ( '' ),
    'SwSTEP 2.0',
    'SolidWorks 2025',
    '' );
FILE_SCHEMA (( 'CONFIG_CONTROL_DESIGN' ));
ENDSEC;

DATA;
#1 = DIRECTION ( 'NONE',  ( 0.8660254037844382635, -0.5000000000000006661, 0.000000000000000000 ) ) ;
#2 = VERTEX_POINT ( 'NONE', #199 ) ;
#3 = ADVANCED_FACE ( 'NONE', ( #776 ), #529, .F. ) ;
#4 = AXIS2_PLACEMENT_3D ( 'NONE', #93, #503, #78 ) ;
#5 = LINE ( 'NONE', #174, #670 ) ;
#6 = LINE ( 'NONE', #349, #517 ) ;
#7 = ORIENTED_EDGE ( 'NONE', *, *, #904, .T. ) ;
#8 = CIRCLE ( 'NONE', #620, 1.999999999999998668 ) ;
#9 = ORIENTED_EDGE ( 'NONE', *, *, #1057, .F. ) ;
#10 = EDGE_CURVE ( 'NONE', #765, #610, #781, .T. ) ;
#11 = DIRECTION ( 'NONE',  ( 0.9184855229425292755, 0.000000000000000000, -0.3954546044048398712 ) ) ;
#12 = DIRECTION ( 'NONE',  ( -0.5000000000000008882, -0.8660254037844381525, 6.161737786669618799E-15 ) ) ;
#13 = ORIENTED_EDGE ( 'NONE', *, *, #748, .F. ) ;
#14 = ORIENTED_EDGE ( 'NONE', *, *, #104, .F. ) ;
#15 = DIRECTION ( 'NONE',  ( -0.5000000000000011102, -0.8660254037844380415, 5.977335943528134799E-15 ) ) ;
#16 = CARTESIAN_POINT ( 'NONE',  ( 29.57851830126981341, 12.82806105109413508, 38.62303447092170217 ) ) ;
#17 = PLANE ( 'NONE',  #640 ) ;
#18 = VECTOR ( 'NONE', #1042, 1000.000000000000114 ) ;
#19 = DIRECTION ( 'NONE',  ( 0.8660254037844385966, -0.5000000000000001110, 2.385244779468110765E-13 ) ) ;
#20 = ORIENTED_EDGE ( 'NONE', *, *, #258, .T. ) ;
#21 = CARTESIAN_POINT ( 'NONE',  ( 25.75328982363910058, 15.03655774236591647, 18.65809915122776630 ) ) ;
#22 = CARTESIAN_POINT ( 'NONE',  ( 87.44934295108997446, -21.73837567708459062, 27.00000000000000355 ) ) ;
#23 = EDGE_CURVE ( 'NONE', #1062, #874, #770, .T. ) ;
#24 = ORIENTED_EDGE ( 'NONE', *, *, #658, .T. ) ;
#25 = CARTESIAN_POINT ( 'NONE',  ( 93.53074360871943327, -27.00000000000001066, 11.18376618407357093 ) ) ;
#26 = DIRECTION ( 'NONE',  ( -0.5000000000000008882, -0.8660254037844381525, 6.161737786669618799E-15 ) ) ;
#27 = ORIENTED_EDGE ( 'NONE', *, *, #133, .F. ) ;
#28 = VECTOR ( 'NONE', #752, 1000.000000000000114 ) ;
#29 = CARTESIAN_POINT ( 'NONE',  ( 82.60007740170063073, -17.78395036839350141, 13.73312018707673943 ) ) ;
#30 = CARTESIAN_POINT ( 'NONE',  ( 12.44934295108998157, 21.56289451213725883, 0.000000000000000000 ) ) ;
#31 = CIRCLE ( 'NONE', #448, 1.999999999999995781 ) ;
#32 = CARTESIAN_POINT ( 'NONE',  ( 23.13826253723692261, 16.54634445010839983, 12.99935497757364544 ) ) ;
#33 = DIRECTION ( 'NONE',  ( 1.000000000000000000, 0.000000000000000000, 0.000000000000000000 ) ) ;
#34 = ORIENTED_EDGE ( 'NONE', *, *, #484, .T. ) ;
#35 = CARTESIAN_POINT ( 'NONE',  ( 84.44110417138253410, -18.84686766945469572, 7.128199912708105934 ) ) ;
#36 = EDGE_CURVE ( 'NONE', #107, #639, #31, .T. ) ;
#37 = DIRECTION ( 'NONE',  ( 1.000000000000000000, 0.000000000000000000, 0.000000000000000000 ) ) ;
#38 = DIRECTION ( 'NONE',  ( -0.5000000000000009992, -0.8660254037844381525, 5.977335943528133221E-15 ) ) ;
#39 = VECTOR ( 'NONE', #464, 1000.000000000000114 ) ;
#40 = DATE_AND_TIME ( #1055, #853 ) ;
#41 = VERTEX_POINT ( 'NONE', #205 ) ;
#42 = CARTESIAN_POINT ( 'NONE',  ( 19.70654647564516182, 18.52764664205078660, 15.18685953791456811 ) ) ;
#43 = DIRECTION ( 'NONE',  ( 0.8660254037844380415, -0.5000000000000009992, -1.551108497285264517E-16 ) ) ;
#44 = EDGE_CURVE ( 'NONE', #107, #500, #442, .T. ) ;
#46 = DIRECTION ( 'NONE',  ( -0.8660254037844382635, 0.5000000000000006661, 0.000000000000000000 ) ) ;
#45 = AXIS2_PLACEMENT_3D ( 'NONE', #583, #1028, #1017 ) ;
#47 = DATE_AND_TIME ( #376, #245 ) ;
#48 = ORIENTED_EDGE ( 'NONE', *, *, #889, .F. ) ;
#49 = DIRECTION ( 'NONE',  ( 0.8660254037844368202, -0.5000000000000031086, 0.000000000000000000 ) ) ;
#50 = CARTESIAN_POINT ( 'NONE',  ( 78.52825091983173422, -16.58778079137228190, 15.78359014457140397 ) ) ;
#51 = ADVANCED_FACE ( 'NONE', ( #937 ), #17, .F. ) ;
#52 = MECHANICAL_CONTEXT ( 'NONE', #897, 'mechanical' ) ;
#53 = ORIENTED_EDGE ( 'NONE', *, *, #286, .F. ) ;
#54 = LINE ( 'NONE', #541, #579 ) ;
#55 = LINE ( 'NONE', #147, #945 ) ;
#56 = COORDINATED_UNIVERSAL_TIME_OFFSET ( 5, 0, .BEHIND. ) ;
#57 = AXIS2_PLACEMENT_3D ( 'NONE', #1072, #238, #321 ) ;
#58 = EDGE_CURVE ( 'NONE', #866, #978, #872, .T. ) ;
#59 = ORIENTED_EDGE ( 'NONE', *, *, #162, .T. ) ;
#60 = DIRECTION ( 'NONE',  ( 0.9184855229425289425, 0.000000000000000000, -0.3954546044048406483 ) ) ;
#61 = DIRECTION ( 'NONE',  ( 0.8660254037844380415, -0.5000000000000009992, 0.000000000000000000 ) ) ;
#62 = VERTEX_POINT ( 'NONE', #602 ) ;
#63 = ORIENTED_EDGE ( 'NONE', *, *, #867, .F. ) ;
#64 = CARTESIAN_POINT ( 'NONE',  ( 24.77404475458780908, 20.77960236067780997, 12.99935497757361702 ) ) ;
#65 = EDGE_CURVE ( 'NONE', #729, #719, #852, .T. ) ;
#66 = LINE ( 'NONE', #554, #303 ) ;
#67 = CIRCLE ( 'NONE', #679, 1.999999999999995781 ) ;
#68 = VERTEX_POINT ( 'NONE', #123 ) ;
#69 = LINE ( 'NONE', #474, #650 ) ;
#70 = ORIENTED_EDGE ( 'NONE', *, *, #23, .F. ) ;
#71 = LINE ( 'NONE', #402, #813 ) ;
#72 = EDGE_CURVE ( 'NONE', #246, #729, #363, .T. ) ;
#73 = VECTOR ( 'NONE', #964, 1000.000000000000000 ) ;
#74 = VERTEX_POINT ( 'NONE', #538 ) ;
#75 = ORIENTED_EDGE ( 'NONE', *, *, #1011, .F. ) ;
#76 = FACE_OUTER_BOUND ( 'NONE', #1009, .T. ) ;
#77 = DIRECTION ( 'NONE',  ( -0.7754764868735124494, 0.4477215584466519016, 0.4451759476975549745 ) ) ;
#78 = DIRECTION ( 'NONE',  ( -0.9184855229424238043, 0.000000000000000000, -0.3954546044050851750 ) ) ;
#79 = EDGE_CURVE ( 'NONE', #111, #241, #700, .T. ) ;
#80 = ORIENTED_EDGE ( 'NONE', *, *, #1000, .F. ) ;
#81 = CIRCLE ( 'NONE', #463, 0.6999999999999975131 ) ;
#82 =( LENGTH_UNIT ( ) NAMED_UNIT ( * ) SI_UNIT ( .MILLI., .METRE. ) );
#83 = CYLINDRICAL_SURFACE ( 'NONE', #467, 0.7000000000000051736 ) ;
#84 = VECTOR ( 'NONE', #630, 1000.000000000000000 ) ;
#85 = CARTESIAN_POINT ( 'NONE',  ( 21.88026253723690573, 14.36742453418674081, 12.99935497757365788 ) ) ;
#86 = ORIENTED_EDGE ( 'NONE', *, *, #143, .T. ) ;
#87 = ADVANCED_FACE ( 'NONE', ( #210 ), #446, .F. ) ;
#88 = CARTESIAN_POINT ( 'NONE',  ( 21.14821172966803076, 17.09947534175561756, 12.99935497757364722 ) ) ;
#89 = DIRECTION ( 'NONE',  ( 0.8660254037844381525, -0.5000000000000007772, 0.000000000000000000 ) ) ;
#90 = VERTEX_POINT ( 'NONE', #287 ) ;
#91 = CC_DESIGN_DATE_AND_TIME_ASSIGNMENT ( #550, #808, ( #580 ) ) ;
#92 = VECTOR ( 'NONE', #509, 1000.000000000000000 ) ;
#93 = CARTESIAN_POINT ( 'NONE',  ( 11.32375557478463790, 23.36745322522288504, 3.775600169482208557 ) ) ;
#94 = CARTESIAN_POINT ( 'NONE',  ( 21.88026253723690573, 14.36742453418674081, 12.99935497757365788 ) ) ;
#95 = ORIENTED_EDGE ( 'NONE', *, *, #519, .F. ) ;
#96 = ORIENTED_EDGE ( 'NONE', *, *, #802, .F. ) ;
#97 = EDGE_CURVE ( 'NONE', #600, #773, #67, .T. ) ;
#98 = FACE_OUTER_BOUND ( 'NONE', #341, .T. ) ;
#99 = CARTESIAN_POINT ( 'NONE',  ( 78.45733968543886760, -18.29736618728995623, 12.47441327564060920 ) ) ;
#100 = CARTESIAN_POINT ( 'NONE',  ( 93.53074360871929116, -27.00000000000001066, 7.948138304959302470E-14 ) ) ;
#101 = CC_DESIGN_APPROVAL ( #513, ( #801 ) ) ;
#102 = ORIENTED_EDGE ( 'NONE', *, *, #394, .F. ) ;
#103 = CARTESIAN_POINT ( 'NONE',  ( 83.68939049300777810, -13.23518836079890271, 12.47441327564056657 ) ) ;
#104 = EDGE_CURVE ( 'NONE', #600, #639, #960, .T. ) ;
#105 = DESIGN_CONTEXT ( 'detailed design', #1002, 'design' ) ;
#106 = DIRECTION ( 'NONE',  ( -0.5000000000000008882, -0.8660254037844381525, 6.161737786669618799E-15 ) ) ;
#107 = VERTEX_POINT ( 'NONE', #358 ) ;
#108 = AXIS2_PLACEMENT_3D ( 'NONE', #697, #881, #49 ) ;
#109 = ORIENTED_EDGE ( 'NONE', *, *, #97, .F. ) ;
#110 = CYLINDRICAL_SURFACE ( 'NONE', #329, 1.999999999999995781 ) ;
#111 = VERTEX_POINT ( 'NONE', #129 ) ;
#112 = CARTESIAN_POINT ( 'NONE',  ( 80.94739049300774525, -17.98447167515275424, 12.47441327564060032 ) ) ;
#113 = VECTOR ( 'NONE', #173, 1000.000000000000000 ) ;
#114 = CARTESIAN_POINT ( 'NONE',  ( 81.18939049300774968, -17.56531537972108126, 12.47441327564059677 ) ) ;
#115 = CARTESIAN_POINT ( 'NONE',  ( 81.18939049300774968, -17.56531537972108126, 12.47441327564059677 ) ) ;
#116 = FACE_OUTER_BOUND ( 'NONE', #454, .T. ) ;
#117 = CARTESIAN_POINT ( 'NONE',  ( 82.05360827565687032, -17.46844627136832528, 12.47441327564059321 ) ) ;
#118 = ORIENTED_EDGE ( 'NONE', *, *, #1016, .T. ) ;
#119 = ADVANCED_FACE ( 'NONE', ( #780 ), #785, .F. ) ;
#120 = ORIENTED_EDGE ( 'NONE', *, *, #959, .T. ) ;
#121 = DIRECTION ( 'NONE',  ( 0.8660254037844377084, -0.5000000000000015543, 0.000000000000000000 ) ) ;
#122 = CARTESIAN_POINT ( 'NONE',  ( 0.000000000000000000, 0.000000000000000000, 0.000000000000000000 ) ) ;
#123 = CARTESIAN_POINT ( 'NONE',  ( 20.14821172966803076, 15.36742453418674081, 12.99935497757365788 ) ) ;
#124 = DIRECTION ( 'NONE',  ( 0.000000000000000000, 0.000000000000000000, 1.000000000000000000 ) ) ;
#125 = EDGE_LOOP ( 'NONE', ( #1029, #535, #186, #741 ) ) ;
#126 = CC_DESIGN_DATE_AND_TIME_ASSIGNMENT ( #40, #371, ( #944 ) ) ;
#127 = DIRECTION ( 'NONE',  ( -0.8660254037844380415, 0.5000000000000009992, -0.000000000000000000 ) ) ;
#128 = DIRECTION ( 'NONE',  ( -0.000000000000000000, 0.000000000000000000, 1.000000000000000000 ) ) ;
#129 = CARTESIAN_POINT ( 'NONE',  ( 0.000000000000000000, 27.00000000000001776, 11.18376618407356382 ) ) ;
#130 = CALENDAR_DATE ( 2026, 7, 4 ) ;
#131 = ORIENTED_EDGE ( 'NONE', *, *, #182, .T. ) ;
#132 = DIRECTION ( 'NONE',  ( 0.8660254037844377084, -0.5000000000000015543, 0.000000000000000000 ) ) ;
#133 = EDGE_CURVE ( 'NONE', #435, #145, #871, .T. ) ;
#134 = LINE ( 'NONE', #824, #207 ) ;
#135 = ADVANCED_FACE ( 'NONE', ( #291 ), #625, .F. ) ;
#136 = VECTOR ( 'NONE', #601, 999.9999999999998863 ) ;
#137 = COORDINATED_UNIVERSAL_TIME_OFFSET ( 5, 0, .BEHIND. ) ;
#138 = ORIENTED_EDGE ( 'NONE', *, *, #36, .T. ) ;
#139 = CYLINDRICAL_SURFACE ( 'NONE', #108, 0.6999999999999984013 ) ;
#140 = LOCAL_TIME ( 4, 20, 54.00000000000000000, #973 ) ;
#141 = CIRCLE ( 'NONE', #982, 1.199999999999999512 ) ;
#142 = LINE ( 'NONE', #221, #662 ) ;
#143 = EDGE_CURVE ( 'NONE', #336, #388, #605, .T. ) ;
#144 = APPLICATION_PROTOCOL_DEFINITION ( 'international standard', 'config_control_design', 1994, #1002 ) ;
#145 = VERTEX_POINT ( 'NONE', #275 ) ;
#146 = DIRECTION ( 'NONE',  ( 0.3855336798598983927, -0.2225879738487737680, 0.8954431168932971419 ) ) ;
#147 = CARTESIAN_POINT ( 'NONE',  ( 81.06044590691794838, -17.49086918823158499, 14.46886333976625849 ) ) ;
#148 = EDGE_CURVE ( 'NONE', #573, #107, #747, .T. ) ;
#149 = ORIENTED_EDGE ( 'NONE', *, *, #882, .F. ) ;
#150 = DIRECTION ( 'NONE',  ( -0.5000000000000008882, -0.8660254037844380415, 6.143007653609040251E-15 ) ) ;
#151 = LINE ( 'NONE', #396, #481 ) ;
#152 = VECTOR ( 'NONE', #77, 1000.000000000000227 ) ;
#153 = EDGE_LOOP ( 'NONE', ( #75, #1051, #1076, #172 ) ) ;
#154 = EDGE_LOOP ( 'NONE', ( #815, #928, #96, #288 ) ) ;
#155 = EDGE_CURVE ( 'NONE', #573, #315, #1034, .T. ) ;
#156 = PLANE ( 'NONE',  #771 ) ;
#157 = ORIENTED_EDGE ( 'NONE', *, *, #65, .T. ) ;
#158 = CARTESIAN_POINT ( 'NONE',  ( 100.0000000000000000, 27.00000000000001776, 11.18376618407356382 ) ) ;
#159 = ORIENTED_EDGE ( 'NONE', *, *, #686, .T. ) ;
#160 = EDGE_LOOP ( 'NONE', ( #159, #440, #809, #832 ) ) ;
#161 = DIRECTION ( 'NONE',  ( -0.5000000000000011102, -0.8660254037844380415, 5.977335943528134799E-15 ) ) ;
#162 = EDGE_CURVE ( 'NONE', #388, #740, #203, .T. ) ;
#163 = PLANE ( 'NONE',  #760 ) ;
#164 = AXIS2_PLACEMENT_3D ( 'NONE', #373, #887, #1059 ) ;
#165 = ORIENTED_EDGE ( 'NONE', *, *, #265, .T. ) ;
#166 = VERTEX_POINT ( 'NONE', #117 ) ;
#167 = PRODUCT_DEFINITION_SHAPE ( 'NONE', 'NONE',  #580 ) ;
#168 = CARTESIAN_POINT ( 'NONE',  ( 22.88026253723690573, 16.09947534175561401, 12.99935497757364722 ) ) ;
#169 = FACE_OUTER_BOUND ( 'NONE', #125, .T. ) ;
#170 = EDGE_CURVE ( 'NONE', #978, #866, #690, .T. ) ;
#171 = CARTESIAN_POINT ( 'NONE',  ( 22.88026253723690573, 16.09947534175561401, 12.99935497757364899 ) ) ;
#172 = ORIENTED_EDGE ( 'NONE', *, *, #72, .F. ) ;
#173 = DIRECTION ( 'NONE',  ( 1.221718812435014543E-14, -1.551108497285261312E-16, 1.000000000000000000 ) ) ;
#174 = CARTESIAN_POINT ( 'NONE',  ( 21.54709937536507169, 17.46500292993965076, 1.546887371379249476 ) ) ;
#175 = PLANE ( 'NONE',  #603 ) ;
#176 = ORIENTED_EDGE ( 'NONE', *, *, #343, .T. ) ;
#177 = AXIS2_PLACEMENT_3D ( 'NONE', #689, #269, #1035 ) ;
#178 = ORIENTED_EDGE ( 'NONE', *, *, #44, .F. ) ;
#179 = DIRECTION ( 'NONE',  ( -0.5000000000000011102, -0.8660254037844381525, 5.977335943528135588E-15 ) ) ;
#180 = CARTESIAN_POINT ( 'NONE',  ( 81.44739049300777367, -17.11844627136832742, 12.47441327564059321 ) ) ;
#181 = ORIENTED_EDGE ( 'NONE', *, *, #882, .T. ) ;
#182 = EDGE_CURVE ( 'NONE', #166, #938, #81, .T. ) ;
#183 = CARTESIAN_POINT ( 'NONE',  ( 91.93339333277302217, -26.07776938819221613, 12.10599679588136546 ) ) ;
#184 = EDGE_LOOP ( 'NONE', ( #910, #1081 ) ) ;
#185 = CARTESIAN_POINT ( 'NONE',  ( 12.94934295108998690, 22.42891991592170342, -1.552500455496818185E-13 ) ) ;
#186 = ORIENTED_EDGE ( 'NONE', *, *, #539, .F. ) ;
#187 = ADVANCED_FACE ( 'NONE', ( #684, #523, #434 ), #921, .F. ) ;
#188 = CIRCLE ( 'NONE', #797, 1.999999999999998668 ) ;
#189 = ORIENTED_EDGE ( 'NONE', *, *, #170, .T. ) ;
#190 = CARTESIAN_POINT ( 'NONE',  ( 82.19613239969733343, -17.55073261274910479, 12.62748104440461816 ) ) ;
#191 = CARTESIAN_POINT ( 'NONE',  ( 81.18939049300774968, -17.56531537972108126, 12.47441327564059677 ) ) ;
#192 = ORIENTED_EDGE ( 'NONE', *, *, #604, .T. ) ;
#193 = AXIS2_PLACEMENT_3D ( 'NONE', #302, #124, #33 ) ;
#194 = CIRCLE ( 'NONE', #608, 1.999999999999995781 ) ;
#195 = CC_DESIGN_PERSON_AND_ORGANIZATION_ASSIGNMENT ( #466, #364, ( #580 ) ) ;
#196 = CARTESIAN_POINT ( 'NONE',  ( 76.32643204896751854, -15.31656007357219274, -7.913524803789553808 ) ) ;
#197 = ORIENTED_EDGE ( 'NONE', *, *, #148, .F. ) ;
#198 = DIRECTION ( 'NONE',  ( 0.8660254037844381525, -0.5000000000000011102, 0.000000000000000000 ) ) ;
#199 = CARTESIAN_POINT ( 'NONE',  ( 26.39655200393006851, 14.66517014941537767, 12.42840466888750761 ) ) ;
#200 = DIRECTION ( 'NONE',  ( 0.09238486345163600399, -0.05333842578284211933, 0.9942937439911964104 ) ) ;
#201 = ORIENTED_EDGE ( 'NONE', *, *, #224, .T. ) ;
#202 = EDGE_CURVE ( 'NONE', #473, #435, #6, .T. ) ;
#203 = LINE ( 'NONE', #533, #323 ) ;
#204 = VECTOR ( 'NONE', #61, 1000.000000000000000 ) ;
#205 = CARTESIAN_POINT ( 'NONE',  ( 66.13622305514613231, -11.18376618407357270, 27.00000000000000711 ) ) ;
#206 = ORIENTED_EDGE ( 'NONE', *, *, #58, .T. ) ;
#207 = VECTOR ( 'NONE', #991, 1000.000000000000227 ) ;
#208 = LINE ( 'NONE', #1036, #218 ) ;
#209 = LINE ( 'NONE', #948, #750 ) ;
#210 = FACE_OUTER_BOUND ( 'NONE', #237, .T. ) ;
#211 = EDGE_CURVE ( 'NONE', #987, #740, #1077, .T. ) ;
#212 = PERSON_AND_ORGANIZATION_ROLE ( 'design_supplier' ) ;
#213 = VERTEX_POINT ( 'NONE', #344 ) ;
#214 = CARTESIAN_POINT ( 'NONE',  ( 47.52337180435969799, 1.312894512137235514, 2.053707801846551642E-14 ) ) ;
#215 = CARTESIAN_POINT ( 'NONE',  ( 81.93813239969733786, -17.99760172110187284, 12.62748104440462171 ) ) ;
#216 = VECTOR ( 'NONE', #796, 1000.000000000000114 ) ;
#217 = CARTESIAN_POINT ( 'NONE',  ( 82.64428816752979401, -18.40530094374974013, 13.55963076946097701 ) ) ;
#218 = VECTOR ( 'NONE', #127, 1000.000000000000114 ) ;
#219 = VERTEX_POINT ( 'NONE', #925 ) ;
#220 = CARTESIAN_POINT ( 'NONE',  ( 11.32375557478463790, 23.36745322522288504, 3.775600169482208557 ) ) ;
#221 = CARTESIAN_POINT ( 'NONE',  ( 83.08317271035866725, -12.88518836079890129, 12.47441327564056657 ) ) ;
#222 = ORIENTED_EDGE ( 'NONE', *, *, #734, .T. ) ;
#223 = LINE ( 'NONE', #42, #399 ) ;
#224 = EDGE_CURVE ( 'NONE', #388, #336, #226, .T. ) ;
#225 = DIRECTION ( 'NONE',  ( 0.7745966692414846255, -0.4472135954999568175, 0.4472135954999568175 ) ) ;
#226 = CIRCLE ( 'NONE', #45, 0.7000000000000051736 ) ;
#227 = VERTEX_POINT ( 'NONE', #499 ) ;
#228 = CYLINDRICAL_SURFACE ( 'NONE', #249, 1.999999999999998668 ) ;
#229 = AXIS2_PLACEMENT_3D ( 'NONE', #711, #542, #537 ) ;
#230 = CARTESIAN_POINT ( 'NONE',  ( 100.0000000000000000, -11.18376618407357270, 27.00000000000000711 ) ) ;
#231 = ORIENTED_EDGE ( 'NONE', *, *, #72, .T. ) ;
#232 = DIRECTION ( 'NONE',  ( 0.5000000000000002220, 0.8660254037844384856, 0.000000000000000000 ) ) ;
#233 = CARTESIAN_POINT ( 'NONE',  ( 11.69134295108997712, 20.25000000000004263, 0.000000000000000000 ) ) ;
#234 = EDGE_CURVE ( 'NONE', #401, #1062, #671, .T. ) ;
#235 = VECTOR ( 'NONE', #919, 1000.000000000000000 ) ;
#236 = ORIENTED_EDGE ( 'NONE', *, *, #279, .T. ) ;
#237 = EDGE_LOOP ( 'NONE', ( #320, #181, #540, #80 ) ) ;
#238 = DIRECTION ( 'NONE',  ( 0.8610836411203159901, -0.4971468719955997040, -0.1066768515656972699 ) ) ;
#239 = ORIENTED_EDGE ( 'NONE', *, *, #518, .T. ) ;
#240 = LINE ( 'NONE', #233, #204 ) ;
#241 = VERTEX_POINT ( 'NONE', #255 ) ;
#242 = ORIENTED_EDGE ( 'NONE', *, *, #375, .F. ) ;
#243 = FACE_BOUND ( 'NONE', #184, .T. ) ;
#244 = LINE ( 'NONE', #913, #530 ) ;
#245 = LOCAL_TIME ( 4, 20, 54.00000000000000000, #1047 ) ;
#246 = VERTEX_POINT ( 'NONE', #769 ) ;
#247 = ORIENTED_EDGE ( 'NONE', *, *, #539, .T. ) ;
#248 = EDGE_CURVE ( 'NONE', #765, #241, #268, .T. ) ;
#249 = AXIS2_PLACEMENT_3D ( 'NONE', #289, #384, #714 ) ;
#250 = DIRECTION ( 'NONE',  ( 0.5000000000000009992, 0.8660254037844381525, -5.995204332975845318E-15 ) ) ;
#251 = VERTEX_POINT ( 'NONE', #846 ) ;
#252 = FACE_OUTER_BOUND ( 'NONE', #594, .T. ) ;
#253 = VECTOR ( 'NONE', #819, 1000.000000000000000 ) ;
#254 = DIRECTION ( 'NONE',  ( -0.8660254037844379305, 0.5000000000000012212, 0.000000000000000000 ) ) ;
#255 = CARTESIAN_POINT ( 'NONE',  ( 27.39452055357396176, 11.18376618407356382, 27.00000000000001776 ) ) ;
#256 = ORIENTED_EDGE ( 'NONE', *, *, #10, .F. ) ;
#257 = CARTESIAN_POINT ( 'NONE',  ( 21.04709937536507169, 16.59897752615520972, 1.546887371379255471 ) ) ;
#258 = EDGE_CURVE ( 'NONE', #62, #68, #553, .T. ) ;
#259 = DIRECTION ( 'NONE',  ( -0.7754764868735124494, 0.4477215584466519016, 0.4451759476975549745 ) ) ;
#260 = ORIENTED_EDGE ( 'NONE', *, *, #1057, .T. ) ;
#261 = VECTOR ( 'NONE', #696, 1000.000000000000114 ) ;
#262 = CYLINDRICAL_SURFACE ( 'NONE', #422, 1.199999999999999512 ) ;
#263 = DIRECTION ( 'NONE',  ( 0.5000000000000009992, 0.8660254037844381525, -5.995204332975845318E-15 ) ) ;
#264 = DIRECTION ( 'NONE',  ( 0.8660254037844377084, -0.5000000000000015543, 0.000000000000000000 ) ) ;
#265 = EDGE_CURVE ( 'NONE', #473, #645, #841, .T. ) ;
#266 = ORIENTED_EDGE ( 'NONE', *, *, #148, .T. ) ;
#267 = DIRECTION ( 'NONE',  ( 0.8660254037844382635, -0.5000000000000006661, 0.000000000000000000 ) ) ;
#268 = LINE ( 'NONE', #836, #885 ) ;
#269 = DIRECTION ( 'NONE',  ( 0.5000000000000008882, 0.8660254037844381525, -6.161737786669618799E-15 ) ) ;
#270 = APPROVAL ( #296, 'UNSPECIFIED' ) ;
#271 = CIRCLE ( 'NONE', #543, 1.999999999999995781 ) ;
#272 = DIRECTION ( 'NONE',  ( 0.000000000000000000, -0.000000000000000000, 1.000000000000000000 ) ) ;
#273 = ORIENTED_EDGE ( 'NONE', *, *, #933, .T. ) ;
#274 = AXIS2_PLACEMENT_3D ( 'NONE', #1045, #370, #198 ) ;
#275 = CARTESIAN_POINT ( 'NONE',  ( 78.03885784792876734, -16.30522956956960812, 10.51648846183202579 ) ) ;
#276 = ORIENTED_EDGE ( 'NONE', *, *, #618, .F. ) ;
#277 = APPROVAL_PERSON_ORGANIZATION ( #893, #513, #804 ) ;
#278 = CIRCLE ( 'NONE', #229, 21.19836084999999670 ) ;
#279 = EDGE_CURVE ( 'NONE', #68, #62, #977, .T. ) ;
#280 = DIRECTION ( 'NONE',  ( -0.8660254037844380415, 0.5000000000000009992, -0.000000000000000000 ) ) ;
#281 = CARTESIAN_POINT ( 'NONE',  ( 29.07851830126981341, 11.96203564730969759, 38.62303447092170927 ) ) ;
#282 = DIRECTION ( 'NONE',  ( 1.000000000000000000, 0.000000000000000000, 0.000000000000000000 ) ) ;
#283 = VERTEX_POINT ( 'NONE', #415 ) ;
#284 = DIRECTION ( 'NONE',  ( 0.09238486345163851587, -0.05333842578284356956, 0.9942937439911961883 ) ) ;
#285 = DIRECTION ( 'NONE',  ( -0.5000000000000008882, -0.8660254037844380415, 6.143007653609040251E-15 ) ) ;
#286 = EDGE_CURVE ( 'NONE', #787, #646, #188, .T. ) ;
#287 = CARTESIAN_POINT ( 'NONE',  ( 82.71568153586032679, -17.85069444637003144, 13.66675559594673039 ) ) ;
#288 = ORIENTED_EDGE ( 'NONE', *, *, #566, .F. ) ;
#289 = CARTESIAN_POINT ( 'NONE',  ( 22.88026253723690573, 16.09947534175561401, 12.99935497757364722 ) ) ;
#290 = LINE ( 'NONE', #457, #84 ) ;
#291 = FACE_OUTER_BOUND ( 'NONE', #483, .T. ) ;
#292 = APPROVAL_DATE_TIME ( #47, #332 ) ;
#293 = VERTEX_POINT ( 'NONE', #21 ) ;
#294 = LINE ( 'NONE', #552, #1019 ) ;
#295 = PLANE ( 'NONE',  #838 ) ;
#296 = APPROVAL_STATUS ( 'not_yet_approved' ) ;
#297 = ADVANCED_FACE ( 'NONE', ( #589, #688 ), #175, .T. ) ;
#298 = VECTOR ( 'NONE', #794, 1000.000000000000114 ) ;
#299 = ORIENTED_EDGE ( 'NONE', *, *, #313, .F. ) ;
#300 = CARTESIAN_POINT ( 'NONE',  ( 0.000000000000000000, 27.00000000000001776, 0.000000000000000000 ) ) ;
#301 = PLANE ( 'NONE',  #585 ) ;
#302 = CARTESIAN_POINT ( 'NONE',  ( 0.000000000000000000, 0.000000000000000000, 0.000000000000000000 ) ) ;
#303 = VECTOR ( 'NONE', #903, 1000.000000000000114 ) ;
#304 = ORIENTED_EDGE ( 'NONE', *, *, #618, .T. ) ;
#305 = CARTESIAN_POINT ( 'NONE',  ( 19.20654647564516182, 17.66162123826634556, 15.18685953791457344 ) ) ;
#306 = MANIFOLD_SOLID_BREP ( 'Cut-Extrude18', #360 ) ;
#307 = DIRECTION ( 'NONE',  ( 0.000000000000000000, 3.102216994570522624E-16, -1.000000000000000000 ) ) ;
#308 = SECURITY_CLASSIFICATION_LEVEL ( 'unclassified' ) ;
#309 = ORIENTED_EDGE ( 'NONE', *, *, #774, .F. ) ;
#310 = LINE ( 'NONE', #641, #902 ) ;
#311 = ORIENTED_EDGE ( 'NONE', *, *, #484, .F. ) ;
#312 = CARTESIAN_POINT ( 'NONE',  ( 100.0000000000000000, 27.00000000000001776, 0.000000000000000000 ) ) ;
#313 = EDGE_CURVE ( 'NONE', #473, #219, #420, .T. ) ;
#314 = VECTOR ( 'NONE', #942, 1000.000000000000000 ) ;
#315 = VERTEX_POINT ( 'NONE', #99 ) ;
#316 = FACE_OUTER_BOUND ( 'NONE', #409, .T. ) ;
#317 = ORIENTED_EDGE ( 'NONE', *, *, #369, .F. ) ;
#318 = CARTESIAN_POINT ( 'NONE',  ( 76.82643204896751854, -14.45053466978775525, -7.913524803789559137 ) ) ;
#319 = CC_DESIGN_PERSON_AND_ORGANIZATION_ASSIGNMENT ( #561, #453, ( #437 ) ) ;
#320 = ORIENTED_EDGE ( 'NONE', *, *, #1023, .F. ) ;
#321 = DIRECTION ( 'NONE',  ( 0.5000000000000016653, 0.8660254037844378194, 0.000000000000000000 ) ) ;
#322 = CARTESIAN_POINT ( 'NONE',  ( 100.0000000000000000, -8.375985885340413008E-15, 27.00000000000001066 ) ) ;
#323 = VECTOR ( 'NONE', #865, 1000.000000000000227 ) ;
#324 = ORIENTED_EDGE ( 'NONE', *, *, #394, .T. ) ;
#325 = EDGE_LOOP ( 'NONE', ( #157, #955, #403, #231 ) ) ;
#326 = DIRECTION ( 'NONE',  ( 0.5000000000000009992, 0.8660254037844380415, -6.143007653609039462E-15 ) ) ;
#327 = CARTESIAN_POINT ( 'NONE',  ( 31.49383418745791019, 11.72225290862030000, 43.07156002538635420 ) ) ;
#328 = CC_DESIGN_APPROVAL ( #270, ( #580 ) ) ;
#329 = AXIS2_PLACEMENT_3D ( 'NONE', #439, #778, #896 ) ;
#330 = CARTESIAN_POINT ( 'NONE',  ( 8.545636022685147992, 23.81670075808927578, 9.066775957625010207 ) ) ;
#331 = ORIENTED_EDGE ( 'NONE', *, *, #279, .F. ) ;
#332 = APPROVAL ( #460, 'UNSPECIFIED' ) ;
#333 = DIRECTION ( 'NONE',  ( 0.8660254037844381525, -0.5000000000000007772, 0.000000000000000000 ) ) ;
#334 = CARTESIAN_POINT ( 'NONE',  ( 81.44739049300777367, -17.11844627136832742, 12.47441327564059321 ) ) ;
#335 = CARTESIAN_POINT ( 'NONE',  ( 31.49383418745791019, 11.72225290862030000, 43.07156002538635420 ) ) ;
#336 = VERTEX_POINT ( 'NONE', #426 ) ;
#337 = AXIS2_PLACEMENT_3D ( 'NONE', #906, #146, #60 ) ;
#338 = DIRECTION ( 'NONE',  ( -0.1333294081541498144, 0.07697776968869893266, 0.9880777762377908058 ) ) ;
#339 = VECTOR ( 'NONE', #1069, 1000.000000000000000 ) ;
#340 = DIRECTION ( 'NONE',  ( -0.7754764868735121164, 0.4477215584466516796, 0.4451759476975558072 ) ) ;
#341 = EDGE_LOOP ( 'NONE', ( #95, #527, #59, #880 ) ) ;
#342 = LINE ( 'NONE', #257, #811 ) ;
#343 = EDGE_CURVE ( 'NONE', #166, #978, #764, .T. ) ;
#344 = CARTESIAN_POINT ( 'NONE',  ( 81.06044590691793417, -17.49086918823157788, 14.46886333976625316 ) ) ;
#345 = ORIENTED_EDGE ( 'NONE', *, *, #133, .T. ) ;
#346 = VERTEX_POINT ( 'NONE', #941 ) ;
#347 = CARTESIAN_POINT ( 'NONE',  ( 27.47340115861138798, 14.04345100008342051, 1.999622373288313826 ) ) ;
#348 = CIRCLE ( 'NONE', #971, 1.999999999999995781 ) ;
#349 = CARTESIAN_POINT ( 'NONE',  ( 84.44110417138253410, -18.84686766945469572, 7.128199912708105934 ) ) ;
#350 = CARTESIAN_POINT ( 'NONE',  ( 0.000000000000000000, 0.000000000000000000, 0.000000000000000000 ) ) ;
#351 = PLANE ( 'NONE',  #693 ) ;
#352 = DIRECTION ( 'NONE',  ( 0.8660254037844381525, -0.5000000000000007772, 0.000000000000000000 ) ) ;
#353 = DIRECTION ( 'NONE',  ( -0.5000000000000008882, -0.8660254037844381525, 6.161737786669618799E-15 ) ) ;
#354 = EDGE_CURVE ( 'NONE', #213, #573, #271, .T. ) ;
#355 = VECTOR ( 'NONE', #340, 1000.000000000000227 ) ;
#356 = ORIENTED_EDGE ( 'NONE', *, *, #706, .F. ) ;
#357 = DIRECTION ( 'NONE',  ( -0.8660254037844380415, 0.5000000000000009992, 0.000000000000000000 ) ) ;
#358 = CARTESIAN_POINT ( 'NONE',  ( 82.92144130057661755, -18.56531537972108481, 12.47441327564059677 ) ) ;
#359 = ORIENTED_EDGE ( 'NONE', *, *, #423, .T. ) ;
#360 = CLOSED_SHELL ( 'NONE', ( #433, #842, #759, #555, #592, #698, #465, #567, #187, #119, #651, #911, #456, #87, #835, #667, #898, #547, #575, #135, #718, #507, #3, #471, #632, #297, #443, #1025, #492, #626, #51, #788 ) ) ;
#361 = DIRECTION ( 'NONE',  ( -0.5000000000000011102, -0.8660254037844380415, 5.977335943528134799E-15 ) ) ;
#362 = CARTESIAN_POINT ( 'NONE',  ( 19.70654647564516182, 18.52764664205078660, 15.18685953791456811 ) ) ;
#363 = LINE ( 'NONE', #452, #397 ) ;
#364 = PERSON_AND_ORGANIZATION_ROLE ( 'creator' ) ;
#365 = ORIENTED_EDGE ( 'NONE', *, *, #782, .T. ) ;
#366 = LINE ( 'NONE', #975, #18 ) ;
#367 = CARTESIAN_POINT ( 'NONE',  ( 93.53074360871916326, -27.00000000000001066, 0.000000000000000000 ) ) ;
#368 = AXIS2_PLACEMENT_3D ( 'NONE', #334, #250, #254 ) ;
#369 = EDGE_CURVE ( 'NONE', #283, #2, #536, .T. ) ;
#370 = DIRECTION ( 'NONE',  ( -0.5000000000000011102, -0.8660254037844381525, 5.977335943528135588E-15 ) ) ;
#371 = DATE_TIME_ROLE ( 'classification_date' ) ;
#372 = ORIENTED_EDGE ( 'NONE', *, *, #830, .F. ) ;
#373 = CARTESIAN_POINT ( 'NONE',  ( 100.0000000000000000, 19.09188309203678813, 19.09188309203678813 ) ) ;
#374 = FACE_BOUND ( 'NONE', #642, .T. ) ;
#375 = EDGE_CURVE ( 'NONE', #646, #68, #54, .T. ) ;
#376 = CALENDAR_DATE ( 2026, 7, 4 ) ;
#377 = ORIENTED_EDGE ( 'NONE', *, *, #97, .T. ) ;
#378 = CARTESIAN_POINT ( 'NONE',  ( 27.47340115861138798, 14.04345100008342051, 1.999622373288313826 ) ) ;
#379 = DIRECTION ( 'NONE',  ( 0.9184855229425292755, 0.000000000000000000, -0.3954546044048398712 ) ) ;
#380 = CC_DESIGN_PERSON_AND_ORGANIZATION_ASSIGNMENT ( #1061, #701, ( #801 ) ) ;
#381 = CALENDAR_DATE ( 2026, 7, 4 ) ;
#382 = CIRCLE ( 'NONE', #432, 21.19836085000001091 ) ;
#383 = EDGE_LOOP ( 'NONE', ( #868, #489, #758, #495 ) ) ;
#384 = DIRECTION ( 'NONE',  ( -0.5000000000000009992, -0.8660254037844381525, 6.143007653609041040E-15 ) ) ;
#385 = CARTESIAN_POINT ( 'NONE',  ( 80.58317271035866725, -17.21531537972109760, 12.47441327564059677 ) ) ;
#386 = APPROVAL_DATE_TIME ( #621, #513 ) ;
#387 = VECTOR ( 'NONE', #487, 1000.000000000000000 ) ;
#388 = VERTEX_POINT ( 'NONE', #720 ) ;
#389 = EDGE_CURVE ( 'NONE', #645, #145, #294, .T. ) ;
#390 = FACE_OUTER_BOUND ( 'NONE', #1056, .T. ) ;
#391 = CARTESIAN_POINT ( 'NONE',  ( 80.84117271035866281, -16.76844627136832599, 12.47441327564059321 ) ) ;
#392 = ORIENTED_EDGE ( 'NONE', *, *, #604, .F. ) ;
#393 = DIRECTION ( 'NONE',  ( 0.8660254037844382635, -0.5000000000000006661, 0.000000000000000000 ) ) ;
#394 = EDGE_CURVE ( 'NONE', #435, #346, #970, .T. ) ;
#395 = ORIENTED_EDGE ( 'NONE', *, *, #691, .T. ) ;
#396 = CARTESIAN_POINT ( 'NONE',  ( 96.56274360871933027, -27.00000000000001066, 4.107015509994943329E-14 ) ) ;
#397 = VECTOR ( 'NONE', #544, 1000.000000000000000 ) ;
#398 = ORIENTED_EDGE ( 'NONE', *, *, #234, .T. ) ;
#399 = VECTOR ( 'NONE', #361, 1000.000000000000114 ) ;
#400 = PLANE ( 'NONE',  #57 ) ;
#401 = VERTEX_POINT ( 'NONE', #29 ) ;
#402 = CARTESIAN_POINT ( 'NONE',  ( 93.14619333277305202, -25.02745377848244246, 13.15631240559113913 ) ) ;
#403 = ORIENTED_EDGE ( 'NONE', *, *, #968, .F. ) ;
#404 = VERTEX_POINT ( 'NONE', #305 ) ;
#405 = PLANE ( 'NONE',  #565 ) ;
#406 = DIRECTION ( 'NONE',  ( 0.000000000000000000, 0.7071067811865474617, 0.7071067811865476838 ) ) ;
#407 = EDGE_CURVE ( 'NONE', #219, #346, #636, .T. ) ;
#408 = VECTOR ( 'NONE', #259, 1000.000000000000227 ) ;
#409 = EDGE_LOOP ( 'NONE', ( #1041, #273, #930, #737, #766, #1071, #372, #732 ) ) ;
#410 = AXIS2_PLACEMENT_3D ( 'NONE', #609, #26, #695 ) ;
#411 = CARTESIAN_POINT ( 'NONE',  ( 3.032000000000159456, 27.00000000000001776, 1.188864290984653120E-12 ) ) ;
#412 = APPROVAL_PERSON_ORGANIZATION ( #884, #270, #899 ) ;
#413 = CIRCLE ( 'NONE', #1032, 1.199999999999999512 ) ;
#414 = DIRECTION ( 'NONE',  ( -0.5000000000000008882, -0.8660254037844380415, 6.143007653609040251E-15 ) ) ;
#415 = CARTESIAN_POINT ( 'NONE',  ( 20.53298087063344823, 18.05050452163668240, 9.062318294453492129 ) ) ;
#416 = EDGE_CURVE ( 'NONE', #1068, #74, #208, .T. ) ;
#417 = VERTEX_POINT ( 'NONE', #869 ) ;
#418 = EDGE_LOOP ( 'NONE', ( #102, #983, #494, #421 ) ) ;
#419 = CARTESIAN_POINT ( 'NONE',  ( 3.032000000000298456, 27.00000000000001066, 11.18376618407356737 ) ) ;
#420 = LINE ( 'NONE', #1012, #136 ) ;
#421 = ORIENTED_EDGE ( 'NONE', *, *, #407, .T. ) ;
#422 = AXIS2_PLACEMENT_3D ( 'NONE', #840, #179, #669 ) ;
#423 = EDGE_CURVE ( 'NONE', #728, #404, #223, .T. ) ;
#424 = ORIENTED_EDGE ( 'NONE', *, *, #830, .T. ) ;
#425 = DIRECTION ( 'NONE',  ( 0.5000000000000011102, 0.8660254037844380415, -5.977335943528134799E-15 ) ) ;
#426 = CARTESIAN_POINT ( 'NONE',  ( 22.53204475458780820, 16.89634445010840125, 12.99935497757364544 ) ) ;
#427 = VERTEX_POINT ( 'NONE', #450 ) ;
#428 = PLANE ( 'NONE',  #1039 ) ;
#429 = DIRECTION ( 'NONE',  ( -0.5000000000000008882, -0.8660254037844380415, 6.143007653609040251E-15 ) ) ;
#430 = DIRECTION ( 'NONE',  ( -0.5000000000000009992, -0.8660254037844380415, 6.143007653609040251E-15 ) ) ;
#431 = FACE_OUTER_BOUND ( 'NONE', #325, .T. ) ;
#432 = AXIS2_PLACEMENT_3D ( 'NONE', #214, #1049, #1052 ) ;
#433 = ADVANCED_FACE ( 'NONE', ( #704 ), #228, .F. ) ;
#434 = FACE_OUTER_BOUND ( 'NONE', #1013, .T. ) ;
#435 = VERTEX_POINT ( 'NONE', #799 ) ;
#436 = VERTEX_POINT ( 'NONE', #300 ) ;
#437 = PRODUCT ( 'TopLeft', 'TopLeft', '', ( #52 ) ) ;
#438 = AXIS2_PLACEMENT_3D ( 'NONE', #727, #980, #379 ) ;
#439 = CARTESIAN_POINT ( 'NONE',  ( 81.18939049300774968, -17.56531537972108126, 12.47441327564059677 ) ) ;
#440 = ORIENTED_EDGE ( 'NONE', *, *, #423, .F. ) ;
#441 = CARTESIAN_POINT ( 'NONE',  ( 65.47890411071502115, -10.80426291456268828, 48.98802909863626809 ) ) ;
#442 = LINE ( 'NONE', #1018, #786 ) ;
#443 = ADVANCED_FACE ( 'NONE', ( #623 ), #616, .F. ) ;
#444 = CARTESIAN_POINT ( 'NONE',  ( 82.47275146564756199, -18.86513924331785219, -8.674972325003244222 ) ) ;
#445 = CARTESIAN_POINT ( 'NONE',  ( 12.94934295108998690, 22.42891991592170342, -1.552500455496818185E-13 ) ) ;
#446 = PLANE ( 'NONE',  #1014 ) ;
#447 = EDGE_CURVE ( 'NONE', #500, #315, #348, .T. ) ;
#448 = AXIS2_PLACEMENT_3D ( 'NONE', #114, #353, #264 ) ;
#449 = EDGE_LOOP ( 'NONE', ( #569, #260 ) ) ;
#450 = CARTESIAN_POINT ( 'NONE',  ( 82.34207740170063516, -18.23081947674626946, 13.73312018707674298 ) ) ;
#451 = DIRECTION ( 'NONE',  ( 0.5000000000000009992, 0.8660254037844380415, -5.995204332975845318E-15 ) ) ;
#452 = CARTESIAN_POINT ( 'NONE',  ( 100.0000000000000000, -27.00000000000001066, 11.18376618407357093 ) ) ;
#453 = PERSON_AND_ORGANIZATION_ROLE ( 'design_owner' ) ;
#454 = EDGE_LOOP ( 'NONE', ( #847, #777, #681, #299, #165, #779 ) ) ;
#455 = CARTESIAN_POINT ( 'NONE',  ( 80.18939049300774968, -19.29736618728995623, 12.47441327564060920 ) ) ;
#456 = ADVANCED_FACE ( 'NONE', ( #629 ), #559, .F. ) ;
#457 = CARTESIAN_POINT ( 'NONE',  ( 11.69134295108997712, 20.25000000000004263, 0.000000000000000000 ) ) ;
#458 = DIRECTION ( 'NONE',  ( -0.5000000000000009992, -0.8660254037844381525, 5.995204332975845318E-15 ) ) ;
#459 = ADVANCED_BREP_SHAPE_REPRESENTATION ( 'TopLeft', ( #306, #193 ), #661 ) ;
#460 = APPROVAL_STATUS ( 'not_yet_approved' ) ;
#461 = ORIENTED_EDGE ( 'NONE', *, *, #637, .F. ) ;
#462 = DIRECTION ( 'NONE',  ( -0.5000000000000008882, -0.8660254037844381525, 6.161737786669618799E-15 ) ) ;
#463 = AXIS2_PLACEMENT_3D ( 'NONE', #180, #263, #757 ) ;
#464 = DIRECTION ( 'NONE',  ( -0.5000000000000011102, -0.8660254037844380415, 5.977335943528134799E-15 ) ) ;
#465 = ADVANCED_FACE ( 'NONE', ( #979 ), #139, .F. ) ;
#466 = PERSON_AND_ORGANIZATION ( #657, #712 ) ;
#467 = AXIS2_PLACEMENT_3D ( 'NONE', #1021, #414, #267 ) ;
#468 = EDGE_LOOP ( 'NONE', ( #694, #622, #674, #726 ) ) ;
#469 = PLANE ( 'NONE',  #914 ) ;
#470 = DIRECTION ( 'NONE',  ( -0.5000000000000008882, -0.8660254037844380415, 6.143007653609040251E-15 ) ) ;
#471 = ADVANCED_FACE ( 'NONE', ( #633 ), #469, .T. ) ;
#472 = CALENDAR_DATE ( 2026, 7, 4 ) ;
#473 = VERTEX_POINT ( 'NONE', #35 ) ;
#474 = CARTESIAN_POINT ( 'NONE',  ( 82.71568153586032679, -17.85069444637003144, 13.66675559594673039 ) ) ;
#475 = LINE ( 'NONE', #972, #920 ) ;
#476 = CIRCLE ( 'NONE', #368, 0.6999999999999975131 ) ;
#477 = EDGE_CURVE ( 'NONE', #401, #427, #366, .T. ) ;
#478 = ORIENTED_EDGE ( 'NONE', *, *, #369, .T. ) ;
#479 = DIRECTION ( 'NONE',  ( -0.5000000000000009992, -0.8660254037844381525, 6.143007653609041040E-15 ) ) ;
#480 = ORIENTED_EDGE ( 'NONE', *, *, #691, .F. ) ;
#481 = VECTOR ( 'NONE', #649, 1000.000000000000000 ) ;
#482 = DIRECTION ( 'NONE',  ( -0.5000000000000009992, -0.8660254037844380415, 6.143007653609040251E-15 ) ) ;
#483 = EDGE_LOOP ( 'NONE', ( #571, #70, #48, #574 ) ) ;
#484 = EDGE_CURVE ( 'NONE', #417, #1068, #382, .T. ) ;
#485 = ORIENTED_EDGE ( 'NONE', *, *, #968, .T. ) ;
#486 = DIRECTION ( 'NONE',  ( 0.8557004551367628498, -0.4940388881188956249, 0.1539555393773873182 ) ) ;
#487 = DIRECTION ( 'NONE',  ( -1.000000000000000000, -0.000000000000000000, -0.000000000000000000 ) ) ;
#488 = ORIENTED_EDGE ( 'NONE', *, *, #416, .F. ) ;
#489 = ORIENTED_EDGE ( 'NONE', *, *, #519, .T. ) ;
#490 = DIRECTION ( 'NONE',  ( -0.8660254037844380415, 0.5000000000000009992, 0.000000000000000000 ) ) ;
#491 = LINE ( 'NONE', #327, #814 ) ;
#492 = ADVANCED_FACE ( 'NONE', ( #390 ), #647, .F. ) ;
#493 = LINE ( 'NONE', #347, #92 ) ;
#494 = ORIENTED_EDGE ( 'NONE', *, *, #313, .T. ) ;
#495 = ORIENTED_EDGE ( 'NONE', *, *, #162, .F. ) ;
#496 = DIRECTION ( 'NONE',  ( 0.5000000000000008882, 0.8660254037844381525, -6.161737786669618799E-15 ) ) ;
#497 = DIRECTION ( 'NONE',  ( 0.000000000000000000, 0.7071067811865476838, -0.7071067811865474617 ) ) ;
#498 = AXIS2_PLACEMENT_3D ( 'NONE', #94, #12, #775 ) ;
#499 = CARTESIAN_POINT ( 'NONE',  ( 82.45768153586030280, -18.29756355472279949, 13.66675559594673572 ) ) ;
#500 = VERTEX_POINT ( 'NONE', #1078 ) ;
#501 = CARTESIAN_POINT ( 'NONE',  ( 79.02825091983173422, -15.72175538758784441, 15.78359014457139686 ) ) ;
#502 = AXIS2_PLACEMENT_3D ( 'NONE', #122, #128, #37 ) ;
#503 = DIRECTION ( 'NONE',  ( 0.3855336798601238235, -0.2225879738489162929, -0.8954431168931646923 ) ) ;
#504 = AXIS2_PLACEMENT_3D ( 'NONE', #534, #862, #685 ) ;
#505 = DIRECTION ( 'NONE',  ( 0.5000000000000009992, 0.8660254037844380415, -5.995204332975845318E-15 ) ) ;
#506 = ORIENTED_EDGE ( 'NONE', *, *, #447, .T. ) ;
#507 = ADVANCED_FACE ( 'NONE', ( #827 ), #156, .F. ) ;
#508 = EDGE_LOOP ( 'NONE', ( #24, #239, #276, #317 ) ) ;
#509 = DIRECTION ( 'NONE',  ( -0.1025311938217966234, 0.05919641235335500185, 0.9929668368369453102 ) ) ;
#510 = DIRECTION ( 'NONE',  ( 0.5000000000000008882, 0.8660254037844381525, -6.161737786669618799E-15 ) ) ;
#511 = ORIENTED_EDGE ( 'NONE', *, *, #961, .F. ) ;
#512 = VECTOR ( 'NONE', #15, 1000.000000000000114 ) ;
#513 = APPROVAL ( #717, 'UNSPECIFIED' ) ;
#514 = CARTESIAN_POINT ( 'NONE',  ( 25.75328982363910058, 15.03655774236591647, 18.65809915122776630 ) ) ;
#515 = CARTESIAN_POINT ( 'NONE',  ( 84.29560827565687475, -13.58518836079890413, 12.47441327564056657 ) ) ;
#516 = DIRECTION ( 'NONE',  ( -0.000000000000000000, 0.000000000000000000, 1.000000000000000000 ) ) ;
#517 = VECTOR ( 'NONE', #856, 1000.000000000000114 ) ;
#518 = EDGE_CURVE ( 'NONE', #728, #293, #822, .T. ) ;
#519 = EDGE_CURVE ( 'NONE', #336, #987, #817, .T. ) ;
#520 = DIRECTION ( 'NONE',  ( -0.5000000000000009992, -0.8660254037844381525, 5.995204332975845318E-15 ) ) ;
#521 = VECTOR ( 'NONE', #43, 1000.000000000000000 ) ;
#522 = UNCERTAINTY_MEASURE_WITH_UNIT (LENGTH_MEASURE( 1.000000000000000082E-05 ), #82, 'distance_accuracy_value', 'NONE');
#523 = FACE_BOUND ( 'NONE', #584, .T. ) ;
#524 = DIRECTION ( 'NONE',  ( -0.5000000000000008882, -0.8660254037844381525, 6.161737786669618799E-15 ) ) ;
#525 = DIRECTION ( 'NONE',  ( 0.5000000000000008882, 0.8660254037844381525, -6.161737786669618799E-15 ) ) ;
#526 = CC_DESIGN_PERSON_AND_ORGANIZATION_ASSIGNMENT ( #1040, #212, ( #801 ) ) ;
#527 = ORIENTED_EDGE ( 'NONE', *, *, #224, .F. ) ;
#528 = DIRECTION ( 'NONE',  ( 0.8610836411203163232, -0.4971468719955997595, -0.1066768515656943556 ) ) ;
#529 = PLANE ( 'NONE',  #504 ) ;
#530 = VECTOR ( 'NONE', #1082, 1000.000000000000227 ) ;
#531 = DIRECTION ( 'NONE',  ( -0.1025311938217966234, 0.05919641235335500185, 0.9929668368369453102 ) ) ;
#532 = VERTEX_POINT ( 'NONE', #1067 ) ;
#533 = CARTESIAN_POINT ( 'NONE',  ( 25.98648031988603080, 20.07960236067780713, 12.99935497757361702 ) ) ;
#534 = CARTESIAN_POINT ( 'NONE',  ( 9.045636022685147992, 24.68272616187371327, 9.066775957625004878 ) ) ;
#535 = ORIENTED_EDGE ( 'NONE', *, *, #774, .T. ) ;
#536 = LINE ( 'NONE', #220, #73 ) ;
#537 = DIRECTION ( 'NONE',  ( 0.8660254037844380415, -0.5000000000000009992, 0.000000000000000000 ) ) ;
#538 = CARTESIAN_POINT ( 'NONE',  ( 3.032000000000298456, 27.00000000000001776, 0.000000000000000000 ) ) ;
#539 = EDGE_CURVE ( 'NONE', #90, #227, #69, .T. ) ;
#540 = ORIENTED_EDGE ( 'NONE', *, *, #588, .T. ) ;
#541 = CARTESIAN_POINT ( 'NONE',  ( 21.14821172966803076, 17.09947534175561756, 12.99935497757364722 ) ) ;
#542 = DIRECTION ( 'NONE',  ( -0.5000000000000008882, -0.8660254037844381525, 6.050715484207103145E-15 ) ) ;
#543 = AXIS2_PLACEMENT_3D ( 'NONE', #191, #524, #783 ) ;
#544 = DIRECTION ( 'NONE',  ( -1.000000000000000000, -0.000000000000000000, -0.000000000000000000 ) ) ;
#545 = PERSON_AND_ORGANIZATION ( #657, #712 ) ;
#546 = EDGE_LOOP ( 'NONE', ( #9, #793, #236, #551 ) ) ;
#547 = ADVANCED_FACE ( 'NONE', ( #810 ), #400, .T. ) ;
#548 = CARTESIAN_POINT ( 'NONE',  ( 84.93049724328446359, -19.12941889125679751, 12.39530159544861831 ) ) ;
#549 = PLANE ( 'NONE',  #438 ) ;
#550 = DATE_AND_TIME ( #130, #607 ) ;
#551 = ORIENTED_EDGE ( 'NONE', *, *, #875, .F. ) ;
#552 = CARTESIAN_POINT ( 'NONE',  ( 78.53885784792780100, -15.43920416578460397, 10.51648846183202579 ) ) ;
#553 = CIRCLE ( 'NONE', #833, 1.999999999999998668 ) ;
#554 = CARTESIAN_POINT ( 'NONE',  ( 26.39655200393006851, 14.66517014941537767, 12.42840466888750761 ) ) ;
#555 = ADVANCED_FACE ( 'NONE', ( #1063 ), #901, .F. ) ;
#556 = DATE_AND_TIME ( #381, #891 ) ;
#557 = AXIS2_PLACEMENT_3D ( 'NONE', #103, #285, #1037 ) ;
#558 = ORIENTED_EDGE ( 'NONE', *, *, #748, .T. ) ;
#559 = PLANE ( 'NONE',  #164 ) ;
#560 = LINE ( 'NONE', #230, #253 ) ;
#561 = PERSON_AND_ORGANIZATION ( #657, #712 ) ;
#562 = ORIENTED_EDGE ( 'NONE', *, *, #947, .F. ) ;
#563 = CARTESIAN_POINT ( 'NONE',  ( 21.54709937536507169, 17.46500292993965076, 1.546887371379249476 ) ) ;
#564 = FACE_OUTER_BOUND ( 'NONE', #798, .T. ) ;
#565 = AXIS2_PLACEMENT_3D ( 'NONE', #570, #326, #490 ) ;
#566 = EDGE_CURVE ( 'NONE', #417, #251, #984, .T. ) ;
#567 = ADVANCED_FACE ( 'NONE', ( #243, #576, #316 ), #405, .F. ) ;
#568 = ORIENTED_EDGE ( 'NONE', *, *, #248, .T. ) ;
#569 = ORIENTED_EDGE ( 'NONE', *, *, #286, .T. ) ;
#570 = CARTESIAN_POINT ( 'NONE',  ( 11.69134295108997712, 20.25000000000004263, -1.436400184590273476E-13 ) ) ;
#571 = ORIENTED_EDGE ( 'NONE', *, *, #768, .T. ) ;
#572 = LINE ( 'NONE', #1060, #722 ) ;
#573 = VERTEX_POINT ( 'NONE', #912 ) ;
#574 = ORIENTED_EDGE ( 'NONE', *, *, #389, .T. ) ;
#575 = ADVANCED_FACE ( 'NONE', ( #76 ), #663, .F. ) ;
#576 = FACE_BOUND ( 'NONE', #907, .T. ) ;
#577 = ORIENTED_EDGE ( 'NONE', *, *, #182, .F. ) ;
#578 = EDGE_LOOP ( 'NONE', ( #805, #511, #304, #395 ) ) ;
#579 = VECTOR ( 'NONE', #806, 1000.000000000000114 ) ;
#580 = PRODUCT_DEFINITION ( 'UNKNOWN', '', #801, #105 ) ;
#581 = LINE ( 'NONE', #411, #113 ) ;
#582 = LINE ( 'NONE', #755, #702 ) ;
#583 = CARTESIAN_POINT ( 'NONE',  ( 23.13826253723692261, 16.54634445010839983, 12.99935497757364544 ) ) ;
#584 = EDGE_LOOP ( 'NONE', ( #703, #377, #7, #993, #27, #324 ) ) ;
#585 = AXIS2_PLACEMENT_3D ( 'NONE', #322, #307, #800 ) ;
#586 = DIRECTION ( 'NONE',  ( -0.5000000000000008882, -0.8660254037844381525, 6.161737786669618799E-15 ) ) ;
#587 = LINE ( 'NONE', #183, #235 ) ;
#588 = EDGE_CURVE ( 'NONE', #436, #111, #310, .T. ) ;
#589 = FACE_BOUND ( 'NONE', #1066, .T. ) ;
#590 = ORIENTED_EDGE ( 'NONE', *, *, #961, .T. ) ;
#591 = LINE ( 'NONE', #514, #512 ) ;
#592 = ADVANCED_FACE ( 'NONE', ( #169 ), #262, .T. ) ;
#593 = CARTESIAN_POINT ( 'NONE',  ( 12.44934295108998157, 21.56289451213725883, -1.490711415861457460E-13 ) ) ;
#594 = EDGE_LOOP ( 'NONE', ( #660, #266, #138, #13, #309, #1075 ) ) ;
#595 = CARTESIAN_POINT ( 'NONE',  ( 25.25328982363910058, 14.17053233858147898, 18.65809915122777340 ) ) ;
#596 = ORIENTED_EDGE ( 'NONE', *, *, #518, .F. ) ;
#597 = DIRECTION ( 'NONE',  ( -1.000000000000000000, -0.000000000000000000, -0.000000000000000000 ) ) ;
#598 = ORIENTED_EDGE ( 'NONE', *, *, #10, .T. ) ;
#599 = LINE ( 'NONE', #330, #28 ) ;
#600 = VERTEX_POINT ( 'NONE', #1006 ) ;
#601 = DIRECTION ( 'NONE',  ( 0.09238486345163851587, -0.05333842578284356956, 0.9942937439911961883 ) ) ;
#602 = CARTESIAN_POINT ( 'NONE',  ( 23.61231334480578070, 13.36742453418673904, 12.99935497757365788 ) ) ;
#603 = AXIS2_PLACEMENT_3D ( 'NONE', #185, #505, #676 ) ;
#604 = EDGE_CURVE ( 'NONE', #938, #166, #476, .T. ) ;
#605 = CIRCLE ( 'NONE', #890, 0.7000000000000051736 ) ;
#606 = FACE_OUTER_BOUND ( 'NONE', #854, .T. ) ;
#607 = LOCAL_TIME ( 4, 20, 54.00000000000000000, #137 ) ;
#608 = AXIS2_PLACEMENT_3D ( 'NONE', #1043, #877, #951 ) ;
#609 = CARTESIAN_POINT ( 'NONE',  ( 81.18939049300774968, -17.56531537972108126, 12.47441327564059677 ) ) ;
#610 = VERTEX_POINT ( 'NONE', #683 ) ;
#611 = CYLINDRICAL_SURFACE ( 'NONE', #557, 0.6999999999999984013 ) ;
#612 = CARTESIAN_POINT ( 'NONE',  ( 79.45733968543886760, -16.56531537972108126, 12.47441327564059677 ) ) ;
#613 = VERTEX_POINT ( 'NONE', #419 ) ;
#614 = VECTOR ( 'NONE', #988, 1000.000000000000227 ) ;
#615 = ORIENTED_EDGE ( 'NONE', *, *, #706, .T. ) ;
#616 = CYLINDRICAL_SURFACE ( 'NONE', #858, 1.999999999999995781 ) ;
#617 = CARTESIAN_POINT ( 'NONE',  ( 24.61231334480578070, 15.09947534175561401, 12.99935497757364722 ) ) ;
#618 = EDGE_CURVE ( 'NONE', #2, #293, #493, .T. ) ;
#619 = DIRECTION ( 'NONE',  ( 0.8660254037844377084, -0.5000000000000015543, 0.000000000000000000 ) ) ;
#620 = AXIS2_PLACEMENT_3D ( 'NONE', #168, #586, #333 ) ;
#621 = DATE_AND_TIME ( #472, #140 ) ;
#622 = ORIENTED_EDGE ( 'NONE', *, *, #1000, .T. ) ;
#623 = FACE_OUTER_BOUND ( 'NONE', #1020, .T. ) ;
#624 = DIRECTION ( 'NONE',  ( -0.8660254037844385966, 0.5000000000000001110, -1.835915678742121515E-13 ) ) ;
#625 = PLANE ( 'NONE',  #1030 ) ;
#626 = ADVANCED_FACE ( 'NONE', ( #844, #745 ), #428, .T. ) ;
#627 =( NAMED_UNIT ( * ) SI_UNIT ( $, .STERADIAN. ) SOLID_ANGLE_UNIT ( ) );
#628 = ORIENTED_EDGE ( 'NONE', *, *, #343, .F. ) ;
#629 = FACE_OUTER_BOUND ( 'NONE', #468, .T. ) ;
#630 = DIRECTION ( 'NONE',  ( 0.8660254037844380415, -0.5000000000000009992, 0.000000000000000000 ) ) ;
#631 = VERTEX_POINT ( 'NONE', #595 ) ;
#632 = ADVANCED_FACE ( 'NONE', ( #934 ), #850, .T. ) ;
#633 = FACE_OUTER_BOUND ( 'NONE', #578, .T. ) ;
#634 = LINE ( 'NONE', #976, #863 ) ;
#635 = ORIENTED_EDGE ( 'NONE', *, *, #155, .F. ) ;
#636 = LINE ( 'NONE', #548, #298 ) ;
#637 = EDGE_CURVE ( 'NONE', #713, #1068, #582, .T. ) ;
#638 = LINE ( 'NONE', #715, #39 ) ;
#639 = VERTEX_POINT ( 'NONE', #762 ) ;
#640 = AXIS2_PLACEMENT_3D ( 'NONE', #350, #516, #282 ) ;
#641 = CARTESIAN_POINT ( 'NONE',  ( 0.000000000000000000, 27.00000000000001776, 4.187992942670208871E-15 ) ) ;
#642 = EDGE_LOOP ( 'NONE', ( #577, #392 ) ) ;
#643 = DIRECTION ( 'NONE',  ( -1.000000000000000000, 0.000000000000000000, 0.000000000000000000 ) ) ;
#644 = EDGE_CURVE ( 'NONE', #41, #729, #587, .T. ) ;
#645 = VERTEX_POINT ( 'NONE', #939 ) ;
#646 = VERTEX_POINT ( 'NONE', #88 ) ;
#647 = CYLINDRICAL_SURFACE ( 'NONE', #1053, 1.999999999999998668 ) ;
#648 = ORIENTED_EDGE ( 'NONE', *, *, #1023, .T. ) ;
#649 = DIRECTION ( 'NONE',  ( -1.194852825181515675E-14, 0.000000000000000000, -1.000000000000000000 ) ) ;
#650 = VECTOR ( 'NONE', #725, 1000.000000000000114 ) ;
#651 = ADVANCED_FACE ( 'NONE', ( #924 ), #767, .F. ) ;
#652 = ORIENTED_EDGE ( 'NONE', *, *, #860, .T. ) ;
#653 = EDGE_LOOP ( 'NONE', ( #1004, #63, #478, #590 ) ) ;
#654 = CARTESIAN_POINT ( 'NONE',  ( 25.38026253723691994, 20.42960236067780855, 12.99935497757361702 ) ) ;
#655 = DIRECTION ( 'NONE',  ( -0.5000000000000008882, -0.8660254037844381525, 6.161737786669618799E-15 ) ) ;
#656 = VECTOR ( 'NONE', #952, 1000.000000000000114 ) ;
#657 = PERSON ( 'UNSPECIFIED', 'UNSPECIFIED', 'UNSPECIFIED', ('UNSPECIFIED'), ('UNSPECIFIED'), ('UNSPECIFIED') ) ;
#658 = EDGE_CURVE ( 'NONE', #283, #728, #5, .T. ) ;
#659 = ORIENTED_EDGE ( 'NONE', *, *, #36, .F. ) ;
#660 = ORIENTED_EDGE ( 'NONE', *, *, #354, .T. ) ;
#661 =( GEOMETRIC_REPRESENTATION_CONTEXT ( 3 ) GLOBAL_UNCERTAINTY_ASSIGNED_CONTEXT ( ( #522 ) ) GLOBAL_UNIT_ASSIGNED_CONTEXT ( ( #82, #743, #627 ) ) REPRESENTATION_CONTEXT ( 'NONE', 'WORKASPACE' ) );
#662 = VECTOR ( 'NONE', #470, 1000.000000000000227 ) ;
#663 = PLANE ( 'NONE',  #337 ) ;
#664 = CARTESIAN_POINT ( 'NONE',  ( 29.16505278967022363, 11.91207493713725718, 0.000000000000000000 ) ) ;
#665 = DIRECTION ( 'NONE',  ( -0.1333294081541498144, 0.07697776968869893266, 0.9880777762377908058 ) ) ;
#666 = ORIENTED_EDGE ( 'NONE', *, *, #875, .T. ) ;
#667 = ADVANCED_FACE ( 'NONE', ( #834 ), #675, .T. ) ;
#668 = LINE ( 'NONE', #839, #152 ) ;
#669 = DIRECTION ( 'NONE',  ( 0.8660254037844385966, -0.5000000000000001110, 0.000000000000000000 ) ) ;
#670 = VECTOR ( 'NONE', #338, 1000.000000000000114 ) ;
#671 = LINE ( 'NONE', #335, #408 ) ;
#672 = ORIENTED_EDGE ( 'NONE', *, *, #848, .F. ) ;
#673 = VECTOR ( 'NONE', #1065, 1000.000000000000000 ) ;
#674 = ORIENTED_EDGE ( 'NONE', *, *, #79, .T. ) ;
#675 = PLANE ( 'NONE',  #989 ) ;
#676 = DIRECTION ( 'NONE',  ( -0.8660254037844380415, 0.5000000000000009992, 0.000000000000000000 ) ) ;
#677 = EDGE_LOOP ( 'NONE', ( #672, #192, #176, #843 ) ) ;
#678 = CARTESIAN_POINT ( 'NONE',  ( 12.69134295108997890, 21.98205080756892116, -1.563639945845070330E-13 ) ) ;
#679 = AXIS2_PLACEMENT_3D ( 'NONE', #112, #38, #619 ) ;
#680 = DIRECTION ( 'NONE',  ( 0.8660254037844380415, -0.5000000000000009992, 0.000000000000000000 ) ) ;
#681 = ORIENTED_EDGE ( 'NONE', *, *, #1044, .F. ) ;
#682 = ORIENTED_EDGE ( 'NONE', *, *, #860, .F. ) ;
#683 = CARTESIAN_POINT ( 'NONE',  ( 69.16822305514615721, -11.18376618407357626, 27.00000000000000711 ) ) ;
#684 = FACE_BOUND ( 'NONE', #932, .T. ) ;
#685 = DIRECTION ( 'NONE',  ( -0.9184855229425165080, 0.000000000000000000, -0.3954546044048698472 ) ) ;
#686 = EDGE_CURVE ( 'NONE', #532, #404, #342, .T. ) ;
#687 = DIRECTION ( 'NONE',  ( -0.000000000000000000, 1.000000000000000000, 0.000000000000000000 ) ) ;
#688 = FACE_OUTER_BOUND ( 'NONE', #508, .T. ) ;
#689 = CARTESIAN_POINT ( 'NONE',  ( 81.18939049300777810, -17.56531537972109547, 12.47441327564059677 ) ) ;
#690 = CIRCLE ( 'NONE', #1027, 0.6999999999999975131 ) ;
#691 = EDGE_CURVE ( 'NONE', #293, #631, #591, .T. ) ;
#692 = LINE ( 'NONE', #855, #803 ) ;
#693 = AXIS2_PLACEMENT_3D ( 'NONE', #772, #687, #272 ) ;
#694 = ORIENTED_EDGE ( 'NONE', *, *, #959, .F. ) ;
#695 = DIRECTION ( 'NONE',  ( 0.8660254037844377084, -0.5000000000000015543, 0.000000000000000000 ) ) ;
#696 = DIRECTION ( 'NONE',  ( -0.5000000000000011102, -0.8660254037844380415, 5.977335943528134799E-15 ) ) ;
#697 = CARTESIAN_POINT ( 'NONE',  ( 83.68939049300777810, -13.23518836079890271, 12.47441327564056657 ) ) ;
#698 = ADVANCED_FACE ( 'NONE', ( #98 ), #83, .F. ) ;
#699 = CARTESIAN_POINT ( 'NONE',  ( 80.81844590691797237, -17.91002548366326508, 14.46886333976626027 ) ) ;
#700 = LINE ( 'NONE', #441, #927 ) ;
#701 = PERSON_AND_ORGANIZATION_ROLE ( 'creator' ) ;
#702 = VECTOR ( 'NONE', #425, 1000.000000000000114 ) ;
#703 = ORIENTED_EDGE ( 'NONE', *, *, #1070, .T. ) ;
#704 = FACE_OUTER_BOUND ( 'NONE', #546, .T. ) ;
#705 = LINE ( 'NONE', #30, #1080 ) ;
#706 = EDGE_CURVE ( 'NONE', #404, #631, #599, .T. ) ;
#707 = DIRECTION ( 'NONE',  ( -0.7754764868735121164, 0.4477215584466516796, 0.4451759476975558072 ) ) ;
#708 = APPROVAL_ROLE ( '' ) ;
#709 = VERTEX_POINT ( 'NONE', #1083 ) ;
#710 = DIRECTION ( 'NONE',  ( 0.8599345058162721767, -0.4964834184184731547, 0.1183928247066994566 ) ) ;
#711 = CARTESIAN_POINT ( 'NONE',  ( 46.76537180435970242, 4.163336342344337027E-14, 2.959871930885407541E-14 ) ) ;
#712 = ORGANIZATION ( 'UNSPECIFIED', 'UNSPECIFIED', '' ) ;
#713 = VERTEX_POINT ( 'NONE', #864 ) ;
#714 = DIRECTION ( 'NONE',  ( 0.8660254037844381525, -0.5000000000000007772, 0.000000000000000000 ) ) ;
#715 = CARTESIAN_POINT ( 'NONE',  ( 20.53298087063344823, 18.05050452163668240, 9.062318294453492129 ) ) ;
#716 = VECTOR ( 'NONE', #995, 1000.000000000000114 ) ;
#717 = APPROVAL_STATUS ( 'not_yet_approved' ) ;
#718 = ADVANCED_FACE ( 'NONE', ( #374, #116 ), #295, .T. ) ;
#719 = VERTEX_POINT ( 'NONE', #367 ) ;
#720 = CARTESIAN_POINT ( 'NONE',  ( 23.74448031988603347, 16.19634445010839485, 12.99935497757364544 ) ) ;
#721 = CARTESIAN_POINT ( 'NONE',  ( 81.79560827565687475, -17.91531537972109689, 12.47441327564059677 ) ) ;
#722 = VECTOR ( 'NONE', #888, 1000.000000000000000 ) ;
#723 = APPROVAL_DATE_TIME ( #556, #270 ) ;
#724 = VERTEX_POINT ( 'NONE', #784 ) ;
#725 = DIRECTION ( 'NONE',  ( -0.5000000000000011102, -0.8660254037844380415, 5.977335943528134799E-15 ) ) ;
#726 = ORIENTED_EDGE ( 'NONE', *, *, #248, .F. ) ;
#727 = CARTESIAN_POINT ( 'NONE',  ( 31.49383418745791019, 11.72225290862030000, 43.07156002538635420 ) ) ;
#728 = VERTEX_POINT ( 'NONE', #362 ) ;
#729 = VERTEX_POINT ( 'NONE', #25 ) ;
#730 = VECTOR ( 'NONE', #857, 1000.000000000000000 ) ;
#731 = CARTESIAN_POINT ( 'NONE',  ( 70.12369081904918744, -1.938926387155601505, 0.000000000000000000 ) ) ;
#732 = ORIENTED_EDGE ( 'NONE', *, *, #79, .F. ) ;
#733 = LINE ( 'NONE', #1054, #339 ) ;
#734 = EDGE_CURVE ( 'NONE', #251, #713, #278, .T. ) ;
#735 = ORIENTED_EDGE ( 'NONE', *, *, #104, .T. ) ;
#736 = CARTESIAN_POINT ( 'NONE',  ( 22.88026253723690573, 16.09947534175561401, 12.99935497757364722 ) ) ;
#737 = ORIENTED_EDGE ( 'NONE', *, *, #802, .T. ) ;
#738 = DIRECTION ( 'NONE',  ( 0.7745966692414802957, -0.4472135954999604812, -0.4472135954999605922 ) ) ;
#739 = EDGE_CURVE ( 'NONE', #709, #417, #705, .T. ) ;
#740 = VERTEX_POINT ( 'NONE', #790 ) ;
#741 = ORIENTED_EDGE ( 'NONE', *, *, #816, .T. ) ;
#742 = DIRECTION ( 'NONE',  ( 0.8660254037844381525, -0.5000000000000007772, 0.000000000000000000 ) ) ;
#743 =( NAMED_UNIT ( * ) PLANE_ANGLE_UNIT ( ) SI_UNIT ( $, .RADIAN. ) );
#744 = VECTOR ( 'NONE', #429, 1000.000000000000227 ) ;
#745 = FACE_OUTER_BOUND ( 'NONE', #449, .T. ) ;
#746 = ORIENTED_EDGE ( 'NONE', *, *, #637, .T. ) ;
#747 = CIRCLE ( 'NONE', #410, 1.999999999999995781 ) ;
#748 = EDGE_CURVE ( 'NONE', #227, #639, #209, .T. ) ;
#749 = CC_DESIGN_APPROVAL ( #332, ( #944 ) ) ;
#750 = VECTOR ( 'NONE', #1033, 1000.000000000000227 ) ;
#751 = CARTESIAN_POINT ( 'NONE',  ( 12.69134295108997890, 21.98205080756892116, -1.563639945845070330E-13 ) ) ;
#752 = DIRECTION ( 'NONE',  ( 0.7754764868734992378, -0.4477215584466381348, 0.4451759476975921115 ) ) ;
#753 = DIRECTION ( 'NONE',  ( -0.5000000000000009992, -0.8660254037844380415, 5.977335943528133221E-15 ) ) ;
#754 = EDGE_LOOP ( 'NONE', ( #682, #831, #763, #398, #825, #1064 ) ) ;
#755 = CARTESIAN_POINT ( 'NONE',  ( 33.40705278967023872, 19.25943446284444960, 0.000000000000000000 ) ) ;
#756 = VECTOR ( 'NONE', #161, 1000.000000000000114 ) ;
#757 = DIRECTION ( 'NONE',  ( -0.8660254037844379305, 0.5000000000000012212, 0.000000000000000000 ) ) ;
#758 = ORIENTED_EDGE ( 'NONE', *, *, #1016, .F. ) ;
#759 = ADVANCED_FACE ( 'NONE', ( #1026 ), #611, .F. ) ;
#760 = AXIS2_PLACEMENT_3D ( 'NONE', #751, #655, #996 ) ;
#761 = EDGE_CURVE ( 'NONE', #315, #500, #194, .T. ) ;
#762 = CARTESIAN_POINT ( 'NONE',  ( 82.64428816752980822, -18.40530094374974723, 13.55963076946096102 ) ) ;
#763 = ORIENTED_EDGE ( 'NONE', *, *, #477, .F. ) ;
#764 = LINE ( 'NONE', #515, #744 ) ;
#765 = VERTEX_POINT ( 'NONE', #1050 ) ;
#766 = ORIENTED_EDGE ( 'NONE', *, *, #65, .F. ) ;
#767 = PLANE ( 'NONE',  #845 ) ;
#768 = EDGE_CURVE ( 'NONE', #145, #874, #870, .T. ) ;
#769 = CARTESIAN_POINT ( 'NONE',  ( 96.56274360871945817, -27.00000000000001066, 11.18376618407357093 ) ) ;
#770 = LINE ( 'NONE', #953, #261 ) ;
#771 = AXIS2_PLACEMENT_3D ( 'NONE', #563, #486, #232 ) ;
#772 = CARTESIAN_POINT ( 'NONE',  ( 100.0000000000000000, -27.00000000000001066, 0.000000000000000000 ) ) ;
#773 = VERTEX_POINT ( 'NONE', #699 ) ;
#774 = EDGE_CURVE ( 'NONE', #427, #227, #413, .T. ) ;
#775 = DIRECTION ( 'NONE',  ( 0.8660254037844381525, -0.5000000000000007772, 0.000000000000000000 ) ) ;
#776 = FACE_OUTER_BOUND ( 'NONE', #818, .T. ) ;
#777 = ORIENTED_EDGE ( 'NONE', *, *, #816, .F. ) ;
#778 = DIRECTION ( 'NONE',  ( -0.5000000000000009992, -0.8660254037844381525, 6.143007653609041040E-15 ) ) ;
#779 = ORIENTED_EDGE ( 'NONE', *, *, #889, .T. ) ;
#780 = FACE_OUTER_BOUND ( 'NONE', #950, .T. ) ;
#781 = LINE ( 'NONE', #22, #730 ) ;
#782 = EDGE_CURVE ( 'NONE', #724, #631, #692, .T. ) ;
#783 = DIRECTION ( 'NONE',  ( 0.8660254037844377084, -0.5000000000000015543, 0.000000000000000000 ) ) ;
#784 = CARTESIAN_POINT ( 'NONE',  ( 25.89655200393004719, 13.79914474563094018, 12.42840466888750761 ) ) ;
#785 = CYLINDRICAL_SURFACE ( 'NONE', #274, 21.19836085000000381 ) ;
#786 = VECTOR ( 'NONE', #430, 1000.000000000000114 ) ;
#787 = VERTEX_POINT ( 'NONE', #617 ) ;
#788 = ADVANCED_FACE ( 'NONE', ( #957 ), #859, .F. ) ;
#789 = DIRECTION ( 'NONE',  ( 0.5000000000000004441, 0.8660254037844383745, 0.000000000000000000 ) ) ;
#790 = CARTESIAN_POINT ( 'NONE',  ( 23.48648031988602014, 15.74947534175560904, 12.99935497757364899 ) ) ;
#791 = DIRECTION ( 'NONE',  ( 0.000000000000000000, -1.000000000000000000, -1.551108497285261312E-16 ) ) ;
#792 = COORDINATED_UNIVERSAL_TIME_OFFSET ( 5, 0, .BEHIND. ) ;
#793 = ORIENTED_EDGE ( 'NONE', *, *, #375, .T. ) ;
#794 = DIRECTION ( 'NONE',  ( -0.5000000000000011102, -0.8660254037844380415, 5.977335943528134799E-15 ) ) ;
#795 = LINE ( 'NONE', #965, #521 ) ;
#796 = DIRECTION ( 'NONE',  ( 0.5000000000000009992, 0.8660254037844380415, -6.143007653609040251E-15 ) ) ;
#797 = AXIS2_PLACEMENT_3D ( 'NONE', #936, #1008, #352 ) ;
#798 = EDGE_LOOP ( 'NONE', ( #256, #568, #424, #562 ) ) ;
#799 = CARTESIAN_POINT ( 'NONE',  ( 83.94110417138250568, -19.71289307323914031, 7.128199912708126362 ) ) ;
#800 = DIRECTION ( 'NONE',  ( 0.000000000000000000, 1.000000000000000000, 3.102216994570522624E-16 ) ) ;
#801 = PRODUCT_DEFINITION_FORMATION_WITH_SPECIFIED_SOURCE ( 'ANY', '', #437, .NOT_KNOWN. ) ;
#802 = EDGE_CURVE ( 'NONE', #251, #719, #290, .T. ) ;
#803 = VECTOR ( 'NONE', #531, 1000.000000000000000 ) ;
#804 = APPROVAL_ROLE ( '' ) ;
#805 = ORIENTED_EDGE ( 'NONE', *, *, #782, .F. ) ;
#806 = DIRECTION ( 'NONE',  ( -0.5000000000000009992, -0.8660254037844380415, 6.143007653609040251E-15 ) ) ;
#807 = LINE ( 'NONE', #158, #387 ) ;
#808 = DATE_TIME_ROLE ( 'creation_date' ) ;
#809 = ORIENTED_EDGE ( 'NONE', *, *, #658, .F. ) ;
#810 = FACE_OUTER_BOUND ( 'NONE', #418, .T. ) ;
#811 = VECTOR ( 'NONE', #665, 1000.000000000000114 ) ;
#812 = DIRECTION ( 'NONE',  ( -0.5000000000000009992, -0.8660254037844380415, 6.143007653609040251E-15 ) ) ;
#813 = VECTOR ( 'NONE', #738, 1000.000000000000227 ) ;
#814 = VECTOR ( 'NONE', #828, 1000.000000000000227 ) ;
#815 = ORIENTED_EDGE ( 'NONE', *, *, #739, .F. ) ;
#816 = EDGE_CURVE ( 'NONE', #90, #401, #141, .T. ) ;
#817 = LINE ( 'NONE', #64, #614 ) ;
#818 = EDGE_LOOP ( 'NONE', ( #615, #480, #596, #359 ) ) ;
#819 = DIRECTION ( 'NONE',  ( -1.000000000000000000, -0.000000000000000000, -0.000000000000000000 ) ) ;
#820 = EDGE_LOOP ( 'NONE', ( #821, #149, #488, #461 ) ) ;
#821 = ORIENTED_EDGE ( 'NONE', *, *, #933, .F. ) ;
#822 = LINE ( 'NONE', #895, #716 ) ;
#823 = PRODUCT_RELATED_PRODUCT_CATEGORY ( 'detail', '', ( #437 ) ) ;
#824 = CARTESIAN_POINT ( 'NONE',  ( 30.99383418745790308, 10.85622750483586252, 43.07156002538636130 ) ) ;
#825 = ORIENTED_EDGE ( 'NONE', *, *, #23, .T. ) ;
#826 = ORIENTED_EDGE ( 'NONE', *, *, #354, .F. ) ;
#827 = FACE_OUTER_BOUND ( 'NONE', #160, .T. ) ;
#828 = DIRECTION ( 'NONE',  ( -0.7754764868735124494, 0.4477215584466519016, 0.4451759476975549745 ) ) ;
#829 = DIRECTION ( 'NONE',  ( 0.8660254037844381525, -0.5000000000000008882, 0.000000000000000000 ) ) ;
#830 = EDGE_CURVE ( 'NONE', #241, #41, #795, .T. ) ;
#831 = ORIENTED_EDGE ( 'NONE', *, *, #1074, .T. ) ;
#832 = ORIENTED_EDGE ( 'NONE', *, *, #867, .T. ) ;
#833 = AXIS2_PLACEMENT_3D ( 'NONE', #85, #106, #89 ) ;
#834 = FACE_OUTER_BOUND ( 'NONE', #754, .T. ) ;
#835 = ADVANCED_FACE ( 'NONE', ( #431 ), #351, .F. ) ;
#836 = CARTESIAN_POINT ( 'NONE',  ( 100.0000000000000000, 11.18376618407356382, 27.00000000000001421 ) ) ;
#837 = ORIENTED_EDGE ( 'NONE', *, *, #44, .T. ) ;
#838 = AXIS2_PLACEMENT_3D ( 'NONE', #445, #451, #357 ) ;
#839 = CARTESIAN_POINT ( 'NONE',  ( 30.99383418745790308, 10.85622750483586252, 43.07156002538636130 ) ) ;
#840 = CARTESIAN_POINT ( 'NONE',  ( 82.19613239969733343, -17.55073261274910479, 12.62748104440461816 ) ) ;
#841 = LINE ( 'NONE', #16, #355 ) ;
#842 = ADVANCED_FACE ( 'NONE', ( #606 ), #110, .F. ) ;
#843 = ORIENTED_EDGE ( 'NONE', *, *, #58, .F. ) ;
#844 = FACE_BOUND ( 'NONE', #894, .T. ) ;
#845 = AXIS2_PLACEMENT_3D ( 'NONE', #1015, #497, #406 ) ;
#846 = CARTESIAN_POINT ( 'NONE',  ( 65.12369081904917323, -10.59918042499997881, -1.479114197289397135E-28 ) ) ;
#847 = ORIENTED_EDGE ( 'NONE', *, *, #234, .F. ) ;
#848 = EDGE_CURVE ( 'NONE', #938, #866, #142, .T. ) ;
#849 = ORIENTED_EDGE ( 'NONE', *, *, #1070, .F. ) ;
#850 = PLANE ( 'NONE',  #4 ) ;
#851 = DIRECTION ( 'NONE',  ( 0.8660254037844379305, -0.5000000000000012212, 0.000000000000000000 ) ) ;
#852 = LINE ( 'NONE', #100, #314 ) ;
#853 = LOCAL_TIME ( 4, 20, 54.00000000000000000, #792 ) ;
#854 = EDGE_LOOP ( 'NONE', ( #197, #926, #998, #178 ) ) ;
#855 = CARTESIAN_POINT ( 'NONE',  ( 26.97340115861138798, 13.17742559629898302, 1.999622373288319821 ) ) ;
#856 = DIRECTION ( 'NONE',  ( -0.5000000000000011102, -0.8660254037844380415, 5.977335943528134799E-15 ) ) ;
#857 = DIRECTION ( 'NONE',  ( 0.8660254037844380415, -0.5000000000000009992, -1.551108497285264517E-16 ) ) ;
#858 = AXIS2_PLACEMENT_3D ( 'NONE', #115, #876, #132 ) ;
#859 = PLANE ( 'NONE',  #502 ) ;
#860 = EDGE_CURVE ( 'NONE', #213, #773, #55, .T. ) ;
#861 = CARTESIAN_POINT ( 'NONE',  ( 100.0000000000000000, 27.00000000000001776, 4.187992942670208871E-15 ) ) ;
#862 = DIRECTION ( 'NONE',  ( 0.3855336798599243164, -0.2225879738488011073, -0.8954431168932791563 ) ) ;
#863 = VECTOR ( 'NONE', #225, 1000.000000000000114 ) ;
#864 = CARTESIAN_POINT ( 'NONE',  ( 28.40705278967023162, 10.59918042500006230, -1.479114197289397135E-28 ) ) ;
#865 = DIRECTION ( 'NONE',  ( -0.5000000000000008882, -0.8660254037844380415, 6.143007653609040251E-15 ) ) ;
#866 = VERTEX_POINT ( 'NONE', #385 ) ;
#867 = EDGE_CURVE ( 'NONE', #283, #532, #638, .T. ) ;
#868 = ORIENTED_EDGE ( 'NONE', *, *, #143, .F. ) ;
#869 = CARTESIAN_POINT ( 'NONE',  ( 65.88169081904918301, -9.286285912862785707, 0.000000000000000000 ) ) ;
#870 = LINE ( 'NONE', #196, #892 ) ;
#871 = LINE ( 'NONE', #281, #943 ) ;
#872 = CIRCLE ( 'NONE', #177, 0.6999999999999975131 ) ;
#873 = PERSON_AND_ORGANIZATION_ROLE ( 'classification_officer' ) ;
#874 = VERTEX_POINT ( 'NONE', #50 ) ;
#875 = EDGE_CURVE ( 'NONE', #787, #62, #475, .T. ) ;
#876 = DIRECTION ( 'NONE',  ( -0.5000000000000009992, -0.8660254037844381525, 6.143007653609041040E-15 ) ) ;
#877 = DIRECTION ( 'NONE',  ( -0.5000000000000008882, -0.8660254037844381525, 6.161737786669618799E-15 ) ) ;
#878 = DIRECTION ( 'NONE',  ( 0.7745966692414847365, -0.4472135954999567620, 0.4472135954999567620 ) ) ;
#879 = PERSON_AND_ORGANIZATION ( #657, #712 ) ;
#880 = ORIENTED_EDGE ( 'NONE', *, *, #211, .F. ) ;
#881 = DIRECTION ( 'NONE',  ( -0.5000000000000008882, -0.8660254037844380415, 6.143007653609040251E-15 ) ) ;
#882 = EDGE_CURVE ( 'NONE', #74, #436, #1073, .T. ) ;
#883 = LINE ( 'NONE', #318, #673 ) ;
#884 = PERSON_AND_ORGANIZATION ( #657, #712 ) ;
#885 = VECTOR ( 'NONE', #597, 1000.000000000000000 ) ;
#886 = ORIENTED_EDGE ( 'NONE', *, *, #739, .T. ) ;
#887 = DIRECTION ( 'NONE',  ( 0.000000000000000000, -0.7071067811865475727, -0.7071067811865475727 ) ) ;
#888 = DIRECTION ( 'NONE',  ( 1.000000000000000000, 0.000000000000000000, 0.000000000000000000 ) ) ;
#889 = EDGE_CURVE ( 'NONE', #645, #1062, #883, .T. ) ;
#890 = AXIS2_PLACEMENT_3D ( 'NONE', #32, #458, #46 ) ;
#891 = LOCAL_TIME ( 4, 20, 54.00000000000000000, #56 ) ;
#892 = VECTOR ( 'NONE', #200, 1000.000000000000000 ) ;
#893 = PERSON_AND_ORGANIZATION ( #657, #712 ) ;
#894 = EDGE_LOOP ( 'NONE', ( #118, #1024 ) ) ;
#895 = CARTESIAN_POINT ( 'NONE',  ( 9.045636022685147992, 24.68272616187371327, 9.066775957625004878 ) ) ;
#896 = DIRECTION ( 'NONE',  ( 0.8660254037844377084, -0.5000000000000015543, 0.000000000000000000 ) ) ;
#897 = APPLICATION_CONTEXT ( 'configuration controlled 3d designs of mechanical parts and assemblies' ) ;
#898 = ADVANCED_FACE ( 'NONE', ( #985 ), #549, .T. ) ;
#899 = APPROVAL_ROLE ( '' ) ;
#900 = ORIENTED_EDGE ( 'NONE', *, *, #258, .F. ) ;
#901 = CYLINDRICAL_SURFACE ( 'NONE', #954, 0.7000000000000051736 ) ;
#902 = VECTOR ( 'NONE', #929, 1000.000000000000000 ) ;
#903 = DIRECTION ( 'NONE',  ( -0.5000000000000011102, -0.8660254037844380415, 5.977335943528134799E-15 ) ) ;
#904 = EDGE_CURVE ( 'NONE', #773, #874, #134, .T. ) ;
#905 = ORIENTED_EDGE ( 'NONE', *, *, #202, .T. ) ;
#906 = CARTESIAN_POINT ( 'NONE',  ( 29.57851830126981341, 12.82806105109413508, 38.62303447092170217 ) ) ;
#907 = EDGE_LOOP ( 'NONE', ( #900, #331 ) ) ;
#908 = CARTESIAN_POINT ( 'NONE',  ( 22.27404475458779842, 16.44947534175561543, 12.99935497757364899 ) ) ;
#909 = ORIENTED_EDGE ( 'NONE', *, *, #1044, .T. ) ;
#910 = ORIENTED_EDGE ( 'NONE', *, *, #447, .F. ) ;
#911 = ADVANCED_FACE ( 'NONE', ( #564 ), #301, .F. ) ;
#912 = CARTESIAN_POINT ( 'NONE',  ( 79.45733968543886760, -16.56531537972108126, 12.47441327564059677 ) ) ;
#913 = CARTESIAN_POINT ( 'NONE',  ( 31.23583418745790397, 11.27538380026752485, 43.07156002538635420 ) ) ;
#914 = AXIS2_PLACEMENT_3D ( 'NONE', #378, #710, #789 ) ;
#915 = EDGE_LOOP ( 'NONE', ( #189, #206 ) ) ;
#916 = ORIENTED_EDGE ( 'NONE', *, *, #848, .T. ) ;
#917 = DIRECTION ( 'NONE',  ( 0.8660254037844382635, -0.5000000000000006661, 0.000000000000000000 ) ) ;
#918 = EDGE_CURVE ( 'NONE', #532, #724, #733, .T. ) ;
#919 = DIRECTION ( 'NONE',  ( 0.7745966692414802957, -0.4472135954999605367, -0.4472135954999607033 ) ) ;
#920 = VECTOR ( 'NONE', #812, 1000.000000000000114 ) ;
#921 = PLANE ( 'NONE',  #940 ) ;
#922 = ORIENTED_EDGE ( 'NONE', *, *, #1011, .T. ) ;
#923 = CARTESIAN_POINT ( 'NONE',  ( 22.88026253723690573, 16.09947534175561401, 12.99935497757364899 ) ) ;
#924 = FACE_OUTER_BOUND ( 'NONE', #153, .T. ) ;
#925 = CARTESIAN_POINT ( 'NONE',  ( 84.93049724328446359, -19.12941889125679751, 12.39530159544861831 ) ) ;
#926 = ORIENTED_EDGE ( 'NONE', *, *, #155, .T. ) ;
#927 = VECTOR ( 'NONE', #878, 1000.000000000000000 ) ;
#928 = ORIENTED_EDGE ( 'NONE', *, *, #981, .F. ) ;
#929 = DIRECTION ( 'NONE',  ( 0.000000000000000000, -1.551108497285261312E-16, 1.000000000000000000 ) ) ;
#930 = ORIENTED_EDGE ( 'NONE', *, *, #734, .F. ) ;
#931 = CARTESIAN_POINT ( 'NONE',  ( 81.18939049300777810, -17.56531537972109547, 12.47441327564059677 ) ) ;
#932 = EDGE_LOOP ( 'NONE', ( #974, #990, #365, #356 ) ) ;
#933 = EDGE_CURVE ( 'NONE', #436, #713, #240, .T. ) ;
#934 = FACE_OUTER_BOUND ( 'NONE', #653, .T. ) ;
#935 = ORIENTED_EDGE ( 'NONE', *, *, #265, .F. ) ;
#936 = CARTESIAN_POINT ( 'NONE',  ( 22.88026253723690573, 16.09947534175561401, 12.99935497757364722 ) ) ;
#937 = FACE_OUTER_BOUND ( 'NONE', #154, .T. ) ;
#938 = VERTEX_POINT ( 'NONE', #391 ) ;
#939 = CARTESIAN_POINT ( 'NONE',  ( 78.53885784792780100, -15.43920416578460397, 10.51648846183202579 ) ) ;
#940 = AXIS2_PLACEMENT_3D ( 'NONE', #593, #753, #680 ) ;
#941 = CARTESIAN_POINT ( 'NONE',  ( 84.43049724328446359, -19.99544429504124210, 12.39530159544862720 ) ) ;
#942 = DIRECTION ( 'NONE',  ( -1.228601530721805368E-14, 0.000000000000000000, -1.000000000000000000 ) ) ;
#943 = VECTOR ( 'NONE', #707, 1000.000000000000227 ) ;
#944 = SECURITY_CLASSIFICATION ( '', '', #308 ) ;
#945 = VECTOR ( 'NONE', #482, 1000.000000000000114 ) ;
#946 = ORIENTED_EDGE ( 'NONE', *, *, #407, .F. ) ;
#947 = EDGE_CURVE ( 'NONE', #610, #41, #560, .T. ) ;
#948 = CARTESIAN_POINT ( 'NONE',  ( 31.23583418745790397, 11.27538380026752485, 43.07156002538635420 ) ) ;
#949 = DIRECTION ( 'NONE',  ( 0.5000000000000015543, 0.8660254037844378194, 0.000000000000000000 ) ) ;
#950 = EDGE_LOOP ( 'NONE', ( #222, #746, #311, #969 ) ) ;
#951 = DIRECTION ( 'NONE',  ( 0.8660254037844377084, -0.5000000000000015543, 0.000000000000000000 ) ) ;
#952 = DIRECTION ( 'NONE',  ( -0.5000000000000009992, -0.8660254037844380415, 6.143007653609040251E-15 ) ) ;
#953 = CARTESIAN_POINT ( 'NONE',  ( 79.02825091983173422, -15.72175538758784441, 15.78359014457139686 ) ) ;
#954 = AXIS2_PLACEMENT_3D ( 'NONE', #654, #150, #393 ) ;
#955 = ORIENTED_EDGE ( 'NONE', *, *, #981, .T. ) ;
#956 = DIRECTION ( 'NONE',  ( -0.5000000000000011102, -0.8660254037844380415, 5.977335943528134799E-15 ) ) ;
#957 = FACE_OUTER_BOUND ( 'NONE', #820, .T. ) ;
#958 = VECTOR ( 'NONE', #643, 1000.000000000000000 ) ;
#959 = EDGE_CURVE ( 'NONE', #613, #765, #634, .T. ) ;
#960 = LINE ( 'NONE', #217, #216 ) ;
#961 = EDGE_CURVE ( 'NONE', #2, #724, #66, .T. ) ;
#962 = APPLICATION_PROTOCOL_DEFINITION ( 'international standard', 'config_control_design', 1994, #897 ) ;
#963 = ORIENTED_EDGE ( 'NONE', *, *, #416, .T. ) ;
#964 = DIRECTION ( 'NONE',  ( 0.7754764868734000949, -0.4477215584465809028, 0.4451759476978224273 ) ) ;
#965 = CARTESIAN_POINT ( 'NONE',  ( 86.69134295108996469, -23.05127018922181037, 27.00000000000000355 ) ) ;
#966 = CARTESIAN_POINT ( 'NONE',  ( 76.82643204896751854, -14.45053466978775525, -7.913524803789559137 ) ) ;
#967 = SHAPE_DEFINITION_REPRESENTATION ( #167, #459 ) ;
#968 = EDGE_CURVE ( 'NONE', #246, #709, #151, .T. ) ;
#969 = ORIENTED_EDGE ( 'NONE', *, *, #566, .T. ) ;
#970 = LINE ( 'NONE', #444, #1003 ) ;
#971 = AXIS2_PLACEMENT_3D ( 'NONE', #455, #462, #121 ) ;
#972 = CARTESIAN_POINT ( 'NONE',  ( 24.61231334480578070, 15.09947534175561401, 12.99935497757364722 ) ) ;
#973 = COORDINATED_UNIVERSAL_TIME_OFFSET ( 5, 0, .BEHIND. ) ;
#974 = ORIENTED_EDGE ( 'NONE', *, *, #686, .F. ) ;
#975 = CARTESIAN_POINT ( 'NONE',  ( 82.60007740170063073, -17.78395036839350141, 13.73312018707673943 ) ) ;
#976 = CARTESIAN_POINT ( 'NONE',  ( 66.69170411071502258, -9.753947304852912836, 47.93771348892649087 ) ) ;
#977 = CIRCLE ( 'NONE', #498, 1.999999999999998668 ) ;
#978 = VERTEX_POINT ( 'NONE', #721 ) ;
#979 = FACE_OUTER_BOUND ( 'NONE', #677, .T. ) ;
#980 = DIRECTION ( 'NONE',  ( 0.3855336798598976711, -0.2225879738487733794, 0.8954431168932975860 ) ) ;
#981 = EDGE_CURVE ( 'NONE', #719, #709, #572, .T. ) ;
#982 = AXIS2_PLACEMENT_3D ( 'NONE', #190, #520, #624 ) ;
#983 = ORIENTED_EDGE ( 'NONE', *, *, #202, .F. ) ;
#984 = LINE ( 'NONE', #731, #756 ) ;
#985 = FACE_OUTER_BOUND ( 'NONE', #999, .T. ) ;
#986 = ORIENTED_EDGE ( 'NONE', *, *, #389, .F. ) ;
#987 = VERTEX_POINT ( 'NONE', #908 ) ;
#988 = DIRECTION ( 'NONE',  ( -0.5000000000000008882, -0.8660254037844380415, 6.143007653609040251E-15 ) ) ;
#989 = AXIS2_PLACEMENT_3D ( 'NONE', #1079, #1010, #11 ) ;
#990 = ORIENTED_EDGE ( 'NONE', *, *, #918, .T. ) ;
#991 = DIRECTION ( 'NONE',  ( -0.7754764868735124494, 0.4477215584466519016, 0.4451759476975549745 ) ) ;
#992 = ORIENTED_EDGE ( 'NONE', *, *, #170, .F. ) ;
#993 = ORIENTED_EDGE ( 'NONE', *, *, #768, .F. ) ;
#994 = AXIS2_PLACEMENT_3D ( 'NONE', #171, #510, #1 ) ;
#995 = DIRECTION ( 'NONE',  ( 0.7754764868734992378, -0.4477215584466381348, 0.4451759476975921115 ) ) ;
#996 = DIRECTION ( 'NONE',  ( 0.8660254037844381525, -0.5000000000000008882, 0.000000000000000000 ) ) ;
#997 = APPROVAL_PERSON_ORGANIZATION ( #879, #332, #708 ) ;
#998 = ORIENTED_EDGE ( 'NONE', *, *, #761, .T. ) ;
#999 = EDGE_LOOP ( 'NONE', ( #14, #849, #946, #909, #247, #558 ) ) ;
#1000 = EDGE_CURVE ( 'NONE', #613, #111, #807, .T. ) ;
#1001 = DIRECTION ( 'NONE',  ( -0.5000000000000008882, -0.8660254037844381525, 6.161737786669618799E-15 ) ) ;
#1002 = APPLICATION_CONTEXT ( 'configuration controlled 3d designs of mechanical parts and assemblies' ) ;
#1003 = VECTOR ( 'NONE', #284, 999.9999999999998863 ) ;
#1004 = ORIENTED_EDGE ( 'NONE', *, *, #918, .F. ) ;
#1005 = FACE_BOUND ( 'NONE', #915, .T. ) ;
#1006 = CARTESIAN_POINT ( 'NONE',  ( 82.40228816752978958, -18.82445723918141312, 13.55963076946098056 ) ) ;
#1007 = CIRCLE ( 'NONE', #1058, 0.7000000000000051736 ) ;
#1008 = DIRECTION ( 'NONE',  ( -0.5000000000000008882, -0.8660254037844381525, 6.161737786669618799E-15 ) ) ;
#1009 = EDGE_LOOP ( 'NONE', ( #345, #986, #935, #905 ) ) ;
#1010 = DIRECTION ( 'NONE',  ( 0.3855336798598976711, -0.2225879738487733794, 0.8954431168932975860 ) ) ;
#1011 = EDGE_CURVE ( 'NONE', #610, #246, #71, .T. ) ;
#1012 = CARTESIAN_POINT ( 'NONE',  ( 82.97275146564756199, -17.99911383953341115, -8.674972325003249551 ) ) ;
#1013 = EDGE_LOOP ( 'NONE', ( #485, #886, #34, #963, #648, #120, #598, #922 ) ) ;
#1014 = AXIS2_PLACEMENT_3D ( 'NONE', #861, #791, #1038 ) ;
#1015 = CARTESIAN_POINT ( 'NONE',  ( 100.0000000000000000, -19.09188309203679523, 19.09188309203678813 ) ) ;
#1016 = EDGE_CURVE ( 'NONE', #740, #987, #1007, .T. ) ;
#1017 = DIRECTION ( 'NONE',  ( -0.8660254037844382635, 0.5000000000000006661, 0.000000000000000000 ) ) ;
#1018 = CARTESIAN_POINT ( 'NONE',  ( 82.92144130057661755, -18.56531537972108481, 12.47441327564059677 ) ) ;
#1019 = VECTOR ( 'NONE', #956, 1000.000000000000114 ) ;
#1020 = EDGE_LOOP ( 'NONE', ( #635, #826, #652, #109, #735, #659, #837, #506 ) ) ;
#1021 = CARTESIAN_POINT ( 'NONE',  ( 25.38026253723691994, 20.42960236067780855, 12.99935497757361702 ) ) ;
#1022 = DIRECTION ( 'NONE',  ( 0.5000000000000008882, 0.8660254037844381525, -6.161737786669618799E-15 ) ) ;
#1023 = EDGE_CURVE ( 'NONE', #74, #613, #581, .T. ) ;
#1024 = ORIENTED_EDGE ( 'NONE', *, *, #211, .T. ) ;
#1025 = ADVANCED_FACE ( 'NONE', ( #1005, #252 ), #163, .T. ) ;
#1026 = FACE_OUTER_BOUND ( 'NONE', #1048, .T. ) ;
#1027 = AXIS2_PLACEMENT_3D ( 'NONE', #931, #1022, #851 ) ;
#1028 = DIRECTION ( 'NONE',  ( -0.5000000000000009992, -0.8660254037844381525, 5.995204332975845318E-15 ) ) ;
#1029 = ORIENTED_EDGE ( 'NONE', *, *, #477, .T. ) ;
#1030 = AXIS2_PLACEMENT_3D ( 'NONE', #966, #528, #949 ) ;
#1031 = CC_DESIGN_PERSON_AND_ORGANIZATION_ASSIGNMENT ( #545, #873, ( #944 ) ) ;
#1032 = AXIS2_PLACEMENT_3D ( 'NONE', #215, #525, #19 ) ;
#1033 = DIRECTION ( 'NONE',  ( 0.7754764868735124494, -0.4477215584466518461, -0.4451759476975549745 ) ) ;
#1034 = LINE ( 'NONE', #612, #656 ) ;
#1035 = DIRECTION ( 'NONE',  ( 0.8660254037844379305, -0.5000000000000012212, 0.000000000000000000 ) ) ;
#1036 = CARTESIAN_POINT ( 'NONE',  ( 12.44934295108998157, 21.56289451213725883, 0.000000000000000000 ) ) ;
#1037 = DIRECTION ( 'NONE',  ( 0.8660254037844368202, -0.5000000000000031086, 0.000000000000000000 ) ) ;
#1038 = DIRECTION ( 'NONE',  ( 0.000000000000000000, 1.551108497285261312E-16, -1.000000000000000000 ) ) ;
#1039 = AXIS2_PLACEMENT_3D ( 'NONE', #678, #1001, #829 ) ;
#1040 = PERSON_AND_ORGANIZATION ( #657, #712 ) ;
#1041 = ORIENTED_EDGE ( 'NONE', *, *, #588, .F. ) ;
#1042 = DIRECTION ( 'NONE',  ( -0.5000000000000011102, -0.8660254037844380415, 5.977335943528134799E-15 ) ) ;
#1043 = CARTESIAN_POINT ( 'NONE',  ( 80.18939049300774968, -19.29736618728995623, 12.47441327564060920 ) ) ;
#1044 = EDGE_CURVE ( 'NONE', #219, #90, #491, .T. ) ;
#1045 = CARTESIAN_POINT ( 'NONE',  ( 51.76537180435971663, 8.660254037844422825, -3.017464012642728205E-14 ) ) ;
#1046 = CC_DESIGN_SECURITY_CLASSIFICATION ( #944, ( #801 ) ) ;
#1047 = COORDINATED_UNIVERSAL_TIME_OFFSET ( 5, 0, .BEHIND. ) ;
#1048 = EDGE_LOOP ( 'NONE', ( #131, #916, #992, #628 ) ) ;
#1049 = DIRECTION ( 'NONE',  ( -0.5000000000000009992, -0.8660254037844381525, 5.977335943528133221E-15 ) ) ;
#1050 = CARTESIAN_POINT ( 'NONE',  ( 30.42652055357399732, 11.18376618407356382, 27.00000000000001421 ) ) ;
#1051 = ORIENTED_EDGE ( 'NONE', *, *, #947, .T. ) ;
#1052 = DIRECTION ( 'NONE',  ( 0.8660254037844381525, -0.5000000000000007772, 0.000000000000000000 ) ) ;
#1053 = AXIS2_PLACEMENT_3D ( 'NONE', #736, #479, #742 ) ;
#1054 = CARTESIAN_POINT ( 'NONE',  ( 10.82375557478463790, 22.50142782143844755, 3.775600169482214774 ) ) ;
#1055 = CALENDAR_DATE ( 2026, 7, 4 ) ;
#1056 = EDGE_LOOP ( 'NONE', ( #242, #53, #666, #20 ) ) ;
#1057 = EDGE_CURVE ( 'NONE', #646, #787, #8, .T. ) ;
#1058 = AXIS2_PLACEMENT_3D ( 'NONE', #923, #496, #917 ) ;
#1059 = DIRECTION ( 'NONE',  ( 0.000000000000000000, 0.7071067811865474617, -0.7071067811865474617 ) ) ;
#1060 = CARTESIAN_POINT ( 'NONE',  ( 100.0000000000000000, -27.00000000000001066, 0.000000000000000000 ) ) ;
#1061 = PERSON_AND_ORGANIZATION ( #657, #712 ) ;
#1062 = VERTEX_POINT ( 'NONE', #501 ) ;
#1063 = FACE_OUTER_BOUND ( 'NONE', #383, .T. ) ;
#1064 = ORIENTED_EDGE ( 'NONE', *, *, #904, .F. ) ;
#1065 = DIRECTION ( 'NONE',  ( 0.09238486345163600399, -0.05333842578284211933, 0.9942937439911964104 ) ) ;
#1066 = EDGE_LOOP ( 'NONE', ( #201, #86 ) ) ;
#1067 = CARTESIAN_POINT ( 'NONE',  ( 20.03298087063344468, 17.18447911785224491, 9.062318294453497458 ) ) ;
#1068 = VERTEX_POINT ( 'NONE', #664 ) ;
#1069 = DIRECTION ( 'NONE',  ( 0.7754764868734000949, -0.4477215584465809028, 0.4451759476978224273 ) ) ;
#1070 = EDGE_CURVE ( 'NONE', #346, #600, #668, .T. ) ;
#1071 = ORIENTED_EDGE ( 'NONE', *, *, #644, .F. ) ;
#1072 = CARTESIAN_POINT ( 'NONE',  ( 82.97275146564756199, -17.99911383953341115, -8.674972325003249551 ) ) ;
#1073 = LINE ( 'NONE', #312, #958 ) ;
#1074 = EDGE_CURVE ( 'NONE', #213, #427, #244, .T. ) ;
#1075 = ORIENTED_EDGE ( 'NONE', *, *, #1074, .F. ) ;
#1076 = ORIENTED_EDGE ( 'NONE', *, *, #644, .T. ) ;
#1077 = CIRCLE ( 'NONE', #994, 0.7000000000000051736 ) ;
#1078 = CARTESIAN_POINT ( 'NONE',  ( 81.92144130057661755, -20.29736618728995978, 12.47441327564060920 ) ) ;
#1079 = CARTESIAN_POINT ( 'NONE',  ( 31.49383418745791019, 11.72225290862030000, 43.07156002538635420 ) ) ;
#1080 = VECTOR ( 'NONE', #280, 1000.000000000000114 ) ;
#1081 = ORIENTED_EDGE ( 'NONE', *, *, #761, .F. ) ;
#1082 = DIRECTION ( 'NONE',  ( 0.7754764868735124494, -0.4477215584466518461, -0.4451759476975549745 ) ) ;
#1083 = CARTESIAN_POINT ( 'NONE',  ( 96.56274360871933027, -27.00000000000001066, 0.000000000000000000 ) ) ;
ENDSEC;
END-ISO-10303-21;
