ISO-10303-21;
HEADER;
FILE_DESCRIPTION (( 'STEP AP203' ),
    '1' );
FILE_NAME ('TopRight.STEP',
    '2026-04-07T08:23:10',
    ( '' ),
    ( '' ),
    'SwSTEP 2.0',
    'SolidWorks 2025',
    '' );
FILE_SCHEMA (( 'CONFIG_CONTROL_DESIGN' ));
ENDSEC;

DATA;
#1 = DIRECTION ( 'NONE',  ( 0.5000000000000008882, 0.8660254037844381525, -6.161737786669618799E-15 ) ) ;
#2 = VECTOR ( 'NONE', #375, 1000.000000000000114 ) ;
#3 = CARTESIAN_POINT ( 'NONE',  ( 83.17485576886733156, -18.11579881340175291, -12.17653989337468978 ) ) ;
#4 = FACE_BOUND ( 'NONE', #407, .T. ) ;
#5 = EDGE_LOOP ( 'NONE', ( #952, #246 ) ) ;
#6 = ADVANCED_FACE ( 'NONE', ( #934 ), #197, .T. ) ;
#7 = DIRECTION ( 'NONE',  ( -0.5000000000000004441, -0.8660254037844382635, 0.000000000000000000 ) ) ;
#8 = CARTESIAN_POINT ( 'NONE',  ( 0.000000000000000000, 27.00000000000001421, -11.18376618407356737 ) ) ;
#9 = AXIS2_PLACEMENT_3D ( 'NONE', #316, #235, #60 ) ;
#10 = ORIENTED_EDGE ( 'NONE', *, *, #117, .T. ) ;
#11 = ORIENTED_EDGE ( 'NONE', *, *, #841, .T. ) ;
#12 = CARTESIAN_POINT ( 'NONE',  ( 100.0000000000000000, 11.18376618407357981, -27.00000000000000711 ) ) ;
#13 = PLANE ( 'NONE',  #350 ) ;
#14 = ORIENTED_EDGE ( 'NONE', *, *, #601, .T. ) ;
#15 = ORIENTED_EDGE ( 'NONE', *, *, #104, .F. ) ;
#16 = CARTESIAN_POINT ( 'NONE',  ( 23.13826253723692972, 16.54634445010821864, -12.99935497757371472 ) ) ;
#17 = LINE ( 'NONE', #417, #822 ) ;
#18 = ADVANCED_FACE ( 'NONE', ( #425, #32 ), #186, .T. ) ;
#19 = ORIENTED_EDGE ( 'NONE', *, *, #793, .F. ) ;
#20 = CARTESIAN_POINT ( 'NONE',  ( 91.93339333277296532, -26.07776938819235824, -12.10599679588121980 ) ) ;
#21 = DIRECTION ( 'NONE',  ( 0.09238486345163665625, -0.05333842578285626079, -0.9942937439911956332 ) ) ;
#22 = LINE ( 'NONE', #524, #671 ) ;
#23 = CIRCLE ( 'NONE', #1039, 1.999999999999998668 ) ;
#24 = EDGE_LOOP ( 'NONE', ( #911, #322, #84, #808 ) ) ;
#25 = ORIENTED_EDGE ( 'NONE', *, *, #997, .T. ) ;
#26 = PLANE ( 'NONE',  #855 ) ;
#27 = CIRCLE ( 'NONE', #906, 1.999999999999995781 ) ;
#28 = FACE_OUTER_BOUND ( 'NONE', #981, .T. ) ;
#29 = ORIENTED_EDGE ( 'NONE', *, *, #214, .F. ) ;
#30 = VECTOR ( 'NONE', #740, 1000.000000000000114 ) ;
#31 = VECTOR ( 'NONE', #532, 1000.000000000000227 ) ;
#32 = FACE_OUTER_BOUND ( 'NONE', #741, .T. ) ;
#33 = EDGE_CURVE ( 'NONE', #325, #792, #1016, .T. ) ;
#34 = DATE_AND_TIME ( #925, #644 ) ;
#35 = CARTESIAN_POINT ( 'NONE',  ( 20.53298087063356192, 18.05050452163649766, -9.062318294452735401 ) ) ;
#36 = LINE ( 'NONE', #371, #427 ) ;
#37 = ORIENTED_EDGE ( 'NONE', *, *, #890, .T. ) ;
#38 = VECTOR ( 'NONE', #253, 1000.000000000000000 ) ;
#39 = DIRECTION ( 'NONE',  ( -0.5000000000000008882, -0.8660254037844381525, 6.161737786669618799E-15 ) ) ;
#40 =( NAMED_UNIT ( * ) SI_UNIT ( $, .STERADIAN. ) SOLID_ANGLE_UNIT ( ) );
#41 = DIRECTION ( 'NONE',  ( -0.8660254037844380415, 0.5000000000000009992, 7.755542486426317654E-17 ) ) ;
#42 = VERTEX_POINT ( 'NONE', #661 ) ;
#43 = DIRECTION ( 'NONE',  ( 0.8660254037844381525, -0.5000000000000007772, 0.000000000000000000 ) ) ;
#44 = AXIS2_PLACEMENT_3D ( 'NONE', #868, #374, #386 ) ;
#45 = AXIS2_PLACEMENT_3D ( 'NONE', #967, #78, #305 ) ;
#46 = PERSON_AND_ORGANIZATION ( #651, #366 ) ;
#47 = EDGE_CURVE ( 'NONE', #800, #850, #1010, .T. ) ;
#48 = DIRECTION ( 'NONE',  ( -0.8660254037844382635, 0.5000000000000006661, 0.000000000000000000 ) ) ;
#49 = DIRECTION ( 'NONE',  ( -0.5000000000000008882, -0.8660254037844381525, 6.161737786669618799E-15 ) ) ;
#50 = ORIENTED_EDGE ( 'NONE', *, *, #848, .F. ) ;
#51 = CARTESIAN_POINT ( 'NONE',  ( 83.23536288423868257, -18.15073261274928029, -12.58002564965451597 ) ) ;
#52 = ORIENTED_EDGE ( 'NONE', *, *, #862, .T. ) ;
#53 = APPROVAL_DATE_TIME ( #58, #528 ) ;
#54 = DIRECTION ( 'NONE',  ( -0.000000000000000000, 1.000000000000000000, 0.000000000000000000 ) ) ;
#55 = ORIENTED_EDGE ( 'NONE', *, *, #884, .T. ) ;
#56 = EDGE_CURVE ( 'NONE', #999, #747, #839, .T. ) ;
#57 = LINE ( 'NONE', #946, #226 ) ;
#58 = DATE_AND_TIME ( #785, #273 ) ;
#59 = DIRECTION ( 'NONE',  ( 0.7754764868734882466, -0.4477215584466318066, 0.4451759476976176466 ) ) ;
#60 = DIRECTION ( 'NONE',  ( 0.8660254037844377084, -0.5000000000000015543, 0.000000000000000000 ) ) ;
#61 = ORIENTED_EDGE ( 'NONE', *, *, #693, .F. ) ;
#62 = LINE ( 'NONE', #789, #300 ) ;
#63 = VERTEX_POINT ( 'NONE', #419 ) ;
#64 = ADVANCED_FACE ( 'NONE', ( #752 ), #342, .F. ) ;
#65 = CIRCLE ( 'NONE', #9, 1.999999999999995781 ) ;
#66 = FACE_OUTER_BOUND ( 'NONE', #332, .T. ) ;
#67 = DIRECTION ( 'NONE',  ( 0.8660254037844380415, -0.5000000000000009992, 0.000000000000000000 ) ) ;
#68 = ORIENTED_EDGE ( 'NONE', *, *, #634, .F. ) ;
#69 = EDGE_LOOP ( 'NONE', ( #76, #707 ) ) ;
#70 = EDGE_CURVE ( 'NONE', #560, #757, #57, .T. ) ;
#71 = CIRCLE ( 'NONE', #970, 0.6999999999999975131 ) ;
#72 = SECURITY_CLASSIFICATION_LEVEL ( 'unclassified' ) ;
#73 = EDGE_CURVE ( 'NONE', #527, #1065, #369, .T. ) ;
#74 = DIRECTION ( 'NONE',  ( 0.7754764868735043448, -0.4477215584466473497, -0.4451759476975736263 ) ) ;
#75 = FACE_OUTER_BOUND ( 'NONE', #610, .T. ) ;
#76 = ORIENTED_EDGE ( 'NONE', *, *, #734, .F. ) ;
#77 = CARTESIAN_POINT ( 'NONE',  ( 87.44934295108980393, -21.73837567708486418, -27.00000000000001421 ) ) ;
#78 = DIRECTION ( 'NONE',  ( 0.3855336798599465209, -0.2225879738488139026, -0.8954431168932664997 ) ) ;
#79 = VERTEX_POINT ( 'NONE', #124 ) ;
#80 = AXIS2_PLACEMENT_3D ( 'NONE', #1064, #559, #972 ) ;
#81 = CARTESIAN_POINT ( 'NONE',  ( 81.18939049300774968, -17.56531537972124823, -9.952055505674781699 ) ) ;
#82 = EDGE_CURVE ( 'NONE', #510, #42, #771, .T. ) ;
#83 = DIRECTION ( 'NONE',  ( -0.7745966692414804067, 0.4472135954999605367, 0.4472135954999605367 ) ) ;
#84 = ORIENTED_EDGE ( 'NONE', *, *, #796, .T. ) ;
#85 = LOCAL_TIME ( 4, 23, 10.00000000000000000, #420 ) ;
#86 = CARTESIAN_POINT ( 'NONE',  ( 82.96910309167182618, -17.99700744983628908, 8.674520339817888726 ) ) ;
#87 = VECTOR ( 'NONE', #748, 1000.000000000000000 ) ;
#88 = LINE ( 'NONE', #411, #767 ) ;
#89 = ORIENTED_EDGE ( 'NONE', *, *, #114, .F. ) ;
#90 = EDGE_CURVE ( 'NONE', #42, #163, #819, .T. ) ;
#91 = LINE ( 'NONE', #814, #224 ) ;
#92 = CIRCLE ( 'NONE', #233, 0.7000000000000051736 ) ;
#93 = DIRECTION ( 'NONE',  ( -1.228601530721805368E-14, 0.000000000000000000, -1.000000000000000000 ) ) ;
#94 = ORIENTED_EDGE ( 'NONE', *, *, #291, .F. ) ;
#95 = VERTEX_POINT ( 'NONE', #220 ) ;
#96 = DIRECTION ( 'NONE',  ( -0.5000000000000008882, -0.8660254037844381525, 6.161737786669618799E-15 ) ) ;
#97 = CARTESIAN_POINT ( 'NONE',  ( 3.032000000000159456, 27.00000000000001776, 1.188864290984653120E-12 ) ) ;
#98 = AXIS2_PLACEMENT_3D ( 'NONE', #535, #228, #541 ) ;
#99 = VECTOR ( 'NONE', #866, 1000.000000000000114 ) ;
#100 = ORIENTED_EDGE ( 'NONE', *, *, #564, .T. ) ;
#101 = VERTEX_POINT ( 'NONE', #301 ) ;
#102 = CC_DESIGN_SECURITY_CLASSIFICATION ( #784, ( #187 ) ) ;
#103 = CARTESIAN_POINT ( 'NONE',  ( 26.39655200392931178, 14.66517014941564234, -12.42840466888661055 ) ) ;
#104 = EDGE_CURVE ( 'NONE', #965, #948, #127, .T. ) ;
#105 = DIRECTION ( 'NONE',  ( -0.000000000000000000, 0.000000000000000000, 1.000000000000000000 ) ) ;
#106 = PLANE ( 'NONE',  #238 ) ;
#107 = ORIENTED_EDGE ( 'NONE', *, *, #825, .F. ) ;
#108 = DIRECTION ( 'NONE',  ( -0.8660254037844380415, 0.5000000000000009992, 0.000000000000000000 ) ) ;
#109 = FACE_OUTER_BOUND ( 'NONE', #341, .T. ) ;
#110 = LINE ( 'NONE', #756, #164 ) ;
#111 = ORIENTED_EDGE ( 'NONE', *, *, #90, .T. ) ;
#112 = VERTEX_POINT ( 'NONE', #794 ) ;
#113 = APPROVAL_DATE_TIME ( #446, #408 ) ;
#114 = EDGE_CURVE ( 'NONE', #998, #1002, #296, .T. ) ;
#115 = AXIS2_PLACEMENT_3D ( 'NONE', #125, #362, #443 ) ;
#116 = ORIENTED_EDGE ( 'NONE', *, *, #664, .T. ) ;
#117 = EDGE_CURVE ( 'NONE', #212, #1059, #23, .T. ) ;
#118 = DIRECTION ( 'NONE',  ( -0.8557004551367649592, 0.4940388881188988446, 0.1539555393773656411 ) ) ;
#119 = CARTESIAN_POINT ( 'NONE',  ( 93.53074360871929116, -27.00000000000001066, 0.000000000000000000 ) ) ;
#120 = VECTOR ( 'NONE', #749, 1000.000000000000000 ) ;
#121 = PLANE ( 'NONE',  #80 ) ;
#122 = ORIENTED_EDGE ( 'NONE', *, *, #499, .T. ) ;
#123 = AXIS2_PLACEMENT_3D ( 'NONE', #254, #447, #843 ) ;
#124 = CARTESIAN_POINT ( 'NONE',  ( 29.16505278967022363, 11.91207493713725718, 0.000000000000000000 ) ) ;
#125 = CARTESIAN_POINT ( 'NONE',  ( 22.88026253723691283, 16.09947534175542216, -12.99935497757371294 ) ) ;
#126 = ORIENTED_EDGE ( 'NONE', *, *, #634, .T. ) ;
#127 = LINE ( 'NONE', #959, #31 ) ;
#128 = ADVANCED_FACE ( 'NONE', ( #451 ), #860, .F. ) ;
#129 = APPROVAL_STATUS ( 'not_yet_approved' ) ;
#130 = CARTESIAN_POINT ( 'NONE',  ( 83.68939049300777810, -13.23518836079906968, -9.952055505674811897 ) ) ;
#131 = EDGE_LOOP ( 'NONE', ( #665, #418 ) ) ;
#132 = LINE ( 'NONE', #704, #812 ) ;
#133 = PERSON_AND_ORGANIZATION ( #651, #366 ) ;
#134 = VECTOR ( 'NONE', #797, 1000.000000000000341 ) ;
#135 = DIRECTION ( 'NONE',  ( 0.000000000000000000, -0.000000000000000000, 1.000000000000000000 ) ) ;
#136 = EDGE_CURVE ( 'NONE', #101, #870, #611, .T. ) ;
#137 = LINE ( 'NONE', #685, #955 ) ;
#138 = ORIENTED_EDGE ( 'NONE', *, *, #149, .F. ) ;
#139 = CC_DESIGN_APPROVAL ( #408, ( #173 ) ) ;
#140 = DIRECTION ( 'NONE',  ( 0.000000000000000000, 1.551108497285261312E-16, -1.000000000000000000 ) ) ;
#141 = PLANE ( 'NONE',  #640 ) ;
#142 = CARTESIAN_POINT ( 'NONE',  ( 81.18939049300774968, -17.56531537972124823, -9.952055505674781699 ) ) ;
#143 = VERTEX_POINT ( 'NONE', #872 ) ;
#144 = FACE_OUTER_BOUND ( 'NONE', #586, .T. ) ;
#145 = AXIS2_PLACEMENT_3D ( 'NONE', #898, #472, #791 ) ;
#146 = DIRECTION ( 'NONE',  ( -0.8660254037844380415, 0.5000000000000009992, 7.755542486426317654E-17 ) ) ;
#147 = CARTESIAN_POINT ( 'NONE',  ( 51.76537180435971663, 8.660254037844422825, -3.017464012642728205E-14 ) ) ;
#148 = ORIENTED_EDGE ( 'NONE', *, *, #917, .T. ) ;
#149 = EDGE_CURVE ( 'NONE', #155, #800, #62, .T. ) ;
#150 = ADVANCED_FACE ( 'NONE', ( #708, #144 ), #782, .T. ) ;
#151 = VECTOR ( 'NONE', #687, 1000.000000000000114 ) ;
#152 = PERSON_AND_ORGANIZATION_ROLE ( 'design_supplier' ) ;
#153 = DIRECTION ( 'NONE',  ( -0.5000000000000011102, -0.8660254037844380415, 5.977335943528134799E-15 ) ) ;
#154 = CARTESIAN_POINT ( 'NONE',  ( 46.76537180435970242, 4.163336342344337027E-14, 2.959871930885407541E-14 ) ) ;
#155 = VERTEX_POINT ( 'NONE', #208 ) ;
#156 = CC_DESIGN_PERSON_AND_ORGANIZATION_ASSIGNMENT ( #867, #886, ( #784 ) ) ;
#157 = CARTESIAN_POINT ( 'NONE',  ( 79.45733968543886760, -16.56531537972124823, -9.952055505674781699 ) ) ;
#158 = CARTESIAN_POINT ( 'NONE',  ( 3.032000000000023121, 27.00000000000002132, -11.18376618407356737 ) ) ;
#159 = ORIENTED_EDGE ( 'NONE', *, *, #954, .T. ) ;
#160 = EDGE_CURVE ( 'NONE', #655, #325, #776, .T. ) ;
#161 = FACE_OUTER_BOUND ( 'NONE', #686, .T. ) ;
#162 = CARTESIAN_POINT ( 'NONE',  ( 65.88169081904918301, -9.286285912862785707, 0.000000000000000000 ) ) ;
#163 = VERTEX_POINT ( 'NONE', #51 ) ;
#164 = VECTOR ( 'NONE', #823, 1000.000000000000000 ) ;
#165 = DIRECTION ( 'NONE',  ( -0.8660254037844380415, 0.5000000000000009992, -0.000000000000000000 ) ) ;
#166 = CARTESIAN_POINT ( 'NONE',  ( 20.53298087063356192, 18.05050452163649766, -9.062318294452735401 ) ) ;
#167 = EDGE_CURVE ( 'NONE', #599, #155, #692, .T. ) ;
#168 = ORIENTED_EDGE ( 'NONE', *, *, #104, .T. ) ;
#169 = CIRCLE ( 'NONE', #815, 0.7000000000000051736 ) ;
#170 = LINE ( 'NONE', #488, #960 ) ;
#171 = VECTOR ( 'NONE', #713, 1000.000000000000114 ) ;
#172 = CARTESIAN_POINT ( 'NONE',  ( 20.53298087063356192, 18.05050452163649766, -9.062318294452735401 ) ) ;
#173 = PRODUCT_DEFINITION ( 'UNKNOWN', '', #187, #496 ) ;
#174 = CARTESIAN_POINT ( 'NONE',  ( 76.82278367499172589, -14.44842828009060476, 7.913072818604534930 ) ) ;
#175 = ORIENTED_EDGE ( 'NONE', *, *, #227, .T. ) ;
#176 = DIRECTION ( 'NONE',  ( -0.5000000000000011102, -0.8660254037844380415, 5.977335943528134799E-15 ) ) ;
#177 = CARTESIAN_POINT ( 'NONE',  ( 100.0000000000000000, -27.00000000000001066, -11.18376618407356737 ) ) ;
#178 = CARTESIAN_POINT ( 'NONE',  ( 19.20654647564530038, 17.66162123826604358, -15.18685953791497312 ) ) ;
#179 = ORIENTED_EDGE ( 'NONE', *, *, #70, .T. ) ;
#180 = ORIENTED_EDGE ( 'NONE', *, *, #587, .T. ) ;
#181 = EDGE_CURVE ( 'NONE', #376, #212, #616, .T. ) ;
#182 = DIRECTION ( 'NONE',  ( -0.8660254037844382635, 0.5000000000000006661, 0.000000000000000000 ) ) ;
#183 = CYLINDRICAL_SURFACE ( 'NONE', #123, 0.6999999999999984013 ) ;
#184 = VECTOR ( 'NONE', #83, 1000.000000000000114 ) ;
#185 = ORIENTED_EDGE ( 'NONE', *, *, #90, .F. ) ;
#186 = PLANE ( 'NONE',  #873 ) ;
#187 = PRODUCT_DEFINITION_FORMATION_WITH_SPECIFIED_SOURCE ( 'ANY', '', #199, .NOT_KNOWN. ) ;
#188 = APPROVAL_STATUS ( 'not_yet_approved' ) ;
#189 = DIRECTION ( 'NONE',  ( 0.8660254037844389297, -0.4999999999999993339, 0.000000000000000000 ) ) ;
#190 = ORIENTED_EDGE ( 'NONE', *, *, #47, .T. ) ;
#191 = ORIENTED_EDGE ( 'NONE', *, *, #326, .T. ) ;
#192 = CARTESIAN_POINT ( 'NONE',  ( 65.12369081904917323, -10.59918042499997881, -1.479114197289397135E-28 ) ) ;
#193 = EDGE_CURVE ( 'NONE', #579, #63, #213, .T. ) ;
#194 = LINE ( 'NONE', #35, #991 ) ;
#195 = CARTESIAN_POINT ( 'NONE',  ( 93.14619333277298097, -25.02745377848257746, -13.15631240559099879 ) ) ;
#196 = EDGE_LOOP ( 'NONE', ( #491, #751, #1014, #772 ) ) ;
#197 = PLANE ( 'NONE',  #275 ) ;
#198 = FACE_OUTER_BOUND ( 'NONE', #196, .T. ) ;
#199 = PRODUCT ( 'TopRight', 'TopRight', '', ( #777 ) ) ;
#200 = EDGE_CURVE ( 'NONE', #865, #1059, #132, .T. ) ;
#201 = FACE_BOUND ( 'NONE', #131, .T. ) ;
#202 = AXIS2_PLACEMENT_3D ( 'NONE', #519, #364, #856 ) ;
#203 = ORIENTED_EDGE ( 'NONE', *, *, #693, .T. ) ;
#204 = DIRECTION ( 'NONE',  ( -0.000000000000000000, 0.7071067811865475727, 0.7071067811865475727 ) ) ;
#205 = CYLINDRICAL_SURFACE ( 'NONE', #207, 0.6999999999999984013 ) ;
#206 = ORIENTED_EDGE ( 'NONE', *, *, #963, .F. ) ;
#207 = AXIS2_PLACEMENT_3D ( 'NONE', #130, #694, #441 ) ;
#208 = CARTESIAN_POINT ( 'NONE',  ( 82.05360827565687032, -17.46844627136848871, -9.952055505674785252 ) ) ;
#209 = ORIENTED_EDGE ( 'NONE', *, *, #379, .T. ) ;
#210 = DIRECTION ( 'NONE',  ( 1.000000000000000000, 0.000000000000000000, 0.000000000000000000 ) ) ;
#211 = DIRECTION ( 'NONE',  ( -0.9184855229425218370, 0.000000000000000000, 0.3954546044048573017 ) ) ;
#212 = VERTEX_POINT ( 'NONE', #619 ) ;
#213 = LINE ( 'NONE', #697, #99 ) ;
#214 = EDGE_CURVE ( 'NONE', #921, #63, #894, .T. ) ;
#215 = COORDINATED_UNIVERSAL_TIME_OFFSET ( 5, 0, .BEHIND. ) ;
#216 = LINE ( 'NONE', #304, #922 ) ;
#217 = CARTESIAN_POINT ( 'NONE',  ( 22.88026253723691283, 16.09947534175542216, -12.99935497757371294 ) ) ;
#218 = VERTEX_POINT ( 'NONE', #307 ) ;
#219 = AXIS2_PLACEMENT_3D ( 'NONE', #1013, #280, #284 ) ;
#220 = CARTESIAN_POINT ( 'NONE',  ( 96.56274360871945817, -27.00000000000001066, 0.000000000000000000 ) ) ;
#221 = DIRECTION ( 'NONE',  ( -0.5000000000000009992, -0.8660254037844380415, 6.143007653609040251E-15 ) ) ;
#222 = CARTESIAN_POINT ( 'NONE',  ( 21.14821172966803786, 17.09947534175542216, -12.99935497757371294 ) ) ;
#223 = ORIENTED_EDGE ( 'NONE', *, *, #932, .T. ) ;
#224 = VECTOR ( 'NONE', #809, 1000.000000000000114 ) ;
#225 = DIRECTION ( 'NONE',  ( 0.000000000000000000, -1.000000000000000000, -1.551108497285261312E-16 ) ) ;
#226 = VECTOR ( 'NONE', #526, 1000.000000000000114 ) ;
#227 = EDGE_CURVE ( 'NONE', #95, #527, #1043, .T. ) ;
#228 = DIRECTION ( 'NONE',  ( -0.5000000000000008882, -0.8660254037844381525, 6.161737786669618799E-15 ) ) ;
#229 = DIRECTION ( 'NONE',  ( -0.5000000000000009992, -0.8660254037844381525, 5.977335943528133221E-15 ) ) ;
#230 = ADVANCED_FACE ( 'NONE', ( #597 ), #106, .F. ) ;
#231 = ORIENTED_EDGE ( 'NONE', *, *, #884, .F. ) ;
#232 = ORIENTED_EDGE ( 'NONE', *, *, #974, .T. ) ;
#233 = AXIS2_PLACEMENT_3D ( 'NONE', #668, #902, #658 ) ;
#234 = CARTESIAN_POINT ( 'NONE',  ( 77.85346186766014398, -16.19819115045497071, -8.560878586127810053 ) ) ;
#235 = DIRECTION ( 'NONE',  ( -0.5000000000000008882, -0.8660254037844381525, 6.161737786669618799E-15 ) ) ;
#236 = ORIENTED_EDGE ( 'NONE', *, *, #547, .F. ) ;
#237 = VECTOR ( 'NONE', #308, 1000.000000000000000 ) ;
#238 = AXIS2_PLACEMENT_3D ( 'NONE', #837, #340, #927 ) ;
#239 = CARTESIAN_POINT ( 'NONE',  ( 20.03298087063356192, 17.18447911785205662, -9.062318294452731848 ) ) ;
#240 = LINE ( 'NONE', #566, #514 ) ;
#241 = VECTOR ( 'NONE', #913, 1000.000000000000000 ) ;
#242 = ORIENTED_EDGE ( 'NONE', *, *, #312, .T. ) ;
#243 = EDGE_CURVE ( 'NONE', #512, #978, #495, .T. ) ;
#244 = LINE ( 'NONE', #263, #120 ) ;
#245 = DIRECTION ( 'NONE',  ( -0.7745966692414802957, 0.4472135954999605367, 0.4472135954999605367 ) ) ;
#246 = ORIENTED_EDGE ( 'NONE', *, *, #483, .T. ) ;
#247 = ADVANCED_FACE ( 'NONE', ( #4, #423 ), #915, .T. ) ;
#248 = CARTESIAN_POINT ( 'NONE',  ( 0.000000000000000000, 27.00000000000001776, 0.000000000000000000 ) ) ;
#249 = CARTESIAN_POINT ( 'NONE',  ( 82.46910309167182618, -18.86303285362072657, 8.674520339817894055 ) ) ;
#250 = ORIENTED_EDGE ( 'NONE', *, *, #193, .F. ) ;
#251 = CIRCLE ( 'NONE', #469, 21.19836084999999670 ) ;
#252 = DIRECTION ( 'NONE',  ( 0.8660254037844377084, -0.5000000000000015543, 0.000000000000000000 ) ) ;
#253 = DIRECTION ( 'NONE',  ( 0.8660254037844380415, -0.5000000000000009992, 0.000000000000000000 ) ) ;
#254 = CARTESIAN_POINT ( 'NONE',  ( 83.68939049300777810, -13.23518836079906968, -9.952055505674811897 ) ) ;
#255 = ORIENTED_EDGE ( 'NONE', *, *, #279, .T. ) ;
#256 = VECTOR ( 'NONE', #577, 1000.000000000000114 ) ;
#257 = FACE_BOUND ( 'NONE', #720, .T. ) ;
#258 = EDGE_CURVE ( 'NONE', #101, #510, #746, .T. ) ;
#259 = CARTESIAN_POINT ( 'NONE',  ( 81.32675349102929374, -17.04879646580199193, -13.23747558504951094 ) ) ;
#260 = EDGE_CURVE ( 'NONE', #669, #1002, #110, .T. ) ;
#261 = ORIENTED_EDGE ( 'NONE', *, *, #1017, .T. ) ;
#262 = EDGE_LOOP ( 'NONE', ( #1055, #937, #543, #180 ) ) ;
#263 = CARTESIAN_POINT ( 'NONE',  ( 96.56274360871933027, -27.00000000000001066, 4.107015509994943329E-14 ) ) ;
#264 = CARTESIAN_POINT ( 'NONE',  ( 20.53298087063356192, 18.05050452163649766, -9.062318294452735401 ) ) ;
#265 = DIRECTION ( 'NONE',  ( -0.5000000000000008882, -0.8660254037844381525, 6.161737786669618799E-15 ) ) ;
#266 = ORIENTED_EDGE ( 'NONE', *, *, #773, .T. ) ;
#267 = ORIENTED_EDGE ( 'NONE', *, *, #160, .F. ) ;
#268 = COORDINATED_UNIVERSAL_TIME_OFFSET ( 5, 0, .BEHIND. ) ;
#269 = LINE ( 'NONE', #654, #38 ) ;
#270 = ORIENTED_EDGE ( 'NONE', *, *, #279, .F. ) ;
#271 = ORIENTED_EDGE ( 'NONE', *, *, #1004, .T. ) ;
#272 = EDGE_CURVE ( 'NONE', #747, #923, #22, .T. ) ;
#273 = LOCAL_TIME ( 4, 23, 10.00000000000000000, #879 ) ;
#274 = PLANE ( 'NONE',  #487 ) ;
#275 = AXIS2_PLACEMENT_3D ( 'NONE', #826, #118, #765 ) ;
#276 = ORIENTED_EDGE ( 'NONE', *, *, #453, .F. ) ;
#277 = ORIENTED_EDGE ( 'NONE', *, *, #664, .F. ) ;
#278 = FACE_OUTER_BOUND ( 'NONE', #877, .T. ) ;
#279 = EDGE_CURVE ( 'NONE', #510, #143, #137, .T. ) ;
#280 = DIRECTION ( 'NONE',  ( 0.5000000000000008882, 0.8660254037844381525, -6.161737786669618799E-15 ) ) ;
#281 = VERTEX_POINT ( 'NONE', #1026 ) ;
#282 = CARTESIAN_POINT ( 'NONE',  ( 78.35346186766014398, -15.33216574667051724, -8.560878586127826040 ) ) ;
#283 = PERSON_AND_ORGANIZATION ( #651, #366 ) ;
#284 = DIRECTION ( 'NONE',  ( 0.8660254037844382635, -0.5000000000000006661, 0.000000000000000000 ) ) ;
#285 = ORIENTED_EDGE ( 'NONE', *, *, #167, .T. ) ;
#286 = DIRECTION ( 'NONE',  ( -0.5000000000000011102, -0.8660254037844380415, 5.977335943528134799E-15 ) ) ;
#287 = ORIENTED_EDGE ( 'NONE', *, *, #744, .T. ) ;
#288 =( NAMED_UNIT ( * ) PLANE_ANGLE_UNIT ( ) SI_UNIT ( $, .RADIAN. ) );
#289 = CARTESIAN_POINT ( 'NONE',  ( 84.81879374006662431, -19.06492684360469880, -11.23280832101609761 ) ) ;
#290 = VERTEX_POINT ( 'NONE', #947 ) ;
#291 = EDGE_CURVE ( 'NONE', #101, #281, #769, .T. ) ;
#292 = CARTESIAN_POINT ( 'NONE',  ( 31.07037663211116296, 11.96673624218953513, -42.08803466030801133 ) ) ;
#293 = PERSON_AND_ORGANIZATION_ROLE ( 'creator' ) ;
#294 = DIRECTION ( 'NONE',  ( 0.8660254037844389297, -0.4999999999999993339, 0.000000000000000000 ) ) ;
#295 = ORIENTED_EDGE ( 'NONE', *, *, #193, .T. ) ;
#296 = LINE ( 'NONE', #938, #656 ) ;
#297 = CARTESIAN_POINT ( 'NONE',  ( 83.17485576886733156, -18.11579881340175291, -12.17653989337468978 ) ) ;
#298 = CYLINDRICAL_SURFACE ( 'NONE', #327, 1.999999999999998668 ) ;
#299 = ORIENTED_EDGE ( 'NONE', *, *, #848, .T. ) ;
#300 = VECTOR ( 'NONE', #878, 1000.000000000000227 ) ;
#301 = CARTESIAN_POINT ( 'NONE',  ( 78.35346186766014398, -15.33216574667051724, -8.560878586127826040 ) ) ;
#302 = EDGE_CURVE ( 'NONE', #163, #655, #536, .T. ) ;
#303 = DATE_TIME_ROLE ( 'classification_date' ) ;
#304 = CARTESIAN_POINT ( 'NONE',  ( 30.57037663211116296, 11.10071083840509765, -42.08803466030800422 ) ) ;
#305 = DIRECTION ( 'NONE',  ( -0.9184855229425061829, 0.000000000000000000, -0.3954546044048937725 ) ) ;
#306 = ORIENTED_EDGE ( 'NONE', *, *, #1032, .F. ) ;
#307 = CARTESIAN_POINT ( 'NONE',  ( 80.82675349102927953, -17.91482186958643652, -13.23747558504950739 ) ) ;
#308 = DIRECTION ( 'NONE',  ( 0.8660254037844380415, -0.5000000000000009992, 0.000000000000000000 ) ) ;
#309 = LINE ( 'NONE', #387, #492 ) ;
#310 = ORIENTED_EDGE ( 'NONE', *, *, #392, .F. ) ;
#311 = CARTESIAN_POINT ( 'NONE',  ( 81.92144130057661755, -20.29736618729012676, -9.952055505674769265 ) ) ;
#312 = EDGE_CURVE ( 'NONE', #865, #376, #986, .T. ) ;
#313 = PLANE ( 'NONE',  #550 ) ;
#314 = ORIENTED_EDGE ( 'NONE', *, *, #318, .T. ) ;
#315 = FACE_OUTER_BOUND ( 'NONE', #430, .T. ) ;
#316 = CARTESIAN_POINT ( 'NONE',  ( 80.18939049300774968, -19.29736618729012321, -9.952055505674769265 ) ) ;
#317 = ORIENTED_EDGE ( 'NONE', *, *, #463, .T. ) ;
#318 = EDGE_CURVE ( 'NONE', #712, #921, #36, .T. ) ;
#319 = CYLINDRICAL_SURFACE ( 'NONE', #880, 0.7000000000000051736 ) ;
#320 = CARTESIAN_POINT ( 'NONE',  ( 83.75570819111382548, -19.60585465412442474, -5.172590037003363506 ) ) ;
#321 = CARTESIAN_POINT ( 'NONE',  ( 26.39655200392931178, 14.66517014941564234, -12.42840466888661055 ) ) ;
#322 = ORIENTED_EDGE ( 'NONE', *, *, #793, .T. ) ;
#323 = DIRECTION ( 'NONE',  ( -0.5000000000000009992, -0.8660254037844381525, 5.995204332975845318E-15 ) ) ;
#324 = LINE ( 'NONE', #172, #30 ) ;
#325 = VERTEX_POINT ( 'NONE', #289 ) ;
#326 = EDGE_CURVE ( 'NONE', #538, #642, #762, .T. ) ;
#327 = AXIS2_PLACEMENT_3D ( 'NONE', #537, #869, #780 ) ;
#328 = FACE_OUTER_BOUND ( 'NONE', #636, .T. ) ;
#329 = ADVANCED_FACE ( 'NONE', ( #358 ), #1020, .F. ) ;
#330 = LINE ( 'NONE', #259, #256 ) ;
#331 = ORIENTED_EDGE ( 'NONE', *, *, #258, .T. ) ;
#332 = EDGE_LOOP ( 'NONE', ( #490, #270, #335, #203 ) ) ;
#333 = CARTESIAN_POINT ( 'NONE',  ( 12.44934295108998157, 21.56289451213725883, 0.000000000000000000 ) ) ;
#334 = CARTESIAN_POINT ( 'NONE',  ( 26.39655200392931178, 14.66517014941564234, -12.42840466888661055 ) ) ;
#335 = ORIENTED_EDGE ( 'NONE', *, *, #82, .T. ) ;
#336 = ORIENTED_EDGE ( 'NONE', *, *, #326, .F. ) ;
#337 = LINE ( 'NONE', #177, #241 ) ;
#338 = LINE ( 'NONE', #97, #384 ) ;
#339 = ADVANCED_FACE ( 'NONE', ( #1030 ), #449, .T. ) ;
#340 = DIRECTION ( 'NONE',  ( 0.3855336798599461878, -0.2225879738488137916, -0.8954431168932667218 ) ) ;
#341 = EDGE_LOOP ( 'NONE', ( #336, #261, #168, #310 ) ) ;
#342 = PLANE ( 'NONE',  #457 ) ;
#343 = DATE_AND_TIME ( #753, #85 ) ;
#344 = VECTOR ( 'NONE', #584, 1000.000000000000000 ) ;
#345 = DIRECTION ( 'NONE',  ( 0.8660254037844382635, -0.5000000000000006661, 0.000000000000000000 ) ) ;
#346 = ORIENTED_EDGE ( 'NONE', *, *, #1032, .T. ) ;
#347 = ORIENTED_EDGE ( 'NONE', *, *, #33, .F. ) ;
#348 = ADVANCED_FACE ( 'NONE', ( #28 ), #530, .T. ) ;
#349 = VECTOR ( 'NONE', #662, 1000.000000000000114 ) ;
#350 = AXIS2_PLACEMENT_3D ( 'NONE', #334, #663, #996 ) ;
#351 = CARTESIAN_POINT ( 'NONE',  ( 23.13826253723692972, 16.54634445010821864, -12.99935497757371472 ) ) ;
#352 = CARTESIAN_POINT ( 'NONE',  ( 20.03298087063356192, 17.18447911785205662, -9.062318294452731848 ) ) ;
#353 = ORIENTED_EDGE ( 'NONE', *, *, #243, .T. ) ;
#354 = CARTESIAN_POINT ( 'NONE',  ( 12.94934295108998690, 22.42891991592170342, -1.552500455496818185E-13 ) ) ;
#355 = CC_DESIGN_PERSON_AND_ORGANIZATION_ASSIGNMENT ( #950, #293, ( #187 ) ) ;
#356 = DIRECTION ( 'NONE',  ( 0.000000000000000000, -1.000000000000000000, -1.551108497285260326E-16 ) ) ;
#357 = AXIS2_PLACEMENT_3D ( 'NONE', #142, #553, #888 ) ;
#358 = FACE_OUTER_BOUND ( 'NONE', #944, .T. ) ;
#359 = VERTEX_POINT ( 'NONE', #617 ) ;
#360 = CARTESIAN_POINT ( 'NONE',  ( 21.14821172966803786, 17.09947534175542216, -12.99935497757371294 ) ) ;
#361 = ADVANCED_FACE ( 'NONE', ( #853 ), #298, .F. ) ;
#362 = DIRECTION ( 'NONE',  ( -0.5000000000000009992, -0.8660254037844381525, 6.143007653609041040E-15 ) ) ;
#363 = EDGE_LOOP ( 'NONE', ( #89, #674, #346, #680 ) ) ;
#364 = DIRECTION ( 'NONE',  ( 0.5000000000000009992, 0.8660254037844381525, -5.995204332975845318E-15 ) ) ;
#365 = CALENDAR_DATE ( 2026, 7, 4 ) ;
#366 = ORGANIZATION ( 'UNSPECIFIED', 'UNSPECIFIED', '' ) ;
#367 = DIRECTION ( 'NONE',  ( -0.5000000000000008882, -0.8660254037844380415, 6.143007653609040251E-15 ) ) ;
#368 = ORIENTED_EDGE ( 'NONE', *, *, #779, .T. ) ;
#369 = LINE ( 'NONE', #445, #1063 ) ;
#370 = CARTESIAN_POINT ( 'NONE',  ( 11.69134295108997712, 20.25000000000004263, 0.000000000000000000 ) ) ;
#371 = CARTESIAN_POINT ( 'NONE',  ( 20.53298087063356192, 18.05050452163649766, -9.062318294452735401 ) ) ;
#372 = ORIENTED_EDGE ( 'NONE', *, *, #954, .F. ) ;
#373 = CARTESIAN_POINT ( 'NONE',  ( 82.19613239969733343, -17.55073261274927177, -12.58002564965451597 ) ) ;
#374 = DIRECTION ( 'NONE',  ( -0.5000000000000008882, -0.8660254037844381525, 6.161737786669618799E-15 ) ) ;
#375 = DIRECTION ( 'NONE',  ( -0.5000000000000011102, -0.8660254037844380415, 5.977335943528134799E-15 ) ) ;
#376 = VERTEX_POINT ( 'NONE', #222 ) ;
#377 = AXIS2_PLACEMENT_3D ( 'NONE', #957, #429, #603 ) ;
#378 = DIRECTION ( 'NONE',  ( 0.7754764868734882466, -0.4477215584466318066, 0.4451759476976176466 ) ) ;
#379 = EDGE_CURVE ( 'NONE', #400, #834, #623, .T. ) ;
#380 = PLANE ( 'NONE',  #540 ) ;
#381 = DIRECTION ( 'NONE',  ( -0.1025311938217849245, 0.05919641235333444884, -0.9929668368369476417 ) ) ;
#382 = EDGE_LOOP ( 'NONE', ( #450, #1027, #818, #813 ) ) ;
#383 = AXIS2_PLACEMENT_3D ( 'NONE', #410, #565, #648 ) ;
#384 = VECTOR ( 'NONE', #842, 1000.000000000000000 ) ;
#385 = ORIENTED_EDGE ( 'NONE', *, *, #841, .F. ) ;
#386 = DIRECTION ( 'NONE',  ( 0.8660254037844381525, -0.5000000000000007772, 0.000000000000000000 ) ) ;
#387 = CARTESIAN_POINT ( 'NONE',  ( 100.0000000000000000, -11.18376618407356737, -27.00000000000001066 ) ) ;
#388 = EDGE_LOOP ( 'NONE', ( #1031, #1011, #406, #468 ) ) ;
#389 = UNCERTAINTY_MEASURE_WITH_UNIT (LENGTH_MEASURE( 1.000000000000000082E-05 ), #600, 'distance_accuracy_value', 'NONE');
#390 = LINE ( 'NONE', #717, #1060 ) ;
#391 = DIRECTION ( 'NONE',  ( 0.8660254037844381525, -0.5000000000000007772, 0.000000000000000000 ) ) ;
#392 = EDGE_CURVE ( 'NONE', #642, #948, #851, .T. ) ;
#393 = ORIENTED_EDGE ( 'NONE', *, *, #260, .F. ) ;
#394 = CARTESIAN_POINT ( 'NONE',  ( 69.16822305514550351, -11.18376618407356737, -27.00000000000001421 ) ) ;
#395 = LINE ( 'NONE', #249, #1051 ) ;
#396 = ORIENTED_EDGE ( 'NONE', *, *, #825, .T. ) ;
#397 = DIRECTION ( 'NONE',  ( 0.5000000000000008882, 0.8660254037844382635, -5.793907526276447116E-15 ) ) ;
#398 = DIRECTION ( 'NONE',  ( 1.000000000000000000, 0.000000000000000000, 0.000000000000000000 ) ) ;
#399 = DIRECTION ( 'NONE',  ( -0.1025311938217849245, 0.05919641235333444884, -0.9929668368369476417 ) ) ;
#400 = VERTEX_POINT ( 'NONE', #936 ) ;
#401 = ADVANCED_FACE ( 'NONE', ( #201, #516, #609 ), #121, .F. ) ;
#402 = CIRCLE ( 'NONE', #581, 1.999999999999995781 ) ;
#403 = DIRECTION ( 'NONE',  ( 0.8660254037844379305, -0.5000000000000012212, 0.000000000000000000 ) ) ;
#404 = CARTESIAN_POINT ( 'NONE',  ( 22.27404475458780198, 16.44947534175542359, -12.99935497757371117 ) ) ;
#405 = VECTOR ( 'NONE', #221, 1000.000000000000114 ) ;
#406 = ORIENTED_EDGE ( 'NONE', *, *, #160, .T. ) ;
#407 = EDGE_LOOP ( 'NONE', ( #190, #271 ) ) ;
#408 = APPROVAL ( #129, 'UNSPECIFIED' ) ;
#409 = VECTOR ( 'NONE', #949, 1000.000000000000114 ) ;
#410 = CARTESIAN_POINT ( 'NONE',  ( 81.69613239969733343, -18.41675801653370925, -12.58002564965451064 ) ) ;
#411 = CARTESIAN_POINT ( 'NONE',  ( 100.0000000000000000, -27.00000000000001066, 0.000000000000000000 ) ) ;
#412 = EDGE_LOOP ( 'NONE', ( #531, #895 ) ) ;
#413 = CC_DESIGN_APPROVAL ( #528, ( #784 ) ) ;
#414 = ORIENTED_EDGE ( 'NONE', *, *, #47, .F. ) ;
#415 = LINE ( 'NONE', #12, #1044 ) ;
#416 = ADVANCED_FACE ( 'NONE', ( #810 ), #964, .T. ) ;
#417 = CARTESIAN_POINT ( 'NONE',  ( 76.32278367499172589, -15.31445368387504224, 7.913072818604540259 ) ) ;
#418 = ORIENTED_EDGE ( 'NONE', *, *, #117, .F. ) ;
#419 = CARTESIAN_POINT ( 'NONE',  ( 25.75328982363937769, 15.03655774236549902, -18.65809915122688167 ) ) ;
#420 = COORDINATED_UNIVERSAL_TIME_OFFSET ( 5, 0, .BEHIND. ) ;
#421 = CARTESIAN_POINT ( 'NONE',  ( 25.38026253723691994, 20.42960236067761315, -12.99935497757374137 ) ) ;
#422 = EDGE_CURVE ( 'NONE', #733, #497, #645, .T. ) ;
#423 = FACE_OUTER_BOUND ( 'NONE', #5, .T. ) ;
#424 = VERTEX_POINT ( 'NONE', #320 ) ;
#425 = FACE_BOUND ( 'NONE', #555, .T. ) ;
#426 = DIRECTION ( 'NONE',  ( 0.8660254037844380415, -0.5000000000000009992, 0.000000000000000000 ) ) ;
#427 = VECTOR ( 'NONE', #951, 1000.000000000000227 ) ;
#428 = FACE_OUTER_BOUND ( 'NONE', #705, .T. ) ;
#429 = DIRECTION ( 'NONE',  ( -0.5000000000000009992, -0.8660254037844381525, 5.995204332975845318E-15 ) ) ;
#430 = EDGE_LOOP ( 'NONE', ( #968, #889, #372, #824 ) ) ;
#431 = CC_DESIGN_PERSON_AND_ORGANIZATION_ASSIGNMENT ( #534, #152, ( #187 ) ) ;
#432 = ORIENTED_EDGE ( 'NONE', *, *, #243, .F. ) ;
#433 = AXIS2_PLACEMENT_3D ( 'NONE', #828, #323, #983 ) ;
#434 = PERSON_AND_ORGANIZATION ( #651, #366 ) ;
#435 = VECTOR ( 'NONE', #93, 1000.000000000000000 ) ;
#436 = ORIENTED_EDGE ( 'NONE', *, *, #506, .T. ) ;
#437 = CARTESIAN_POINT ( 'NONE',  ( 12.69134295108997890, 21.98205080756892116, -1.563639945845070330E-13 ) ) ;
#438 = EDGE_CURVE ( 'NONE', #870, #424, #461, .T. ) ;
#439 = EDGE_CURVE ( 'NONE', #563, #1065, #251, .T. ) ;
#440 = CARTESIAN_POINT ( 'NONE',  ( 0.000000000000000000, 0.000000000000000000, 0.000000000000000000 ) ) ;
#441 = DIRECTION ( 'NONE',  ( 0.8660254037844368202, -0.5000000000000031086, 0.000000000000000000 ) ) ;
#442 = VECTOR ( 'NONE', #381, 1000.000000000000227 ) ;
#443 = DIRECTION ( 'NONE',  ( 0.8660254037844381525, -0.5000000000000007772, 0.000000000000000000 ) ) ;
#444 = ORIENTED_EDGE ( 'NONE', *, *, #621, .T. ) ;
#445 = CARTESIAN_POINT ( 'NONE',  ( 70.12369081904918744, -1.938926387155601505, 0.000000000000000000 ) ) ;
#446 = DATE_AND_TIME ( #847, #891 ) ;
#447 = DIRECTION ( 'NONE',  ( -0.5000000000000008882, -0.8660254037844380415, 6.143007653609040251E-15 ) ) ;
#448 = VECTOR ( 'NONE', #1034, 1000.000000000000114 ) ;
#449 = PLANE ( 'NONE',  #710 ) ;
#450 = ORIENTED_EDGE ( 'NONE', *, *, #984, .F. ) ;
#451 = FACE_OUTER_BOUND ( 'NONE', #509, .T. ) ;
#452 = APPROVAL_ROLE ( '' ) ;
#453 = EDGE_CURVE ( 'NONE', #923, #669, #240, .T. ) ;
#454 = LINE ( 'NONE', #881, #448 ) ;
#455 = DIRECTION ( 'NONE',  ( 0.8660254037844381525, -0.5000000000000007772, 0.000000000000000000 ) ) ;
#456 = ORIENTED_EDGE ( 'NONE', *, *, #652, .T. ) ;
#457 = AXIS2_PLACEMENT_3D ( 'NONE', #625, #225, #140 ) ;
#458 = DIRECTION ( 'NONE',  ( -1.000000000000000000, 0.000000000000000000, 0.000000000000000000 ) ) ;
#459 = DATE_AND_TIME ( #365, #731 ) ;
#460 = CARTESIAN_POINT ( 'NONE',  ( 100.0000000000000000, -27.00000000000001066, 0.000000000000000000 ) ) ;
#461 = LINE ( 'NONE', #882, #798 ) ;
#462 = EDGE_LOOP ( 'NONE', ( #231, #513, #295, #11 ) ) ;
#463 = EDGE_CURVE ( 'NONE', #757, #112, #65, .T. ) ;
#464 = DIRECTION ( 'NONE',  ( -0.5000000000000008882, -0.8660254037844381525, 6.161737786669618799E-15 ) ) ;
#465 = SHAPE_DEFINITION_REPRESENTATION ( #689, #520 ) ;
#466 = DIRECTION ( 'NONE',  ( 0.8660254037844377084, -0.5000000000000015543, 0.000000000000000000 ) ) ;
#467 = CARTESIAN_POINT ( 'NONE',  ( 66.69170411071429783, -9.753947304853138434, -47.93771348892672535 ) ) ;
#468 = ORIENTED_EDGE ( 'NONE', *, *, #33, .T. ) ;
#469 = AXIS2_PLACEMENT_3D ( 'NONE', #154, #799, #67 ) ;
#470 = ORIENTED_EDGE ( 'NONE', *, *, #392, .T. ) ;
#471 = CARTESIAN_POINT ( 'NONE',  ( 81.18939049300774968, -17.56531537972124823, -9.952055505674781699 ) ) ;
#472 = DIRECTION ( 'NONE',  ( 0.000000000000000000, -0.7071067811865475727, 0.7071067811865475727 ) ) ;
#473 = ORIENTED_EDGE ( 'NONE', *, *, #734, .T. ) ;
#474 = EDGE_CURVE ( 'NONE', #834, #359, #629, .T. ) ;
#475 = FACE_OUTER_BOUND ( 'NONE', #24, .T. ) ;
#476 = DIRECTION ( 'NONE',  ( 0.09238486345163493541, -0.05333842578285526853, -0.9942937439911958553 ) ) ;
#477 = ORIENTED_EDGE ( 'NONE', *, *, #564, .F. ) ;
#478 = CARTESIAN_POINT ( 'NONE',  ( 27.39452055357329741, 11.18376618407357981, -27.00000000000000711 ) ) ;
#479 = FACE_OUTER_BOUND ( 'NONE', #382, .T. ) ;
#480 = ORIENTED_EDGE ( 'NONE', *, *, #200, .T. ) ;
#481 = VECTOR ( 'NONE', #378, 1000.000000000000114 ) ;
#482 = PLANE ( 'NONE',  #485 ) ;
#483 = EDGE_CURVE ( 'NONE', #930, #560, #402, .T. ) ;
#484 = DIRECTION ( 'NONE',  ( -0.3855336798601127768, 0.2225879738488976134, -0.8954431168931741292 ) ) ;
#485 = AXIS2_PLACEMENT_3D ( 'NONE', #735, #501, #7 ) ;
#486 = ORIENTED_EDGE ( 'NONE', *, *, #917, .F. ) ;
#487 = AXIS2_PLACEMENT_3D ( 'NONE', #166, #484, #990 ) ;
#488 = CARTESIAN_POINT ( 'NONE',  ( 33.40705278967023872, 19.25943446284444960, 0.000000000000000000 ) ) ;
#489 = LINE ( 'NONE', #590, #635 ) ;
#490 = ORIENTED_EDGE ( 'NONE', *, *, #773, .F. ) ;
#491 = ORIENTED_EDGE ( 'NONE', *, *, #862, .F. ) ;
#492 = VECTOR ( 'NONE', #723, 1000.000000000000000 ) ;
#493 = DIRECTION ( 'NONE',  ( 0.8660254037844382635, -0.5000000000000006661, 0.000000000000000000 ) ) ;
#494 = CARTESIAN_POINT ( 'NONE',  ( 28.40705278967023162, 10.59918042500006230, -1.479114197289397135E-28 ) ) ;
#495 = LINE ( 'NONE', #195, #641 ) ;
#496 = DESIGN_CONTEXT ( 'detailed design', #795, 'design' ) ;
#497 = VERTEX_POINT ( 'NONE', #158 ) ;
#498 = ORIENTED_EDGE ( 'NONE', *, *, #474, .T. ) ;
#499 = EDGE_CURVE ( 'NONE', #424, #792, #395, .T. ) ;
#500 = VECTOR ( 'NONE', #679, 1000.000000000000227 ) ;
#501 = DIRECTION ( 'NONE',  ( -0.8610836411203162122, 0.4971468719955983162, -0.1066768515657019883 ) ) ;
#502 = CARTESIAN_POINT ( 'NONE',  ( 80.84117271035866281, -16.76844627136848942, -9.952055505674785252 ) ) ;
#503 = ORIENTED_EDGE ( 'NONE', *, *, #422, .T. ) ;
#504 = DIRECTION ( 'NONE',  ( 0.8660254037844379305, -0.5000000000000012212, 0.000000000000000000 ) ) ;
#505 = FACE_OUTER_BOUND ( 'NONE', #262, .T. ) ;
#506 = EDGE_CURVE ( 'NONE', #921, #834, #649, .T. ) ;
#507 = CARTESIAN_POINT ( 'NONE',  ( 0.000000000000000000, 0.000000000000000000, 0.000000000000000000 ) ) ;
#508 = DIRECTION ( 'NONE',  ( -0.8660254037844380415, 0.5000000000000009992, -0.000000000000000000 ) ) ;
#509 = EDGE_LOOP ( 'NONE', ( #432, #159, #831, #236 ) ) ;
#510 = VERTEX_POINT ( 'NONE', #807 ) ;
#511 = DIRECTION ( 'NONE',  ( 1.000000000000000000, 0.000000000000000000, 0.000000000000000000 ) ) ;
#512 = VERTEX_POINT ( 'NONE', #711 ) ;
#513 = ORIENTED_EDGE ( 'NONE', *, *, #997, .F. ) ;
#514 = VECTOR ( 'NONE', #245, 1000.000000000000227 ) ;
#515 = ADVANCED_FACE ( 'NONE', ( #75 ), #562, .F. ) ;
#516 = FACE_BOUND ( 'NONE', #412, .T. ) ;
#517 = ORIENTED_EDGE ( 'NONE', *, *, #272, .F. ) ;
#518 = ADVANCED_FACE ( 'NONE', ( #1041 ), #1047, .F. ) ;
#519 = CARTESIAN_POINT ( 'NONE',  ( 81.44739049300777367, -17.11844627136848729, -9.952055505674785252 ) ) ;
#520 = ADVANCED_BREP_SHAPE_REPRESENTATION ( 'TopRight', ( #700, #521 ), #592 ) ;
#521 = AXIS2_PLACEMENT_3D ( 'NONE', #1005, #935, #210 ) ;
#522 = PLANE ( 'NONE',  #627 ) ;
#523 = CARTESIAN_POINT ( 'NONE',  ( 81.44739049300777367, -17.11844627136848729, -9.952055505674785252 ) ) ;
#524 = CARTESIAN_POINT ( 'NONE',  ( 86.69134295108979416, -23.05127018922209459, -27.00000000000001421 ) ) ;
#525 = ORIENTED_EDGE ( 'NONE', *, *, #149, .T. ) ;
#526 = DIRECTION ( 'NONE',  ( -0.5000000000000009992, -0.8660254037844380415, 6.143007653609040251E-15 ) ) ;
#527 = VERTEX_POINT ( 'NONE', #162 ) ;
#528 = APPROVAL ( #699, 'UNSPECIFIED' ) ;
#529 = APPROVAL_ROLE ( '' ) ;
#530 = CYLINDRICAL_SURFACE ( 'NONE', #554, 1.200000000000015055 ) ;
#531 = ORIENTED_EDGE ( 'NONE', *, *, #463, .F. ) ;
#532 = DIRECTION ( 'NONE',  ( -0.5000000000000008882, -0.8660254037844380415, 6.143007653609040251E-15 ) ) ;
#533 = EDGE_CURVE ( 'NONE', #79, #527, #774, .T. ) ;
#534 = PERSON_AND_ORGANIZATION ( #651, #366 ) ;
#535 = CARTESIAN_POINT ( 'NONE',  ( 21.88026253723691283, 14.36742453418654542, -12.99935497757370051 ) ) ;
#536 = CIRCLE ( 'NONE', #377, 1.200000000000015055 ) ;
#537 = CARTESIAN_POINT ( 'NONE',  ( 22.88026253723691283, 16.09947534175542216, -12.99935497757371294 ) ) ;
#538 = VERTEX_POINT ( 'NONE', #548 ) ;
#539 = CARTESIAN_POINT ( 'NONE',  ( 100.0000000000000000, -19.09188309203678813, -19.09188309203678813 ) ) ;
#540 = AXIS2_PLACEMENT_3D ( 'NONE', #1046, #552, #887 ) ;
#541 = DIRECTION ( 'NONE',  ( 0.8660254037844381525, -0.5000000000000007772, 0.000000000000000000 ) ) ;
#542 = ADVANCED_FACE ( 'NONE', ( #479 ), #980, .F. ) ;
#543 = ORIENTED_EDGE ( 'NONE', *, *, #114, .T. ) ;
#544 = AXIS2_PLACEMENT_3D ( 'NONE', #742, #994, #504 ) ;
#545 = CARTESIAN_POINT ( 'NONE',  ( 21.88026253723691283, 14.36742453418654542, -12.99935497757370051 ) ) ;
#546 = DIRECTION ( 'NONE',  ( 0.8660254037844377084, -0.5000000000000015543, 0.000000000000000000 ) ) ;
#547 = EDGE_CURVE ( 'NONE', #978, #747, #309, .T. ) ;
#548 = CARTESIAN_POINT ( 'NONE',  ( 22.53204475458781531, 16.89634445010822361, -12.99935497757371472 ) ) ;
#549 = ORIENTED_EDGE ( 'NONE', *, *, #932, .F. ) ;
#550 = AXIS2_PLACEMENT_3D ( 'NONE', #507, #105, #1001 ) ;
#551 = ORIENTED_EDGE ( 'NONE', *, *, #982, .F. ) ;
#552 = DIRECTION ( 'NONE',  ( 0.3855336798599465209, -0.2225879738488139026, -0.8954431168932664997 ) ) ;
#553 = DIRECTION ( 'NONE',  ( -0.5000000000000009992, -0.8660254037844381525, 6.143007653609041040E-15 ) ) ;
#554 = AXIS2_PLACEMENT_3D ( 'NONE', #1035, #864, #294 ) ;
#555 = EDGE_LOOP ( 'NONE', ( #688, #928 ) ) ;
#556 = ADVANCED_FACE ( 'NONE', ( #1053 ), #313, .T. ) ;
#557 = CARTESIAN_POINT ( 'NONE',  ( 84.31879374006662431, -19.93095224738913984, -11.23280832101609228 ) ) ;
#558 = CC_DESIGN_APPROVAL ( #901, ( #187 ) ) ;
#559 = DIRECTION ( 'NONE',  ( 0.5000000000000009992, 0.8660254037844380415, -6.143007653609039462E-15 ) ) ;
#560 = VERTEX_POINT ( 'NONE', #736 ) ;
#561 = DIRECTION ( 'NONE',  ( -0.5000000000000005551, -0.8660254037844382635, 0.000000000000000000 ) ) ;
#562 = CYLINDRICAL_SURFACE ( 'NONE', #357, 1.999999999999995781 ) ;
#563 = VERTEX_POINT ( 'NONE', #494 ) ;
#564 = EDGE_CURVE ( 'NONE', #948, #642, #92, .T. ) ;
#565 = DIRECTION ( 'NONE',  ( -0.5000000000000009992, -0.8660254037844381525, 5.995204332975845318E-15 ) ) ;
#566 = CARTESIAN_POINT ( 'NONE',  ( 65.47890411071426797, -10.80426291456292809, -48.98802909863650967 ) ) ;
#567 = ORIENTED_EDGE ( 'NONE', *, *, #533, .T. ) ;
#568 = VECTOR ( 'NONE', #367, 1000.000000000000227 ) ;
#569 = DIRECTION ( 'NONE',  ( -1.000000000000000000, -0.000000000000000000, -0.000000000000000000 ) ) ;
#570 = DIRECTION ( 'NONE',  ( -0.5000000000000011102, -0.8660254037844381525, 5.977335943528135588E-15 ) ) ;
#571 = EDGE_CURVE ( 'NONE', #870, #143, #17, .T. ) ;
#572 = DIRECTION ( 'NONE',  ( -0.7745966692414846255, 0.4472135954999568175, -0.4472135954999568175 ) ) ;
#573 = VECTOR ( 'NONE', #165, 1000.000000000000114 ) ;
#574 = EDGE_LOOP ( 'NONE', ( #100, #470 ) ) ;
#575 = ORIENTED_EDGE ( 'NONE', *, *, #82, .F. ) ;
#576 = CARTESIAN_POINT ( 'NONE',  ( 79.45733968543886760, -16.56531537972124823, -9.952055505674781699 ) ) ;
#577 = DIRECTION ( 'NONE',  ( -0.5000000000000011102, -0.8660254037844380415, 5.977335943528134799E-15 ) ) ;
#578 = CC_DESIGN_PERSON_AND_ORGANIZATION_ASSIGNMENT ( #46, #1000, ( #173 ) ) ;
#579 = VERTEX_POINT ( 'NONE', #829 ) ;
#580 = EDGE_LOOP ( 'NONE', ( #111, #788, #549, #61 ) ) ;
#581 = AXIS2_PLACEMENT_3D ( 'NONE', #719, #633, #893 ) ;
#582 = LINE ( 'NONE', #738, #349 ) ;
#583 = FACE_OUTER_BOUND ( 'NONE', #591, .T. ) ;
#584 = DIRECTION ( 'NONE',  ( 0.09238486345163665625, -0.05333842578285626079, -0.9942937439911956332 ) ) ;
#585 = ORIENTED_EDGE ( 'NONE', *, *, #811, .F. ) ;
#586 = EDGE_LOOP ( 'NONE', ( #242, #396 ) ) ;
#587 = EDGE_CURVE ( 'NONE', #1002, #563, #269, .T. ) ;
#588 = VECTOR ( 'NONE', #892, 1000.000000000000114 ) ;
#589 = APPLICATION_PROTOCOL_DEFINITION ( 'international standard', 'config_control_design', 1994, #795 ) ;
#590 = CARTESIAN_POINT ( 'NONE',  ( 82.96910309167182618, -17.99700744983628908, 8.674520339817888726 ) ) ;
#591 = EDGE_LOOP ( 'NONE', ( #68, #285, #525, #1042 ) ) ;
#592 =( GEOMETRIC_REPRESENTATION_CONTEXT ( 3 ) GLOBAL_UNCERTAINTY_ASSIGNED_CONTEXT ( ( #389 ) ) GLOBAL_UNIT_ASSIGNED_CONTEXT ( ( #600, #288, #40 ) ) REPRESENTATION_CONTEXT ( 'NONE', 'WORKASPACE' ) );
#593 = ORIENTED_EDGE ( 'NONE', *, *, #422, .F. ) ;
#594 = CC_DESIGN_PERSON_AND_ORGANIZATION_ASSIGNMENT ( #434, #863, ( #199 ) ) ;
#595 = FACE_BOUND ( 'NONE', #846, .T. ) ;
#596 = DIRECTION ( 'NONE',  ( 0.000000000000000000, -1.551108497285260326E-16, 1.000000000000000000 ) ) ;
#597 = FACE_OUTER_BOUND ( 'NONE', #1003, .T. ) ;
#598 = EDGE_LOOP ( 'NONE', ( #904, #883, #353, #52, #503, #444, #551, #567 ) ) ;
#599 = VERTEX_POINT ( 'NONE', #502 ) ;
#600 =( LENGTH_UNIT ( ) NAMED_UNIT ( * ) SI_UNIT ( .MILLI., .METRE. ) );
#601 = EDGE_CURVE ( 'NONE', #281, #325, #489, .T. ) ;
#602 = ADVANCED_FACE ( 'NONE', ( #750 ), #816, .T. ) ;
#603 = DIRECTION ( 'NONE',  ( -0.8660254037844389297, 0.4999999999999993339, -2.457524924300446004E-14 ) ) ;
#604 = ORIENTED_EDGE ( 'NONE', *, *, #601, .F. ) ;
#605 = DIRECTION ( 'NONE',  ( 0.8660254037844381525, -0.5000000000000008882, 0.000000000000000000 ) ) ;
#606 = APPLICATION_PROTOCOL_DEFINITION ( 'international standard', 'config_control_design', 1994, #620 ) ;
#607 = AXIS2_PLACEMENT_3D ( 'NONE', #437, #39, #605 ) ;
#608 = DIRECTION ( 'NONE',  ( -0.1333294081541368525, 0.07697776968867796332, -0.9880777762377940254 ) ) ;
#609 = FACE_OUTER_BOUND ( 'NONE', #1049, .T. ) ;
#610 = EDGE_LOOP ( 'NONE', ( #19, #206, #179, #317 ) ) ;
#611 = LINE ( 'NONE', #282, #409 ) ;
#612 = CARTESIAN_POINT ( 'NONE',  ( 12.94934295108998512, 22.42891991592170697, -1.502380195865616872E-13 ) ) ;
#613 = DIRECTION ( 'NONE',  ( -0.3855336798599138248, 0.2225879738487826776, -0.8954431168932883711 ) ) ;
#614 = EDGE_LOOP ( 'NONE', ( #107, #916, #10, #770 ) ) ;
#615 = EDGE_CURVE ( 'NONE', #737, #999, #926, .T. ) ;
#616 = LINE ( 'NONE', #360, #151 ) ;
#617 = CARTESIAN_POINT ( 'NONE',  ( 25.25328982363937769, 14.17053233858106154, -18.65809915122687457 ) ) ;
#618 = ORIENTED_EDGE ( 'NONE', *, *, #214, .T. ) ;
#619 = CARTESIAN_POINT ( 'NONE',  ( 20.14821172966803786, 15.36742453418654719, -12.99935497757370051 ) ) ;
#620 = APPLICATION_CONTEXT ( 'configuration controlled 3d designs of mechanical parts and assemblies' ) ;
#621 = EDGE_CURVE ( 'NONE', #497, #998, #338, .T. ) ;
#622 = LINE ( 'NONE', #1052, #1057 ) ;
#623 = LINE ( 'NONE', #352, #500 ) ;
#624 = ORIENTED_EDGE ( 'NONE', *, *, #744, .F. ) ;
#625 = CARTESIAN_POINT ( 'NONE',  ( 100.0000000000000000, 27.00000000000001776, 4.187992942670208871E-15 ) ) ;
#626 = PRODUCT_RELATED_PRODUCT_CATEGORY ( 'detail', '', ( #199 ) ) ;
#627 = AXIS2_PLACEMENT_3D ( 'NONE', #857, #1012, #426 ) ;
#628 = CARTESIAN_POINT ( 'NONE',  ( 81.79560827565687475, -17.91531537972126387, -9.952055505674781699 ) ) ;
#629 = LINE ( 'NONE', #977, #442 ) ;
#630 = EDGE_LOOP ( 'NONE', ( #593, #232, #666, #306 ) ) ;
#631 = ADVANCED_FACE ( 'NONE', ( #109 ), #920, .F. ) ;
#632 = CARTESIAN_POINT ( 'NONE',  ( 82.67485576886733156, -18.98182421718619395, -12.17653989337468090 ) ) ;
#633 = DIRECTION ( 'NONE',  ( -0.5000000000000008882, -0.8660254037844381525, 6.161737786669618799E-15 ) ) ;
#634 = EDGE_CURVE ( 'NONE', #599, #850, #914, .T. ) ;
#635 = VECTOR ( 'NONE', #836, 1000.000000000000000 ) ;
#636 = EDGE_LOOP ( 'NONE', ( #987, #845, #331, #255 ) ) ;
#637 = LINE ( 'NONE', #157, #405 ) ;
#638 = DIRECTION ( 'NONE',  ( 0.7754764868734883576, -0.4477215584466318621, 0.4451759476976172580 ) ) ;
#639 = CC_DESIGN_DATE_AND_TIME_ASSIGNMENT ( #34, #683, ( #173 ) ) ;
#640 = AXIS2_PLACEMENT_3D ( 'NONE', #460, #54, #135 ) ;
#641 = VECTOR ( 'NONE', #572, 1000.000000000000114 ) ;
#642 = VERTEX_POINT ( 'NONE', #404 ) ;
#643 = DIRECTION ( 'NONE',  ( 0.7754764868734882466, -0.4477215584466318066, 0.4451759476976176466 ) ) ;
#644 = LOCAL_TIME ( 4, 23, 10.00000000000000000, #268 ) ;
#645 = LINE ( 'NONE', #467, #184 ) ;
#646 = ORIENTED_EDGE ( 'NONE', *, *, #766, .T. ) ;
#647 = ADVANCED_FACE ( 'NONE', ( #908 ), #274, .F. ) ;
#648 = DIRECTION ( 'NONE',  ( -0.8660254037844389297, 0.4999999999999993339, 5.782411586589284669E-15 ) ) ;
#649 = LINE ( 'NONE', #727, #2 ) ;
#650 = ORIENTED_EDGE ( 'NONE', *, *, #73, .T. ) ;
#651 = PERSON ( 'UNSPECIFIED', 'UNSPECIFIED', 'UNSPECIFIED', ('UNSPECIFIED'), ('UNSPECIFIED'), ('UNSPECIFIED') ) ;
#652 = EDGE_CURVE ( 'NONE', #737, #95, #88, .T. ) ;
#653 = CARTESIAN_POINT ( 'NONE',  ( 23.48648031988602369, 15.74947534175541719, -12.99935497757371117 ) ) ;
#654 = CARTESIAN_POINT ( 'NONE',  ( 11.69134295108997712, 20.25000000000004263, 0.000000000000000000 ) ) ;
#655 = VERTEX_POINT ( 'NONE', #3 ) ;
#656 = VECTOR ( 'NONE', #458, 1000.000000000000000 ) ;
#657 = DIRECTION ( 'NONE',  ( -0.8610836411203163232, 0.4971468719955984827, -0.1066768515657000038 ) ) ;
#658 = DIRECTION ( 'NONE',  ( 0.8660254037844382635, -0.5000000000000006661, 0.000000000000000000 ) ) ;
#659 = ORIENTED_EDGE ( 'NONE', *, *, #258, .F. ) ;
#660 = AXIS2_PLACEMENT_3D ( 'NONE', #985, #570, #189 ) ;
#661 = CARTESIAN_POINT ( 'NONE',  ( 81.32675349102929374, -17.04879646580199193, -13.23747558504951094 ) ) ;
#662 = DIRECTION ( 'NONE',  ( -0.5000000000000011102, -0.8660254037844380415, 5.977335943528134799E-15 ) ) ;
#663 = DIRECTION ( 'NONE',  ( -0.8599345058162735089, 0.4964834184184754862, 0.1183928247066790285 ) ) ;
#664 = EDGE_CURVE ( 'NONE', #712, #400, #324, .T. ) ;
#665 = ORIENTED_EDGE ( 'NONE', *, *, #779, .F. ) ;
#666 = ORIENTED_EDGE ( 'NONE', *, *, #453, .T. ) ;
#667 = DIRECTION ( 'NONE',  ( 0.5000000000000008882, 0.8660254037844381525, -5.793907526276445539E-15 ) ) ;
#668 = CARTESIAN_POINT ( 'NONE',  ( 22.88026253723691283, 16.09947534175542216, -12.99935497757371117 ) ) ;
#669 = VERTEX_POINT ( 'NONE', #8 ) ;
#670 = ORIENTED_EDGE ( 'NONE', *, *, #506, .F. ) ;
#671 = VECTOR ( 'NONE', #41, 1000.000000000000000 ) ;
#672 = CARTESIAN_POINT ( 'NONE',  ( 23.61231334480578781, 13.36742453418654542, -12.99935497757370051 ) ) ;
#673 = CARTESIAN_POINT ( 'NONE',  ( 83.08317271035866725, -12.88518836079906826, -9.952055505674811897 ) ) ;
#674 = ORIENTED_EDGE ( 'NONE', *, *, #621, .F. ) ;
#675 = CIRCLE ( 'NONE', #383, 1.200000000000015055 ) ;
#676 = ORIENTED_EDGE ( 'NONE', *, *, #571, .T. ) ;
#677 = VECTOR ( 'NONE', #176, 1000.000000000000114 ) ;
#678 = FACE_OUTER_BOUND ( 'NONE', #598, .T. ) ;
#679 = DIRECTION ( 'NONE',  ( 0.7754764868734055350, -0.4477215584465900067, -0.4451759476978033869 ) ) ;
#680 = ORIENTED_EDGE ( 'NONE', *, *, #260, .T. ) ;
#681 = DIRECTION ( 'NONE',  ( 0.5000000000000009992, 0.8660254037844380415, -5.995204332975845318E-15 ) ) ;
#682 = AXIS2_PLACEMENT_3D ( 'NONE', #147, #804, #1058 ) ;
#683 = DATE_TIME_ROLE ( 'creation_date' ) ;
#684 = CIRCLE ( 'NONE', #433, 1.200000000000015055 ) ;
#685 = CARTESIAN_POINT ( 'NONE',  ( 78.91654741661398020, -15.65726333993585406, -14.62109687013940906 ) ) ;
#686 = EDGE_LOOP ( 'NONE', ( #122, #347, #604, #299 ) ) ;
#687 = DIRECTION ( 'NONE',  ( -0.5000000000000009992, -0.8660254037844380415, 6.143007653609040251E-15 ) ) ;
#688 = ORIENTED_EDGE ( 'NONE', *, *, #755, .F. ) ;
#689 = PRODUCT_DEFINITION_SHAPE ( 'NONE', 'NONE',  #173 ) ;
#690 = DIRECTION ( 'NONE',  ( -0.000000000000000000, 0.000000000000000000, 1.000000000000000000 ) ) ;
#691 = AXIS2_PLACEMENT_3D ( 'NONE', #786, #706, #546 ) ;
#692 = CIRCLE ( 'NONE', #202, 0.6999999999999975131 ) ;
#693 = EDGE_CURVE ( 'NONE', #42, #218, #330, .T. ) ;
#694 = DIRECTION ( 'NONE',  ( -0.5000000000000008882, -0.8660254037844380415, 6.143007653609040251E-15 ) ) ;
#695 = CARTESIAN_POINT ( 'NONE',  ( 19.70654647564530748, 18.52764664205049172, -15.18685953791497312 ) ) ;
#696 = VERTEX_POINT ( 'NONE', #178 ) ;
#697 = CARTESIAN_POINT ( 'NONE',  ( 19.70654647564530748, 18.52764664205049172, -15.18685953791497312 ) ) ;
#698 = AXIS2_PLACEMENT_3D ( 'NONE', #820, #1, #403 ) ;
#699 = APPROVAL_STATUS ( 'not_yet_approved' ) ;
#700 = MANIFOLD_SOLID_BREP ( 'Cut-Extrude18', #929 ) ;
#701 = CARTESIAN_POINT ( 'NONE',  ( 24.77404475458780908, 20.77960236067761812, -12.99935497757374137 ) ) ;
#702 = ORIENTED_EDGE ( 'NONE', *, *, #379, .F. ) ;
#703 = ADVANCED_FACE ( 'NONE', ( #745 ), #13, .F. ) ;
#704 = CARTESIAN_POINT ( 'NONE',  ( 24.61231334480578781, 15.09947534175542039, -12.99935497757371294 ) ) ;
#705 = EDGE_LOOP ( 'NONE', ( #861, #126, #414, #138 ) ) ;
#706 = DIRECTION ( 'NONE',  ( -0.5000000000000008882, -0.8660254037844381525, 6.161737786669618799E-15 ) ) ;
#707 = ORIENTED_EDGE ( 'NONE', *, *, #1017, .F. ) ;
#708 = FACE_BOUND ( 'NONE', #574, .T. ) ;
#709 = DIRECTION ( 'NONE',  ( -0.5000000000000009992, -0.8660254037844381525, 6.143007653609041040E-15 ) ) ;
#710 = AXIS2_PLACEMENT_3D ( 'NONE', #695, #613, #211 ) ;
#711 = CARTESIAN_POINT ( 'NONE',  ( 96.56274360871918816, -27.00000000000001066, -11.18376618407356737 ) ) ;
#712 = VERTEX_POINT ( 'NONE', #264 ) ;
#713 = DIRECTION ( 'NONE',  ( 0.7754764868734882466, -0.4477215584466318066, 0.4451759476976176466 ) ) ;
#714 = ADVANCED_FACE ( 'NONE', ( #583 ), #183, .F. ) ;
#715 = ADVANCED_FACE ( 'NONE', ( #428 ), #205, .F. ) ;
#716 = CIRCLE ( 'NONE', #698, 0.6999999999999975131 ) ;
#717 = CARTESIAN_POINT ( 'NONE',  ( 19.20654647564530748, 17.66162123826605068, -15.18685953791496779 ) ) ;
#718 = AXIS2_PLACEMENT_3D ( 'NONE', #421, #754, #345 ) ;
#719 = CARTESIAN_POINT ( 'NONE',  ( 81.18939049300774968, -17.56531537972124823, -9.952055505674781699 ) ) ;
#720 = EDGE_LOOP ( 'NONE', ( #702, #37, #55, #849 ) ) ;
#721 = ORIENTED_EDGE ( 'NONE', *, *, #302, .F. ) ;
#722 = LINE ( 'NONE', #239, #134 ) ;
#723 = DIRECTION ( 'NONE',  ( -1.000000000000000000, -0.000000000000000000, -0.000000000000000000 ) ) ;
#724 = ORIENTED_EDGE ( 'NONE', *, *, #587, .F. ) ;
#725 = LINE ( 'NONE', #1056, #729 ) ;
#726 = ADVANCED_FACE ( 'NONE', ( #198 ), #1007, .F. ) ;
#727 = CARTESIAN_POINT ( 'NONE',  ( 26.39655200392931178, 14.66517014941564234, -12.42840466888661055 ) ) ;
#728 = EDGE_LOOP ( 'NONE', ( #473, #191, #477, #15 ) ) ;
#729 = VECTOR ( 'NONE', #643, 1000.000000000000114 ) ;
#730 = FACE_OUTER_BOUND ( 'NONE', #728, .T. ) ;
#731 = LOCAL_TIME ( 4, 23, 10.00000000000000000, #215 ) ;
#732 = CARTESIAN_POINT ( 'NONE',  ( 47.52337180435969799, 1.312894512137235514, 2.053707801846551642E-14 ) ) ;
#733 = VERTEX_POINT ( 'NONE', #778 ) ;
#734 = EDGE_CURVE ( 'NONE', #965, #538, #909, .T. ) ;
#735 = CARTESIAN_POINT ( 'NONE',  ( 76.82278367499172589, -14.44842828009060476, 7.913072818604534930 ) ) ;
#736 = CARTESIAN_POINT ( 'NONE',  ( 82.92144130057661755, -18.56531537972124823, -9.952055505674781699 ) ) ;
#737 = VERTEX_POINT ( 'NONE', #119 ) ;
#738 = CARTESIAN_POINT ( 'NONE',  ( 19.70654647564530748, 18.52764664205049172, -15.18685953791497312 ) ) ;
#739 = VECTOR ( 'NONE', #146, 1000.000000000000000 ) ;
#740 = DIRECTION ( 'NONE',  ( -0.5000000000000011102, -0.8660254037844380415, 5.977335943528134799E-15 ) ) ;
#741 = EDGE_LOOP ( 'NONE', ( #267, #721, #185, #575, #659, #1036, #14 ) ) ;
#742 = CARTESIAN_POINT ( 'NONE',  ( 81.18939049300777810, -17.56531537972126245, -9.952055505674781699 ) ) ;
#743 = CARTESIAN_POINT ( 'NONE',  ( 23.74448031988604058, 16.19634445010821722, -12.99935497757371472 ) ) ;
#744 = EDGE_CURVE ( 'NONE', #712, #579, #194, .T. ) ;
#745 = FACE_OUTER_BOUND ( 'NONE', #801, .T. ) ;
#746 = LINE ( 'NONE', #174, #344 ) ;
#747 = VERTEX_POINT ( 'NONE', #941 ) ;
#748 = DIRECTION ( 'NONE',  ( -0.7745966692414847365, 0.4472135954999567620, -0.4472135954999567620 ) ) ;
#749 = DIRECTION ( 'NONE',  ( -1.194852825181515675E-14, 0.000000000000000000, -1.000000000000000000 ) ) ;
#750 = FACE_OUTER_BOUND ( 'NONE', #580, .T. ) ;
#751 = ORIENTED_EDGE ( 'NONE', *, *, #547, .T. ) ;
#752 = FACE_OUTER_BOUND ( 'NONE', #363, .T. ) ;
#753 = CALENDAR_DATE ( 2026, 7, 4 ) ;
#754 = DIRECTION ( 'NONE',  ( -0.5000000000000008882, -0.8660254037844380415, 6.143007653609040251E-15 ) ) ;
#755 = EDGE_CURVE ( 'NONE', #155, #599, #71, .T. ) ;
#756 = CARTESIAN_POINT ( 'NONE',  ( 0.000000000000000000, 27.00000000000001776, 4.187992942670208871E-15 ) ) ;
#757 = VERTEX_POINT ( 'NONE', #311 ) ;
#758 = ORIENTED_EDGE ( 'NONE', *, *, #56, .F. ) ;
#759 = VECTOR ( 'NONE', #943, 1000.000000000000000 ) ;
#760 = DIRECTION ( 'NONE',  ( -0.8660254037844381525, 0.5000000000000008882, 0.000000000000000000 ) ) ;
#761 = CARTESIAN_POINT ( 'NONE',  ( 100.0000000000000000, 4.187992942670204927E-15, -27.00000000000001066 ) ) ;
#762 = LINE ( 'NONE', #701, #568 ) ;
#763 = ORIENTED_EDGE ( 'NONE', *, *, #896, .T. ) ;
#764 = AXIS2_PLACEMENT_3D ( 'NONE', #612, #667, #760 ) ;
#765 = DIRECTION ( 'NONE',  ( -0.5000000000000017764, -0.8660254037844377084, 0.000000000000000000 ) ) ;
#766 = EDGE_CURVE ( 'NONE', #655, #783, #1040, .T. ) ;
#767 = VECTOR ( 'NONE', #398, 1000.000000000000000 ) ;
#768 = COORDINATED_UNIVERSAL_TIME_OFFSET ( 5, 0, .BEHIND. ) ;
#769 = LINE ( 'NONE', #876, #759 ) ;
#770 = ORIENTED_EDGE ( 'NONE', *, *, #200, .F. ) ;
#771 = LINE ( 'NONE', #292, #171 ) ;
#772 = ORIENTED_EDGE ( 'NONE', *, *, #974, .F. ) ;
#773 = EDGE_CURVE ( 'NONE', #143, #218, #216, .T. ) ;
#774 = CIRCLE ( 'NONE', #1015, 21.19836085000001091 ) ;
#775 = ORIENTED_EDGE ( 'NONE', *, *, #302, .T. ) ;
#776 = LINE ( 'NONE', #1029, #481 ) ;
#777 = MECHANICAL_CONTEXT ( 'NONE', #620, 'mechanical' ) ;
#778 = CARTESIAN_POINT ( 'NONE',  ( 30.42652055357335072, 11.18376618407357981, -27.00000000000000711 ) ) ;
#779 = EDGE_CURVE ( 'NONE', #1059, #212, #885, .T. ) ;
#780 = DIRECTION ( 'NONE',  ( 0.8660254037844381525, -0.5000000000000007772, 0.000000000000000000 ) ) ;
#781 = ORIENTED_EDGE ( 'NONE', *, *, #181, .F. ) ;
#782 = PLANE ( 'NONE',  #607 ) ;
#783 = VERTEX_POINT ( 'NONE', #632 ) ;
#784 = SECURITY_CLASSIFICATION ( '', '', #72 ) ;
#785 = CALENDAR_DATE ( 2026, 7, 4 ) ;
#786 = CARTESIAN_POINT ( 'NONE',  ( 80.18939049300774968, -19.29736618729012321, -9.952055505674769265 ) ) ;
#787 = CC_DESIGN_DATE_AND_TIME_ASSIGNMENT ( #459, #303, ( #784 ) ) ;
#788 = ORIENTED_EDGE ( 'NONE', *, *, #924, .T. ) ;
#789 = CARTESIAN_POINT ( 'NONE',  ( 84.29560827565687475, -13.58518836079907111, -9.952055505674811897 ) ) ;
#790 = CARTESIAN_POINT ( 'NONE',  ( 80.58317271035866725, -17.21531537972126458, -9.952055505674781699 ) ) ;
#791 = DIRECTION ( 'NONE',  ( 0.000000000000000000, -0.7071067811865474617, -0.7071067811865474617 ) ) ;
#792 = VERTEX_POINT ( 'NONE', #557 ) ;
#793 = EDGE_CURVE ( 'NONE', #930, #112, #637, .T. ) ;
#794 = CARTESIAN_POINT ( 'NONE',  ( 78.45733968543886760, -18.29736618729012321, -9.952055505674769265 ) ) ;
#795 = APPLICATION_CONTEXT ( 'configuration controlled 3d designs of mechanical parts and assemblies' ) ;
#796 = EDGE_CURVE ( 'NONE', #112, #757, #1019, .T. ) ;
#797 = DIRECTION ( 'NONE',  ( -0.1333294081541368525, 0.07697776968867796332, -0.9880777762377940254 ) ) ;
#798 = VECTOR ( 'NONE', #638, 1000.000000000000000 ) ;
#799 = DIRECTION ( 'NONE',  ( -0.5000000000000008882, -0.8660254037844381525, 6.050715484207103145E-15 ) ) ;
#800 = VERTEX_POINT ( 'NONE', #628 ) ;
#801 = EDGE_LOOP ( 'NONE', ( #498, #385, #29, #436 ) ) ;
#802 = DIRECTION ( 'NONE',  ( 0.5000000000000009992, 0.8660254037844381525, -5.995204332975845318E-15 ) ) ;
#803 = AXIS2_PLACEMENT_3D ( 'NONE', #761, #596, #356 ) ;
#804 = DIRECTION ( 'NONE',  ( -0.5000000000000011102, -0.8660254037844381525, 5.977335943528135588E-15 ) ) ;
#805 = EDGE_LOOP ( 'NONE', ( #209, #670, #854, #116 ) ) ;
#806 = DIRECTION ( 'NONE',  ( -0.8660254037844379305, 0.5000000000000012212, 0.000000000000000000 ) ) ;
#807 = CARTESIAN_POINT ( 'NONE',  ( 78.91654741661398020, -15.65726333993585406, -14.62109687013940906 ) ) ;
#808 = ORIENTED_EDGE ( 'NONE', *, *, #70, .F. ) ;
#809 = DIRECTION ( 'NONE',  ( -0.5000000000000011102, -0.8660254037844380415, 5.977335943528134799E-15 ) ) ;
#810 = FACE_OUTER_BOUND ( 'NONE', #388, .T. ) ;
#811 = EDGE_CURVE ( 'NONE', #1065, #737, #875, .T. ) ;
#812 = VECTOR ( 'NONE', #1033, 1000.000000000000114 ) ;
#813 = ORIENTED_EDGE ( 'NONE', *, *, #533, .F. ) ;
#814 = CARTESIAN_POINT ( 'NONE',  ( 83.23536288423868257, -18.15073261274927674, -12.58002564965451597 ) ) ;
#815 = AXIS2_PLACEMENT_3D ( 'NONE', #16, #397, #182 ) ;
#816 = CYLINDRICAL_SURFACE ( 'NONE', #660, 1.200000000000015055 ) ;
#817 = VECTOR ( 'NONE', #1006, 1000.000000000000227 ) ;
#818 = ORIENTED_EDGE ( 'NONE', *, *, #73, .F. ) ;
#819 = CIRCLE ( 'NONE', #961, 1.200000000000015055 ) ;
#820 = CARTESIAN_POINT ( 'NONE',  ( 81.18939049300777810, -17.56531537972126245, -9.952055505674781699 ) ) ;
#821 = CARTESIAN_POINT ( 'NONE',  ( 93.53074360871929116, -27.00000000000001066, 7.948138304959302470E-14 ) ) ;
#822 = VECTOR ( 'NONE', #21, 1000.000000000000000 ) ;
#823 = DIRECTION ( 'NONE',  ( 0.000000000000000000, -1.551108497285261312E-16, 1.000000000000000000 ) ) ;
#824 = ORIENTED_EDGE ( 'NONE', *, *, #942, .F. ) ;
#825 = EDGE_CURVE ( 'NONE', #376, #865, #832, .T. ) ;
#826 = CARTESIAN_POINT ( 'NONE',  ( 20.53298087063356192, 18.05050452163649766, -9.062318294452735401 ) ) ;
#827 = ADVANCED_FACE ( 'NONE', ( #315 ), #141, .F. ) ;
#828 = CARTESIAN_POINT ( 'NONE',  ( 81.69613239969733343, -18.41675801653370925, -12.58002564965451064 ) ) ;
#829 = CARTESIAN_POINT ( 'NONE',  ( 19.70654647564530748, 18.52764664205049172, -15.18685953791497312 ) ) ;
#830 = CARTESIAN_POINT ( 'NONE',  ( 12.69134295108997890, 21.98205080756892116, -1.563639945845070330E-13 ) ) ;
#831 = ORIENTED_EDGE ( 'NONE', *, *, #56, .T. ) ;
#832 = CIRCLE ( 'NONE', #44, 1.999999999999998668 ) ;
#833 = AXIS2_PLACEMENT_3D ( 'NONE', #830, #265, #844 ) ;
#834 = VERTEX_POINT ( 'NONE', #966 ) ;
#835 = LINE ( 'NONE', #976, #1028 ) ;
#836 = DIRECTION ( 'NONE',  ( 0.09238486345163493541, -0.05333842578285526853, -0.9942937439911958553 ) ) ;
#837 = CARTESIAN_POINT ( 'NONE',  ( 28.86665377800825638, 13.23905622522521597, -36.96965314312470952 ) ) ;
#838 = ORIENTED_EDGE ( 'NONE', *, *, #136, .T. ) ;
#839 = LINE ( 'NONE', #20, #87 ) ;
#840 = APPROVAL_ROLE ( '' ) ;
#841 = EDGE_CURVE ( 'NONE', #63, #359, #454, .T. ) ;
#842 = DIRECTION ( 'NONE',  ( 1.221718812435014543E-14, -1.551108497285261312E-16, 1.000000000000000000 ) ) ;
#843 = DIRECTION ( 'NONE',  ( 0.8660254037844368202, -0.5000000000000031086, 0.000000000000000000 ) ) ;
#844 = DIRECTION ( 'NONE',  ( 0.8660254037844381525, -0.5000000000000008882, 0.000000000000000000 ) ) ;
#845 = ORIENTED_EDGE ( 'NONE', *, *, #136, .F. ) ;
#846 = EDGE_LOOP ( 'NONE', ( #223, #148, #763, #899, #1021, #676, #266 ) ) ;
#847 = CALENDAR_DATE ( 2026, 7, 4 ) ;
#848 = EDGE_CURVE ( 'NONE', #281, #424, #622, .T. ) ;
#849 = ORIENTED_EDGE ( 'NONE', *, *, #474, .F. ) ;
#850 = VERTEX_POINT ( 'NONE', #790 ) ;
#851 = CIRCLE ( 'NONE', #219, 0.7000000000000051736 ) ;
#852 = DIRECTION ( 'NONE',  ( 0.5000000000000008882, 0.8660254037844382635, -5.793907526276447116E-15 ) ) ;
#853 = FACE_OUTER_BOUND ( 'NONE', #614, .T. ) ;
#854 = ORIENTED_EDGE ( 'NONE', *, *, #318, .F. ) ;
#855 = AXIS2_PLACEMENT_3D ( 'NONE', #440, #690, #511 ) ;
#856 = DIRECTION ( 'NONE',  ( -0.8660254037844379305, 0.5000000000000012212, 0.000000000000000000 ) ) ;
#857 = CARTESIAN_POINT ( 'NONE',  ( 12.44934295108998157, 21.56289451213725883, -1.490711415861457460E-13 ) ) ;
#858 = DIRECTION ( 'NONE',  ( -0.5000000000000011102, -0.8660254037844380415, 5.977335943528134799E-15 ) ) ;
#859 = ORIENTED_EDGE ( 'NONE', *, *, #615, .F. ) ;
#860 = PLANE ( 'NONE',  #903 ) ;
#861 = ORIENTED_EDGE ( 'NONE', *, *, #755, .T. ) ;
#862 = EDGE_CURVE ( 'NONE', #978, #733, #969, .T. ) ;
#863 = PERSON_AND_ORGANIZATION_ROLE ( 'design_owner' ) ;
#864 = DIRECTION ( 'NONE',  ( -0.5000000000000011102, -0.8660254037844381525, 5.977335943528135588E-15 ) ) ;
#865 = VERTEX_POINT ( 'NONE', #962 ) ;
#866 = DIRECTION ( 'NONE',  ( 0.7754764868735043448, -0.4477215584466473497, -0.4451759476975736263 ) ) ;
#867 = PERSON_AND_ORGANIZATION ( #651, #366 ) ;
#868 = CARTESIAN_POINT ( 'NONE',  ( 22.88026253723691283, 16.09947534175542216, -12.99935497757371294 ) ) ;
#869 = DIRECTION ( 'NONE',  ( -0.5000000000000009992, -0.8660254037844381525, 6.143007653609041040E-15 ) ) ;
#870 = VERTEX_POINT ( 'NONE', #234 ) ;
#871 = AXIS2_PLACEMENT_3D ( 'NONE', #471, #709, #466 ) ;
#872 = CARTESIAN_POINT ( 'NONE',  ( 78.41654741661398020, -16.52328874372030043, -14.62109687013940729 ) ) ;
#873 = AXIS2_PLACEMENT_3D ( 'NONE', #354, #681, #108 ) ;
#874 = ADVANCED_FACE ( 'NONE', ( #475 ), #956, .F. ) ;
#875 = LINE ( 'NONE', #370, #237 ) ;
#876 = CARTESIAN_POINT ( 'NONE',  ( 28.86665377800825638, 13.23905622522521597, -36.96965314312470952 ) ) ;
#877 = EDGE_LOOP ( 'NONE', ( #314, #618, #250, #624 ) ) ;
#878 = DIRECTION ( 'NONE',  ( -0.5000000000000008882, -0.8660254037844380415, 6.143007653609040251E-15 ) ) ;
#879 = COORDINATED_UNIVERSAL_TIME_OFFSET ( 5, 0, .BEHIND. ) ;
#880 = AXIS2_PLACEMENT_3D ( 'NONE', #897, #900, #493 ) ;
#881 = CARTESIAN_POINT ( 'NONE',  ( 25.75328982363937769, 15.03655774236549902, -18.65809915122688167 ) ) ;
#882 = CARTESIAN_POINT ( 'NONE',  ( 28.36665377800825638, 12.37303082144077848, -36.96965314312470241 ) ) ;
#883 = ORIENTED_EDGE ( 'NONE', *, *, #942, .T. ) ;
#884 = EDGE_CURVE ( 'NONE', #696, #359, #390, .T. ) ;
#885 = CIRCLE ( 'NONE', #98, 1.999999999999998668 ) ;
#886 = PERSON_AND_ORGANIZATION_ROLE ( 'classification_officer' ) ;
#887 = DIRECTION ( 'NONE',  ( -0.9184855229425061829, 0.000000000000000000, -0.3954546044048937725 ) ) ;
#888 = DIRECTION ( 'NONE',  ( 0.8660254037844377084, -0.5000000000000015543, 0.000000000000000000 ) ) ;
#889 = ORIENTED_EDGE ( 'NONE', *, *, #615, .T. ) ;
#890 = EDGE_CURVE ( 'NONE', #400, #696, #722, .T. ) ;
#891 = LOCAL_TIME ( 4, 23, 10.00000000000000000, #768 ) ;
#892 = DIRECTION ( 'NONE',  ( -0.5000000000000011102, -0.8660254037844380415, 5.977335943528134799E-15 ) ) ;
#893 = DIRECTION ( 'NONE',  ( 0.8660254037844377084, -0.5000000000000015543, 0.000000000000000000 ) ) ;
#894 = LINE ( 'NONE', #321, #939 ) ;
#895 = ORIENTED_EDGE ( 'NONE', *, *, #796, .F. ) ;
#896 = EDGE_CURVE ( 'NONE', #783, #792, #725, .T. ) ;
#897 = CARTESIAN_POINT ( 'NONE',  ( 25.38026253723691994, 20.42960236067761315, -12.99935497757374137 ) ) ;
#898 = CARTESIAN_POINT ( 'NONE',  ( 100.0000000000000000, 19.09188309203679168, -19.09188309203679168 ) ) ;
#899 = ORIENTED_EDGE ( 'NONE', *, *, #499, .F. ) ;
#900 = DIRECTION ( 'NONE',  ( -0.5000000000000008882, -0.8660254037844380415, 6.143007653609040251E-15 ) ) ;
#901 = APPROVAL ( #188, 'UNSPECIFIED' ) ;
#902 = DIRECTION ( 'NONE',  ( 0.5000000000000008882, 0.8660254037844381525, -6.161737786669618799E-15 ) ) ;
#903 = AXIS2_PLACEMENT_3D ( 'NONE', #539, #204, #1022 ) ;
#904 = ORIENTED_EDGE ( 'NONE', *, *, #227, .F. ) ;
#905 = PLANE ( 'NONE',  #1008 ) ;
#906 = AXIS2_PLACEMENT_3D ( 'NONE', #81, #96, #252 ) ;
#907 = ADVANCED_FACE ( 'NONE', ( #66 ), #380, .T. ) ;
#908 = FACE_OUTER_BOUND ( 'NONE', #805, .T. ) ;
#909 = CIRCLE ( 'NONE', #1045, 0.7000000000000051736 ) ;
#910 = ADVANCED_FACE ( 'NONE', ( #730 ), #319, .F. ) ;
#911 = ORIENTED_EDGE ( 'NONE', *, *, #483, .F. ) ;
#912 = CARTESIAN_POINT ( 'NONE',  ( 84.81879374006662431, -19.06492684360469880, -11.23280832101609761 ) ) ;
#913 = DIRECTION ( 'NONE',  ( -1.000000000000000000, -0.000000000000000000, -0.000000000000000000 ) ) ;
#914 = LINE ( 'NONE', #673, #817 ) ;
#915 = PLANE ( 'NONE',  #833 ) ;
#916 = ORIENTED_EDGE ( 'NONE', *, *, #181, .T. ) ;
#917 = EDGE_CURVE ( 'NONE', #290, #783, #684, .T. ) ;
#918 = ORIENTED_EDGE ( 'NONE', *, *, #439, .F. ) ;
#919 = CARTESIAN_POINT ( 'NONE',  ( 93.53074360871916326, -27.00000000000001066, -11.18376618407356737 ) ) ;
#920 = CYLINDRICAL_SURFACE ( 'NONE', #718, 0.7000000000000051736 ) ;
#921 = VERTEX_POINT ( 'NONE', #103 ) ;
#922 = VECTOR ( 'NONE', #59, 1000.000000000000114 ) ;
#923 = VERTEX_POINT ( 'NONE', #478 ) ;
#924 = EDGE_CURVE ( 'NONE', #163, #290, #91, .T. ) ;
#925 = CALENDAR_DATE ( 2026, 7, 4 ) ;
#926 = LINE ( 'NONE', #821, #435 ) ;
#927 = DIRECTION ( 'NONE',  ( -0.9184855229425062939, 0.000000000000000000, -0.3954546044048933839 ) ) ;
#928 = ORIENTED_EDGE ( 'NONE', *, *, #167, .F. ) ;
#929 = CLOSED_SHELL ( 'NONE', ( #361, #874, #602, #715, #910, #401, #1038, #542, #64, #827, #631, #714, #518, #726, #128, #416, #348, #907, #1018, #230, #945, #18, #647, #703, #339, #6, #1054, #515, #247, #329, #150, #556, #1066 ) ) ;
#930 = VERTEX_POINT ( 'NONE', #576 ) ;
#931 = PLANE ( 'NONE',  #764 ) ;
#932 = EDGE_CURVE ( 'NONE', #218, #290, #675, .T. ) ;
#933 = ORIENTED_EDGE ( 'NONE', *, *, #312, .F. ) ;
#934 = FACE_OUTER_BOUND ( 'NONE', #973, .T. ) ;
#935 = DIRECTION ( 'NONE',  ( 0.000000000000000000, 0.000000000000000000, 1.000000000000000000 ) ) ;
#936 = CARTESIAN_POINT ( 'NONE',  ( 20.03298087063356192, 17.18447911785205662, -9.062318294452731848 ) ) ;
#937 = ORIENTED_EDGE ( 'NONE', *, *, #982, .T. ) ;
#938 = CARTESIAN_POINT ( 'NONE',  ( 100.0000000000000000, 27.00000000000001776, 0.000000000000000000 ) ) ;
#939 = VECTOR ( 'NONE', #399, 1000.000000000000227 ) ;
#940 = PERSON_AND_ORGANIZATION ( #651, #366 ) ;
#941 = CARTESIAN_POINT ( 'NONE',  ( 66.13622305514545019, -11.18376618407356560, -27.00000000000001066 ) ) ;
#942 = EDGE_CURVE ( 'NONE', #95, #512, #244, .T. ) ;
#943 = DIRECTION ( 'NONE',  ( 0.7754764868734883576, -0.4477215584466318621, 0.4451759476976172580 ) ) ;
#944 = EDGE_LOOP ( 'NONE', ( #781, #933, #480, #368 ) ) ;
#945 = ADVANCED_FACE ( 'NONE', ( #161 ), #905, .F. ) ;
#946 = CARTESIAN_POINT ( 'NONE',  ( 82.92144130057661755, -18.56531537972124823, -9.952055505674781699 ) ) ;
#947 = CARTESIAN_POINT ( 'NONE',  ( 82.73536288423866836, -19.01675801653371778, -12.58002564965451064 ) ) ;
#948 = VERTEX_POINT ( 'NONE', #653 ) ;
#949 = DIRECTION ( 'NONE',  ( -0.5000000000000011102, -0.8660254037844380415, 5.977335943528134799E-15 ) ) ;
#950 = PERSON_AND_ORGANIZATION ( #651, #366 ) ;
#951 = DIRECTION ( 'NONE',  ( 0.7754764868734055350, -0.4477215584465900067, -0.4451759476978033869 ) ) ;
#952 = ORIENTED_EDGE ( 'NONE', *, *, #963, .T. ) ;
#953 = DIRECTION ( 'NONE',  ( -0.5000000000000009992, -0.8660254037844381525, 5.995204332975845318E-15 ) ) ;
#954 = EDGE_CURVE ( 'NONE', #512, #999, #337, .T. ) ;
#955 = VECTOR ( 'NONE', #858, 1000.000000000000114 ) ;
#956 = CYLINDRICAL_SURFACE ( 'NONE', #871, 1.999999999999995781 ) ;
#957 = CARTESIAN_POINT ( 'NONE',  ( 82.19613239969733343, -17.55073261274927177, -12.58002564965451597 ) ) ;
#958 = ORIENTED_EDGE ( 'NONE', *, *, #924, .F. ) ;
#959 = CARTESIAN_POINT ( 'NONE',  ( 25.98648031988603080, 20.07960236067761173, -12.99935497757374137 ) ) ;
#960 = VECTOR ( 'NONE', #979, 1000.000000000000114 ) ;
#961 = AXIS2_PLACEMENT_3D ( 'NONE', #373, #953, #1037 ) ;
#962 = CARTESIAN_POINT ( 'NONE',  ( 24.61231334480578781, 15.09947534175542039, -12.99935497757371294 ) ) ;
#963 = EDGE_CURVE ( 'NONE', #560, #930, #27, .T. ) ;
#964 = PLANE ( 'NONE',  #45 ) ;
#965 = VERTEX_POINT ( 'NONE', #743 ) ;
#966 = CARTESIAN_POINT ( 'NONE',  ( 25.89655200392931178, 13.79914474563120486, -12.42840466888660522 ) ) ;
#967 = CARTESIAN_POINT ( 'NONE',  ( 31.07037663211116296, 11.96673624218953513, -42.08803466030801133 ) ) ;
#968 = ORIENTED_EDGE ( 'NONE', *, *, #652, .F. ) ;
#969 = LINE ( 'NONE', #77, #739 ) ;
#970 = AXIS2_PLACEMENT_3D ( 'NONE', #523, #802, #806 ) ;
#971 = AXIS2_PLACEMENT_3D ( 'NONE', #217, #49, #455 ) ;
#972 = DIRECTION ( 'NONE',  ( -0.8660254037844380415, 0.5000000000000009992, 0.000000000000000000 ) ) ;
#973 = EDGE_LOOP ( 'NONE', ( #1009, #277, #287, #25 ) ) ;
#974 = EDGE_CURVE ( 'NONE', #733, #923, #415, .T. ) ;
#975 = APPROVAL_PERSON_ORGANIZATION ( #133, #528, #452 ) ;
#976 = CARTESIAN_POINT ( 'NONE',  ( 100.0000000000000000, 27.00000000000001776, -11.18376618407356737 ) ) ;
#977 = CARTESIAN_POINT ( 'NONE',  ( 25.89655200392931178, 13.79914474563120486, -12.42840466888660522 ) ) ;
#978 = VERTEX_POINT ( 'NONE', #394 ) ;
#979 = DIRECTION ( 'NONE',  ( 0.5000000000000011102, 0.8660254037844380415, -5.977335943528134799E-15 ) ) ;
#980 = CYLINDRICAL_SURFACE ( 'NONE', #682, 21.19836085000000381 ) ;
#981 = EDGE_LOOP ( 'NONE', ( #958, #775, #646, #486 ) ) ;
#982 = EDGE_CURVE ( 'NONE', #79, #998, #1062, .T. ) ;
#983 = DIRECTION ( 'NONE',  ( -0.8660254037844389297, 0.4999999999999993339, -1.590163186312053185E-14 ) ) ;
#984 = EDGE_CURVE ( 'NONE', #563, #79, #170, .T. ) ;
#985 = CARTESIAN_POINT ( 'NONE',  ( 82.19613239969733343, -17.55073261274927177, -12.58002564965451597 ) ) ;
#986 = CIRCLE ( 'NONE', #971, 1.999999999999998668 ) ;
#987 = ORIENTED_EDGE ( 'NONE', *, *, #571, .F. ) ;
#988 = DIRECTION ( 'NONE',  ( -1.000000000000000000, -0.000000000000000000, -0.000000000000000000 ) ) ;
#989 = APPROVAL_PERSON_ORGANIZATION ( #940, #408, #529 ) ;
#990 = DIRECTION ( 'NONE',  ( -0.9184855229424293555, 0.000000000000000000, 0.3954546044050720188 ) ) ;
#991 = VECTOR ( 'NONE', #608, 1000.000000000000341 ) ;
#992 = CARTESIAN_POINT ( 'NONE',  ( 12.44934295108998157, 21.56289451213725883, 0.000000000000000000 ) ) ;
#993 = ORIENTED_EDGE ( 'NONE', *, *, #811, .T. ) ;
#994 = DIRECTION ( 'NONE',  ( 0.5000000000000008882, 0.8660254037844381525, -6.161737786669618799E-15 ) ) ;
#995 = CARTESIAN_POINT ( 'NONE',  ( 3.032000000000159456, 27.00000000000001776, 0.000000000000000000 ) ) ;
#996 = DIRECTION ( 'NONE',  ( -0.5000000000000016653, -0.8660254037844377084, 0.000000000000000000 ) ) ;
#997 = EDGE_CURVE ( 'NONE', #579, #696, #582, .T. ) ;
#998 = VERTEX_POINT ( 'NONE', #995 ) ;
#999 = VERTEX_POINT ( 'NONE', #919 ) ;
#1000 = PERSON_AND_ORGANIZATION_ROLE ( 'creator' ) ;
#1001 = DIRECTION ( 'NONE',  ( 1.000000000000000000, 0.000000000000000000, 0.000000000000000000 ) ) ;
#1002 = VERTEX_POINT ( 'NONE', #248 ) ;
#1003 = EDGE_LOOP ( 'NONE', ( #1048, #50, #94, #838 ) ) ;
#1004 = EDGE_CURVE ( 'NONE', #850, #800, #716, .T. ) ;
#1005 = CARTESIAN_POINT ( 'NONE',  ( 0.000000000000000000, 0.000000000000000000, 0.000000000000000000 ) ) ;
#1006 = DIRECTION ( 'NONE',  ( -0.5000000000000008882, -0.8660254037844380415, 6.143007653609040251E-15 ) ) ;
#1007 = PLANE ( 'NONE',  #803 ) ;
#1008 = AXIS2_PLACEMENT_3D ( 'NONE', #86, #657, #561 ) ;
#1009 = ORIENTED_EDGE ( 'NONE', *, *, #890, .F. ) ;
#1010 = CIRCLE ( 'NONE', #544, 0.6999999999999975131 ) ;
#1011 = ORIENTED_EDGE ( 'NONE', *, *, #766, .F. ) ;
#1012 = DIRECTION ( 'NONE',  ( -0.5000000000000009992, -0.8660254037844380415, 5.977335943528133221E-15 ) ) ;
#1013 = CARTESIAN_POINT ( 'NONE',  ( 22.88026253723691283, 16.09947534175542216, -12.99935497757371117 ) ) ;
#1014 = ORIENTED_EDGE ( 'NONE', *, *, #272, .T. ) ;
#1015 = AXIS2_PLACEMENT_3D ( 'NONE', #732, #229, #391 ) ;
#1016 = LINE ( 'NONE', #912, #677 ) ;
#1017 = EDGE_CURVE ( 'NONE', #538, #965, #169, .T. ) ;
#1018 = ADVANCED_FACE ( 'NONE', ( #328 ), #482, .T. ) ;
#1019 = CIRCLE ( 'NONE', #691, 1.999999999999995781 ) ;
#1020 = CYLINDRICAL_SURFACE ( 'NONE', #115, 1.999999999999998668 ) ;
#1021 = ORIENTED_EDGE ( 'NONE', *, *, #438, .F. ) ;
#1022 = DIRECTION ( 'NONE',  ( 0.000000000000000000, -0.7071067811865474617, 0.7071067811865474617 ) ) ;
#1023 = EDGE_LOOP ( 'NONE', ( #650, #993, #456, #175 ) ) ;
#1024 = VECTOR ( 'NONE', #508, 1000.000000000000114 ) ;
#1025 = FACE_BOUND ( 'NONE', #69, .T. ) ;
#1026 = CARTESIAN_POINT ( 'NONE',  ( 84.25570819111479182, -18.73982925034053082, -5.172590037003369723 ) ) ;
#1027 = ORIENTED_EDGE ( 'NONE', *, *, #439, .T. ) ;
#1028 = VECTOR ( 'NONE', #988, 1000.000000000000000 ) ;
#1029 = CARTESIAN_POINT ( 'NONE',  ( 31.07037663211116296, 11.96673624218953513, -42.08803466030801133 ) ) ;
#1030 = FACE_OUTER_BOUND ( 'NONE', #462, .T. ) ;
#1031 = ORIENTED_EDGE ( 'NONE', *, *, #896, .F. ) ;
#1032 = EDGE_CURVE ( 'NONE', #497, #669, #835, .T. ) ;
#1033 = DIRECTION ( 'NONE',  ( -0.5000000000000009992, -0.8660254037844380415, 6.143007653609040251E-15 ) ) ;
#1034 = DIRECTION ( 'NONE',  ( -0.5000000000000011102, -0.8660254037844380415, 5.977335943528134799E-15 ) ) ;
#1035 = CARTESIAN_POINT ( 'NONE',  ( 82.19613239969733343, -17.55073261274927177, -12.58002564965451597 ) ) ;
#1036 = ORIENTED_EDGE ( 'NONE', *, *, #291, .T. ) ;
#1037 = DIRECTION ( 'NONE',  ( -0.8660254037844389297, 0.4999999999999993339, 4.336808689941963305E-15 ) ) ;
#1038 = ADVANCED_FACE ( 'NONE', ( #257, #595, #678 ), #522, .F. ) ;
#1039 = AXIS2_PLACEMENT_3D ( 'NONE', #545, #464, #43 ) ;
#1040 = LINE ( 'NONE', #297, #588 ) ;
#1041 = FACE_OUTER_BOUND ( 'NONE', #630, .T. ) ;
#1042 = ORIENTED_EDGE ( 'NONE', *, *, #1004, .F. ) ;
#1043 = LINE ( 'NONE', #992, #1024 ) ;
#1044 = VECTOR ( 'NONE', #569, 1000.000000000000000 ) ;
#1045 = AXIS2_PLACEMENT_3D ( 'NONE', #351, #852, #48 ) ;
#1046 = CARTESIAN_POINT ( 'NONE',  ( 31.07037663211116296, 11.96673624218953513, -42.08803466030801133 ) ) ;
#1047 = PLANE ( 'NONE',  #145 ) ;
#1048 = ORIENTED_EDGE ( 'NONE', *, *, #438, .T. ) ;
#1049 = EDGE_LOOP ( 'NONE', ( #724, #393, #276, #517, #758, #859, #585, #918 ) ) ;
#1050 = APPROVAL_DATE_TIME ( #343, #901 ) ;
#1051 = VECTOR ( 'NONE', #476, 1000.000000000000000 ) ;
#1052 = CARTESIAN_POINT ( 'NONE',  ( 84.25570819111479182, -18.73982925034053082, -5.172590037003369723 ) ) ;
#1053 = FACE_OUTER_BOUND ( 'NONE', #1023, .T. ) ;
#1054 = ADVANCED_FACE ( 'NONE', ( #1025, #278 ), #931, .T. ) ;
#1055 = ORIENTED_EDGE ( 'NONE', *, *, #984, .T. ) ;
#1056 = CARTESIAN_POINT ( 'NONE',  ( 30.57037663211116296, 11.10071083840509765, -42.08803466030800422 ) ) ;
#1057 = VECTOR ( 'NONE', #153, 1000.000000000000114 ) ;
#1058 = DIRECTION ( 'NONE',  ( 0.8660254037844381525, -0.5000000000000011102, 0.000000000000000000 ) ) ;
#1059 = VERTEX_POINT ( 'NONE', #672 ) ;
#1060 = VECTOR ( 'NONE', #74, 1000.000000000000114 ) ;
#1061 = APPROVAL_PERSON_ORGANIZATION ( #283, #901, #840 ) ;
#1062 = LINE ( 'NONE', #333, #573 ) ;
#1063 = VECTOR ( 'NONE', #286, 1000.000000000000114 ) ;
#1064 = CARTESIAN_POINT ( 'NONE',  ( 11.69134295108997712, 20.25000000000004263, -1.436400184590273476E-13 ) ) ;
#1065 = VERTEX_POINT ( 'NONE', #192 ) ;
#1066 = ADVANCED_FACE ( 'NONE', ( #505 ), #26, .T. ) ;
ENDSEC;
END-ISO-10303-21;
